<svg xmlns="http://www.w3.org/2000/svg" xmlns:xlink="http://www.w3.org/1999/xlink" width="106.16" height="106.16" viewBox="0 0 106.16 106.16">
  <defs>
    <filter id="Trazado_982547" x="0" y="0" width="106.16" height="106.16" filterUnits="userSpaceOnUse">
      <feOffset dy="3" input="SourceAlpha"/>
      <feGaussianBlur stdDeviation="3" result="blur"/>
      <feFlood flood-opacity="0.161"/>
      <feComposite operator="in" in2="blur"/>
      <feComposite in="SourceGraphic"/>
    </filter>
  </defs>
  <g id="Grupo_1234989" data-name="Grupo 1234989" transform="translate(-819.17 -3117.593)">
    <g id="Grupo_1233885" data-name="Grupo 1233885" transform="translate(828.17 3123.593)">
      <g id="Grupo_1228507" data-name="Grupo 1228507" transform="translate(0 0)">
        <g id="Grupo_1206132" data-name="Grupo 1206132">
          <g id="Grupo_1203794" data-name="Grupo 1203794">
            <g id="Grupo_1203345" data-name="Grupo 1203345" transform="translate(0 0)">
              <g id="Grupo_1177900" data-name="Grupo 1177900">
                <g id="Grupo_1172010" data-name="Grupo 1172010" transform="translate(0)">
                  <g id="Grupo_1171046" data-name="Grupo 1171046">
                    <g id="Grupo_1148525" data-name="Grupo 1148525">
                      <g transform="matrix(1, 0, 0, 1, -9, -6)" filter="url(#Trazado_982547)">
                        <g id="Trazado_982547-2" data-name="Trazado 982547" transform="translate(9 6)" fill="#e9f9fd">
                          <path d="M 44.0802001953125 86.660400390625 C 38.33124923706055 86.660400390625 32.75506210327148 85.53479766845703 27.50652503967285 83.31484985351562 C 22.43628692626953 81.17032623291016 17.88242530822754 78.09992218017578 13.97144985198975 74.18894958496094 C 10.06047534942627 70.27797698974609 6.99007511138916 65.72411346435547 4.845550060272217 60.65387344360352 C 2.625600099563599 55.40533828735352 1.500000238418579 49.82915115356445 1.500000238418579 44.0802001953125 C 1.500000238418579 38.33124923706055 2.625600099563599 32.75506210327148 4.845550060272217 27.50652503967285 C 6.99007511138916 22.43628692626953 10.06047534942627 17.88242530822754 13.97144985198975 13.97144985198975 C 17.88242530822754 10.06047534942627 22.43628692626953 6.99007511138916 27.50652503967285 4.845550060272217 C 32.75506210327148 2.625600099563599 38.33124923706055 1.500000238418579 44.0802001953125 1.500000238418579 C 49.82915115356445 1.500000238418579 55.40533828735352 2.625600099563599 60.65387344360352 4.845550060272217 C 65.72411346435547 6.99007511138916 70.27797698974609 10.06047534942627 74.18894958496094 13.97144985198975 C 78.09992218017578 17.88242530822754 81.17032623291016 22.43628692626953 83.31484985351562 27.50652503967285 C 85.53479766845703 32.75506210327148 86.660400390625 38.33124923706055 86.660400390625 44.0802001953125 C 86.660400390625 49.82915115356445 85.53479766845703 55.40533828735352 83.31484985351562 60.65387344360352 C 81.17032623291016 65.72411346435547 78.09992218017578 70.27797698974609 74.18894958496094 74.18894958496094 C 70.27797698974609 78.09992218017578 65.72411346435547 81.17032623291016 60.65387344360352 83.31484985351562 C 55.40533828735352 85.53479766845703 49.82915115356445 86.660400390625 44.0802001953125 86.660400390625 Z" stroke="none"/>
                          <path d="M 44.0802001953125 3 C 38.53308486938477 3 33.15349960327148 4.085746765136719 28.09085845947266 6.227058410644531 C 23.19941711425781 8.29595947265625 18.80581665039062 11.25841522216797 15.03211212158203 15.03211212158203 C 11.25841522216797 18.80581665039062 8.29595947265625 23.19941711425781 6.227058410644531 28.09085845947266 C 4.085746765136719 33.15349960327148 3 38.53308486938477 3 44.0802001953125 C 3 49.62731552124023 4.085746765136719 55.00691604614258 6.227058410644531 60.06954193115234 C 8.29595947265625 64.96098327636719 11.25841522216797 69.35458374023438 15.03211212158203 73.12828826904297 C 18.80581665039062 76.90198516845703 23.19941711425781 79.86444091796875 28.09085845947266 81.93334197998047 C 33.15349960327148 84.07466125488281 38.53308486938477 85.160400390625 44.0802001953125 85.160400390625 C 49.62731552124023 85.160400390625 55.00691604614258 84.07466125488281 60.06954193115234 81.93334197998047 C 64.96099853515625 79.86444091796875 69.35458374023438 76.90198516845703 73.12828826904297 73.12828826904297 C 76.90198516845703 69.35458374023438 79.86444091796875 64.96099853515625 81.93334197998047 60.06954193115234 C 84.07466125488281 55.00691604614258 85.160400390625 49.62731552124023 85.160400390625 44.0802001953125 C 85.160400390625 38.53308486938477 84.07466125488281 33.15349960327148 81.93334197998047 28.09085845947266 C 79.86444091796875 23.19941711425781 76.90198516845703 18.80581665039062 73.12828826904297 15.03211212158203 C 69.35458374023438 11.25841522216797 64.96098327636719 8.29595947265625 60.06954193115234 6.227058410644531 C 55.00691604614258 4.085746765136719 49.62731552124023 3 44.0802001953125 3 M 44.0802001953125 0 C 68.42502593994141 0 88.160400390625 19.73538970947266 88.160400390625 44.0802001953125 C 88.160400390625 68.42502593994141 68.42502593994141 88.160400390625 44.0802001953125 88.160400390625 C 19.73538970947266 88.160400390625 0 68.42502593994141 0 44.0802001953125 C 0 19.73538970947266 19.73538970947266 0 44.0802001953125 0 Z" stroke="none" fill="#1d7083"/>
                        </g>
                      </g>
                    </g>
                  </g>
                </g>
              </g>
            </g>
          </g>
        </g>
      </g>
    </g>
    <g id="grupo_3_" data-name="grupo (3)" transform="translate(843.583 3138.783)">
      <path id="Trazado_1236229" data-name="Trazado 1236229" d="M33.512,21.4a8.784,8.784,0,1,0-14.965-.024,2.838,2.838,0,0,0,2.417,1.356H31.11a2.822,2.822,0,0,0,2.4-1.331Zm0,0" transform="translate(-15.322 -6.662)" fill="#c47a4a"/>
      <path id="Trazado_1236230" data-name="Trazado 1236230" d="M94.747,21.395a2.822,2.822,0,0,1-2.4,1.332H90.217a2.822,2.822,0,0,0,2.4-1.332A8.786,8.786,0,0,0,86.211,8.062a8.785,8.785,0,0,1,9.843,8.524,8.75,8.75,0,0,1-1.307,4.809Zm0,0" transform="translate(-76.557 -6.659)" fill="#b26944"/>
      <path id="Trazado_1236231" data-name="Trazado 1236231" d="M55.169,85.226a5.11,5.11,0,0,1-5.11-5.11V75.461a2.214,2.214,0,0,1,2.215-2.214h5.791a2.214,2.214,0,0,1,2.214,2.214v4.655a5.109,5.109,0,0,1-5.11,5.11Zm0,0" transform="translate(-44.453 -64.601)" fill="#fdd1a7"/>
      <path id="Trazado_1236232" data-name="Trazado 1236232" d="M50.121,62.457c-.795,6.018-8.176,4.868-8.176,4.868V62.457Zm0,0" transform="translate(-37.249 -55.02)" fill="#c47a4a"/>
      <path id="Trazado_1236233" data-name="Trazado 1236233" d="M25.989,338.348A8.784,8.784,0,1,0,8.752,338.3a2.8,2.8,0,0,1-.565,2.314,3.028,3.028,0,0,0,2.34,4.95h13.7a3.028,3.028,0,0,0,2.34-4.95,2.735,2.735,0,0,1-.574-2.266Zm0,0" transform="translate(-6.66 -290.684)" fill="#ff5a96"/>
      <path id="Trazado_1236234" data-name="Trazado 1236234" d="M98.2,342.536a3.029,3.029,0,0,1-3.028,3.029H93.327a3.028,3.028,0,0,0,2.34-4.951,2.732,2.732,0,0,1-.574-2.266,8.787,8.787,0,0,0-7.695-10.46,8.935,8.935,0,0,1,1.39-.036,8.787,8.787,0,0,1,8.153,10.5,2.732,2.732,0,0,0,.574,2.266,3.014,3.014,0,0,1,.688,1.922Zm0,0" transform="translate(-77.612 -290.685)" fill="#ff3b82"/>
      <path id="Trazado_1236235" data-name="Trazado 1236235" d="M55.169,405.062a5.11,5.11,0,0,1-5.11-5.11V395.3a2.215,2.215,0,0,1,2.215-2.215h5.791a2.214,2.214,0,0,1,2.214,2.215v4.655a5.109,5.109,0,0,1-5.11,5.11Zm0,0" transform="translate(-44.453 -348.62)" fill="#fdd1a7"/>
      <path id="Trazado_1236236" data-name="Trazado 1236236" d="M50.121,382.293c-.795,6.019-8.176,4.869-8.176,4.869v-4.869Zm0,0" transform="translate(-37.249 -339.039)" fill="#ff5a96"/>
      <path id="Trazado_1236237" data-name="Trazado 1236237" d="M354.134,21.4a8.783,8.783,0,1,0-14.965-.024,2.839,2.839,0,0,0,2.417,1.356h10.146a2.824,2.824,0,0,0,2.4-1.332Zm0,0" transform="translate(-300.039 -6.662)" fill="#756f6f"/>
      <path id="Trazado_1236238" data-name="Trazado 1236238" d="M415.365,21.395a2.822,2.822,0,0,1-2.4,1.332h-2.128a2.819,2.819,0,0,0,2.4-1.332,8.785,8.785,0,0,0-6.408-13.333,8.785,8.785,0,0,1,9.844,8.524A8.746,8.746,0,0,1,415.365,21.395Zm0,0" transform="translate(-361.271 -6.659)" fill="#5b5555"/>
      <path id="Trazado_1236239" data-name="Trazado 1236239" d="M375.786,85.226a5.11,5.11,0,0,1-5.11-5.11V75.461a2.214,2.214,0,0,1,2.215-2.214h5.791a2.214,2.214,0,0,1,2.215,2.214v4.655A5.11,5.11,0,0,1,375.786,85.226Zm0,0" transform="translate(-329.167 -64.601)" fill="#fdd1a7"/>
      <path id="Trazado_1236240" data-name="Trazado 1236240" d="M370.742,62.457c-.795,6.018-8.176,4.868-8.176,4.868V62.457Zm0,0" transform="translate(-321.965 -55.02)" fill="#756f6f"/>
      <path id="Trazado_1236241" data-name="Trazado 1236241" d="M346.607,338.348a8.784,8.784,0,1,0-17.237-.048,2.8,2.8,0,0,1-.565,2.314,3.027,3.027,0,0,0,2.34,4.95h13.7a3.028,3.028,0,0,0,2.34-4.95A2.735,2.735,0,0,1,346.607,338.348Zm0,0" transform="translate(-291.374 -290.684)" fill="#ffa730"/>
      <path id="Trazado_1236242" data-name="Trazado 1236242" d="M418.824,342.536a3.029,3.029,0,0,1-3.028,3.029h-1.848a3.028,3.028,0,0,0,2.34-4.951,2.73,2.73,0,0,1-.574-2.266,8.793,8.793,0,0,0-7.694-10.46,8.934,8.934,0,0,1,1.39-.036,8.792,8.792,0,0,1,8.152,10.5,2.73,2.73,0,0,0,.574,2.266,3.013,3.013,0,0,1,.688,1.922Zm0,0" transform="translate(-362.329 -290.685)" fill="#fa8916"/>
      <path id="Trazado_1236243" data-name="Trazado 1236243" d="M375.786,405.062a5.11,5.11,0,0,1-5.11-5.11V395.3a2.215,2.215,0,0,1,2.215-2.215h5.791A2.215,2.215,0,0,1,380.9,395.3v4.655A5.11,5.11,0,0,1,375.786,405.062Zm0,0" transform="translate(-329.167 -348.62)" fill="#fdd1a7"/>
      <path id="Trazado_1236244" data-name="Trazado 1236244" d="M370.742,382.293c-.795,6.019-8.176,4.869-8.176,4.869v-4.869Zm0,0" transform="translate(-321.965 -339.039)" fill="#ffa730"/>
      <path id="Trazado_1236245" data-name="Trazado 1236245" d="M219.169,233h-14a1.174,1.174,0,0,0-1.174,1.174v7.586a1.174,1.174,0,0,0,1.174,1.174h7.659v.987a1.174,1.174,0,0,0,1.965.868l2.034-1.854h2.345a1.174,1.174,0,0,0,1.174-1.174V234.17A1.174,1.174,0,0,0,219.169,233Zm0,0" transform="translate(-181.149 -206.461)" fill="#00c2f8"/>
      <path id="Trazado_1236246" data-name="Trazado 1236246" d="M322.3,234.17v7.586a1.174,1.174,0,0,1-1.173,1.174h-2.319a1.174,1.174,0,0,0,1.173-1.174V234.17A1.174,1.174,0,0,0,318.809,233h2.319A1.174,1.174,0,0,1,322.3,234.17Zm0,0" transform="translate(-283.108 -206.461)" fill="#00abef"/>
      <path id="Trazado_1236247" data-name="Trazado 1236247" d="M163.174,167.027h11.889a1.174,1.174,0,0,1,1.174,1.174v6.53a1.174,1.174,0,0,1-1.174,1.174H172.3v1.325a1.174,1.174,0,0,1-1.968.864l-2.382-2.189h-4.779A1.174,1.174,0,0,1,162,174.731V168.2A1.174,1.174,0,0,1,163.174,167.027Zm0,0" transform="translate(-143.859 -147.879)" fill="#ffb54e"/>
      <path id="Trazado_1236248" data-name="Trazado 1236248" d="M259.965,168.206v6.53a1.174,1.174,0,0,1-1.174,1.174h-2.505a1.174,1.174,0,0,0,1.174-1.174v-6.53a1.174,1.174,0,0,0-1.174-1.174h2.505A1.174,1.174,0,0,1,259.965,168.206Zm0,0" transform="translate(-227.586 -147.884)" fill="#ff9a1b"/>
      <path id="Trazado_1236249" data-name="Trazado 1236249" d="M56.456,49.4a1.881,1.881,0,0,1-.4-1.569A9.625,9.625,0,0,0,50.412,37.1a23.319,23.319,0,0,0-.175-16.866,5.959,5.959,0,0,0,2.183-3.4,3.639,3.639,0,0,0,2.388-1.656,9.59,9.59,0,0,0-.447-10.751.84.84,0,0,0-1.351,1,7.91,7.91,0,0,1,.37,8.869,1.962,1.962,0,0,1-.811.731V10.86a3.057,3.057,0,0,0-3-3.053q.022-.129.039-.26a.84.84,0,0,0-1.665-.22,4.306,4.306,0,0,1-3.1,3.8A9.671,9.671,0,0,1,41,11.507a.84.84,0,0,0-.331,1.638v1.877a2,2,0,0,1-.824-.751A7.944,7.944,0,0,1,46.81,2.182a7.793,7.793,0,0,1,3.55.943.84.84,0,1,0,.8-1.478A9.622,9.622,0,0,0,37.4,7.352a23.291,23.291,0,0,0-17.47,0,9.622,9.622,0,1,0-17.42,7.8,3.663,3.663,0,0,0,2.405,1.682,5.963,5.963,0,0,0,2.183,3.4A23.319,23.319,0,0,0,6.922,37.1a9.555,9.555,0,0,0-2.1,1.235.84.84,0,1,0,1.03,1.327A7.946,7.946,0,0,1,18.505,47.5a3.557,3.557,0,0,0,.749,2.965,2.16,2.16,0,0,1,.5,1.388,2.191,2.191,0,0,1-2.188,2.188H16.01a5.908,5.908,0,0,0,.655-2.709V46.677a3.057,3.057,0,0,0-3-3.053c.014-.086.028-.172.04-.26a.84.84,0,0,0-1.665-.22A4.3,4.3,0,0,1,10.373,46.2c-2.122,1.594-5.515,1.1-5.548,1.093a.84.84,0,0,0-.259,1.66c.019,0,.088.014.2.026v2.353A5.908,5.908,0,0,0,5.42,54.04H3.868a2.191,2.191,0,0,1-2.188-2.188,2.16,2.16,0,0,1,.5-1.388,3.625,3.625,0,0,0,.741-3.008,7.987,7.987,0,0,1-.145-1.517,7.859,7.859,0,0,1,.845-3.568.84.84,0,1,0-1.5-.756A9.526,9.526,0,0,0,1.092,45.94a9.663,9.663,0,0,0,.176,1.837A1.953,1.953,0,0,1,.879,49.4,3.868,3.868,0,0,0,3.868,55.72H6.7a5.937,5.937,0,0,0,8.026,0h2.835a3.863,3.863,0,0,0,3.758-4.779,23.339,23.339,0,0,0,14.693,0,3.863,3.863,0,0,0,3.758,4.779h2.835a5.937,5.937,0,0,0,8.026,0h2.835A3.868,3.868,0,0,0,56.456,49.4ZM6.445,51.331V49.045a8.72,8.72,0,0,0,4.929-1.5,5.646,5.646,0,0,0,1.8-2.247h.44a1.376,1.376,0,0,1,1.375,1.375v4.655a4.27,4.27,0,1,1-8.541,0Zm38.95-38.621a5.977,5.977,0,0,0,3.679-3.225h.441a1.376,1.376,0,0,1,1.375,1.374v4.655a4.27,4.27,0,0,1-8.541,0V13.228a10.4,10.4,0,0,0,3.046-.517ZM3.941,14.272a7.944,7.944,0,1,1,13.535.022,1.963,1.963,0,0,1-.811.732V10.86a3.057,3.057,0,0,0-3-3.053q.021-.129.039-.26a.84.84,0,0,0-1.665-.22,4.306,4.306,0,0,1-3.1,3.8,9.671,9.671,0,0,1-3.847.385.84.84,0,0,0-.331,1.638v1.878a2,2,0,0,1-.825-.752Zm2.5,1.243V13.228a10.4,10.4,0,0,0,3.046-.517A5.977,5.977,0,0,0,13.17,9.485h.441a1.376,1.376,0,0,1,1.374,1.374v4.655a4.27,4.27,0,1,1-8.54,0Zm13.749,33.2a1.863,1.863,0,0,1-.042-.889A9.615,9.615,0,0,0,8.52,36.573a21.638,21.638,0,0,1,.056-15.508,5.944,5.944,0,0,0,7.941-4.231A3.634,3.634,0,0,0,18.9,15.178a9.589,9.589,0,0,0,1.432-5.268c-.006-.3-.027-.59-.06-.881a21.614,21.614,0,0,1,16.783,0A9.746,9.746,0,0,0,37,10.122a9.6,9.6,0,0,0,1.418,5.028,3.665,3.665,0,0,0,2.4,1.683,5.945,5.945,0,0,0,7.94,4.232,21.635,21.635,0,0,1,.057,15.506A9.622,9.622,0,0,0,37,45.939a9.667,9.667,0,0,0,.176,1.837,2.032,2.032,0,0,1-.039.944,21.616,21.616,0,0,1-16.939,0ZM46.619,55.6a4.275,4.275,0,0,1-4.27-4.27V49.045a8.72,8.72,0,0,0,4.929-1.5,5.647,5.647,0,0,0,1.8-2.247h.44a1.376,1.376,0,0,1,1.375,1.375v4.655a4.275,4.275,0,0,1-4.27,4.27Zm6.848-1.562H51.914a5.908,5.908,0,0,0,.655-2.709V46.677a3.057,3.057,0,0,0-3-3.053c.014-.086.028-.172.04-.26a.84.84,0,0,0-1.665-.22A4.3,4.3,0,0,1,46.277,46.2c-2.122,1.594-5.515,1.1-5.548,1.093a.84.84,0,0,0-.259,1.66c.019,0,.088.014.2.026v2.353a5.908,5.908,0,0,0,.655,2.709H39.771a2.191,2.191,0,0,1-2.188-2.188,2.16,2.16,0,0,1,.5-1.388,3.627,3.627,0,0,0,.741-3.007,7.992,7.992,0,0,1-.145-1.517,7.944,7.944,0,0,1,8.362-7.933A7.949,7.949,0,0,1,54.409,47.5a3.557,3.557,0,0,0,.749,2.964,2.162,2.162,0,0,1,.5,1.388,2.191,2.191,0,0,1-2.188,2.188Zm0,0" transform="translate(0 0)"/>
      <path id="Trazado_1236250" data-name="Trazado 1236250" d="M177.233,176.519v-7.586a2.016,2.016,0,0,0-2.014-2.014h-4.8v-5.373a2.016,2.016,0,0,0-2.014-2.014H156.514a2.016,2.016,0,0,0-2.014,2.014v6.53a2.016,2.016,0,0,0,2.014,2.014H159.2v6.43a2.016,2.016,0,0,0,2.014,2.014h1.6a.84.84,0,0,0,0-1.68h-1.6a.334.334,0,0,1-.334-.334v-6.43h.083l2.141,1.968a1.993,1.993,0,0,0,1.354.535,2.03,2.03,0,0,0,.819-.175,1.988,1.988,0,0,0,1.2-1.844v-.485h1.92a2.015,2.015,0,0,0,1.943-1.491h4.873a.334.334,0,0,1,.334.334v7.586a.334.334,0,0,1-.334.334h-2.345a.841.841,0,0,0-.566.219l-2.033,1.855a.334.334,0,0,1-.559-.247v-.987a.84.84,0,0,0-.84-.84h-2.2a.84.84,0,0,0,0,1.68h1.356v.147a1.989,1.989,0,0,0,1.2,1.842,2.028,2.028,0,0,0,.822.175,1.994,1.994,0,0,0,1.349-.53l1.793-1.635h2.02a2.016,2.016,0,0,0,2.014-2.014Zm-8.5-8.444a.334.334,0,0,1-.334.334h-2.76a.84.84,0,0,0-.84.84v1.325a.334.334,0,0,1-.56.246l-2.382-2.189a.84.84,0,0,0-.569-.222h-4.779a.334.334,0,0,1-.334-.334v-6.53a.334.334,0,0,1,.334-.334H168.4a.334.334,0,0,1,.334.334v6.53Zm0,0" transform="translate(-137.199 -141.223)"/>
      <path id="Trazado_1236251" data-name="Trazado 1236251" d="M197.2,199.172h-4.178a.84.84,0,1,0,0,1.68H197.2a.84.84,0,0,0,0-1.68Zm0,0" transform="translate(-170.663 -176.425)"/>
      <path id="Trazado_1236252" data-name="Trazado 1236252" d="M277.817,271.532a.84.84,0,0,0,0-1.68h-3.947a.84.84,0,0,0,0,1.68Zm0,0" transform="translate(-242.456 -239.19)"/>
    </g>
  </g>
</svg>
