<svg xmlns="http://www.w3.org/2000/svg" xmlns:xlink="http://www.w3.org/1999/xlink" width="103" height="103" viewBox="0 0 103 103">
  <defs>
    <filter id="Trazado_978624" x="0" y="0" width="103" height="103" filterUnits="userSpaceOnUse">
      <feOffset dy="3" input="SourceAlpha"/>
      <feGaussianBlur stdDeviation="3" result="blur"/>
      <feFlood flood-opacity="0.161"/>
      <feComposite operator="in" in2="blur"/>
      <feComposite in="SourceGraphic"/>
    </filter>
  </defs>
  <g id="Grupo_1235051" data-name="Grupo 1235051" transform="translate(-171 -5648.159)">
    <g id="Grupo_1233893" data-name="Grupo 1233893" transform="translate(0 4056.159)">
      <g id="Grupo_1228308" data-name="Grupo 1228308" transform="translate(0 579)">
        <g id="Grupo_1220654" data-name="Grupo 1220654" transform="translate(180 1019)">
          <g id="Grupo_1176881" data-name="Grupo 1176881">
            <g id="Grupo_1175148" data-name="Grupo 1175148">
              <g id="Grupo_1173798" data-name="Grupo 1173798">
                <g id="Grupo_1171925" data-name="Grupo 1171925">
                  <g id="Grupo_1164524" data-name="Grupo 1164524">
                    <g id="Grupo_1144123" data-name="Grupo 1144123">
                      <g transform="matrix(1, 0, 0, 1, -9, -6)" filter="url(#Trazado_978624)">
                        <g id="Trazado_978624-2" data-name="Trazado 978624" transform="translate(9 6)" fill="#e9f9fd">
                          <path d="M 42.5 83.5 C 36.96437835693359 83.5 31.59512901306152 82.41617584228516 26.54141235351562 80.27863311767578 C 21.65934181213379 78.21369171142578 17.27447128295898 75.25723266601562 13.50862312316895 71.49137878417969 C 9.742764472961426 67.72553253173828 6.786305904388428 63.34066009521484 4.721364498138428 58.45858764648438 C 2.583823442459106 53.40486907958984 1.5 48.03562164306641 1.5 42.5 C 1.5 36.96437835693359 2.583823442459106 31.59512901306152 4.721364498138428 26.54141235351562 C 6.786305904388428 21.65934181213379 9.742764472961426 17.27447128295898 13.50862312316895 13.50862312316895 C 17.27447128295898 9.742764472961426 21.65934181213379 6.786305904388428 26.54141235351562 4.721364498138428 C 31.59512901306152 2.583823442459106 36.96437835693359 1.5 42.5 1.5 C 48.03562164306641 1.5 53.40486907958984 2.583823442459106 58.45858764648438 4.721364498138428 C 63.34066009521484 6.786305904388428 67.72553253173828 9.742764472961426 71.49137878417969 13.50862312316895 C 75.25723266601562 17.27447128295898 78.21369171142578 21.65934181213379 80.27863311767578 26.54141235351562 C 82.41617584228516 31.59512901306152 83.5 36.96437835693359 83.5 42.5 C 83.5 48.03562164306641 82.41617584228516 53.40486907958984 80.27863311767578 58.45858764648438 C 78.21369171142578 63.34066009521484 75.25723266601562 67.72553253173828 71.49137878417969 71.49137878417969 C 67.72553253173828 75.25723266601562 63.34066009521484 78.21369171142578 58.45858764648438 80.27863311767578 C 53.40486907958984 82.41617584228516 48.03562164306641 83.5 42.5 83.5 Z" stroke="none"/>
                          <path d="M 42.5 3 C 37.16621398925781 3 31.99356079101562 4.043960571289062 27.125732421875 6.102882385253906 C 22.42246627807617 8.092185974121094 18.19785308837891 10.94070434570312 14.56928253173828 14.56928253173828 C 10.94070434570312 18.19785308837891 8.092185974121094 22.42246627807617 6.102882385253906 27.125732421875 C 4.043960571289062 31.99356079101562 3 37.16621398925781 3 42.5 C 3 47.83378601074219 4.043960571289062 53.00643920898438 6.102882385253906 57.87425231933594 C 8.092185974121094 62.57753372192383 10.94070434570312 66.80213165283203 14.56928253173828 70.43071746826172 C 18.19786834716797 74.05929565429688 22.42246627807617 76.90781402587891 27.125732421875 78.89711761474609 C 31.99356079101562 80.95603942871094 37.16621398925781 82 42.5 82 C 47.83378601074219 82 53.00642395019531 80.95603942871094 57.87425231933594 78.89711761474609 C 62.57753372192383 76.90781402587891 66.80213165283203 74.05929565429688 70.43071746826172 70.43071746826172 C 74.05929565429688 66.80213165283203 76.90781402587891 62.57753372192383 78.89711761474609 57.87425231933594 C 80.95603942871094 53.00642395019531 82 47.83378601074219 82 42.5 C 82 37.16621398925781 80.95603942871094 31.99356079101562 78.89711761474609 27.125732421875 C 76.90781402587891 22.42246627807617 74.05929565429688 18.19786834716797 70.43071746826172 14.56928253173828 C 66.80213165283203 10.94070434570312 62.57753372192383 8.092185974121094 57.87425231933594 6.102882385253906 C 53.00643920898438 4.043960571289062 47.83378601074219 3 42.5 3 M 42.5 0 C 65.97209167480469 0 85 19.02789306640625 85 42.5 C 85 65.97209167480469 65.97209167480469 85 42.5 85 C 19.02789306640625 85 0 65.97209167480469 0 42.5 C 0 19.02789306640625 19.02789306640625 0 42.5 0 Z" stroke="none" fill="#36ceef"/>
                        </g>
                      </g>
                    </g>
                  </g>
                </g>
              </g>
            </g>
          </g>
        </g>
      </g>
    </g>
    <g id="rse" transform="translate(189.452 5664.469)">
      <g id="Grupo_1235050" data-name="Grupo 1235050" transform="translate(5.613 4.649)">
        <path id="Trazado_1236407" data-name="Trazado 1236407" d="M16.158,190.61l.381-9.92c.086-2.209-3.351-2.52-3.7-.333L11.033,191.7a6.644,6.644,0,0,0,1.847,5.95l8.66,8.66a3.55,3.55,0,0,1,1.06,2.831l-.108,1.545H34.773l-.086-7.045a6.248,6.248,0,0,0-1.869-4.513l-2.551-2.551a6.1,6.1,0,0,0-2.859-1.65l-1.234-.33-5.649-5.652a2.565,2.565,0,0,0-4.367,1.669Z" transform="translate(-10.933 -159.961)" fill="#e2b698" fill-rule="evenodd"/>
        <path id="Trazado_1236408" data-name="Trazado 1236408" d="M26.529,190.619l.381-9.92a1.772,1.772,0,0,0-1.942-1.822,1.732,1.732,0,0,0-.451.943l-1.806,11.339a6.651,6.651,0,0,0,1.844,5.95l8.66,8.66a3.744,3.744,0,0,1,1.06,2.831l-.025,2.091H45.145l-.086-7.045a6.248,6.248,0,0,0-1.869-4.513l-2.551-2.551a6.1,6.1,0,0,0-2.859-1.65l-1.234-.33L30.9,188.95a2.565,2.565,0,0,0-4.367,1.669Z" transform="translate(-21.304 -159.97)" fill="#efc9ae" fill-rule="evenodd"/>
        <path id="Trazado_1236409" data-name="Trazado 1236409" d="M103,463.214h12.443a1.323,1.323,0,0,0,1.32-1.32v-2.253a1.323,1.323,0,0,0-1.32-1.317H103.005a1.322,1.322,0,0,0-1.317,1.317v2.253a1.323,1.323,0,0,0,1.317,1.32Z" transform="translate(-91.528 -408.134)" fill="#1b6fab" fill-rule="evenodd"/>
        <path id="Trazado_1236410" data-name="Trazado 1236410" d="M126.094,463.214h11.028a1.323,1.323,0,0,0,1.32-1.32v-2.253a1.323,1.323,0,0,0-1.32-1.317H126.154l-.06,4.89Z" transform="translate(-113.202 -408.134)" fill="#3589c9" fill-rule="evenodd"/>
        <path id="Trazado_1236411" data-name="Trazado 1236411" d="M124.147,43.1a17.738,17.738,0,1,1,6.49-24.229,17.737,17.737,0,0,1-6.49,24.229Z" transform="translate(-87.841 -9.994)" fill="#00ade6" fill-rule="evenodd"/>
        <path id="Trazado_1236412" data-name="Trazado 1236412" d="M146,43.527a17.659,17.659,0,0,1-7.473,2.326,17.741,17.741,0,0,1-.038-35.374A17.74,17.74,0,0,1,146,43.527Z" transform="translate(-109.692 -10.425)" fill="#11bef7" fill-rule="evenodd"/>
        <path id="Trazado_1236413" data-name="Trazado 1236413" d="M198.383,10.019a17.735,17.735,0,0,1,16.194,8.854,17.194,17.194,0,0,1,1.006,2.028c.444,2.447-1.146,4.538-3.694.127-1.088-1.888-2.2-2.875-3.408-.1-1.615,3.7-.85,3.906-6.014,5.188-1.622.4-1.91-.625-2.161-2.015-.825-4.614-1.136-4.652-4.31-3.9-4.17.984-5.119-4.214-2.412-4.852,8.714-2.044,2.951-2.517,4.8-5.325Z" transform="translate(-171.782 -9.999)" fill="#0f9347" fill-rule="evenodd"/>
        <path id="Trazado_1236414" data-name="Trazado 1236414" d="M200.577,10.479a17.713,17.713,0,0,1,14,8.819,17.2,17.2,0,0,1,1.006,2.028c.444,2.447-1.146,4.538-3.694.127-1.089-1.888-2.2-2.875-3.408-.1-1.615,3.7-.85,3.906-6.014,5.188-1.622.4-1.91-.625-2.161-2.015-.825-4.614-1.136-4.652-4.31-3.9-4.17.984-5.119-4.214-2.412-4.852,8.292-1.945,3.475-2.469,4.579-4.931a17.908,17.908,0,0,1,2.412-.359Z" transform="translate(-171.783 -10.425)" fill="#3cb54b" fill-rule="evenodd"/>
        <path id="Trazado_1236415" data-name="Trazado 1236415" d="M100.434,81.742c1.165,1.063,6.82,6.429,5.334,8.114l3.653,6.629a17.427,17.427,0,0,1,1.127,3.71c.552,2,1.076,3.83,1.86,4.678,1.111,1.206-1.165,1.771-1.961,3.643a17.739,17.739,0,0,1-10.012-26.774Z" transform="translate(-87.846 -73.71)" fill="#0f9347" fill-rule="evenodd"/>
        <path id="Trazado_1236416" data-name="Trazado 1236416" d="M124.049,97.077c1.993,2.047,4.64,5.182,3.567,6.4l3.653,6.629a17.426,17.426,0,0,1,1.127,3.71c.552,2,1.076,3.83,1.86,4.678.933,1.009-.517,1.571-1.479,2.831a17.739,17.739,0,0,1-8.727-24.245Z" transform="translate(-109.694 -87.328)" fill="#3cb54b" fill-rule="evenodd"/>
        <path id="Trazado_1236417" data-name="Trazado 1236417" d="M307.076,183.434c-3.957,2.285-4.084-3.789-2.885-6.886,1.025-2.647,3.707-2.374,4.9-2.145,2.875.552,3.205-3.779,3.922-5.258.654-1.349,1.723-1.466,2.916-.428a17.725,17.725,0,0,1-8.857,14.718Z" transform="translate(-270.771 -150.332)" fill="#3cb54b" fill-rule="evenodd"/>
        <path id="Trazado_1236418" data-name="Trazado 1236418" d="M306.736,190.61l-.384-9.92c-.086-2.209,3.354-2.52,3.7-.333l1.806,11.339a6.661,6.661,0,0,1-1.847,5.95l-8.66,8.66a3.529,3.529,0,0,0-1.06,2.831l.108,1.545H288.121l.086-7.045a6.235,6.235,0,0,1,1.869-4.513l2.548-2.551a6.094,6.094,0,0,1,2.862-1.65l1.234-.33,5.649-5.652a2.565,2.565,0,0,1,4.367,1.669Z" transform="translate(-257.09 -159.961)" fill="#e2b698" fill-rule="evenodd"/>
        <path id="Trazado_1236419" data-name="Trazado 1236419" d="M306.738,190.619l-.384-9.92a1.772,1.772,0,0,1,1.942-1.822,1.734,1.734,0,0,1,.454.943l1.806,11.339a6.651,6.651,0,0,1-1.844,5.95l-8.663,8.66a3.742,3.742,0,0,0-1.057,2.831l.025,2.091H288.123l.086-7.045a6.235,6.235,0,0,1,1.869-4.513l2.548-2.551a6.094,6.094,0,0,1,2.862-1.65l1.234-.33,5.649-5.652a2.565,2.565,0,0,1,4.367,1.669Z" transform="translate(-257.092 -159.97)" fill="#efc9ae" fill-rule="evenodd"/>
        <path id="Trazado_1236420" data-name="Trazado 1236420" d="M289.382,463.214H276.939a1.323,1.323,0,0,1-1.317-1.32v-2.253a1.322,1.322,0,0,1,1.317-1.317h12.443a1.323,1.323,0,0,1,1.32,1.317v2.253A1.323,1.323,0,0,1,289.382,463.214Z" transform="translate(-245.99 -408.134)" fill="#1b6fab" fill-rule="evenodd"/>
        <path id="Trazado_1236421" data-name="Trazado 1236421" d="M287.97,463.214H276.939a1.323,1.323,0,0,1-1.317-1.32v-2.253a1.322,1.322,0,0,1,1.317-1.317h10.97l.06,4.89Z" transform="translate(-245.99 -408.134)" fill="#3589c9" fill-rule="evenodd"/>
        <path id="Trazado_1236422" data-name="Trazado 1236422" d="M175.855,98.41a10.106,10.106,0,1,0-10.1-10.1A10.124,10.124,0,0,0,175.855,98.41Z" transform="translate(-148.419 -70.563)" fill="#cad1d8" fill-rule="evenodd"/>
        <path id="Trazado_1236423" data-name="Trazado 1236423" d="M195.658,78.822a10.1,10.1,0,0,1,0,20.072,10.1,10.1,0,0,1,0-20.072Z" transform="translate(-167.048 -71.117)" fill="#e2e5e7" fill-rule="evenodd"/>
        <path id="Trazado_1236424" data-name="Trazado 1236424" d="M198.871,187.532c-1.165-6.064-14.5-6.182-16.14-.352a10.1,10.1,0,0,0,16.14.352Z" transform="translate(-163.498 -163.538)" fill="#1b6fab" fill-rule="evenodd"/>
        <path id="Trazado_1236425" data-name="Trazado 1236425" d="M217.423,188.05c-.524-2.726-3.51-4.249-6.785-4.573a8.9,8.9,0,0,0-5.709,2.444,6.386,6.386,0,0,0-1.307,4.106,10.1,10.1,0,0,0,13.8-1.977Z" transform="translate(-182.05 -164.056)" fill="#3589c9" fill-rule="evenodd"/>
        <path id="Trazado_1236426" data-name="Trazado 1236426" d="M220.086,110.825a4.332,4.332,0,1,0,4.329,4.332A4.331,4.331,0,0,0,220.086,110.825Z" transform="translate(-192.824 -99.537)" fill="#e2b698" fill-rule="evenodd"/>
        <path id="Trazado_1236427" data-name="Trazado 1236427" d="M235.9,120.218a4.332,4.332,0,1,0-3.392-4.23A4.335,4.335,0,0,0,235.9,120.218Z" transform="translate(-207.703 -100.368)" fill="#efc9ae" fill-rule="evenodd"/>
      </g>
      <path id="Trazado_1236428" data-name="Trazado 1236428" d="M42.252,38.338h0a18.412,18.412,0,0,0,7.788-23.031l-.006-.014a18.681,18.681,0,0,0-1.044-2.1A18.41,18.41,0,1,0,27.918,40.063l.032.016a.671.671,0,0,0,.206.051,18.529,18.529,0,0,0,4.925.67,18.3,18.3,0,0,0,9.17-2.461h0Zm-.673-1.165h0l-.024.014-.093.052c-1.17.636-1.578.235-1.715.1-1.052-1.032-.851-4.783.063-6.56a10.871,10.871,0,0,0,1.312-1.255,4.671,4.671,0,0,1,2.688-.139,3.346,3.346,0,0,0,.632.063c2.307,0,3.1-2.708,3.584-4.379a9.85,9.85,0,0,1,.439-1.309c.144-.3.383-.664.706-.73a1.274,1.274,0,0,1,.92.321,17.218,17.218,0,0,1-.559,3.46A16.956,16.956,0,0,1,41.58,37.173ZM25.6,28.167c.64-1.664,2.564-2.888,5.244-3.323a4.983,4.983,0,0,0,4.065,0c2.861.462,4.824,1.8,5.345,3.628a9.417,9.417,0,0,1-14.654-.3Zm-1.983-5.774a9.433,9.433,0,1,1,17.561,4.778A7.257,7.257,0,0,0,36.424,23.8a5,5,0,1,0-7.1,0,7.543,7.543,0,0,0-4.579,3.07,9.37,9.37,0,0,1-1.132-4.475Zm26-4.118a16.831,16.831,0,0,1,.5,3.561,2.143,2.143,0,0,0-1.212-.124,2.4,2.4,0,0,0-1.646,1.461,10.332,10.332,0,0,0-.52,1.52c-.607,2.084-1.189,3.657-2.671,3.371A7.605,7.605,0,0,0,42.3,27.92a10.757,10.757,0,0,0,.123-10.843c.145-.363.308-.768.508-1.227.448-1.026.809-1.31.937-1.318.067,0,.445.05,1.272,1.483,1.327,2.3,2.427,2.913,3.222,2.912a1.521,1.521,0,0,0,.526-.094,1.62,1.62,0,0,0,.729-.558Zm-20.4,2a3.657,3.657,0,1,1,3.659,3.659A3.663,3.663,0,0,1,29.216,20.273ZM37.465,5.911a16.948,16.948,0,0,1,10.361,7.953,17.325,17.325,0,0,1,.937,1.875c.174,1.056-.124,1.752-.34,1.832-.178.066-.951-.2-2.119-2.228-.635-1.1-1.43-2.214-2.512-2.153s-1.709,1.24-2.1,2.122c-.064.146-.124.286-.181.422a10.764,10.764,0,0,0-14.494-2.27,2.229,2.229,0,0,1-.412-1.8,1.257,1.257,0,0,1,.961-1.012c4.016-.942,5.01-1.558,5.371-2.306a1.8,1.8,0,0,0-.175-1.636,1.441,1.441,0,0,1-.149-1.383c.135,0,.269-.007.4-.007a17.157,17.157,0,0,1,4.444.589ZM24.516,7.616a17.013,17.013,0,0,1,6.671-2.193,2.991,2.991,0,0,0,.361,1.861,1.834,1.834,0,0,1,.181.475c-.049.137-.516.656-4.468,1.583A2.582,2.582,0,0,0,25.3,11.364a3.571,3.571,0,0,0,.659,2.92,10.844,10.844,0,0,0-2.515,3.224,31.761,31.761,0,0,0-4.363-4.927,17,17,0,0,1,5.438-4.965ZM18.27,30.926a16.954,16.954,0,0,1-1.7-12.949,17.152,17.152,0,0,1,1.771-4.244A24.73,24.73,0,0,1,22.8,19.065a10.761,10.761,0,0,0,1.467,9.564.673.673,0,0,0,.085.117A10.859,10.859,0,0,0,27.8,31.8c.559,2,1.068,3.591,1.878,4.469a.54.54,0,0,1,.121.172c-.017.137-.4.5-.648.735a7.229,7.229,0,0,0-1.275,1.468,17,17,0,0,1-9.609-7.721Zm10.986,8.095a7.928,7.928,0,0,1,.823-.865c.674-.638,1.692-1.6.59-2.8a8.325,8.325,0,0,1-1.255-2.822,10.77,10.77,0,0,0,8.594-.579c-.492,2.165-.5,5.07.8,6.34.039.039.081.077.125.114A17.025,17.025,0,0,1,29.256,39.021Zm29.758,3.792a7.353,7.353,0,0,0,2.032-6.532L59.241,24.944A2.455,2.455,0,0,0,56.481,22.9,2.422,2.422,0,0,0,54.2,25.408l.282,7.339a3.328,3.328,0,0,0-.629-.319,3.191,3.191,0,0,0-3.439.729L44.9,38.679l-1.061.284a6.8,6.8,0,0,0-3.163,1.827l-2.551,2.551a6.932,6.932,0,0,0-2.066,4.98l-.069,5.936a1.993,1.993,0,0,0-1.413,1.9v2.253a1.992,1.992,0,0,0,1.99,1.99H49.005A1.993,1.993,0,0,0,51,58.414V56.161a1.992,1.992,0,0,0-1.477-1.92l-.032-.459a2.85,2.85,0,0,1,.864-2.308l8.66-8.66Zm-9.361,15.6a.647.647,0,0,1-.647.644H36.562a.645.645,0,0,1-.644-.644V56.161a.653.653,0,0,1,.644-.644H49.005a.647.647,0,0,1,.647.644v2.253ZM49.4,50.521a4.2,4.2,0,0,0-1.256,3.353l.02.3H37.332l.068-5.834a5.556,5.556,0,0,1,1.672-4.045l2.551-2.551a5.431,5.431,0,0,1,2.56-1.479l1.234-.33a.674.674,0,0,0,.3-.174l5.649-5.649a1.867,1.867,0,0,1,2.007-.423,1.834,1.834,0,0,1,1.208,1.651h0a1.873,1.873,0,0,1-.545,1.438l0,0-5.293,5.3a.673.673,0,1,0,.952.951l5.293-5.3a3.219,3.219,0,0,0,.939-2.451s0,0,0-.005l-.381-9.917a1.074,1.074,0,0,1,1.065-1.118,1.106,1.106,0,0,1,1.3.916l1.806,11.339a5.963,5.963,0,0,1-1.655,5.368L49.4,50.522Zm-19.29,3.737-.072-5.937a6.92,6.92,0,0,0-2.066-4.98l-2.551-2.551a6.8,6.8,0,0,0-3.161-1.828l-1.06-.283-5.524-5.52a3.192,3.192,0,0,0-3.44-.73,3.331,3.331,0,0,0-.628.319l.282-7.339A2.421,2.421,0,0,0,9.617,22.9a2.457,2.457,0,0,0-2.762,2.043L5.05,36.282a7.353,7.353,0,0,0,2.032,6.532l8.663,8.66a2.856,2.856,0,0,1,.861,2.309l-.032.459a1.991,1.991,0,0,0-1.474,1.92v2.253a1.992,1.992,0,0,0,1.99,1.99H29.533a1.994,1.994,0,0,0,1.993-1.99V56.161a1.993,1.993,0,0,0-1.413-1.9Zm-22.08-12.4a5.963,5.963,0,0,1-1.655-5.369L8.184,25.155a1.109,1.109,0,0,1,1.3-.916,1.074,1.074,0,0,1,1.063,1.118l-.381,9.917v.005a3.242,3.242,0,0,0,.939,2.451l5.3,5.3a.673.673,0,1,0,.952-.951l-5.3-5.3a1.9,1.9,0,0,1-.547-1.442,1.834,1.834,0,0,1,1.208-1.651,1.867,1.867,0,0,1,2.008.424l5.652,5.649a.672.672,0,0,0,.3.174l1.233.33a5.435,5.435,0,0,1,2.559,1.48l2.552,2.552A5.546,5.546,0,0,1,28.7,48.337l.071,5.834H17.929l.02-.3A4.2,4.2,0,0,0,16.7,50.522l-8.663-8.66ZM30.181,58.414a.647.647,0,0,1-.647.644H17.091a.645.645,0,0,1-.644-.644V56.161a.653.653,0,0,1,.644-.644H29.533a.647.647,0,0,1,.647.644v2.253Z" transform="translate(0 0)"/>
    </g>
  </g>
</svg>
