<svg xmlns="http://www.w3.org/2000/svg" xmlns:xlink="http://www.w3.org/1999/xlink" width="108" height="108" viewBox="0 0 108 108">
  <defs>
    <filter id="Trazado_904820" x="0" y="0" width="108" height="108" filterUnits="userSpaceOnUse">
      <feOffset dy="3" input="SourceAlpha"/>
      <feGaussianBlur stdDeviation="3" result="blur"/>
      <feFlood flood-opacity="0.161"/>
      <feComposite operator="in" in2="blur"/>
      <feComposite in="SourceGraphic"/>
    </filter>
  </defs>
  <g id="Grupo_1234551" data-name="Grupo 1234551" transform="translate(-617 -819.455)">
    <g id="Grupo_1233818" data-name="Grupo 1233818" transform="translate(0 13.455)">
      <g id="Grupo_1228307" data-name="Grupo 1228307" transform="translate(0 -3017.921)">
        <g id="Grupo_1228100" data-name="Grupo 1228100" transform="translate(626 3829.921)">
          <g id="Grupo_1221597" data-name="Grupo 1221597" transform="translate(0 0)">
            <g id="Grupo_1219744" data-name="Grupo 1219744">
              <g id="Grupo_1202418" data-name="Grupo 1202418">
                <g id="Grupo_1177315" data-name="Grupo 1177315">
                  <g id="Grupo_1173585" data-name="Grupo 1173585">
                    <g id="Grupo_1173428" data-name="Grupo 1173428">
                      <g id="Grupo_1171958" data-name="Grupo 1171958">
                        <g id="Grupo_1167341" data-name="Grupo 1167341">
                          <g id="Grupo_1166792" data-name="Grupo 1166792">
                            <g transform="matrix(1, 0, 0, 1, -9, -6)" filter="url(#Trazado_904820)">
                              <g id="Trazado_904820-2" data-name="Trazado 904820" transform="translate(9 6)" fill="#fff4e6">
                                <path d="M 44.99999618530273 88.49995422363281 C 39.12687301635742 88.49995422363281 33.43022155761719 87.35002899169922 28.06829643249512 85.08213043212891 C 22.88852119445801 82.89126586914062 18.23629570007324 79.75455474853516 14.24084663391113 75.75910186767578 C 10.24540901184082 71.76364898681641 7.108683586120605 67.11144256591797 4.917821407318115 61.93166351318359 C 2.649921178817749 56.56974029541016 1.499996185302734 50.87310028076172 1.499996185302734 44.99997711181641 C 1.499996185302734 39.12685394287109 2.649921178817749 33.43021392822266 4.917821407318115 28.06828880310059 C 7.108683586120605 22.88851547241211 10.24540901184082 18.23630142211914 14.24084663391113 14.24085235595703 C 18.23629570007324 10.24540233612061 22.88852119445801 7.108689785003662 28.06829643249512 4.917827129364014 C 33.43022155761719 2.649927139282227 39.12687301635742 1.500002145767212 44.99999618530273 1.500002145767212 C 50.87311935424805 1.500002145767212 56.56977081298828 2.649927139282227 61.93169784545898 4.917827129364014 C 67.11147308349609 7.108689785003662 71.76369476318359 10.24540233612061 75.75914764404297 14.24085235595703 C 79.75458526611328 18.23630142211914 82.89131164550781 22.88851547241211 85.08216857910156 28.06828880310059 C 87.35007476806641 33.43021392822266 88.5 39.12685394287109 88.5 44.99997711181641 C 88.5 50.87310028076172 87.35007476806641 56.56974029541016 85.08216857910156 61.93166351318359 C 82.89131164550781 67.11144256591797 79.75458526611328 71.76364898681641 75.75914764404297 75.75910186767578 C 71.76369476318359 79.75455474853516 67.11147308349609 82.89126586914062 61.93169784545898 85.08213043212891 C 56.56977081298828 87.35002899169922 50.87311935424805 88.49995422363281 44.99999618530273 88.49995422363281 Z" stroke="none"/>
                                <path d="M 44.99999618530273 2.999992370605469 C 39.32870864868164 2.999992370605469 33.82865142822266 4.11004638671875 28.65262603759766 6.299331665039062 C 23.65165710449219 8.414566040039062 19.15968322753906 11.44333648681641 15.301513671875 15.30150604248047 C 11.44333648681641 19.15967559814453 8.414566040039062 23.65163421630859 6.299339294433594 28.65260696411133 C 4.110054016113281 33.82864761352539 2.999992370605469 39.32868957519531 2.999992370605469 44.99997711181641 C 2.999992370605469 50.6712646484375 4.110054016113281 56.17130661010742 6.299339294433594 61.34733581542969 C 8.414566040039062 66.34830474853516 11.44333648681641 70.84026336669922 15.301513671875 74.69844818115234 C 19.15968322753906 78.55661773681641 23.65165710449219 81.58537292480469 28.65262603759766 83.70062255859375 C 33.82865142822266 85.889892578125 39.32870864868164 86.99994659423828 44.99999618530273 86.99994659423828 C 50.67128372192383 86.99994659423828 56.17134094238281 85.889892578125 61.34736633300781 83.70062255859375 C 66.34834289550781 81.58537292480469 70.84030914306641 78.55661773681641 74.69847869873047 74.69844818115234 C 78.55665588378906 70.84026336669922 81.58542633056641 66.34830474853516 83.70065307617188 61.34733581542969 C 85.88993835449219 56.17130661010742 87 50.6712646484375 87 44.99997711181641 C 87 39.32868957519531 85.88993835449219 33.82864761352539 83.70065307617188 28.65260696411133 C 81.58542633056641 23.65163421630859 78.55665588378906 19.15967559814453 74.69847869873047 15.30150604248047 C 70.84030914306641 11.44333648681641 66.34834289550781 8.414566040039062 61.34736633300781 6.299331665039062 C 56.17134094238281 4.11004638671875 50.67128372192383 2.999992370605469 44.99999618530273 2.999992370605469 M 44.99999618530273 -7.62939453125e-06 C 69.85281372070312 -7.62939453125e-06 90 20.14717864990234 90 44.99997711181641 C 90 69.85277557373047 69.85281372070312 89.99994659423828 44.99999618530273 89.99994659423828 C 20.14717864990234 89.99994659423828 -7.62939453125e-06 69.85277557373047 -7.62939453125e-06 44.99997711181641 C -7.62939453125e-06 20.14717864990234 20.14717864990234 -7.62939453125e-06 44.99999618530273 -7.62939453125e-06 Z" stroke="none" fill="#8b550e"/>
                              </g>
                            </g>
                          </g>
                        </g>
                      </g>
                    </g>
                  </g>
                </g>
              </g>
            </g>
          </g>
        </g>
      </g>
    </g>
    <g id="horario-de-trabajo_1_" data-name="horario-de-trabajo (1)" transform="translate(639.891 826.991)">
      <g id="Grupo_1234538" data-name="Grupo 1234538" transform="translate(5.872 19.937)">
        <g id="Grupo_1234537" data-name="Grupo 1234537">
          <g id="Grupo_1234533" data-name="Grupo 1234533">
            <path id="Trazado_1235360" data-name="Trazado 1235360" d="M70.571,62.392a22.23,22.23,0,0,0-6.708,1.03A10.354,10.354,0,0,1,49.356,77.929a22.26,22.26,0,0,0,27.991,27.9v-3.212H76.164a.608.608,0,0,1-.608-.608V94.933a.608.608,0,0,1,.608-.608H85.47V92a.591.591,0,0,1,.59-.59h5.705A22.258,22.258,0,0,0,70.571,62.392Z" transform="translate(-48.326 -62.392)" fill="#05e39c"/>
            <path id="Trazado_1235361" data-name="Trazado 1235361" d="M70.57,84.636,86.752,69.373A22.254,22.254,0,0,0,70.57,62.391a21.955,21.955,0,0,0-6.7,1.044,10.354,10.354,0,0,1-14.5,14.5,21.955,21.955,0,0,0-1.044,6.7A22.351,22.351,0,0,0,70.57,106.881a21.95,21.95,0,0,0,6.776-1.069v-3.194H76.163a.608.608,0,0,1-.608-.608V94.932a.608.608,0,0,1,.608-.608h9.306V92a.591.591,0,0,1,.59-.59h5.688a21.951,21.951,0,0,0,1.068-6.77H70.57Z" transform="translate(-48.325 -62.391)" fill="#ffe177"/>
            <g id="Grupo_1234532" data-name="Grupo 1234532" transform="translate(22.245 22.245)">
              <path id="Trazado_1235362" data-name="Trazado 1235362" d="M231.384,245.45v22.245a22.233,22.233,0,0,0,6.776-1.051v-3.212h-1.183a.608.608,0,0,1-.608-.608v-7.078a.608.608,0,0,1,.608-.608h9.306V252.81a.591.591,0,0,1,.59-.59h5.705a22.227,22.227,0,0,0,1.051-6.77H231.384Z" transform="translate(-231.384 -245.45)" fill="#bd80e1"/>
            </g>
            <path id="Trazado_1235363" data-name="Trazado 1235363" d="M63.992,63.382A10.482,10.482,0,0,1,49.317,78.057a22.261,22.261,0,0,0,21.255,28.824V62.392A22.237,22.237,0,0,0,63.992,63.382Z" transform="translate(-48.327 -62.392)" fill="#fe646f"/>
          </g>
          <g id="Grupo_1234536" data-name="Grupo 1234536" transform="translate(5.449 5.449)">
            <path id="Trazado_1235364" data-name="Trazado 1235364" d="M114.949,134.328a.608.608,0,0,1,.608-.608h8.128a16.8,16.8,0,0,0-18.392-25.825,10.347,10.347,0,0,1-11.466,11.466,16.808,16.808,0,0,0,21.122,20.714v-5.747Z" transform="translate(-93.168 -107.236)" fill="#fff"/>
            <g id="Grupo_1234534" data-name="Grupo 1234534" transform="translate(0 11.733)">
              <path id="Trazado_1235365" data-name="Trazado 1235365" d="M97.28,208.849a16.785,16.785,0,0,1,.777-5.063,10.3,10.3,0,0,1-4.229.392,16.8,16.8,0,0,0,18.192,21.341A16.8,16.8,0,0,1,97.28,208.849Z" transform="translate(-93.169 -203.786)" fill="#eaf9fa"/>
            </g>
            <path id="Trazado_1235366" data-name="Trazado 1235366" d="M178.134,192.2v-7.366A7.366,7.366,0,1,0,185.5,192.2Z" transform="translate(-161.338 -175.405)" fill="#ffe177"/>
            <g id="Grupo_1234535" data-name="Grupo 1234535" transform="translate(9.43 9.46)">
              <path id="Trazado_1235367" data-name="Trazado 1235367" d="M181.2,198.808a7.365,7.365,0,0,1-3.723-13.721,7.365,7.365,0,1,0,4.38,13.69C181.641,198.8,181.423,198.808,181.2,198.808Z" transform="translate(-170.769 -185.087)" fill="#ffd15b"/>
            </g>
          </g>
        </g>
      </g>
      <g id="Grupo_1234541" data-name="Grupo 1234541" transform="translate(2.672 16.737)">
        <g id="Grupo_1234539" data-name="Grupo 1234539" transform="translate(0 0)">
          <circle id="Elipse_12063" data-name="Elipse 12063" cx="10.482" cy="10.482" r="10.482" fill="#05e39c"/>
        </g>
        <g id="Grupo_1234540" data-name="Grupo 1234540" transform="translate(0 0)">
          <path id="Trazado_1235368" data-name="Trazado 1235368" d="M28.122,46.534a10.486,10.486,0,0,1,7.415-10.025,10.482,10.482,0,1,0,0,20.05A10.486,10.486,0,0,1,28.122,46.534Z" transform="translate(-21.987 -36.052)" fill="#0ed290"/>
        </g>
      </g>
      <g id="Grupo_1234549" data-name="Grupo 1234549" transform="translate(33.103 45.915)">
        <g id="Grupo_1234542" data-name="Grupo 1234542" transform="translate(6.876)">
          <path id="Trazado_1235369" data-name="Trazado 1235369" d="M332.029,282.121v-2.328a.591.591,0,0,1,.59-.59h7.2a.591.591,0,0,1,.59.59v2.328h3.038v-2.328a3.628,3.628,0,0,0-3.628-3.628h-7.2a3.628,3.628,0,0,0-3.628,3.628v2.328Z" transform="translate(-328.991 -276.165)" fill="#855151"/>
        </g>
        <g id="Grupo_1234543" data-name="Grupo 1234543" transform="translate(6.876 0)">
          <path id="Trazado_1235370" data-name="Trazado 1235370" d="M332.029,282.122v-2.328a.591.591,0,0,1,.59-.59h.44a3.628,3.628,0,0,1,3.579-3.038h-4.02a3.628,3.628,0,0,0-3.628,3.628v2.328h3.038Z" transform="translate(-328.991 -276.166)" fill="#704444"/>
        </g>
        <g id="Grupo_1234544" data-name="Grupo 1234544" transform="translate(1.791 14.127)">
          <path id="Trazado_1235371" data-name="Trazado 1235371" d="M287.146,392.423v10.695a1.215,1.215,0,0,0,1.215,1.215h22.191a1.215,1.215,0,0,0,1.215-1.215V392.423Z" transform="translate(-287.146 -392.423)" fill="#855151"/>
        </g>
        <path id="Trazado_1235372" data-name="Trazado 1235372" d="M291.914,404V393.423h-4.768V404a1.215,1.215,0,0,0,1.215,1.215h4.768A1.215,1.215,0,0,1,291.914,404Z" transform="translate(-285.355 -379.174)" fill="#704444"/>
        <g id="Grupo_1234545" data-name="Grupo 1234545" transform="translate(0 5.956)">
          <path id="Trazado_1235373" data-name="Trazado 1235373" d="M300.006,333.472H273.018a.608.608,0,0,1-.608-.608v-7.078a.608.608,0,0,1,.608-.608h26.988a.608.608,0,0,1,.608.608v7.078A.608.608,0,0,1,300.006,333.472Z" transform="translate(-272.41 -325.179)" fill="#9b5e5e"/>
        </g>
        <g id="Grupo_1234546" data-name="Grupo 1234546" transform="translate(0 5.956)">
          <path id="Trazado_1235374" data-name="Trazado 1235374" d="M277.575,332.864v-7.078a.608.608,0,0,1,.608-.608h-5.164a.608.608,0,0,0-.608.608v7.078a.608.608,0,0,0,.608.608h5.164A.608.608,0,0,1,277.575,332.864Z" transform="translate(-272.41 -325.179)" fill="#855151"/>
        </g>
        <g id="Grupo_1234547" data-name="Grupo 1234547" transform="translate(10.893 12.976)">
          <path id="Trazado_1235375" data-name="Trazado 1235375" d="M367.863,387.223h-5.2a.608.608,0,0,1-.608-.608v-3.057a.608.608,0,0,1,.608-.608h5.2a.608.608,0,0,1,.608.608v3.057A.608.608,0,0,1,367.863,387.223Z" transform="translate(-362.054 -382.951)" fill="#ffe177"/>
        </g>
        <g id="Grupo_1234548" data-name="Grupo 1234548" transform="translate(10.893 12.976)">
          <path id="Trazado_1235376" data-name="Trazado 1235376" d="M365.109,386.616v-3.057a.608.608,0,0,1,.608-.608h-3.055a.608.608,0,0,0-.608.608v3.057a.608.608,0,0,0,.608.608h3.055A.608.608,0,0,1,365.109,386.616Z" transform="translate(-362.054 -382.951)" fill="#ffd15b"/>
        </g>
      </g>
      <g id="Grupo_1234550" data-name="Grupo 1234550" transform="translate(0 14.065)">
        <path id="Trazado_1235377" data-name="Trazado 1235377" d="M171.546,152.9a8.288,8.288,0,0,0,8.226-7.366h.963a.911.911,0,1,0,0-1.823h-8.277V131.585a.911.911,0,0,0-1.823,0v4.81a8.277,8.277,0,0,0,.911,16.5Zm-.911-14.666v6.389a.911.911,0,0,0,.911.911h6.389a6.454,6.454,0,1,1-7.3-7.3Z" transform="translate(-143.429 -116.504)"/>
        <path id="Trazado_1235378" data-name="Trazado 1235378" d="M119.017,238.862a.911.911,0,0,0-.911-.911h-.586a.911.911,0,1,0,0,1.823h.586A.911.911,0,0,0,119.017,238.862Z" transform="translate(-102.438 -210.745)"/>
        <path id="Trazado_1235379" data-name="Trazado 1235379" d="M326.34,238.862a.911.911,0,0,0,.911.911h.586a.911.911,0,1,0,0-1.823h-.586A.911.911,0,0,0,326.34,238.862Z" transform="translate(-286.684 -210.745)"/>
        <path id="Trazado_1235380" data-name="Trazado 1235380" d="M224.8,340.406a.911.911,0,0,0-.911.911v.586a.911.911,0,0,0,1.823,0v-.586A.911.911,0,0,0,224.8,340.406Z" transform="translate(-196.678 -300.75)"/>
        <path id="Trazado_1235381" data-name="Trazado 1235381" d="M131.942,289.3l-.507.293a.911.911,0,1,0,.911,1.579l.507-.293a.911.911,0,0,0-.911-1.579Z" transform="translate(-115.063 -255.746)"/>
        <path id="Trazado_1235382" data-name="Trazado 1235382" d="M313.525,186.427a.907.907,0,0,0,.455-.122l.507-.293a.911.911,0,1,0-.911-1.579l-.507.293a.911.911,0,0,0,.457,1.7Z" transform="translate(-274.625 -163.623)"/>
        <path id="Trazado_1235383" data-name="Trazado 1235383" d="M171.905,326.8a.911.911,0,0,0-1.245.334l-.293.507a.911.911,0,1,0,1.579.911l.293-.507A.911.911,0,0,0,171.905,326.8Z" transform="translate(-149.557 -288.69)"/>
        <path id="Trazado_1235384" data-name="Trazado 1235384" d="M275.567,147.252a.911.911,0,0,0,1.245-.334l.293-.507a.911.911,0,1,0-1.579-.911l-.293.507A.911.911,0,0,0,275.567,147.252Z" transform="translate(-241.68 -129.128)"/>
        <path id="Trazado_1235385" data-name="Trazado 1235385" d="M71.554,93.228l-5.086,5.086L63.2,95.045a.911.911,0,1,0-1.289,1.289l3.913,3.913a.911.911,0,0,0,1.289,0l5.73-5.73a.911.911,0,0,0-1.289-1.289Z" transform="translate(-54.152 -83.374)"/>
        <path id="Trazado_1235386" data-name="Trazado 1235386" d="M60.7,50.96H55.342V49.543c0-.088,0-.176-.008-.263a28.258,28.258,0,0,0,.9-7.1A28.117,28.117,0,0,0,28.117,14.065a.911.911,0,1,0,0,1.823A26.295,26.295,0,0,1,54.412,42.182a26.564,26.564,0,0,1-.338,4.219A4.529,4.529,0,0,0,51.1,45.014,23.157,23.157,0,0,0,21.866,19.886,11.389,11.389,0,1,0,5.82,35.931a23.154,23.154,0,0,0,5.824,22.524.911.911,0,0,0,1.3-1.281A21.334,21.334,0,0,1,7.409,37.055a11.317,11.317,0,0,0,3.417,1.319A17.706,17.706,0,0,0,27.206,59.866V63.5a21.2,21.2,0,0,1-11.121-3.7.911.911,0,1,0-1.029,1.5,23.164,23.164,0,0,0,18.927,3.28v3.238a26.484,26.484,0,0,1-5.865.655A26.294,26.294,0,0,1,1.823,42.183a.911.911,0,0,0-1.823,0A28.117,28.117,0,0,0,28.117,70.3a28.367,28.367,0,0,0,5.865-.611v1.048a2.129,2.129,0,0,0,2.127,2.127H58.3a2.129,2.129,0,0,0,2.127-2.127V61.075H60.7a1.521,1.521,0,0,0,1.519-1.519V52.479A1.521,1.521,0,0,0,60.7,50.96Zm-7.179-1.417V50.96H52.3V49.543a1.5,1.5,0,0,0-1.5-1.5h-7.2a1.5,1.5,0,0,0-1.5,1.5V50.96H40.89V49.543a2.72,2.72,0,0,1,2.717-2.717h7.2A2.72,2.72,0,0,1,53.519,49.543Zm-3.038.321v1.1H43.928v-1.1ZM45.6,45a17.627,17.627,0,0,0,.2-1.91H49.43c-.027.645-.086,1.281-.17,1.91Zm3.832-3.732H45.8a17.629,17.629,0,0,0-4.2-10.553l2.639-2.49A21.238,21.238,0,0,1,49.43,41.271Zm-20.4-20.4A21.265,21.265,0,0,1,42.988,26.9L40.35,29.392A17.648,17.648,0,0,0,29.029,24.5V20.87Zm-1.823,0V24.5a17.638,17.638,0,0,0-2.9.39,11.318,11.318,0,0,0-1.318-3.415A21.26,21.26,0,0,1,27.206,20.868ZM12.233,42.183a15.847,15.847,0,0,1,.41-3.582c.169.008.339.012.51.012a11.336,11.336,0,0,0,6.38-1.953.911.911,0,0,0-1.022-1.509,9.588,9.588,0,1,1,2.709-2.785.911.911,0,0,0,1.536.982,11.356,11.356,0,0,0,1.79-6.128c0-.171,0-.341-.012-.51A15.886,15.886,0,0,1,43.75,45h-.143a4.545,4.545,0,0,0-4.139,2.679l-.112-.065a.911.911,0,0,0-.911,1.579l.507.293a.914.914,0,0,0,.116.056V50.96H33.71a1.521,1.521,0,0,0-1.519,1.519v5.055A15.877,15.877,0,0,1,12.233,42.183ZM29.029,63.5V59.866a17.635,17.635,0,0,0,3.163-.451v.141a1.521,1.521,0,0,0,1.519,1.519h.272v1.614a21.169,21.169,0,0,1-4.953.807Zm31.366-4.243h-3.4a.911.911,0,1,0,0,1.823H58.6v9.662a.3.3,0,0,1-.3.3H36.109a.3.3,0,0,1-.3-.3V61.075h7.28v1.481A1.521,1.521,0,0,0,44.6,64.075h5.2a1.521,1.521,0,0,0,1.519-1.519V61.075h1.415a.911.911,0,1,0,0-1.823H51.3a1.52,1.52,0,0,0-1.5-1.273H44.6a1.52,1.52,0,0,0-1.5,1.273H34.014v-6.47h26.38Zm-15.487,3V59.8H49.5v2.449Z" transform="translate(0 -14.065)"/>
      </g>
    </g>
  </g>
</svg>
