<svg xmlns="http://www.w3.org/2000/svg" xmlns:xlink="http://www.w3.org/1999/xlink" width="103" height="103" viewBox="0 0 103 103">
  <defs>
    <filter id="Trazado_978624" x="0" y="0" width="103" height="103" filterUnits="userSpaceOnUse">
      <feOffset dy="3" input="SourceAlpha"/>
      <feGaussianBlur stdDeviation="3" result="blur"/>
      <feFlood flood-opacity="0.161"/>
      <feComposite operator="in" in2="blur"/>
      <feComposite in="SourceGraphic"/>
    </filter>
  </defs>
  <g id="Grupo_1234552" data-name="Grupo 1234552" transform="translate(-215 -1929.92)">
    <g id="Grupo_1233820" data-name="Grupo 1233820" transform="translate(0 -3333.29)">
      <g id="Grupo_1228542" data-name="Grupo 1228542" transform="translate(224 5269.21)">
        <g id="Grupo_1220654" data-name="Grupo 1220654">
          <g id="Grupo_1176881" data-name="Grupo 1176881">
            <g id="Grupo_1175148" data-name="Grupo 1175148">
              <g id="Grupo_1173798" data-name="Grupo 1173798">
                <g id="Grupo_1171925" data-name="Grupo 1171925">
                  <g id="Grupo_1164524" data-name="Grupo 1164524">
                    <g id="Grupo_1144123" data-name="Grupo 1144123">
                      <g transform="matrix(1, 0, 0, 1, -9, -6)" filter="url(#Trazado_978624)">
                        <g id="Trazado_978624-2" data-name="Trazado 978624" transform="translate(9 6)" fill="#e9f9fd">
                          <path d="M 42.5 83.5 C 36.96437835693359 83.5 31.59512901306152 82.41617584228516 26.54141235351562 80.27863311767578 C 21.65934181213379 78.21369171142578 17.27447128295898 75.25723266601562 13.50862312316895 71.49137878417969 C 9.742764472961426 67.72553253173828 6.786305904388428 63.34066009521484 4.721364498138428 58.45858764648438 C 2.583823442459106 53.40486907958984 1.5 48.03562164306641 1.5 42.5 C 1.5 36.96437835693359 2.583823442459106 31.59512901306152 4.721364498138428 26.54141235351562 C 6.786305904388428 21.65934181213379 9.742764472961426 17.27447128295898 13.50862312316895 13.50862312316895 C 17.27447128295898 9.742764472961426 21.65934181213379 6.786305904388428 26.54141235351562 4.721364498138428 C 31.59512901306152 2.583823442459106 36.96437835693359 1.5 42.5 1.5 C 48.03562164306641 1.5 53.40486907958984 2.583823442459106 58.45858764648438 4.721364498138428 C 63.34066009521484 6.786305904388428 67.72553253173828 9.742764472961426 71.49137878417969 13.50862312316895 C 75.25723266601562 17.27447128295898 78.21369171142578 21.65934181213379 80.27863311767578 26.54141235351562 C 82.41617584228516 31.59512901306152 83.5 36.96437835693359 83.5 42.5 C 83.5 48.03562164306641 82.41617584228516 53.40486907958984 80.27863311767578 58.45858764648438 C 78.21369171142578 63.34066009521484 75.25723266601562 67.72553253173828 71.49137878417969 71.49137878417969 C 67.72553253173828 75.25723266601562 63.34066009521484 78.21369171142578 58.45858764648438 80.27863311767578 C 53.40486907958984 82.41617584228516 48.03562164306641 83.5 42.5 83.5 Z" stroke="none"/>
                          <path d="M 42.5 3 C 37.16621398925781 3 31.99356079101562 4.043960571289062 27.125732421875 6.102882385253906 C 22.42246627807617 8.092185974121094 18.19785308837891 10.94070434570312 14.56928253173828 14.56928253173828 C 10.94070434570312 18.19785308837891 8.092185974121094 22.42246627807617 6.102882385253906 27.125732421875 C 4.043960571289062 31.99356079101562 3 37.16621398925781 3 42.5 C 3 47.83378601074219 4.043960571289062 53.00643920898438 6.102882385253906 57.87425231933594 C 8.092185974121094 62.57753372192383 10.94070434570312 66.80213165283203 14.56928253173828 70.43071746826172 C 18.19786834716797 74.05929565429688 22.42246627807617 76.90781402587891 27.125732421875 78.89711761474609 C 31.99356079101562 80.95603942871094 37.16621398925781 82 42.5 82 C 47.83378601074219 82 53.00642395019531 80.95603942871094 57.87425231933594 78.89711761474609 C 62.57753372192383 76.90781402587891 66.80213165283203 74.05929565429688 70.43071746826172 70.43071746826172 C 74.05929565429688 66.80213165283203 76.90781402587891 62.57753372192383 78.89711761474609 57.87425231933594 C 80.95603942871094 53.00642395019531 82 47.83378601074219 82 42.5 C 82 37.16621398925781 80.95603942871094 31.99356079101562 78.89711761474609 27.125732421875 C 76.90781402587891 22.42246627807617 74.05929565429688 18.19786834716797 70.43071746826172 14.56928253173828 C 66.80213165283203 10.94070434570312 62.57753372192383 8.092185974121094 57.87425231933594 6.102882385253906 C 53.00643920898438 4.043960571289062 47.83378601074219 3 42.5 3 M 42.5 0 C 65.97209167480469 0 85 19.02789306640625 85 42.5 C 85 65.97209167480469 65.97209167480469 85 42.5 85 C 19.02789306640625 85 0 65.97209167480469 0 42.5 C 0 19.02789306640625 19.02789306640625 0 42.5 0 Z" stroke="none" fill="#36ceef"/>
                        </g>
                      </g>
                    </g>
                  </g>
                </g>
              </g>
            </g>
          </g>
        </g>
      </g>
    </g>
    <g id="gestion-de-proyectos_1_" data-name="gestion-de-proyectos (1)" transform="translate(236.987 1948.9)">
      <path id="Trazado_1235387" data-name="Trazado 1235387" d="M47.185,23.593A16.593,16.593,0,1,0,21.64,37.565a5.286,5.286,0,0,1,2.5,4.427v3.725a2.765,2.765,0,0,0,2.765,2.765H34.28a2.765,2.765,0,0,0,2.765-2.765V42.068A5.43,5.43,0,0,1,39.6,37.531a16.578,16.578,0,0,0,7.587-13.938Z" transform="translate(-0.959 -0.41)" fill="#e39d10"/>
      <path id="Trazado_1235388" data-name="Trazado 1235388" d="M27,57.531A2.765,2.765,0,0,0,29.765,60.3h3.687a2.765,2.765,0,0,0,2.765-2.765V52H27Z" transform="translate(-1.975 -3.929)" fill="#ebebeb"/>
      <path id="Trazado_1235389" data-name="Trazado 1235389" d="M54.026,13.528l2.9-2.174L53.605,6.93,50.707,9.1a1.844,1.844,0,0,1-2.93-1.736l.512-3.585L42.813,3,42.3,6.585a1.844,1.844,0,0,1-3.3.846l-2.173-2.9L32.4,7.852l2.173,2.9a1.844,1.844,0,0,1-1.736,2.93l-3.585-.512-.783,5.476,3.586.512a1.844,1.844,0,0,1,.845,3.3l-2.9,2.174,3.319,4.425,2.9-2.173a1.844,1.844,0,0,1,2.931,1.736L38.638,32.2l5.476.783L44.63,29.4a1.844,1.844,0,0,1,3.3-.845l2.174,2.9,4.425-3.319-2.175-2.9A1.844,1.844,0,0,1,54.089,22.3l3.585.513.783-5.476-3.585-.513a1.844,1.844,0,0,1-.846-3.3ZM43.465,24.444a6.453,6.453,0,1,1,6.453-6.453,6.453,6.453,0,0,1-6.453,6.453Z" transform="translate(-2.09 -0.098)" fill="#10bde0"/>
      <path id="Trazado_1235390" data-name="Trazado 1235390" d="M20.759,38.972a16.637,16.637,0,0,1-2.271-1.759,4.6,4.6,0,1,1-4.447-5.76c.141,0,.277.03.411.041A16.58,16.58,0,0,1,13.129,25H11.955l-.637,3.03a.922.922,0,0,1-1.425.57L7.346,26.844,4.581,29.609l1.751,2.547a.922.922,0,0,1-.57,1.425l-3.025.637v3.687l3.029.637a.922.922,0,0,1,.57,1.425L4.581,42.514,7.346,45.28l2.547-1.751a.922.922,0,0,1,1.426.57l.636,3.025h3.687l.636-3.03a.922.922,0,0,1,1.426-.57l2.547,1.756,2.894-2.894a5.367,5.367,0,0,0-2.386-3.414Z" transform="translate(-0.078 -1.818)" fill="#c9dfff"/>
      <path id="Trazado_1235391" data-name="Trazado 1235391" d="M56.5,16.349l-3.586-.512a.922.922,0,0,1-.423-1.65l2.9-2.174a.922.922,0,0,0,.184-1.291L52.252,6.3a.922.922,0,0,0-1.291-.184l-2.9,2.174A.922.922,0,0,1,46.6,7.42l.513-3.586a.922.922,0,0,0-.783-1.043l-5.472-.782a.922.922,0,0,0-1.043.782L39.3,6.377a.922.922,0,0,1-1.65.423L35.474,3.9a.922.922,0,0,0-1.291-.184L31.414,5.8a17.834,17.834,0,0,0-3.77,0A17.514,17.514,0,0,0,12.2,21.5c-.025.261-.034.52-.047.779h-.277a.922.922,0,0,0-.9.737l-.637,3.029-2.552-1.76a.922.922,0,0,0-1.175.107L3.846,27.159a.922.922,0,0,0-.107,1.174L5.491,30.88l-3.03.637a.922.922,0,0,0-.725.9v3.687a.922.922,0,0,0,.732.9l3.03.637L3.746,40.194a.922.922,0,0,0,.107,1.174l2.765,2.765a.922.922,0,0,0,1.175.107l2.547-1.756.637,3.03a.922.922,0,0,0,.9.737h3.687a.922.922,0,0,0,.9-.732l.637-3.03,2.547,1.751a.922.922,0,0,0,1.174-.107L22.259,42.7v2.627A3.675,3.675,0,0,0,24.1,48.5v5.122a3.687,3.687,0,0,0,3.687,3.687h3.687a3.687,3.687,0,0,0,3.687-3.687V48.5a3.675,3.675,0,0,0,1.844-3.175V41.677a4.517,4.517,0,0,1,2.132-3.763,17.685,17.685,0,0,0,2.17-1.659l-1.23-1.374a15.69,15.69,0,0,1-1.942,1.485,6.349,6.349,0,0,0-2.974,5.311v3.649a1.844,1.844,0,0,1-1.844,1.844H25.947A1.844,1.844,0,0,1,24.1,45.325V41.6a6.2,6.2,0,0,0-2.924-5.2A15.624,15.624,0,0,1,29.436,7.545a1,1,0,0,0-.036.1.922.922,0,0,0,.176.683l2.173,2.9a.9.9,0,0,1,.055,1.023.916.916,0,0,1-.922.443L27.3,12.18a.922.922,0,0,0-1.043.783l-.783,5.475a.922.922,0,0,0,.783,1.043l3.586.513a.922.922,0,0,1,.423,1.65l-2.9,2.173a.922.922,0,0,0-.184,1.291L30.5,29.531a.922.922,0,0,0,1.291.184l2.9-2.173a.922.922,0,0,1,1.465.867L35.64,32a.922.922,0,0,0,.782,1.043l5.476.783a1.025,1.025,0,0,0,.13.008.922.922,0,0,0,.914-.791l.512-3.586a.922.922,0,0,1,1.65-.423l2.174,2.9a.922.922,0,0,0,1.291.184l4.425-3.319a.922.922,0,0,0,.184-1.291L51,24.606a.906.906,0,0,1-.055-1.023.9.9,0,0,1,.922-.442l3.586.512A.922.922,0,0,0,56.5,22.87l.782-5.476a.922.922,0,0,0-.782-1.043ZM13.755,30.576A17.456,17.456,0,0,0,17.176,35.5a3.682,3.682,0,1,1-3.457-4.928ZM31.477,55.465H27.79a1.844,1.844,0,0,1-1.844-1.844V52.7h7.375v.922A1.844,1.844,0,0,1,31.477,55.465Zm1.844-6.453v1.844H25.947V49.013Zm-11.28-8.7-1.977,1.974-1.915-1.32A1.844,1.844,0,0,0,15.3,42.1l-.483,2.3H12.624l-.483-2.3a1.844,1.844,0,0,0-2.85-1.138L7.376,42.283,5.7,40.607l1.319-1.914a1.844,1.844,0,0,0-1.138-2.851l-2.3-.484v-2.19l2.3-.484a1.844,1.844,0,0,0,1.138-2.846L5.7,27.92l1.68-1.676,1.916,1.32a1.844,1.844,0,0,0,2.849-1.139l.161-.767a17.551,17.551,0,0,0,.731,3.126,5.531,5.531,0,1,0,5.574,8.02,17.426,17.426,0,0,0,1.575,1.148,4.5,4.5,0,0,1,1.857,2.359ZM54.8,21.694l-2.673-.382a2.765,2.765,0,0,0-2.6,4.4l1.62,2.16-2.95,2.212-1.621-2.159a2.765,2.765,0,0,0-4.95,1.267l-.373,2.677L37.6,31.345l.382-2.673a2.765,2.765,0,0,0-4.4-2.6l-2.16,1.62-2.212-2.95,2.159-1.621a2.765,2.765,0,0,0-1.267-4.95l-2.673-.382.522-3.649,2.673.382a2.765,2.765,0,0,0,2.6-4.4L31.6,7.959l2.95-2.212,1.621,2.16a2.765,2.765,0,0,0,4.95-1.267l.382-2.673,3.649.521-.382,2.673a2.765,2.765,0,0,0,4.4,2.6l2.16-1.62,2.212,2.95-2.16,1.621a2.765,2.765,0,0,0,1.267,4.95l2.673.382Z" transform="translate(0 -0.019)"/>
      <path id="Trazado_1235392" data-name="Trazado 1235392" d="M44.111,11.264a7.375,7.375,0,1,0,7.375,7.375,7.375,7.375,0,0,0-7.375-7.375Zm0,12.905a5.531,5.531,0,1,1,5.531-5.531,5.531,5.531,0,0,1-5.531,5.531Z" transform="translate(-2.736 -0.744)"/>
      <path id="Trazado_1235393" data-name="Trazado 1235393" d="M31,46h1.844v2.765H31Z" transform="translate(-2.288 -3.46)"/>
      <path id="Trazado_1235394" data-name="Trazado 1235394" d="M26.873,34.379a11.062,11.062,0,0,1-1.868-19.665l-.985-1.56A12.905,12.905,0,0,0,26.2,36.094a5.885,5.885,0,0,1,3.779,5.494h1.844A7.713,7.713,0,0,0,26.873,34.379Z" transform="translate(-1.271 -0.891)"/>
      <path id="Trazado_1235395" data-name="Trazado 1235395" d="M51,39h6.453v1.844H51Z" transform="translate(-3.852 -2.912)"/>
      <path id="Trazado_1235396" data-name="Trazado 1235396" d="M0,0H1.844V7.2H0Z" transform="matrix(0.64, -0.768, 0.768, 0.64, 45.636, 42.328)"/>
      <path id="Trazado_1235397" data-name="Trazado 1235397" d="M45,47h1.844v6.453H45Z" transform="translate(-3.383 -3.538)"/>
      <path id="Trazado_1235398" data-name="Trazado 1235398" d="M0,0H7.6V1.843H0Z" transform="matrix(0.97, -0.243, 0.243, 0.97, 2.678, 17.679)"/>
      <path id="Trazado_1235399" data-name="Trazado 1235399" d="M0,0H1.843V7.929H0Z" transform="matrix(0.581, -0.814, 0.814, 0.581, 4.209, 8.262)"/>
      <path id="Trazado_1235400" data-name="Trazado 1235400" d="M0,0H1.844V7.611H0Z" transform="matrix(0.969, -0.248, 0.248, 0.969, 12.107, 2.208)"/>
    </g>
  </g>
</svg>
