<svg xmlns="http://www.w3.org/2000/svg" xmlns:xlink="http://www.w3.org/1999/xlink" width="400" height="324" viewBox="0 0 400 324">
  <defs>
    <clipPath id="clip-path">
      <rect id="Rectángulo_422694" data-name="Rectángulo 422694" width="400" height="324" transform="translate(1020 1418)" fill="#fff" stroke="#707070" stroke-width="1"/>
    </clipPath>
  </defs>
  <g id="Grupo_1234670" data-name="Grupo 1234670" transform="translate(-1020 -1418)">
    <rect id="Rectángulo_422735" data-name="Rectángulo 422735" width="228" height="310" transform="translate(1124 1418)" fill="#cee29d"/>
    <g id="Enmascarar_grupo_1211510" data-name="Enmascarar grupo 1211510" clip-path="url(#clip-path)">
      <g id="OBJECTS" transform="translate(1026.968 1383.068)">
        <g id="Grupo_1234604" data-name="Grupo 1234604" transform="translate(42.62 345.45)">
          <path id="Trazado_1235771" data-name="Trazado 1235771" d="M336.7,452.117H49.361a6.741,6.741,0,0,1-6.741-6.741h0a6.741,6.741,0,0,1,6.741-6.741H336.7a6.741,6.741,0,0,1,6.741,6.741h0A6.741,6.741,0,0,1,336.7,452.117Z" transform="translate(-42.62 -438.635)" fill="#e6edff"/>
        </g>
        <g id="Grupo_1234614" data-name="Grupo 1234614" transform="translate(48.033 54.488)">
          <g id="Grupo_1234607" data-name="Grupo 1234607" transform="translate(192.471)">
            <g id="Grupo_1234606" data-name="Grupo 1234606">
              <g id="Grupo_1234605" data-name="Grupo 1234605">
                <path id="Trazado_1235774" data-name="Trazado 1235774" d="M317.015,54.658a16.418,16.418,0,0,0-3.052.916,2.726,2.726,0,1,1-4.581,2.837,16.577,16.577,0,0,0-2.2,2.327,2.651,2.651,0,0,1,.282.115,2.724,2.724,0,1,1-2.556,4.811,2.607,2.607,0,0,1-.288-.192,16.4,16.4,0,0,0-.745,3.136,2.605,2.605,0,0,1,.338-.046,2.725,2.725,0,1,1-.193,5.419,16.373,16.373,0,0,0,.928,3.12,2.634,2.634,0,0,1,.306-.237,2.724,2.724,0,0,1,2.889,4.619,2.8,2.8,0,0,1-.376.186,16.617,16.617,0,0,0,2.382,2.25,2.778,2.778,0,0,1,.157-.384,2.724,2.724,0,0,1,4.811,2.556,2.683,2.683,0,0,1-.248.371,16.371,16.371,0,0,0,3.2.751,2.72,2.72,0,1,1,5.386-.62,2.682,2.682,0,0,1-.03.45,16.4,16.4,0,0,0,3.151-.956,2.72,2.72,0,1,1,4.355-3.229,2.761,2.761,0,0,1,.192.389,16.581,16.581,0,0,0,2.234-2.4,2.694,2.694,0,0,1-.374-.153,2.725,2.725,0,1,1,2.89-4.588,16.434,16.434,0,0,0,.726-3.172,2.751,2.751,0,0,1-.365.05,2.724,2.724,0,1,1-.192-5.444,2.681,2.681,0,0,1,.359.023,16.347,16.347,0,0,0-.945-3.083,2.718,2.718,0,1,1-3.149-4.417,2.651,2.651,0,0,1,.291-.143,16.586,16.586,0,0,0-2.341-2.182,2.563,2.563,0,0,1-.112.274,2.727,2.727,0,1,1-4.643-2.807,16.358,16.358,0,0,0-3.1-.719,2.717,2.717,0,1,1-5.406.468A2.155,2.155,0,0,1,317.015,54.658Zm2.871,6.727a9.471,9.471,0,1,1-9.13,9.8A9.471,9.471,0,0,1,319.886,61.384Z" transform="translate(-303.879 -54.488)" fill="#e6edff"/>
              </g>
            </g>
          </g>
          <g id="Grupo_1234609" data-name="Grupo 1234609" transform="translate(0 41.449)">
            <ellipse id="Elipse_12077" data-name="Elipse 12077" cx="30.664" cy="28.138" rx="30.664" ry="28.138" fill="#e6edff"/>
            <g id="Grupo_1234608" data-name="Grupo 1234608" transform="translate(4.608 9.907)">
              <path id="Trazado_1235775" data-name="Trazado 1235775" d="M81.178,144.483l-23.915-7.655a21.52,21.52,0,0,0-1.413,7.655c0,12.75,11.433,23.242,25.328,23.242a27.072,27.072,0,0,0,13.033-3.313Z" transform="translate(-55.85 -125.817)" fill="#628aec"/>
              <path id="Trazado_1235776" data-name="Trazado 1235776" d="M91.023,146.361l13.2,19.836a24.28,24.28,0,0,0,8.889-8.463,21.77,21.77,0,0,0,3.24-11.373Z" transform="translate(-64.382 -128.13)" fill="#bfd2ff"/>
              <path id="Trazado_1235777" data-name="Trazado 1235777" d="M91.214,139.4l25.325-.321a21.651,21.651,0,0,0-2.206-9.17,23.418,23.418,0,0,0-5.98-7.62Z" transform="translate(-64.428 -122.291)" fill="#fefeff"/>
            </g>
          </g>
          <g id="Grupo_1234610" data-name="Grupo 1234610" transform="translate(90.013 16.392)">
            <rect id="Rectángulo_422715" data-name="Rectángulo 422715" width="9.169" height="22.041" transform="translate(4.913 25.672)" fill="#628aec"/>
            <rect id="Rectángulo_422716" data-name="Rectángulo 422716" width="9.169" height="32.827" transform="translate(19.089 14.886)" fill="#628aec"/>
            <rect id="Rectángulo_422717" data-name="Rectángulo 422717" width="9.169" height="47.713" transform="translate(33.265)" fill="#628aec"/>
            <rect id="Rectángulo_422718" data-name="Rectángulo 422718" width="9.169" height="26.845" transform="translate(47.44 20.868)" fill="#628aec"/>
            <path id="Trazado_1235778" data-name="Trazado 1235778" d="M168.607,76.738v47.05h62.665" transform="translate(-168.607 -76.277)" fill="none" stroke="#628aec" stroke-miterlimit="10" stroke-width="0.876"/>
          </g>
          <g id="Grupo_1234613" data-name="Grupo 1234613" transform="translate(205.019 30.68)">
            <g id="Grupo_1234612" data-name="Grupo 1234612">
              <g id="Grupo_1234611" data-name="Grupo 1234611">
                <path id="Trazado_1235779" data-name="Trazado 1235779" d="M346.272,95.331a32.17,32.17,0,0,0-6,1.8,5.28,5.28,0,0,1,.345.445,5.36,5.36,0,1,1-9.352,5.131,32.632,32.632,0,0,0-4.317,4.574,5.343,5.343,0,1,1-4.47,9.686,5.29,5.29,0,0,1-.566-.378,32.19,32.19,0,0,0-1.466,6.168,5.343,5.343,0,1,1,1.042,10.613,5.253,5.253,0,0,1-.76-.05,32.258,32.258,0,0,0,1.824,6.134,5.232,5.232,0,0,1,.6-.466,5.356,5.356,0,0,1,5.681,9.081,5.292,5.292,0,0,1-.741.366,32.679,32.679,0,0,0,4.683,4.424,5.214,5.214,0,0,1,.309-.756,5.355,5.355,0,1,1,9.459,5.024,5.3,5.3,0,0,1-.487.73,32.261,32.261,0,0,0,6.3,1.478A5.355,5.355,0,1,1,358.89,159a32.218,32.218,0,0,0,6.2-1.88,5.356,5.356,0,1,1,8.939-5.585,32.647,32.647,0,0,0,4.393-4.714,5.291,5.291,0,0,1-.736-.3,5.355,5.355,0,1,1,5.024-9.459,5.271,5.271,0,0,1,.658.44,32.178,32.178,0,0,0,1.426-6.237,5.191,5.191,0,0,1-.717.1,5.359,5.359,0,1,1,.327-10.658,32.275,32.275,0,0,0-1.858-6.063,5.226,5.226,0,0,1-.513.4,5.355,5.355,0,0,1-5.68-9.081,5.265,5.265,0,0,1,.572-.282,32.659,32.659,0,0,0-4.6-4.291,5.219,5.219,0,0,1-.22.539,5.355,5.355,0,0,1-9.459-5.024,5.291,5.291,0,0,1,.329-.495,32.215,32.215,0,0,0-6.1-1.414,5.071,5.071,0,0,1,.073.541,5.355,5.355,0,1,1-10.7.379A5.11,5.11,0,0,1,346.272,95.331Zm5.533,10.025a21.824,21.824,0,1,1-21.038,22.583A21.824,21.824,0,0,1,351.805,105.356Z" transform="translate(-320.445 -94.994)" fill="#bfd2ff"/>
              </g>
            </g>
          </g>
        </g>
        <g id="Grupo_1234644" data-name="Grupo 1234644" transform="translate(98.804 96.542)">
          <g id="Grupo_1234620" data-name="Grupo 1234620" transform="translate(115.035)">
            <g id="Grupo_1234615" data-name="Grupo 1234615" transform="translate(14.433 1.425)">
              <path id="Trazado_1235780" data-name="Trazado 1235780" d="M306.893,127c-.658-.481-1.475-.888-1.73-1.663-.41-1.248.928-2.547.6-3.818-.277-1.068-1.545-1.5-2.636-1.662s-2.343-.314-2.966-1.224a5.96,5.96,0,0,1-.518-2.671,4.895,4.895,0,0,0-3.434-3.967c-1.9-.538-3.548,1.182-5.13,1.872a5.45,5.45,0,0,0-3.169,4.089,13.055,13.055,0,0,0,.284,5.412,38.657,38.657,0,0,1,1.039,5.355,15.723,15.723,0,0,1-.857,5.714,5.97,5.97,0,0,0,.234,4.307,5.443,5.443,0,0,0,3.386,2.1,18.5,18.5,0,0,0,7.836.735,10.552,10.552,0,0,0,6.49-3.434,8.512,8.512,0,0,0,2.581-3.557A6.709,6.709,0,0,0,306.893,127Z" transform="translate(-287.73 -111.892)" fill="#485070"/>
              <path id="Trazado_1235781" data-name="Trazado 1235781" d="M294.772,119a4.3,4.3,0,0,1-.4,3.318c-.188.326-.485.658-.86.632-.432-.03-.673-.5-.809-.914a14.787,14.787,0,0,1-.709-3.5c-.058-.729.079-2.044,1.114-1.792C293.913,116.938,294.567,118.3,294.772,119Z" transform="translate(-288.762 -113.061)" fill="#ff6ea1"/>
            </g>
            <path id="Trazado_1235782" data-name="Trazado 1235782" d="M289.116,141.98c-.763,2.66-5.089,3.945-7.579.879-.305-.376-.589-.773-.863-1.172-2.685.527-6.677,1.7-8.471,3.874a6.822,6.822,0,0,0-1.119,2.474,98.7,98.7,0,0,0-2.327,9.68,2.193,2.193,0,0,0-.011,1.124,2.5,2.5,0,0,0,.929,1.019c3.71,2.925,4.685,7.648,5.9,11.917,1.853,6.48,2.707,15.442,4.56,21.921,6.069.467,31.356-5.27,34.4-7.934-4.363-7.856-7.895-22.029-9.278-31.89-.586-4.178-2.226-8.157-3.824-12.07-.374-.916-.713-3.03-1.406-3.623-.923-.789-9.735.545-10.668.576q.05.781.071,1.562A5.352,5.352,0,0,1,289.116,141.98Z" transform="translate(-268.675 -116.783)" fill="#ff6ea1"/>
            <g id="Grupo_1234616" data-name="Grupo 1234616" transform="translate(10.236 14.399)">
              <g id="XMLID_18_">
                <g id="XMLID_19_">
                  <path id="Trazado_1235783" data-name="Trazado 1235783" d="M283.381,135.533a11.686,11.686,0,0,0-1.192-2.617,7.479,7.479,0,0,0,4.149-1.411,12.671,12.671,0,0,0,1.67-1.47c.185-.189.467-.669.762-1.013-.4.466.585,3.091.782,3.627a9.629,9.629,0,0,0,1.8,3.124c.8.884,1.319,1.033,1.459,2.283a9.176,9.176,0,0,1-.579,4.006,3.818,3.818,0,0,1-1.382,1.991,3.534,3.534,0,0,1-2.784.247c-1.569-.411-3.72-1.719-4.281-3.357-.294-.859.036-1.3.114-2.178A8.515,8.515,0,0,0,283.381,135.533Z" transform="translate(-282.189 -129.021)" fill="#ffc1a6"/>
                </g>
              </g>
              <g id="XMLID_16_">
                <g id="XMLID_17_">
                  <path id="Trazado_1235784" data-name="Trazado 1235784" d="M283.91,138.334c0-.089,0-.176-.008-.266a12.181,12.181,0,0,0-1.713-5.152,7.479,7.479,0,0,0,4.149-1.411,12.671,12.671,0,0,0,1.67-1.47c.185-.189.467-.669.762-1.013.045.487.113.969.2,1.444A10.184,10.184,0,0,1,283.91,138.334Z" transform="translate(-282.189 -129.021)" fill="#e3856d"/>
                </g>
              </g>
            </g>
            <g id="Grupo_1234619" data-name="Grupo 1234619" transform="translate(1.566)">
              <path id="Trazado_1235785" data-name="Trazado 1235785" d="M271.142,124.042a11.621,11.621,0,0,0,3.985,6.242,4.853,4.853,0,0,0,1.786.985,2.274,2.274,0,0,0,1.956-.332,3.533,3.533,0,0,0,.949-2.671,22.463,22.463,0,0,0-.173-5.46,8.666,8.666,0,0,0-2.451-4.794c-1.1-1.015-4.107-2.486-5.43-1.089C270.323,118.443,270.695,122.226,271.142,124.042Z" transform="translate(-270.742 -111.548)" fill="#485070"/>
              <g id="XMLID_12_" transform="translate(1.93 5.945)">
                <g id="XMLID_13_">
                  <path id="Trazado_1235786" data-name="Trazado 1235786" d="M273.325,120.115c.258-1.716,2.2-.442,3.774-1.17a7.481,7.481,0,0,1,3.952-1.073,5.654,5.654,0,0,1,3.7,1.644c.259.272.5.55.717.83a19.6,19.6,0,0,1,1.6,3.161l.016.074a10.66,10.66,0,0,1-1.422,6.074,5.567,5.567,0,0,1-4.83,2.918,4.761,4.761,0,0,1-3.074-1.194,10.557,10.557,0,0,1-2.259-2.985C274.575,126.722,273.041,122.005,273.325,120.115Z" transform="translate(-273.29 -117.859)" fill="#ffc1a6"/>
                </g>
              </g>
              <path id="Trazado_1235787" data-name="Trazado 1235787" d="M280.429,121.434a25.436,25.436,0,0,1-5.523-1.563,6.212,6.212,0,0,1-2.974-2.947c-.576-1.328-.179-2.256.58-3.4a8.248,8.248,0,0,1,4.719-3.344c1.9-.5,4.282.237,6.106.872a7.438,7.438,0,0,1,3.333,2.169c1.485,1.794,1.991,4.886,1.874,7.154a12.211,12.211,0,0,1-.573,2.759c-.215.755-.6,1.613-1.479,1.722-.6.075-1.809-1.644-2.425-2.028a11.255,11.255,0,0,0-3.168-1.272C280.743,121.51,280.586,121.471,280.429,121.434Z" transform="translate(-270.964 -110.01)" fill="#485070"/>
              <g id="Grupo_1234617" data-name="Grupo 1234617" transform="translate(2.913 11.875)">
                <path id="Trazado_1235788" data-name="Trazado 1235788" d="M279.441,127.618a.549.549,0,1,0,.491-.6A.55.55,0,0,0,279.441,127.618Z" transform="translate(-275.764 -126.01)" fill="#485070"/>
                <path id="Trazado_1235789" data-name="Trazado 1235789" d="M280.171,125.723a1.694,1.694,0,0,0-1.1.144" transform="translate(-275.675 -125.688)" fill="none" stroke="#485070" stroke-linecap="round" stroke-miterlimit="10" stroke-width="0.75"/>
                <path id="Trazado_1235790" data-name="Trazado 1235790" d="M274.954,128.825a.549.549,0,1,0,.491-.6A.55.55,0,0,0,274.954,128.825Z" transform="translate(-274.675 -126.303)" fill="#485070"/>
                <path id="Trazado_1235791" data-name="Trazado 1235791" d="M275.684,126.93a1.694,1.694,0,0,0-1.1.144" transform="translate(-274.587 -125.981)" fill="none" stroke="#485070" stroke-linecap="round" stroke-miterlimit="10" stroke-width="0.75"/>
                <path id="Trazado_1235792" data-name="Trazado 1235792" d="M277.467,129.1a1.909,1.909,0,0,1-.219,1.407.557.557,0,0,0-.125.349.328.328,0,0,0,.29.246.945.945,0,0,0,.4-.06" transform="translate(-275.202 -126.516)" fill="none" stroke="#485070" stroke-linecap="round" stroke-miterlimit="10" stroke-width="0.75"/>
                <path id="Trazado_1235793" data-name="Trazado 1235793" d="M280.648,132.728a2.2,2.2,0,0,1-1.841.679" transform="translate(-275.611 -127.396)" fill="none" stroke="#485070" stroke-linecap="round" stroke-miterlimit="10" stroke-width="0.75"/>
              </g>
              <g id="Grupo_1234618" data-name="Grupo 1234618" transform="translate(11.83 9.725)">
                <path id="Trazado_1235794" data-name="Trazado 1235794" d="M290.383,124.661a2.017,2.017,0,1,1-2.212-1.8A2.017,2.017,0,0,1,290.383,124.661Z" transform="translate(-286.36 -122.85)" fill="#ffc1a6"/>
                <path id="Trazado_1235795" data-name="Trazado 1235795" d="M289.138,124.325a.866.866,0,0,0-.807,1.235.592.592,0,0,1,1.033.382" transform="translate(-286.819 -123.208)" fill="none" stroke="#485070" stroke-linecap="round" stroke-linejoin="round" stroke-miterlimit="10" stroke-width="0.75"/>
              </g>
            </g>
          </g>
          <g id="Grupo_1234621" data-name="Grupo 1234621" transform="translate(0 142.59)">
            <path id="Trazado_1235796" data-name="Trazado 1235796" d="M300.108,401.156H140.328a6.62,6.62,0,0,1-6.62-6.62v-89.65a6.62,6.62,0,0,1,6.62-6.62h159.78a6.62,6.62,0,0,1,6.62,6.62v89.65A6.62,6.62,0,0,1,300.108,401.156Z" transform="translate(-120.9 -298.267)" fill="#dce4ff" stroke="#485070" stroke-miterlimit="10" stroke-width="0.75"/>
            <path id="Trazado_1235797" data-name="Trazado 1235797" d="M315.434,434.281H116.8a8.259,8.259,0,0,0,8.259,8.259H307.176A8.26,8.26,0,0,0,315.434,434.281Z" transform="translate(-116.798 -331.261)" fill="#bac5ef" stroke="#485070" stroke-miterlimit="10" stroke-width="0.75"/>
            <path id="Trazado_1235798" data-name="Trazado 1235798" d="M298.732,399.221H144.362a5.173,5.173,0,0,1-5.173-5.173V308.774a5.173,5.173,0,0,1,5.173-5.173h154.37a5.173,5.173,0,0,1,5.173,5.173v85.273A5.173,5.173,0,0,1,298.732,399.221Z" transform="translate(-122.23 -299.561)" fill="#545d78"/>
          </g>
          <path id="Trazado_1235799" data-name="Trazado 1235799" d="M250.142,300.409a1.282,1.282,0,1,1-1.282-1.282A1.282,1.282,0,0,1,250.142,300.409Z" transform="translate(-148.522 -155.885)" fill="#333"/>
          <g id="Grupo_1234638" data-name="Grupo 1234638" transform="translate(33.943 49.584)">
            <g id="Grupo_1234622" data-name="Grupo 1234622">
              <rect id="Rectángulo_422719" data-name="Rectángulo 422719" width="192.111" height="130.749" transform="translate(0 192.111) rotate(-90)" fill="#fefeff"/>
            </g>
            <g id="Grupo_1234631" data-name="Grupo 1234631" transform="translate(20.05 141.235)">
              <g id="Grupo_1234630" data-name="Grupo 1234630" transform="translate(10.196 5.7)">
                <g id="Grupo_1234623" data-name="Grupo 1234623" transform="translate(1.491 1.849)">
                  <path id="Trazado_1235800" data-name="Trazado 1235800" d="M249.158,399.991l-17.4-21.677L216.629,397.7l-13.116-14.172,1.714-1.587,11.25,12.156,15.256-19.548,16.944,21.111,9.834-20.081,20.762-3.671.407,2.3-19.592,3.464Z" transform="translate(-203.513 -371.909)" fill="#e6edff"/>
                </g>
                <g id="Grupo_1234624" data-name="Grupo 1234624" transform="translate(74.457)">
                  <path id="Trazado_1235801" data-name="Trazado 1235801" d="M305.844,372.467a3,3,0,1,0-3,3A3,3,0,0,0,305.844,372.467Z" transform="translate(-299.847 -369.468)" fill="#ff6ea1"/>
                </g>
                <g id="Grupo_1234625" data-name="Grupo 1234625" transform="translate(44.022 24.767)">
                  <path id="Trazado_1235802" data-name="Trazado 1235802" d="M265.662,405.166a3,3,0,1,0-3,3A3,3,0,0,0,265.662,405.166Z" transform="translate(-259.665 -402.167)" fill="#628aec"/>
                </g>
                <g id="Grupo_1234626" data-name="Grupo 1234626" transform="translate(53.93 3.568)">
                  <path id="Trazado_1235803" data-name="Trazado 1235803" d="M278.743,377.178a3,3,0,1,0-3,3A3,3,0,0,0,278.743,377.178Z" transform="translate(-272.746 -374.179)" fill="#ffb861"/>
                </g>
                <g id="Grupo_1234627" data-name="Grupo 1234627" transform="translate(26.611 3.568)">
                  <circle id="Elipse_12078" data-name="Elipse 12078" cx="2.999" cy="2.999" r="2.999" fill="#ffb861"/>
                </g>
                <g id="Grupo_1234628" data-name="Grupo 1234628" transform="translate(11.89 22.483)">
                  <circle id="Elipse_12079" data-name="Elipse 12079" cx="2.999" cy="2.999" r="2.999" fill="#ff6ea1"/>
                </g>
                <g id="Grupo_1234629" data-name="Grupo 1234629" transform="translate(0 10.246)">
                  <path id="Trazado_1235804" data-name="Trazado 1235804" d="M207.541,385.995a3,3,0,1,0-3,3A3,3,0,0,0,207.541,385.995Z" transform="translate(-201.544 -382.996)" fill="#3fd4c7"/>
                </g>
              </g>
              <path id="Trazado_1235805" data-name="Trazado 1235805" d="M188.083,361.942v40.893h91.254" transform="translate(-188.083 -361.942)" fill="none" stroke="#485070" stroke-miterlimit="10" stroke-width="0.75"/>
            </g>
            <g id="Grupo_1234637" data-name="Grupo 1234637" transform="translate(18.472 13.686)">
              <g id="Grupo_1234635" data-name="Grupo 1234635" transform="translate(0.642 18.727)">
                <rect id="Rectángulo_422720" data-name="Rectángulo 422720" width="13.927" height="32.351" transform="translate(8.196 43.543)" fill="#ffb861"/>
                <rect id="Rectángulo_422721" data-name="Rectángulo 422721" width="13.927" height="48.184" transform="translate(29.727 27.711)" fill="#ff6ea1"/>
                <g id="Grupo_1234634" data-name="Grupo 1234634" transform="translate(5.599)">
                  <g id="Grupo_1234633" data-name="Grupo 1234633">
                    <path id="Trazado_1235806" data-name="Trazado 1235806" d="M194.239,253.019a128.4,128.4,0,0,0,43.778-32.775" transform="translate(-194.239 -218.747)" fill="none" stroke="#485070" stroke-linecap="round" stroke-miterlimit="10" stroke-width="0.75"/>
                    <g id="Grupo_1234632" data-name="Grupo 1234632" transform="translate(42.368)">
                      <path id="Trazado_1235807" data-name="Trazado 1235807" d="M252.86,218.268l-.991,2.823-.411-1.243-1.282-.259Z" transform="translate(-250.176 -218.268)" fill="#485070"/>
                    </g>
                  </g>
                </g>
                <rect id="Rectángulo_422722" data-name="Rectángulo 422722" width="13.927" height="70.032" transform="translate(51.258 5.862)" fill="#3fd4c7"/>
                <rect id="Rectángulo_422723" data-name="Rectángulo 422723" width="13.927" height="39.403" transform="translate(72.788 36.491)" fill="#628aec"/>
                <path id="Trazado_1235808" data-name="Trazado 1235808" d="M186.847,227.73v68.833H279.9" transform="translate(-186.847 -220.563)" fill="none" stroke="#485070" stroke-miterlimit="10" stroke-width="0.75"/>
              </g>
              <g id="Grupo_1234636" data-name="Grupo 1234636">
                <rect id="Rectángulo_422724" data-name="Rectángulo 422724" width="93.443" height="4.706" transform="translate(0.111 101.371)" fill="#e6edff"/>
                <rect id="Rectángulo_422725" data-name="Rectángulo 422725" width="56.154" height="4.706" transform="translate(18.644 8.219)" fill="#e6edff"/>
                <rect id="Rectángulo_422726" data-name="Rectángulo 422726" width="93.443" height="4.706" fill="#e6edff"/>
                <rect id="Rectángulo_422727" data-name="Rectángulo 422727" width="93.443" height="4.706" transform="translate(0.111 109.998)" fill="#e6edff"/>
                <rect id="Rectángulo_422728" data-name="Rectángulo 422728" width="93.443" height="4.706" transform="translate(0.111 118.625)" fill="#e6edff"/>
              </g>
            </g>
          </g>
          <g id="Grupo_1234643" data-name="Grupo 1234643" transform="translate(103.75 20.927)">
            <g id="Grupo_1234640" data-name="Grupo 1234640" transform="translate(11.169)">
              <g id="Grupo_1234639" data-name="Grupo 1234639" transform="translate(23.21)">
                <path id="Trazado_1235809" data-name="Trazado 1235809" d="M303.464,138.312c-1.089.257-2.17.561-3.244.863a1.274,1.274,0,0,0-.511.23,1.221,1.221,0,0,0-.317.7,14.03,14.03,0,0,0,2.459,10.7c.666.832,1.456,1.556,2.177,2.34s1.659,1.471,2.3,2.284a11.469,11.469,0,0,1,1.4,3.608,35.226,35.226,0,0,1,1.454,7.993c.115,1.8.2,3.846,1.581,5.006a4.072,4.072,0,0,0,4.949-.239,9.51,9.51,0,0,0,2.814-4.474,35.842,35.842,0,0,0,2.193-13.715c-.206-4.233-1.5-9.332-4.237-12.681a10.126,10.126,0,0,0-7.741-3.288A21.634,21.634,0,0,0,303.464,138.312Z" transform="translate(-299.164 -137.639)" fill="#ff6ea1"/>
                <path id="Trazado_1235810" data-name="Trazado 1235810" d="M308.26,166.791q1.508-8.157,3.016-16.314" transform="translate(-301.371 -140.753)" fill="none" stroke="#485070" stroke-miterlimit="10" stroke-width="0.75"/>
                <path id="Trazado_1235811" data-name="Trazado 1235811" d="M309.647,151.827l1.043,2.665" transform="translate(-301.707 -141.081)" fill="none" stroke="#485070" stroke-miterlimit="10" stroke-width="0.75"/>
              </g>
              <path id="Trazado_1235812" data-name="Trazado 1235812" d="M279.181,183.665a3.789,3.789,0,0,1,1.2-.224c3.673-.08,7.263-.46,10.971-.832q3.723-.374,7.439-.428c2-.029,4.3.405,6.246-.143,2.056-.581,3.455-1.157,4.484-2.859a26.7,26.7,0,0,0,1.345-2.518,2.557,2.557,0,0,0,.348-1.543c-.159-.747-.985-1.2-1.8-1.5-1.723-.633-2.788-1.619-4.766-1.822a20.339,20.339,0,0,0-6.149.481c-3.94.827-7.883,1.169-11.75,2.319a103.694,103.694,0,0,0-12.677,4.965,13.242,13.242,0,0,0-4.167,2.518,4.36,4.36,0,0,0-.429,5.915,1.981,1.981,0,0,0,1.778.75c.725-.129,1.21-1.082.6-1.365C275.844,188.914,275.949,184.825,279.181,183.665Z" transform="translate(-268.521 -145.908)" fill="#ffc1a6"/>
            </g>
            <g id="Grupo_1234642" data-name="Grupo 1234642" transform="translate(0 6.331)">
              <g id="Grupo_1234641" data-name="Grupo 1234641">
                <path id="Trazado_1235813" data-name="Trazado 1235813" d="M266.123,188.242l.027-.243c-.061.149-.122.3-.183.448Z" transform="translate(-256.733 -156.186)" fill="#ff6ea1"/>
                <path id="Trazado_1235814" data-name="Trazado 1235814" d="M273.483,147.3a2.632,2.632,0,0,0-1.012-1.054c-1.284-.751-3.983.4-5.138,1.041a7.5,7.5,0,0,0-.724.448,18.777,18.777,0,0,0-3.681,3.256c-.37.405-.732.819-1.089,1.232-5.344,6.17-8.794,12.968-7.93,21.23.185,1.769.538,3.677,1.856,4.872a4.705,4.705,0,0,0,3.962,1.018,7.131,7.131,0,0,0,3.505-1.864l-.039.338.2-.482c2.108-2.044,2.6-4.873,3.111-7.626,0-.006,0-.012,0-.019l5.024-12.332C272.328,155.386,274.913,149.985,273.483,147.3Z" transform="translate(-253.775 -145.997)" fill="#ff6ea1"/>
              </g>
              <path id="Trazado_1235815" data-name="Trazado 1235815" d="M265.074,216.235c2.306-3.767-1.9-4.39-2.508-7.755a3.616,3.616,0,0,1-.012-1.227c.585-3.667.845-7.288,1.135-11.026q.29-3.754.91-7.459a45.558,45.558,0,0,0,1.005-5.244c-.041-.551-.1-1.105-.193-1.644a5.743,5.743,0,0,0-3.459-2.827,6.6,6.6,0,0,0-6.057,1.206,16.55,16.55,0,0,0-1.122,2.014,20.932,20.932,0,0,0-.449,5.525c.138,4.027-.226,7.995.259,11.99a97.3,97.3,0,0,0,2.822,13.248,12.342,12.342,0,0,0,1.843,4.468,4.59,4.59,0,0,0,6.029,1.176,2.1,2.1,0,0,0,1.1-1.675C266.373,216.268,265.477,215.665,265.074,216.235Z" transform="translate(-253.904 -153.947)" fill="#ffc1a6"/>
              <path id="Trazado_1235816" data-name="Trazado 1235816" d="M268.949,178.568a43,43,0,0,1,5.754-13.931" transform="translate(-257.456 -150.519)" fill="none" stroke="#485070" stroke-miterlimit="10" stroke-width="0.75"/>
              <path id="Trazado_1235817" data-name="Trazado 1235817" d="M273.991,168.223l1.972-1.271" transform="translate(-258.679 -151.08)" fill="none" stroke="#485070" stroke-miterlimit="10" stroke-width="0.75"/>
            </g>
          </g>
        </g>
        <g id="Grupo_1234659" data-name="Grupo 1234659" transform="translate(48.948 204.732)">
          <path id="Trazado_1235818" data-name="Trazado 1235818" d="M115.655,292.021c2.819,3.222,3.975,7.567,4.933,11.636l3.715,15.778a18.742,18.742,0,0,1,.619,3.748,27.475,27.475,0,0,1-1,6.583c-.613,2.515-2.118,2.36-4.358,2.137-3.543-.352-8.363-1.424-10.755-4.313a10.63,10.63,0,0,1-1.83-4.962q-.676-3.615-1.351-7.23c-1.841-9.847-3.68-20-1.6-29.8A18.692,18.692,0,0,1,115.655,292.021Z" transform="translate(-63.62 -260.794)" fill="#fff"/>
          <path id="Trazado_1235819" data-name="Trazado 1235819" d="M122.773,334.742c1.566.743,3.066,1.7,4.574,2.607,2.395,1.441,4.894,2.456,7.348,3.795a7.306,7.306,0,0,0,2.17.892c1.313.232,2.7-.262,4.02-.085a5.21,5.21,0,0,1,3.915,3.9c1.079,3.508-1.447,2.2-3.121,1.9l-3.916-.719a116.686,116.686,0,0,0-15.314-1.667c-2.856-.148-7.889-.082-10.026-2.685-1.038-1.265-2.187-6.783-.82-8.153a2.1,2.1,0,0,1,.877-.475,13.3,13.3,0,0,1,8.207-.127A15.991,15.991,0,0,1,122.773,334.742Z" transform="translate(-65.53 -272.372)" fill="#9c5240"/>
          <g id="Grupo_1234651" data-name="Grupo 1234651" transform="translate(0 41.273)">
            <path id="Trazado_1235820" data-name="Trazado 1235820" d="M107.1,386.856H57a2.978,2.978,0,0,1-2.978-2.978h0A2.978,2.978,0,0,1,57,380.9h50.1a2.978,2.978,0,0,1,2.978,2.978h0A2.978,2.978,0,0,1,107.1,386.856Z" transform="translate(-51.714 -325.185)" fill="#485070"/>
            <path id="Trazado_1235821" data-name="Trazado 1235821" d="M50.975,329.721V312.139a4.8,4.8,0,0,1,4.8-4.8H94.953a4.8,4.8,0,0,1,4.8,4.8v17.582a4.8,4.8,0,0,1-4.8,4.8H55.773A4.8,4.8,0,0,1,50.975,329.721Z" transform="translate(-50.975 -307.341)" fill="#485070"/>
            <g id="Grupo_1234645" data-name="Grupo 1234645" transform="translate(6.244 22.759)">
              <rect id="Rectángulo_422729" data-name="Rectángulo 422729" width="3.03" height="36.159" fill="#485070"/>
            </g>
            <g id="Grupo_1234646" data-name="Grupo 1234646" transform="translate(38.926 22.759)">
              <rect id="Rectángulo_422730" data-name="Rectángulo 422730" width="3.03" height="36.159" fill="#485070"/>
            </g>
            <g id="Grupo_1234647" data-name="Grupo 1234647" transform="translate(27.252 60.174)">
              <rect id="Rectángulo_422731" data-name="Rectángulo 422731" width="3.03" height="43.922" fill="#485070"/>
            </g>
            <g id="Grupo_1234648" data-name="Grupo 1234648" transform="translate(4.479 60.174)">
              <rect id="Rectángulo_422732" data-name="Rectángulo 422732" width="3.03" height="43.922" fill="#485070"/>
            </g>
            <g id="Grupo_1234649" data-name="Grupo 1234649" transform="translate(53.043 60.174)">
              <rect id="Rectángulo_422733" data-name="Rectángulo 422733" width="3.03" height="43.922" fill="#485070"/>
            </g>
            <g id="Grupo_1234650" data-name="Grupo 1234650" transform="translate(37.498 60.174)">
              <rect id="Rectángulo_422734" data-name="Rectángulo 422734" width="3.03" height="43.922" fill="#485070"/>
            </g>
          </g>
          <g id="Grupo_1234653" data-name="Grupo 1234653" transform="translate(25.541 72.355)">
            <path id="Trazado_1235822" data-name="Trazado 1235822" d="M160.6,407.139c-1.718.361-2.9.448-4.927.733-2.951.416-5.911.761-8.879,1.017.774,5.339,1.478,10.034,1.657,10.978.776,4.089.348,14.336,2.173,18.224a28.645,28.645,0,0,0,6.222-.261C157.95,427.583,158.856,417.3,160.6,407.139Z" transform="translate(-99.76 -362.631)" fill="#cf9378"/>
            <path id="Trazado_1235823" data-name="Trazado 1235823" d="M130.061,401.88a12.874,12.874,0,0,0,.192,2.506,13.759,13.759,0,0,0,9.255,3.926,15.94,15.94,0,0,0,5.7-.795q.326-6,.713-12c.333-5.2.6-10.4,1.249-15.578a75.084,75.084,0,0,0,.076-13.986c-1.326-5.082-4.7-6.47-4.7-6.47a133.9,133.9,0,0,0-16.666-5.322c-8.872-1.948-17.89-3.393-26.814-5.337-4.289-.934-11.464-.761-13.678,3.927-2.562,5.425,2.546,12.636,6.659,15.769,4.256,3.24,9.508,4.88,14.735,6.02a95.753,95.753,0,0,0,22.549,2.169C129.086,376.714,130.05,400,130.061,401.88Z" transform="translate(-84.696 -348.378)" fill="#66a3f2"/>
            <path id="Trazado_1235824" data-name="Trazado 1235824" d="M129.316,376.756c.014-.014.03-.027.044-.041-1.649-1.638-3.205-3.371-4.854-5.007-2.454-2.435-4.837-4.946-7.274-7.4-4.842-4.873-9.709-9.722-14.446-14.7-1.242-.254-2.484-.512-3.723-.782-4.289-.935-11.464-.761-13.678,3.927-2.562,5.425,2.546,12.636,6.659,15.769,4.256,3.24,9.508,4.88,14.735,6.02a95.753,95.753,0,0,0,22.549,2.169C129.323,376.713,129.32,376.738,129.316,376.756Z" transform="translate(-84.696 -348.377)" fill="#485070"/>
            <path id="Trazado_1235825" data-name="Trazado 1235825" d="M143.7,385.3c.008-2.371.33-5.266.338-7.637" transform="translate(-99.008 -355.482)" fill="none" stroke="#485070" stroke-miterlimit="10" stroke-width="0.398"/>
            <path id="Trazado_1235826" data-name="Trazado 1235826" d="M144.867,358.36a110.777,110.777,0,0,0-21.453-5.189" transform="translate(-94.088 -349.54)" fill="none" stroke="#485070" stroke-miterlimit="10" stroke-width="0.75"/>
            <g id="Grupo_1234652" data-name="Grupo 1234652" transform="translate(49.443 68.912)">
              <path id="Trazado_1235827" data-name="Trazado 1235827" d="M170.727,454.043H151.141a.728.728,0,0,1-.729-.729v-1.47h20.314v2.2Z" transform="translate(-150.08 -442.388)" fill="#b3b3b3"/>
              <path id="Trazado_1235828" data-name="Trazado 1235828" d="M170.335,450.135a2.144,2.144,0,0,0,.192-.323,2.784,2.784,0,0,0-1.029-3.157,9.123,9.123,0,0,0-3.37-1.458,56.177,56.177,0,0,0-7.634-1.758c-.692-.095-8.089-.773-8.057-1.107l-.343,5.6a5.864,5.864,0,0,0-.008,2.207Z" transform="translate(-149.974 -440.081)" fill="#485070"/>
              <path id="Trazado_1235829" data-name="Trazado 1235829" d="M154.647,440.073a3.513,3.513,0,0,1,4.089-.112,4.37,4.37,0,0,1,1.8,3.79,1.033,1.033,0,0,1-.262.745,1.151,1.151,0,0,1-.77.2l-3.5.042c-.728.009-1.656.178-2.162-.477C152.951,443.1,153.78,440.939,154.647,440.073Z" transform="translate(-150.82 -439.36)" fill="#485070"/>
              <path id="Trazado_1235830" data-name="Trazado 1235830" d="M164.664,444.5a1.609,1.609,0,0,0-1.628,1.012" transform="translate(-153.143 -440.605)" fill="none" stroke="#b3b3b3" stroke-linecap="round" stroke-miterlimit="10" stroke-width="0.75"/>
              <path id="Trazado_1235831" data-name="Trazado 1235831" d="M165.744,446.531a2.087,2.087,0,0,1,1.724-.985" transform="translate(-153.799 -440.861)" fill="none" stroke="#b3b3b3" stroke-linecap="round" stroke-miterlimit="10" stroke-width="0.75"/>
              <path id="Trazado_1235832" data-name="Trazado 1235832" d="M169.135,446.979a1.183,1.183,0,0,1,1.073-.732" transform="translate(-154.622 -441.031)" fill="none" stroke="#b3b3b3" stroke-linecap="round" stroke-miterlimit="10" stroke-width="0.75"/>
            </g>
          </g>
          <g id="Grupo_1234655" data-name="Grupo 1234655" transform="translate(18.134 70.882)">
            <path id="Trazado_1235833" data-name="Trazado 1235833" d="M118.071,403.182q-3.9.55-7.824.91c1.976,9.721,2.888,19.618,4.5,29.4,2.219-.008,4.243-.478,6.6-.426.449-2.962,1.354-20.551,2.745-30.867A49.457,49.457,0,0,1,118.071,403.182Z" transform="translate(-83.487 -359.961)" fill="#cf9378"/>
            <path id="Trazado_1235834" data-name="Trazado 1235834" d="M102.068,403.49c.538,2.19,1.164,3.532,3.321,4.389a12.479,12.479,0,0,0,5.916.831,9.907,9.907,0,0,0,4.882-2.261s2.784-41.5-.679-46.819c-4.237-6.507-13.512-7.842-20.74-9.428-6.331-1.39-12.737-2.526-19.129-3.768-1.56,5.918-.433,12.876,1.828,18.333l.035.084a12.569,12.569,0,0,0,10.533,7.58,94.788,94.788,0,0,0,10.183.318C98.175,372.75,100.143,395.652,102.068,403.49Z" transform="translate(-74.917 -346.433)" fill="#66a3f2"/>
            <path id="Trazado_1235835" data-name="Trazado 1235835" d="M105.755,380.693c.008-2.371.33-5.266.338-7.637" transform="translate(-82.397 -352.891)" fill="none" stroke="#485070" stroke-miterlimit="10" stroke-width="0.398"/>
            <g id="Grupo_1234654" data-name="Grupo 1234654" transform="translate(30.401 70.067)">
              <path id="Trazado_1235836" data-name="Trazado 1235836" d="M135.806,453.624H116.22a.728.728,0,0,1-.729-.729v-1.47h20.314v2.2Z" transform="translate(-115.16 -441.969)" fill="#b3b3b3"/>
              <path id="Trazado_1235837" data-name="Trazado 1235837" d="M135.414,449.715a2.144,2.144,0,0,0,.192-.323,2.784,2.784,0,0,0-1.029-3.157,9.123,9.123,0,0,0-3.37-1.458,56.177,56.177,0,0,0-7.634-1.758c-.692-.095-8.089-.773-8.057-1.107q-.172,2.8-.342,5.6a5.864,5.864,0,0,0-.008,2.207Z" transform="translate(-115.054 -439.661)" fill="#485070"/>
              <path id="Trazado_1235838" data-name="Trazado 1235838" d="M119.725,439.653a3.513,3.513,0,0,1,4.089-.112,4.37,4.37,0,0,1,1.8,3.79,1.033,1.033,0,0,1-.262.745,1.151,1.151,0,0,1-.77.2l-3.5.042c-.728.009-1.656.178-2.162-.477C118.03,442.682,118.859,440.519,119.725,439.653Z" transform="translate(-115.899 -438.94)" fill="#485070"/>
              <path id="Trazado_1235839" data-name="Trazado 1235839" d="M129.743,444.08a1.609,1.609,0,0,0-1.628,1.012" transform="translate(-118.222 -440.185)" fill="none" stroke="#b3b3b3" stroke-linecap="round" stroke-miterlimit="10" stroke-width="0.75"/>
              <path id="Trazado_1235840" data-name="Trazado 1235840" d="M130.822,446.112a2.088,2.088,0,0,1,1.724-.985" transform="translate(-118.879 -440.441)" fill="none" stroke="#b3b3b3" stroke-linecap="round" stroke-miterlimit="10" stroke-width="0.75"/>
              <path id="Trazado_1235841" data-name="Trazado 1235841" d="M134.214,446.559a1.183,1.183,0,0,1,1.073-.732" transform="translate(-119.702 -440.611)" fill="none" stroke="#b3b3b3" stroke-linecap="round" stroke-miterlimit="10" stroke-width="0.75"/>
            </g>
          </g>
          <g id="Grupo_1234656" data-name="Grupo 1234656" transform="translate(14.726 23.962)">
            <path id="Trazado_1235842" data-name="Trazado 1235842" d="M73.694,339.426q.268,1.432.537,2.864c3.3-1.733,7.239-1.371,10.962-1.377a50.515,50.515,0,0,0,23.483-5.866,31.537,31.537,0,0,1-.877-6.016c-.011-2.075-.869-4.085-.869-6.165-.136-2.81-.027-5.625.111-8.433.262-5.318.622-10.7-.372-15.927a23.391,23.391,0,0,0-3.976-9.531,12.391,12.391,0,0,0-3.712-3.683c-1.541-.782-3.851-.52-5.583-.673a14.847,14.847,0,0,0-3.805-.009,12.75,12.75,0,0,0-4.311,1.819c-7.173,4.3-8.045,11.242-10.2,18.711-1.079,3.73-2.768,7.262-3.851,10.992a21.213,21.213,0,0,0-.8,6.421c.048,1.959.8,3.706,1.162,5.631Q72.64,333.8,73.694,339.426Z" transform="translate(-70.417 -284.486)" fill="#fff"/>
            <path id="Trazado_1235843" data-name="Trazado 1235843" d="M101.531,293.5a6.9,6.9,0,0,0,4.832,1.617,3.027,3.027,0,0,0,1.7-.534,1.459,1.459,0,0,0,.545-1.6" transform="translate(-77.965 -286.547)" fill="none" stroke="#485070" stroke-linecap="round" stroke-miterlimit="10" stroke-width="0.398"/>
            <path id="Trazado_1235844" data-name="Trazado 1235844" d="M99.355,314.32a17.386,17.386,0,0,0,10.616,11.174" transform="translate(-77.437 -291.723)" fill="none" stroke="#485070" stroke-linecap="round" stroke-miterlimit="10" stroke-width="0.398"/>
            <path id="Trazado_1235845" data-name="Trazado 1235845" d="M105.492,319.545a8.054,8.054,0,0,0,5.235,2.815" transform="translate(-78.925 -292.991)" fill="none" stroke="#485070" stroke-linecap="round" stroke-miterlimit="10" stroke-width="0.398"/>
            <path id="Trazado_1235846" data-name="Trazado 1235846" d="M93.4,319.135a37.226,37.226,0,0,0,9.531,15.423" transform="translate(-75.992 -292.891)" fill="none" stroke="#485070" stroke-linecap="round" stroke-miterlimit="10" stroke-width="0.398"/>
            <path id="Trazado_1235847" data-name="Trazado 1235847" d="M115.194,293.288c2.06,3.546,2.087,5.563,2.549,8.691a66.405,66.405,0,0,1,.709,10.575c-.077,5.931-1.388,11.365-.063,17.248" transform="translate(-81.279 -286.621)" fill="none" stroke="#485070" stroke-miterlimit="10" stroke-width="0.398"/>
          </g>
          <g id="XMLID_7_" transform="translate(33.847 15.998)">
            <g id="XMLID_8_">
              <path id="Trazado_1235848" data-name="Trazado 1235848" d="M106.143,280.958a12.556,12.556,0,0,1,1.279-2.808,8.025,8.025,0,0,1-4.452-1.514,13.685,13.685,0,0,1-1.792-1.577c-.2-.2-.5-.717-.817-1.088-.329,3.567-1.657,6.921-4.7,8.957a11.855,11.855,0,0,0,4.595,4.357c1.586.919,5.538,2.7,5.626-.516.029-1.051-.389-2.023-.3-3.091A12.564,12.564,0,0,1,106.143,280.958Z" transform="translate(-95.662 -273.972)" fill="#cf9378"/>
            </g>
          </g>
          <g id="XMLID_2_" transform="translate(38.332 15.998)">
            <g id="XMLID_3_">
              <path id="Trazado_1235849" data-name="Trazado 1235849" d="M107.012,283.963c0-.095,0-.189.008-.286a13.065,13.065,0,0,1,1.838-5.528,8.025,8.025,0,0,1-4.452-1.514,13.685,13.685,0,0,1-1.792-1.577c-.2-.2-.5-.717-.817-1.088-.048.523-.121,1.04-.214,1.55A10.921,10.921,0,0,0,107.012,283.963Z" transform="translate(-101.583 -273.971)" fill="#9c5240"/>
            </g>
          </g>
          <path id="Trazado_1235850" data-name="Trazado 1235850" d="M74.915,292.021c-2.819,3.222-3.975,7.567-4.933,11.636l-3.715,15.778c-.429,1.822-1.118,4.314-.714,6.175a8.017,8.017,0,0,0,3.655,4.951,7.8,7.8,0,0,0,6.777.682c2.014-.935,4.318-1.887,5.78-3.652a10.638,10.638,0,0,0,1.83-4.962q.676-3.615,1.351-7.23c1.841-9.847,3.68-20,1.6-29.8A18.694,18.694,0,0,0,74.915,292.021Z" transform="translate(-54.482 -260.794)" fill="#fff"/>
          <path id="Trazado_1235851" data-name="Trazado 1235851" d="M91.252,306.987c-4.1,1.066-3.729,6.308-4.1,9.54a95.052,95.052,0,0,1-2.723,14.146" transform="translate(-59.09 -265.982)" fill="none" stroke="#485070" stroke-miterlimit="10" stroke-width="0.398"/>
          <path id="Trazado_1235852" data-name="Trazado 1235852" d="M89.377,309.372a7.813,7.813,0,0,1,2.488-3.654" transform="translate(-60.29 -265.675)" fill="none" stroke="#485070" stroke-miterlimit="10" stroke-width="0.398"/>
          <path id="Trazado_1235853" data-name="Trazado 1235853" d="M81.372,336.26c2.2.48,4.351,1.182,6.508,1.834,3.424,1.035,6.892,1.633,10.369,2.559a12.284,12.284,0,0,0,3.014.529c1.758.017,3.455-.695,5.213-.733a7.088,7.088,0,0,1,5.925,3.212c2.151,3.287-1.414,2.407-3.658,2.374l-5.249-.077a202.315,202.315,0,0,0-20.283.829c-3.748.315-10.284,1.194-13.618-1.03-1.62-1.081-4.291-6.341-2.8-7.914a2.811,2.811,0,0,1,1.041-.611,22.441,22.441,0,0,1,10.652-1.451A26.8,26.8,0,0,1,81.372,336.26Z" transform="translate(-54.705 -272.937)" fill="#cf9378"/>
          <path id="Trazado_1235854" data-name="Trazado 1235854" d="M152.426,339.872H152.3" transform="translate(-75.554 -273.959)" fill="#dc8b77"/>
          <g id="Grupo_1234657" data-name="Grupo 1234657" transform="translate(37.95 58.002)">
            <path id="Trazado_1235855" data-name="Trazado 1235855" d="M147.445,361.252H102a.918.918,0,0,1-.918-.918v-.313A.918.918,0,0,1,102,359.1h45.448a.918.918,0,0,1,.918.918v.313A.918.918,0,0,1,147.445,361.252Z" transform="translate(-101.079 -336.626)" fill="#485070"/>
            <path id="Trazado_1235856" data-name="Trazado 1235856" d="M156.875,354.053H116.469l3.516-23.218a1.64,1.64,0,0,1,1.6-1.407h37.2a1.575,1.575,0,0,1,1.536,1.84Z" transform="translate(-104.812 -329.428)" fill="#757e96"/>
            <circle id="Elipse_12080" data-name="Elipse 12080" cx="2.685" cy="2.685" r="2.685" transform="translate(32.512 9.151)" fill="#fff"/>
          </g>
          <g id="XMLID_14_" transform="translate(38.026 6.568)">
            <g id="XMLID_15_">
              <path id="Trazado_1235857" data-name="Trazado 1235857" d="M115.488,263.158c-.463-1.8-2.4-.232-4.156-.837a8.02,8.02,0,0,0-4.335-.713,6.066,6.066,0,0,0-3.775,2.159c-.247.319-.47.642-.674.964a21.022,21.022,0,0,0-1.359,3.549l-.009.081a11.442,11.442,0,0,0,2.181,6.328,5.971,5.971,0,0,0,5.473,2.587,5.1,5.1,0,0,0,3.15-1.61,11.335,11.335,0,0,0,2.086-3.433C114.874,270.347,116,265.145,115.488,263.158Z" transform="translate(-101.18 -261.522)" fill="#cf9378"/>
            </g>
          </g>
          <path id="Trazado_1235858" data-name="Trazado 1235858" d="M106.244,262.824c.017-.08.03-.17.051-.271l.474-2.256c1.9,1.42,3.964,3.445,6.425,4.262a4.683,4.683,0,0,0,5.141-1.621,5.627,5.627,0,0,0,.532-.893,6.663,6.663,0,0,1,.329-.795,1.717,1.717,0,0,1-2.14-.469,7.1,7.1,0,0,1-1.073-2.126,9.835,9.835,0,0,0-3.433-4.367,7.871,7.871,0,0,0-5.332-1.389,6.761,6.761,0,0,0-3.249,1.3,5.857,5.857,0,0,0-1.241,1.244c-.158.22-.826,1.427-.556,1.66a1.363,1.363,0,0,0-1.544-.042,3.192,3.192,0,0,0-1.072,1.229,10.541,10.541,0,0,0-1.22,6.769,13.136,13.136,0,0,0,.912,2.883c.312.783.817,1.656,1.767,1.677,1.313.029,1.167-2.173,1.54-3.31.146-.446.114-1,.646-1.138s1.408.887,1.823.05a1.549,1.549,0,0,0,.01-.991,1.338,1.338,0,0,1,.063-.982c.017-.027.7,0,.8-.033A.459.459,0,0,0,106.244,262.824Z" transform="translate(-62.434 -252.85)" fill="#485070"/>
          <path id="Trazado_1235859" data-name="Trazado 1235859" d="M104.235,253.969a4.9,4.9,0,0,0-.533,4.86" transform="translate(-63.665 -253.121)" fill="none" stroke="#485070" stroke-linecap="round" stroke-miterlimit="10" stroke-width="0.75"/>
          <path id="Trazado_1235860" data-name="Trazado 1235860" d="M99.76,257.762a2.143,2.143,0,0,1,2.677.423" transform="translate(-62.809 -253.971)" fill="none" stroke="#485070" stroke-linecap="round" stroke-miterlimit="10" stroke-width="0.75"/>
          <circle id="Elipse_12081" data-name="Elipse 12081" cx="0.589" cy="0.589" r="0.589" transform="translate(46.795 13.758)" fill="#485070"/>
          <path id="Trazado_1235861" data-name="Trazado 1235861" d="M112.934,269.665a1.815,1.815,0,0,1,1.186.034" transform="translate(-66.005 -256.909)" fill="none" stroke="#485070" stroke-linecap="round" stroke-miterlimit="10" stroke-width="0.75"/>
          <path id="Trazado_1235862" data-name="Trazado 1235862" d="M118.858,272.4a.589.589,0,1,1-.589-.589A.589.589,0,0,1,118.858,272.4Z" transform="translate(-67.156 -257.45)" fill="#485070"/>
          <path id="Trazado_1235863" data-name="Trazado 1235863" d="M117.856,270.465a1.815,1.815,0,0,1,1.186.034" transform="translate(-67.199 -257.103)" fill="none" stroke="#485070" stroke-linecap="round" stroke-miterlimit="10" stroke-width="0.75"/>
          <path id="Trazado_1235864" data-name="Trazado 1235864" d="M116.394,272.966a2.053,2.053,0,0,0,.387,1.478.592.592,0,0,1,.171.359.353.353,0,0,1-.283.295,1.023,1.023,0,0,1-.433-.02" transform="translate(-66.806 -257.73)" fill="none" stroke="#485070" stroke-linecap="round" stroke-miterlimit="10" stroke-width="0.75"/>
          <path id="Trazado_1235865" data-name="Trazado 1235865" d="M112.933,277.236a2.363,2.363,0,0,0,2.04.523" transform="translate(-66.005 -258.766)" fill="none" stroke="#485070" stroke-linecap="round" stroke-miterlimit="10" stroke-width="0.75"/>
          <g id="Grupo_1234658" data-name="Grupo 1234658" transform="translate(37.876 11.117)">
            <path id="Trazado_1235866" data-name="Trazado 1235866" d="M100.981,269.69a2.163,2.163,0,1,0,2.163-2.163A2.163,2.163,0,0,0,100.981,269.69Z" transform="translate(-100.981 -267.527)" fill="#cf9378"/>
            <path id="Trazado_1235867" data-name="Trazado 1235867" d="M103.259,269.158a.93.93,0,0,1,1,1.23.635.635,0,0,0-1.061.521" transform="translate(-101.517 -267.921)" fill="none" stroke="#485070" stroke-linecap="round" stroke-linejoin="round" stroke-miterlimit="10" stroke-width="0.75"/>
          </g>
        </g>
        <g id="Grupo_1234669" data-name="Grupo 1234669" transform="translate(269.107 156.287)">
          <g id="Grupo_1234663" data-name="Grupo 1234663" transform="translate(8.211 68.776)">
            <g id="Grupo_1234660" data-name="Grupo 1234660" transform="translate(30.387 1.151)">
              <path id="Trazado_1235868" data-name="Trazado 1235868" d="M414.707,433.86c-.062-.273-7.8,1.08-8.652,1.213l-.093.081c-2.675,2.273-6.068,3.51-9.387,4.711a3.177,3.177,0,0,0-1.4.8c-1.507,1.769,1.692,2.529,2.827,2.624a21.433,21.433,0,0,0,5.5-.535c3.725-.655,7.527-.443,11.214-1.354a.654.654,0,0,0,.389-.2.671.671,0,0,0,.093-.34A22.912,22.912,0,0,0,414.707,433.86Z" transform="translate(-393.13 -318.232)" fill="#485070"/>
              <path id="Trazado_1235869" data-name="Trazado 1235869" d="M397.246,342.451c1.867,18.615,5.275,37.721,7.407,56.32,4.363.375,5.942.089,10.179-.628,2.777-20.232,3.953-30,1.448-50.519-.258-2.106-.036-19.554-.111-21.795-.444-13.34,1.338-28.567-6.674-39.831-2.023-2.845-5.338-5.028-8.708-4.764A7.866,7.866,0,0,0,395,284.691c-4.139,5.617-1.83,20.881-1.094,27.544C394.887,321.071,396.356,333.579,397.246,342.451Z" transform="translate(-392.602 -281.211)" fill="#757e96"/>
              <path id="Trazado_1235870" data-name="Trazado 1235870" d="M398.559,354.033c.756-3.228,1.681-6.421,2.591-9.609,3.186-11.154,4.5-22.617,6.1-34.081a52.666,52.666,0,0,0,.71-8.191c-.051-2.784-.416-5.585-.639-8.361a72.532,72.532,0,0,0-1.57-11.28,8.476,8.476,0,0,0-4.96-1.279A7.866,7.866,0,0,0,395,284.692c-4.139,5.617-1.83,20.881-1.094,27.544.976,8.835,2.444,21.343,3.334,30.215C397.627,346.25,398.074,350.122,398.559,354.033Z" transform="translate(-392.602 -281.211)" fill="#545d78"/>
            </g>
            <g id="Grupo_1234661" data-name="Grupo 1234661" transform="translate(0 3.726)">
              <path id="Trazado_1235871" data-name="Trazado 1235871" d="M374.623,437.258a1.524,1.524,0,0,0-.229.014,30.033,30.033,0,0,1-7.47-.039,2.67,2.67,0,0,0-.95-.015,2.726,2.726,0,0,0-.776.373,22.352,22.352,0,0,1-7.555,2.887c-1.534.283-3.186.442-4.4,1.416-.57.456-1.015,1.3-.58,1.889a1.526,1.526,0,0,0,.6.432c2.327,1.093,5.837.668,8.337.529,4.037-.224,8.036.02,12.017-.789a1.032,1.032,0,0,0,.461-.18,1.08,1.08,0,0,0,.3-.618,30.363,30.363,0,0,0,.6-3.344c.051-.443.3-2.044-.005-2.418A.432.432,0,0,0,374.623,437.258Z" transform="translate(-352.483 -321.621)" fill="#485070"/>
              <path id="Trazado_1235872" data-name="Trazado 1235872" d="M388.423,284.613c-9.181-.148-11.99,9.434-13.082,16.8q-3.462,23.348-4.857,46.939c-.462,7.813-1.074,14.414-1.332,22.238-.274,8.033-.707,21.93-.358,29.921a.551.551,0,0,0,.622.645,55.165,55.165,0,0,0,10.14.143.872.872,0,0,0,.454-.122c.145-.106-1.152-.614-1.1-.785,2.584-7.975,4.349-22.233,5.16-30.567,1.7-17.427,5.316-34.386,11.814-50.484C402.384,304.141,406.056,284.9,388.423,284.613Z" transform="translate(-356.408 -284.612)" fill="#757e96"/>
              <path id="Trazado_1235873" data-name="Trazado 1235873" d="M399.724,334.3a242.735,242.735,0,0,0,9.47-26.979" transform="translate(-363.943 -290.121)" fill="none" stroke="#485070" stroke-miterlimit="10" stroke-width="0.75"/>
            </g>
            <g id="Grupo_1234662" data-name="Grupo 1234662" transform="translate(19.091)">
              <path id="Trazado_1235874" data-name="Trazado 1235874" d="M392.417,304.064l.089.014c.84.136,1.681.261,2.523.366.619.078,1.24.142,1.862.2l.611.055q.778.065,1.559.109c.294.017.587.029.882.041.23.01.46.022.69.03l0-.006a57.933,57.933,0,0,0,11.839-.832c-.585-7.033-2.121-13.813-6.209-19.56-2.024-2.845-5.338-5.028-8.708-4.764a7.863,7.863,0,0,0-5.782,3.458,8.214,8.214,0,0,0-.813,1.42c-7.977-.18-11.494,7.856-13.272,14.633a30.29,30.29,0,0,0,5.712,2.6A53.68,53.68,0,0,0,392.417,304.064Z" transform="translate(-377.688 -279.692)" fill="#545d78"/>
            </g>
          </g>
          <g id="Grupo_1234665" data-name="Grupo 1234665" transform="translate(39.464)">
            <g id="XMLID_10_" transform="translate(4.62 17.936)">
              <g id="XMLID_11_">
                <path id="Trazado_1235875" data-name="Trazado 1235875" d="M401.787,217.1a12.51,12.51,0,0,0-.219-3.077,8.026,8.026,0,0,0,4.7.136,13.627,13.627,0,0,0,2.23-.853c.257-.12.72-.5,1.146-.734-.936,3.457-.863,7.064,1.277,10.034a11.852,11.852,0,0,1-5.826,2.479c-1.807.308-6.131.594-5.092-2.448.34-1,1.07-1.76,1.359-2.793A12.634,12.634,0,0,0,401.787,217.1Z" transform="translate(-399.844 -212.57)" fill="#f7b699"/>
              </g>
            </g>
            <g id="XMLID_6_" transform="translate(6.045 19.387)">
              <g id="XMLID_9_">
                <path id="Trazado_1235876" data-name="Trazado 1235876" d="M406.43,214.69a8.008,8.008,0,0,1-4.405-.2,13.061,13.061,0,0,1-.207,5.822c-.026.093-.059.182-.092.27.178-.022.357-.053.535-.087A10.755,10.755,0,0,0,406.43,214.69Z" transform="translate(-401.726 -214.486)" fill="#c46e58"/>
              </g>
            </g>
            <g id="XMLID_4_" transform="translate(2.372 5.272)">
              <g id="XMLID_5_">
                <path id="Trazado_1235877" data-name="Trazado 1235877" d="M398.723,196.4c1.063-1.528,2.326.62,4.187.667a8.019,8.019,0,0,1,4.311.845,6.069,6.069,0,0,1,2.784,3.34c.12.385.217.765.3,1.139a21.076,21.076,0,0,1,.035,3.8l-.02.08a11.443,11.443,0,0,1-4.253,5.169,5.972,5.972,0,0,1-6.032.514,5.107,5.107,0,0,1-2.39-2.609,11.35,11.35,0,0,1-.757-3.945C396.789,203.348,397.552,198.081,398.723,196.4Z" transform="translate(-396.876 -195.849)" fill="#f7b699"/>
              </g>
            </g>
            <path id="Trazado_1235878" data-name="Trazado 1235878" d="M400.063,198.257c-1.454.21-2.637.441-3.971-.34a4.733,4.733,0,0,1-2.128-2.689,5.662,5.662,0,0,1-.187-1.023,6.621,6.621,0,0,0-.031-.86,1.718,1.718,0,0,0,2.169.308,7.12,7.12,0,0,0,1.747-1.618,9.834,9.834,0,0,1,4.741-2.894,7.872,7.872,0,0,1,5.482.56,6.766,6.766,0,0,1,2.59,2.356,5.851,5.851,0,0,1,.729,1.6c.07.262.276,1.625-.058,1.75a1.364,1.364,0,0,1,1.462.5,3.2,3.2,0,0,1,.576,1.525,10.27,10.27,0,0,1-.672,5.442,41.119,41.119,0,0,1-1.841,3.773,6.1,6.1,0,0,1-2.5,2.47,8.948,8.948,0,0,1-4.412.526,3.084,3.084,0,0,1-3-1.894,6.207,6.207,0,0,1-.383-1.978c-.017-.28-.148-2.227.08-2.344a2.408,2.408,0,0,1-.891.316.821.821,0,0,1-.807-.391,1.215,1.215,0,0,1,.037-.873Q399.432,200.369,400.063,198.257Z" transform="translate(-393.745 -188.889)" fill="#485070"/>
            <path id="Trazado_1235879" data-name="Trazado 1235879" d="M416.878,192.893a4.9,4.9,0,0,1-1.2,4.74" transform="translate(-399.066 -189.861)" fill="none" stroke="#485070" stroke-linecap="round" stroke-miterlimit="10" stroke-width="0.75"/>
            <path id="Trazado_1235880" data-name="Trazado 1235880" d="M419.532,197.951a2.143,2.143,0,0,0-2.656-.538" transform="translate(-399.356 -190.897)" fill="none" stroke="#485070" stroke-linecap="round" stroke-miterlimit="10" stroke-width="0.75"/>
            <g id="Grupo_1234664" data-name="Grupo 1234664" transform="translate(5.566 12.704)">
              <path id="Trazado_1235881" data-name="Trazado 1235881" d="M405.284,208.581a2.163,2.163,0,1,1-1.272-2.782A2.163,2.163,0,0,1,405.284,208.581Z" transform="translate(-401.093 -205.662)" fill="#f7b699"/>
              <path id="Trazado_1235882" data-name="Trazado 1235882" d="M404.461,207.534a.93.93,0,0,0-1.363.805.635.635,0,0,1,.813.859" transform="translate(-401.58 -206.091)" fill="none" stroke="#485070" stroke-linecap="round" stroke-linejoin="round" stroke-miterlimit="10" stroke-width="0.75"/>
            </g>
          </g>
          <g id="Grupo_1234668" data-name="Grupo 1234668" transform="translate(0 23.424)">
            <path id="Trazado_1235883" data-name="Trazado 1235883" d="M366.436,239.87a2,2,0,0,1,1.279-1.487c.667-.233,1.8-.235,2.02-.906.111-.336.222-.461-.048-.69a1.668,1.668,0,0,0-.984-.345,2.935,2.935,0,0,0-2.7,1.5c-.158.294-.388.679-.708.585a.544.544,0,0,1-.313-.336,3.083,3.083,0,0,1,.65-2.691,4.555,4.555,0,0,1,1.48-1.687,4.391,4.391,0,0,1,2.485-.333,9.442,9.442,0,0,1,4.944,1.264c.379.267.725.577,1.1.845a12.149,12.149,0,0,0,3.242,1.449q-.528,1.831-1.056,3.664a.2.2,0,0,1-.3.17c-2.075-.507-4.47-.931-6.549-1.257A15.639,15.639,0,0,0,366.436,239.87Z" transform="translate(-347.273 -223.122)" fill="#f7b699"/>
            <path id="Trazado_1235884" data-name="Trazado 1235884" d="M381.1,234.6a13.112,13.112,0,0,0-2.826,8.513l4,1.594,1.376-6.334c.138-.635.7-1.986.342-2.51C383.609,235.3,381.747,234.878,381.1,234.6Z" transform="translate(-350.527 -223.401)" fill="#fff"/>
            <path id="Trazado_1235885" data-name="Trazado 1235885" d="M395.37,239.624a28.957,28.957,0,0,0-3.442-1.808c-2.056-.924-4.218-1.68-6.284-2.4a20.238,20.238,0,0,0-2.414-.742c-2.247,2.4-3.036,6.471-2.766,9.885,2.37,2.078,5.841,3.308,8.454,4.941a28.03,28.03,0,0,0,4.523,2.5,7.976,7.976,0,0,0,5.066.436,3.215,3.215,0,0,0,2.1-1.573,3.688,3.688,0,0,0,.252-1.652A11.869,11.869,0,0,0,395.37,239.624Z" transform="translate(-351.047 -223.42)" fill="#545d78"/>
            <path id="Trazado_1235886" data-name="Trazado 1235886" d="M348.337,256.631a6.262,6.262,0,0,1-.442-5.248,2.3,2.3,0,0,1,1.289-1.457,2.019,2.019,0,0,1,2.1.865,9.621,9.621,0,0,1,1.026,2.182,10.157,10.157,0,0,0,1.3,2.257,5.746,5.746,0,0,1,1.377,2.3,2.263,2.263,0,0,1-.629,1.973C352.458,261.381,349.258,258.267,348.337,256.631Z" transform="translate(-343.066 -227.103)" fill="#f7b699"/>
            <g id="Grupo_1234666" data-name="Grupo 1234666" transform="translate(0 14.336)">
              <path id="Trazado_1235887" data-name="Trazado 1235887" d="M368.34,252.858l-11.493,5.571-15.2-13.8,11.494-5.571Z" transform="translate(-341.642 -238.819)" fill="#f4ae2d"/>
              <path id="Trazado_1235888" data-name="Trazado 1235888" d="M367.042,252.7l-9.871,4.785L344.034,245.56l9.871-4.784Z" transform="translate(-342.222 -239.235)" fill="#fff"/>
              <path id="Trazado_1235889" data-name="Trazado 1235889" d="M356.164,243.873l-8.2,3.976-.8-.726,8.2-3.976Z" transform="translate(-342.981 -239.811)" fill="#c8ddf7"/>
              <path id="Trazado_1235890" data-name="Trazado 1235890" d="M361.7,248.9l-8.2,3.976-.8-.726,8.2-3.976Z" transform="translate(-344.323 -241.029)" fill="#c8ddf7"/>
              <path id="Trazado_1235891" data-name="Trazado 1235891" d="M363.53,250.559l-8.2,3.976-.8-.726,8.2-3.976Z" transform="translate(-344.767 -241.432)" fill="#c8ddf7"/>
              <path id="Trazado_1235892" data-name="Trazado 1235892" d="M365.363,252.223l-8.2,3.976-.8-.726,8.2-3.976Z" transform="translate(-345.212 -241.836)" fill="#c8ddf7"/>
              <path id="Trazado_1235893" data-name="Trazado 1235893" d="M367.2,253.887l-8.2,3.977-.8-.727,8.2-3.976Z" transform="translate(-345.657 -242.24)" fill="#c8ddf7"/>
              <path id="Trazado_1235894" data-name="Trazado 1235894" d="M369.029,255.551l-8.2,3.976-.8-.726,8.2-3.976Z" transform="translate(-346.101 -242.643)" fill="#c8ddf7"/>
              <path id="Trazado_1235895" data-name="Trazado 1235895" d="M353.272,241.405l-6.9,3.343-2.934-2.663,6.9-3.343Z" transform="translate(-342.078 -238.742)" fill="#485070"/>
            </g>
            <path id="Trazado_1235896" data-name="Trazado 1235896" d="M350,255.518a3.448,3.448,0,0,0-.314.426c-.869,1.4.813,2.693,1.883,3.446,2.431,1.71,5.4,2.529,8.218,3.35,1.591.464,6.2-.672,4.926-3.171-.869-1.706-3.439-2.69-5.13-3.146-1.755-.329-3.254-1.06-3.912-2.838-.292-.791-.411-1.635-.667-2.437a1.184,1.184,0,0,0-.294-.539.457.457,0,0,0-.568-.063.642.642,0,0,0-.18.3c-.492,1.372.391,2.389-1.3,3.194-.561.267-1.177.415-1.722.716A3.444,3.444,0,0,0,350,255.518Z" transform="translate(-343.534 -227.252)" fill="#f7b699"/>
            <path id="Trazado_1235897" data-name="Trazado 1235897" d="M360.7,255.167a13.109,13.109,0,0,0-1.894,8.769l4.148,1.155.686-6.446c.069-.646.485-2.05.069-2.533C363.271,255.6,361.374,255.375,360.7,255.167Z" transform="translate(-345.777 -228.391)" fill="#fff"/>
            <path id="Trazado_1235898" data-name="Trazado 1235898" d="M398.489,221.566a5.2,5.2,0,0,1,3.071-.966l8.424-.785q.8,2.816,1.592,5.634c-.022-.079-9.107.282-9.974.254-.91-.028-3.867.268-4.248-.586C396.931,224.17,397.792,222.19,398.489,221.566Z" transform="translate(-355.129 -219.815)" fill="#fff"/>
            <path id="Trazado_1235899" data-name="Trazado 1235899" d="M411.835,269.324c.008-2.991.176-5.978.367-8.962.248-3.886.541-7.772.591-11.667a78.892,78.892,0,0,0-.963-14.477c-.208-1.188-.456-2.362-.749-3.517-.061-.237-.126-.489-.195-.747-.894-2.147-2.593-4.993-4.857-6.26a8.865,8.865,0,0,0-1.135.02q-3.9.261-7.766.86c-1.773.274-3.027.5-4.331,1.856-3.327,3.463-6.448,11.222-7.317,15.99-.829,4.555-.505,4.816-.979,9.409q-.845,8.2-2.388,16.315c-.867,4.555-2.164,9.5-5.947,12.182,6.27,2.632,12.616,5.287,19.335,6.336s13.953.347,19.669-3.338C412.474,279.164,411.82,274.287,411.835,269.324Z" transform="translate(-350.017 -220.753)" fill="#757e96"/>
            <g id="Grupo_1234667" data-name="Grupo 1234667" transform="translate(14.456 6.718)">
              <path id="Trazado_1235900" data-name="Trazado 1235900" d="M392.583,242.725a3.344,3.344,0,0,0-1.047-1.307,2.89,2.89,0,0,0-1.729-.4c-2.629.117-4.71,2.264-6.115,4.489s-2.487,4.74-4.489,6.449c-3.495,2.981-11.906.548-15.815-.322-2.977,2.912-3.295,6.279-1.75,10.2,5.241,2.3,16.266,7.764,21.988,5.041a11.936,11.936,0,0,0,4.7-4.471,36.492,36.492,0,0,0,1.911-3.372,32.721,32.721,0,0,0,3.154-7.947A12.6,12.6,0,0,0,392.583,242.725Z" transform="translate(-360.727 -231.676)" fill="#757e96"/>
              <path id="Trazado_1235901" data-name="Trazado 1235901" d="M400.74,230.27a5.54,5.54,0,0,0-6.847-.735c-1.232.773-1.858,2.369-2.495,3.636a35.225,35.225,0,0,0-1.986,4.808c-.56,1.706-.99,3.452-1.516,5.168-.862,2.813-1.984,5.551-2.629,8.422a14.9,14.9,0,0,0,.293,8.689c1.543,3.908,6.687,1.832,8.979-.342,1.974-1.873,2.92-4.554,3.8-7.13l2.649-7.76a30.579,30.579,0,0,0,1.753-7.868C402.883,234.574,402.429,232.068,400.74,230.27Z" transform="translate(-366.558 -228.685)" fill="#757e96"/>
              <path id="Trazado_1235902" data-name="Trazado 1235902" d="M387.463,246.989a54.823,54.823,0,0,1,6.349-16.311" transform="translate(-367.213 -229.168)" fill="none" stroke="#485070" stroke-miterlimit="10" stroke-width="0.75"/>
              <path id="Trazado_1235903" data-name="Trazado 1235903" d="M402.512,245.737l-3.386,9.112c-.811,2.181-1.58,4.969-3.118,6.77a36.024,36.024,0,0,1-4.835,5.225,9.234,9.234,0,0,1-6.435,2.181" transform="translate(-366.552 -232.821)" fill="none" stroke="#485070" stroke-miterlimit="10" stroke-width="0.75"/>
              <path id="Trazado_1235904" data-name="Trazado 1235904" d="M409.049,246.8a6.385,6.385,0,0,0-2.425,2.472" transform="translate(-371.861 -233.079)" fill="none" stroke="#485070" stroke-miterlimit="10" stroke-width="0.75"/>
            </g>
            <path id="Trazado_1235905" data-name="Trazado 1235905" d="M362.675,242.087l-1.354.735.688-1.379,8.17-8.461a.464.464,0,0,1,.656-.011h0a.464.464,0,0,1,.011.656Z" transform="translate(-346.416 -222.975)" fill="#485070"/>
          </g>
        </g>
      </g>
    </g>
  </g>
</svg>
