<svg xmlns="http://www.w3.org/2000/svg" xmlns:xlink="http://www.w3.org/1999/xlink" width="106.16" height="106.16" viewBox="0 0 106.16 106.16">
  <defs>
    <filter id="Trazado_982547" x="0" y="0" width="106.16" height="106.16" filterUnits="userSpaceOnUse">
      <feOffset dy="3" input="SourceAlpha"/>
      <feGaussianBlur stdDeviation="3" result="blur"/>
      <feFlood flood-opacity="0.161"/>
      <feComposite operator="in" in2="blur"/>
      <feComposite in="SourceGraphic"/>
    </filter>
  </defs>
  <g id="Grupo_1235007" data-name="Grupo 1235007" transform="translate(-189.17 -3265.897)">
    <g id="Grupo_1233886" data-name="Grupo 1233886" transform="translate(198.17 3271.897)">
      <g id="Grupo_1228508" data-name="Grupo 1228508" transform="translate(0 0)">
        <g id="Grupo_1206132" data-name="Grupo 1206132" transform="translate(0)">
          <g id="Grupo_1203794" data-name="Grupo 1203794">
            <g id="Grupo_1203345" data-name="Grupo 1203345">
              <g id="Grupo_1177900" data-name="Grupo 1177900">
                <g id="Grupo_1172010" data-name="Grupo 1172010">
                  <g id="Grupo_1171046" data-name="Grupo 1171046">
                    <g id="Grupo_1148525" data-name="Grupo 1148525">
                      <g transform="matrix(1, 0, 0, 1, -9, -6)" filter="url(#Trazado_982547)">
                        <g id="Trazado_982547-2" data-name="Trazado 982547" transform="translate(9 6)" fill="#e9f9fd">
                          <path d="M 44.0802001953125 86.660400390625 C 38.33124923706055 86.660400390625 32.75506210327148 85.53479766845703 27.50652503967285 83.31484985351562 C 22.43628692626953 81.17032623291016 17.88242530822754 78.09992218017578 13.97144985198975 74.18894958496094 C 10.06047534942627 70.27797698974609 6.99007511138916 65.72411346435547 4.845550060272217 60.65387344360352 C 2.625600099563599 55.40533828735352 1.500000238418579 49.82915115356445 1.500000238418579 44.0802001953125 C 1.500000238418579 38.33124923706055 2.625600099563599 32.75506210327148 4.845550060272217 27.50652503967285 C 6.99007511138916 22.43628692626953 10.06047534942627 17.88242530822754 13.97144985198975 13.97144985198975 C 17.88242530822754 10.06047534942627 22.43628692626953 6.99007511138916 27.50652503967285 4.845550060272217 C 32.75506210327148 2.625600099563599 38.33124923706055 1.500000238418579 44.0802001953125 1.500000238418579 C 49.82915115356445 1.500000238418579 55.40533828735352 2.625600099563599 60.65387344360352 4.845550060272217 C 65.72411346435547 6.99007511138916 70.27797698974609 10.06047534942627 74.18894958496094 13.97144985198975 C 78.09992218017578 17.88242530822754 81.17032623291016 22.43628692626953 83.31484985351562 27.50652503967285 C 85.53479766845703 32.75506210327148 86.660400390625 38.33124923706055 86.660400390625 44.0802001953125 C 86.660400390625 49.82915115356445 85.53479766845703 55.40533828735352 83.31484985351562 60.65387344360352 C 81.17032623291016 65.72411346435547 78.09992218017578 70.27797698974609 74.18894958496094 74.18894958496094 C 70.27797698974609 78.09992218017578 65.72411346435547 81.17032623291016 60.65387344360352 83.31484985351562 C 55.40533828735352 85.53479766845703 49.82915115356445 86.660400390625 44.0802001953125 86.660400390625 Z" stroke="none"/>
                          <path d="M 44.0802001953125 3 C 38.53308486938477 3 33.15349960327148 4.085746765136719 28.09085845947266 6.227058410644531 C 23.19941711425781 8.29595947265625 18.80581665039062 11.25841522216797 15.03211212158203 15.03211212158203 C 11.25841522216797 18.80581665039062 8.29595947265625 23.19941711425781 6.227058410644531 28.09085845947266 C 4.085746765136719 33.15349960327148 3 38.53308486938477 3 44.0802001953125 C 3 49.62731552124023 4.085746765136719 55.00691604614258 6.227058410644531 60.06954193115234 C 8.29595947265625 64.96098327636719 11.25841522216797 69.35458374023438 15.03211212158203 73.12828826904297 C 18.80581665039062 76.90198516845703 23.19941711425781 79.86444091796875 28.09085845947266 81.93334197998047 C 33.15349960327148 84.07466125488281 38.53308486938477 85.160400390625 44.0802001953125 85.160400390625 C 49.62731552124023 85.160400390625 55.00691604614258 84.07466125488281 60.06954193115234 81.93334197998047 C 64.96099853515625 79.86444091796875 69.35458374023438 76.90198516845703 73.12828826904297 73.12828826904297 C 76.90198516845703 69.35458374023438 79.86444091796875 64.96099853515625 81.93334197998047 60.06954193115234 C 84.07466125488281 55.00691604614258 85.160400390625 49.62731552124023 85.160400390625 44.0802001953125 C 85.160400390625 38.53308486938477 84.07466125488281 33.15349960327148 81.93334197998047 28.09085845947266 C 79.86444091796875 23.19941711425781 76.90198516845703 18.80581665039062 73.12828826904297 15.03211212158203 C 69.35458374023438 11.25841522216797 64.96098327636719 8.29595947265625 60.06954193115234 6.227058410644531 C 55.00691604614258 4.085746765136719 49.62731552124023 3 44.0802001953125 3 M 44.0802001953125 0 C 68.42502593994141 0 88.160400390625 19.73538970947266 88.160400390625 44.0802001953125 C 88.160400390625 68.42502593994141 68.42502593994141 88.160400390625 44.0802001953125 88.160400390625 C 19.73538970947266 88.160400390625 0 68.42502593994141 0 44.0802001953125 C 0 19.73538970947266 19.73538970947266 0 44.0802001953125 0 Z" stroke="none" fill="#1d7083"/>
                        </g>
                      </g>
                    </g>
                  </g>
                </g>
              </g>
            </g>
          </g>
        </g>
      </g>
    </g>
    <g id="trabajo-en-equipo_8_" data-name="trabajo-en-equipo (8)" transform="translate(214.658 3289.281)">
      <g id="Grupo_1234990" data-name="Grupo 1234990" transform="translate(1.785 24.784)">
        <path id="Trazado_1236253" data-name="Trazado 1236253" d="M24.6,251.782a15.774,15.774,0,0,1,3.94,1.108.209.209,0,0,0,.282-.2v-5.937a1.571,1.571,0,0,0-1.571-1.571h-5.84a.209.209,0,0,1-.2-.281,14.711,14.711,0,0,0,1.018-3.694,3.552,3.552,0,0,0-7.1,0A14.707,14.707,0,0,0,16.15,244.9a.209.209,0,0,1-.2.281H10.1a1.571,1.571,0,0,0-1.571,1.571v17.155a1.571,1.571,0,0,0,1.571,1.571H27.255a1.571,1.571,0,0,0,1.571-1.571v-5.937a.209.209,0,0,0-.282-.2,15.769,15.769,0,0,1-3.94,1.108,3.552,3.552,0,1,1,0-7.1Z" transform="translate(-8.53 -237.658)" fill="#cbafea"/>
      </g>
      <g id="Grupo_1234991" data-name="Grupo 1234991" transform="translate(1.789 0.785)">
        <path id="Trazado_1236254" data-name="Trazado 1236254" d="M32.839,14.133a14.707,14.707,0,0,0-3.694,1.018.209.209,0,0,1-.281-.2V9.1a1.571,1.571,0,0,0-1.571-1.571H10.138A1.571,1.571,0,0,0,8.567,9.1V26.256a1.571,1.571,0,0,0,1.571,1.571h5.937a.209.209,0,0,0,.2-.282,15.769,15.769,0,0,1-1.108-3.94,3.552,3.552,0,1,1,7.1,0,15.773,15.773,0,0,1-1.108,3.94.209.209,0,0,0,.2.282h5.937a1.571,1.571,0,0,0,1.571-1.571v-5.84a.209.209,0,0,1,.281-.2,14.712,14.712,0,0,0,3.694,1.018,3.552,3.552,0,1,0,0-7.1Z" transform="translate(-8.567 -7.531)" fill="#aad880"/>
      </g>
      <g id="Grupo_1234992" data-name="Grupo 1234992" transform="translate(33.103 0.785)">
        <path id="Trazado_1236255" data-name="Trazado 1236255" d="M327.569,7.531H310.415A1.571,1.571,0,0,0,308.844,9.1v5.937a.209.209,0,0,0,.282.2,15.769,15.769,0,0,1,3.94-1.108,3.552,3.552,0,1,1,0,7.1,15.774,15.774,0,0,1-3.94-1.108.209.209,0,0,0-.282.2v5.937a1.571,1.571,0,0,0,1.571,1.571h5.84a.209.209,0,0,1,.2.281,14.713,14.713,0,0,0-1.018,3.694,3.552,3.552,0,1,0,7.1,0,14.707,14.707,0,0,0-1.018-3.694.209.209,0,0,1,.2-.281h5.853a1.571,1.571,0,0,0,1.571-1.571V9.1a1.571,1.571,0,0,0-1.571-1.571Z" transform="translate(-308.844 -7.531)" fill="#ffd064"/>
      </g>
      <g id="Grupo_1234993" data-name="Grupo 1234993" transform="translate(25.571 32.312)">
        <path id="Trazado_1236256" data-name="Trazado 1236256" d="M256.936,309.844a.209.209,0,0,0-.2.282,15.767,15.767,0,0,1,1.108,3.94,3.552,3.552,0,1,1-7.1,0,15.773,15.773,0,0,1,1.108-3.94.209.209,0,0,0-.2-.282h-5.937a1.571,1.571,0,0,0-1.571,1.571v5.84a.209.209,0,0,1-.281.2,14.713,14.713,0,0,0-3.694-1.018,3.552,3.552,0,0,0,0,7.1,14.708,14.708,0,0,0,3.694-1.018.209.209,0,0,1,.281.2v5.853a1.571,1.571,0,0,0,1.571,1.571h17.155a1.571,1.571,0,0,0,1.571-1.571V311.415a1.571,1.571,0,0,0-1.571-1.571h-5.937Z" transform="translate(-236.62 -309.844)" fill="#9dc6fb"/>
      </g>
      <g id="Grupo_1234996" data-name="Grupo 1234996" transform="translate(1.785 32.312)">
        <g id="Grupo_1234994" data-name="Grupo 1234994" transform="translate(0 12.578)">
          <path id="Trazado_1236257" data-name="Trazado 1236257" d="M28.545,430.476c-.807.3-1.588.57-2.262.768v2.822a1.571,1.571,0,0,1-1.571,1.571H8.531v.973A1.571,1.571,0,0,0,10.1,438.18H27.256a1.571,1.571,0,0,0,1.571-1.571v-5.937A.209.209,0,0,0,28.545,430.476Z" transform="translate(-8.531 -430.463)" fill="#bc95e2"/>
        </g>
        <g id="Grupo_1234995" data-name="Grupo 1234995" transform="translate(17.752)">
          <path id="Trazado_1236258" data-name="Trazado 1236258" d="M179.736,309.845h-.973v6.936c.674.2,1.454.468,2.262.768a.209.209,0,0,0,.282-.2v-5.937A1.571,1.571,0,0,0,179.736,309.845Z" transform="translate(-178.763 -309.845)" fill="#bc95e2"/>
        </g>
      </g>
      <g id="Grupo_1234998" data-name="Grupo 1234998" transform="translate(14.368 7.501)">
        <g id="Grupo_1234997" data-name="Grupo 1234997">
          <path id="Trazado_1236259" data-name="Trazado 1236259" d="M141.773,71.932a3.555,3.555,0,0,1-3.438,4.447,14.707,14.707,0,0,1-3.694-1.018.209.209,0,0,0-.281.2V81.4a1.571,1.571,0,0,1-1.571,1.571h-2.822c-.2.674-.468,1.454-.768,2.262a.209.209,0,0,0,.2.282h5.937a1.571,1.571,0,0,0,1.571-1.571V78.1a.209.209,0,0,1,.281-.2,14.712,14.712,0,0,0,3.694,1.018,3.552,3.552,0,0,0,.895-6.99Z" transform="translate(-129.185 -71.932)" fill="#80cb8e"/>
        </g>
      </g>
      <g id="Grupo_1235000" data-name="Grupo 1235000" transform="translate(39.807 0.785)">
        <g id="Grupo_1234999" data-name="Grupo 1234999">
          <path id="Trazado_1236260" data-name="Trazado 1236260" d="M385.148,7.531h-.973V23.713a1.571,1.571,0,0,1-1.571,1.571h-5.853a.209.209,0,0,0-.2.281,14.713,14.713,0,0,1,1.018,3.694,3.555,3.555,0,0,1-4.447,3.438,3.553,3.553,0,0,0,6.99-.895,14.706,14.706,0,0,0-1.018-3.694.209.209,0,0,1,.2-.281h5.853a1.571,1.571,0,0,0,1.571-1.571V9.1a1.571,1.571,0,0,0-1.571-1.571Z" transform="translate(-373.126 -7.531)" fill="#ecbe6b"/>
        </g>
      </g>
      <g id="Grupo_1235002" data-name="Grupo 1235002" transform="translate(33.099 32.312)">
        <g id="Grupo_1235001" data-name="Grupo 1235001">
          <path id="Trazado_1236261" data-name="Trazado 1236261" d="M327.533,309.845h-.973v16.182a1.571,1.571,0,0,1-1.571,1.571H308.808v.973a1.571,1.571,0,0,0,1.571,1.571h17.155a1.571,1.571,0,0,0,1.571-1.571V311.416A1.571,1.571,0,0,0,327.533,309.845Z" transform="translate(-308.808 -309.845)" fill="#80b4fb"/>
        </g>
      </g>
      <g id="Grupo_1235003" data-name="Grupo 1235003" transform="translate(1 23.999)">
        <path id="Trazado_1236262" data-name="Trazado 1236262" d="M20.511,259.524H3.356A2.359,2.359,0,0,1,1,257.167V240.013a2.359,2.359,0,0,1,2.356-2.356H8.391a10.443,10.443,0,0,1-.789-3.19,4.337,4.337,0,0,1,8.675,0,10.438,10.438,0,0,1-.789,3.19h5.023a2.359,2.359,0,0,1,2.356,2.356v5.937a.995.995,0,0,1-1.34.933,13.641,13.641,0,0,0-3.667-1.059,2.767,2.767,0,1,0,0,5.533,13.638,13.638,0,0,0,3.666-1.059.995.995,0,0,1,1.341.933v5.937A2.359,2.359,0,0,1,20.511,259.524Zm-17.155-20.3a.786.786,0,0,0-.785.785v17.155a.786.786,0,0,0,.785.785H20.511a.786.786,0,0,0,.785-.785v-5.115a11.17,11.17,0,0,1-3.436.875,4.337,4.337,0,1,1,0-8.675,11.168,11.168,0,0,1,3.436.875v-5.115a.786.786,0,0,0-.785-.785h-5.84a.995.995,0,0,1-.934-1.337,12.746,12.746,0,0,0,.97-3.424,2.767,2.767,0,1,0-5.533,0,12.75,12.75,0,0,0,.97,3.424.995.995,0,0,1-.934,1.337H3.356Z" transform="translate(-1 -230.129)"/>
      </g>
      <g id="Grupo_1235004" data-name="Grupo 1235004" transform="translate(1.004 0)">
        <path id="Trazado_1236263" data-name="Trazado 1236263" d="M20.547,21.867H14.61a.995.995,0,0,1-.933-1.341,13.637,13.637,0,0,0,1.059-3.666,2.767,2.767,0,1,0-5.533,0,13.638,13.638,0,0,0,1.059,3.666.995.995,0,0,1-.933,1.341H3.392a2.359,2.359,0,0,1-2.356-2.356V2.356A2.359,2.359,0,0,1,3.392,0h3.8a.785.785,0,1,1,0,1.571h-3.8a.786.786,0,0,0-.785.785V19.511a.786.786,0,0,0,.785.785H8.507a11.17,11.17,0,0,1-.875-3.436,4.337,4.337,0,0,1,8.675,0,11.169,11.169,0,0,1-.875,3.436h5.115a.786.786,0,0,0,.785-.785v-5.84a.995.995,0,0,1,1.337-.934,12.755,12.755,0,0,0,3.424.97,2.767,2.767,0,0,0,0-5.533,12.753,12.753,0,0,0-3.424.97.995.995,0,0,1-1.337-.934V2.356a.786.786,0,0,0-.785-.785H10.892a.785.785,0,0,1,0-1.571h9.654A2.359,2.359,0,0,1,22.9,2.356V7.391a10.44,10.44,0,0,1,3.19-.789,4.337,4.337,0,1,1,0,8.675,10.44,10.44,0,0,1-3.19-.789v5.023a2.359,2.359,0,0,1-2.356,2.356Z" transform="translate(-1.036 0)"/>
      </g>
      <g id="Grupo_1235005" data-name="Grupo 1235005" transform="translate(32.318 0)">
        <path id="Trazado_1236264" data-name="Trazado 1236264" d="M312.241,29.395a4.342,4.342,0,0,1-4.337-4.337,10.439,10.439,0,0,1,.789-3.19H303.67a2.359,2.359,0,0,1-2.356-2.356V13.574a.995.995,0,0,1,1.341-.933,13.639,13.639,0,0,0,3.667,1.059,2.767,2.767,0,0,0,0-5.533,13.637,13.637,0,0,0-3.666,1.059.995.995,0,0,1-1.341-.933V2.356A2.359,2.359,0,0,1,303.67,0h17.155a2.359,2.359,0,0,1,2.356,2.356V14.069a.785.785,0,1,1-1.571,0V2.356a.786.786,0,0,0-.785-.785H303.67a.786.786,0,0,0-.785.785V7.471a11.17,11.17,0,0,1,3.436-.875,4.337,4.337,0,1,1,0,8.675,11.169,11.169,0,0,1-3.436-.875v5.115a.786.786,0,0,0,.785.785h5.84a.995.995,0,0,1,.934,1.337,12.75,12.75,0,0,0-.97,3.424,2.767,2.767,0,1,0,5.533,0,12.749,12.749,0,0,0-.97-3.424.995.995,0,0,1,.934-1.337h5.853a.786.786,0,0,0,.785-.785V17.8a.785.785,0,1,1,1.571,0v1.708a2.359,2.359,0,0,1-2.356,2.356h-5.035a10.443,10.443,0,0,1,.789,3.19,4.342,4.342,0,0,1-4.337,4.337Z" transform="translate(-301.314 0)"/>
      </g>
      <g id="Grupo_1235006" data-name="Grupo 1235006" transform="translate(24.786 31.526)">
        <path id="Trazado_1236265" data-name="Trazado 1236265" d="M256.13,324.181h-5.064a.785.785,0,1,1,0-1.571h5.064a.786.786,0,0,0,.785-.785V304.67a.786.786,0,0,0-.785-.785h-5.115a11.174,11.174,0,0,1,.875,3.436,4.337,4.337,0,0,1-8.675,0,11.168,11.168,0,0,1,.875-3.436h-5.115a.786.786,0,0,0-.785.785v5.84a.995.995,0,0,1-1.337.934,12.752,12.752,0,0,0-3.424-.97,2.767,2.767,0,1,0,0,5.533,12.751,12.751,0,0,0,3.424-.97.995.995,0,0,1,1.337.934v5.853a.786.786,0,0,0,.785.785h8.209a.785.785,0,1,1,0,1.571h-8.21a2.359,2.359,0,0,1-2.356-2.356v-5.035a10.439,10.439,0,0,1-3.19.789,4.337,4.337,0,1,1,0-8.675,10.439,10.439,0,0,1,3.19.789V304.67a2.359,2.359,0,0,1,2.356-2.356h5.937a.995.995,0,0,1,.932,1.341,13.637,13.637,0,0,0-1.059,3.666,2.767,2.767,0,0,0,5.533,0,13.637,13.637,0,0,0-1.059-3.666.995.995,0,0,1,.932-1.341h5.937a2.359,2.359,0,0,1,2.356,2.356v17.155A2.359,2.359,0,0,1,256.13,324.181Z" transform="translate(-229.092 -302.314)"/>
      </g>
    </g>
  </g>
</svg>
