<svg xmlns="http://www.w3.org/2000/svg" xmlns:xlink="http://www.w3.org/1999/xlink" width="106.16" height="106.16" viewBox="0 0 106.16 106.16">
  <defs>
    <filter id="Trazado_982547" x="0" y="0" width="106.16" height="106.16" filterUnits="userSpaceOnUse">
      <feOffset dy="3" input="SourceAlpha"/>
      <feGaussianBlur stdDeviation="3" result="blur"/>
      <feFlood flood-opacity="0.161"/>
      <feComposite operator="in" in2="blur"/>
      <feComposite in="SourceGraphic"/>
    </filter>
  </defs>
  <g id="Grupo_1235017" data-name="Grupo 1235017" transform="translate(-819.17 -3268.523)">
    <g id="Grupo_1233887" data-name="Grupo 1233887" transform="translate(828.17 3274.522)">
      <g id="Grupo_1228509" data-name="Grupo 1228509" transform="translate(0 0)">
        <g id="Grupo_1206132" data-name="Grupo 1206132">
          <g id="Grupo_1203794" data-name="Grupo 1203794">
            <g id="Grupo_1203345" data-name="Grupo 1203345" transform="translate(0 0)">
              <g id="Grupo_1177900" data-name="Grupo 1177900">
                <g id="Grupo_1172010" data-name="Grupo 1172010" transform="translate(0)">
                  <g id="Grupo_1171046" data-name="Grupo 1171046">
                    <g id="Grupo_1148525" data-name="Grupo 1148525">
                      <g transform="matrix(1, 0, 0, 1, -9, -6)" filter="url(#Trazado_982547)">
                        <g id="Trazado_982547-2" data-name="Trazado 982547" transform="translate(9 6)" fill="#e9f9fd">
                          <path d="M 44.0802001953125 86.660400390625 C 38.33124923706055 86.660400390625 32.75506210327148 85.53479766845703 27.50652503967285 83.31484985351562 C 22.43628692626953 81.17032623291016 17.88242530822754 78.09992218017578 13.97144985198975 74.18894958496094 C 10.06047534942627 70.27797698974609 6.99007511138916 65.72411346435547 4.845550060272217 60.65387344360352 C 2.625600099563599 55.40533828735352 1.500000238418579 49.82915115356445 1.500000238418579 44.0802001953125 C 1.500000238418579 38.33124923706055 2.625600099563599 32.75506210327148 4.845550060272217 27.50652503967285 C 6.99007511138916 22.43628692626953 10.06047534942627 17.88242530822754 13.97144985198975 13.97144985198975 C 17.88242530822754 10.06047534942627 22.43628692626953 6.99007511138916 27.50652503967285 4.845550060272217 C 32.75506210327148 2.625600099563599 38.33124923706055 1.500000238418579 44.0802001953125 1.500000238418579 C 49.82915115356445 1.500000238418579 55.40533828735352 2.625600099563599 60.65387344360352 4.845550060272217 C 65.72411346435547 6.99007511138916 70.27797698974609 10.06047534942627 74.18894958496094 13.97144985198975 C 78.09992218017578 17.88242530822754 81.17032623291016 22.43628692626953 83.31484985351562 27.50652503967285 C 85.53479766845703 32.75506210327148 86.660400390625 38.33124923706055 86.660400390625 44.0802001953125 C 86.660400390625 49.82915115356445 85.53479766845703 55.40533828735352 83.31484985351562 60.65387344360352 C 81.17032623291016 65.72411346435547 78.09992218017578 70.27797698974609 74.18894958496094 74.18894958496094 C 70.27797698974609 78.09992218017578 65.72411346435547 81.17032623291016 60.65387344360352 83.31484985351562 C 55.40533828735352 85.53479766845703 49.82915115356445 86.660400390625 44.0802001953125 86.660400390625 Z" stroke="none"/>
                          <path d="M 44.0802001953125 3 C 38.53308486938477 3 33.15349960327148 4.085746765136719 28.09085845947266 6.227058410644531 C 23.19941711425781 8.29595947265625 18.80581665039062 11.25841522216797 15.03211212158203 15.03211212158203 C 11.25841522216797 18.80581665039062 8.29595947265625 23.19941711425781 6.227058410644531 28.09085845947266 C 4.085746765136719 33.15349960327148 3 38.53308486938477 3 44.0802001953125 C 3 49.62731552124023 4.085746765136719 55.00691604614258 6.227058410644531 60.06954193115234 C 8.29595947265625 64.96098327636719 11.25841522216797 69.35458374023438 15.03211212158203 73.12828826904297 C 18.80581665039062 76.90198516845703 23.19941711425781 79.86444091796875 28.09085845947266 81.93334197998047 C 33.15349960327148 84.07466125488281 38.53308486938477 85.160400390625 44.0802001953125 85.160400390625 C 49.62731552124023 85.160400390625 55.00691604614258 84.07466125488281 60.06954193115234 81.93334197998047 C 64.96099853515625 79.86444091796875 69.35458374023438 76.90198516845703 73.12828826904297 73.12828826904297 C 76.90198516845703 69.35458374023438 79.86444091796875 64.96099853515625 81.93334197998047 60.06954193115234 C 84.07466125488281 55.00691604614258 85.160400390625 49.62731552124023 85.160400390625 44.0802001953125 C 85.160400390625 38.53308486938477 84.07466125488281 33.15349960327148 81.93334197998047 28.09085845947266 C 79.86444091796875 23.19941711425781 76.90198516845703 18.80581665039062 73.12828826904297 15.03211212158203 C 69.35458374023438 11.25841522216797 64.96098327636719 8.29595947265625 60.06954193115234 6.227058410644531 C 55.00691604614258 4.085746765136719 49.62731552124023 3 44.0802001953125 3 M 44.0802001953125 0 C 68.42502593994141 0 88.160400390625 19.73538970947266 88.160400390625 44.0802001953125 C 88.160400390625 68.42502593994141 68.42502593994141 88.160400390625 44.0802001953125 88.160400390625 C 19.73538970947266 88.160400390625 0 68.42502593994141 0 44.0802001953125 C 0 19.73538970947266 19.73538970947266 0 44.0802001953125 0 Z" stroke="none" fill="#1d7083"/>
                        </g>
                      </g>
                    </g>
                  </g>
                </g>
              </g>
            </g>
          </g>
        </g>
      </g>
    </g>
    <g id="obediente_15_" data-name="obediente (15)" transform="translate(797.25 3289.493)">
      <g id="Grupo_1235009" data-name="Grupo 1235009" transform="translate(50.922 0.91)">
        <path id="Trazado_1236266" data-name="Trazado 1236266" d="M160.484,7.5H126.517a.364.364,0,0,0-.364.364v3.8l.152.121h30.016a.243.243,0,0,1,.243.243v23.9l.121.1,4.163,2.579V7.864a.364.364,0,0,0-.364-.364Z" transform="translate(-117.826 -7.5)" fill="#dbf1d0"/>
        <path id="Trazado_1236267" data-name="Trazado 1236267" d="M130.259,11.785V7.864a.364.364,0,0,1,.364-.364h-4.106a.364.364,0,0,0-.364.364v3.921Z" transform="translate(-117.826 -7.5)" fill="#c1e9af"/>
        <path id="Trazado_1236268" data-name="Trazado 1236268" d="M122.364,46.348v17.79l.068-.042a.694.694,0,0,1,.731,0l3.364,2.084V42.185a.364.364,0,0,0-.364-.364H92.2a.364.364,0,0,0-.364.364v3.8H122a.364.364,0,0,1,.364.364Z" transform="translate(-87.669 -37.658)" fill="#fff3de"/>
        <path id="Trazado_1236269" data-name="Trazado 1236269" d="M95.856,45.984v-3.8a.364.364,0,0,1,.364-.364H92.2a.364.364,0,0,0-.364.364v3.8Z" transform="translate(-87.669 -37.658)" fill="#ffe5c2"/>
        <path id="Trazado_1236270" data-name="Trazado 1236270" d="M83.174,120.254a10.136,10.136,0,0,1-3.562-7.715V102.483a.694.694,0,0,1,.328-.59l12.266-7.6V76.506a.364.364,0,0,0-.364-.364H57.875a.364.364,0,0,0-.364.364v46.457a.364.364,0,0,0,.364.364h28.9Z" transform="translate(-57.511 -67.815)" fill="#dff6fd"/>
        <g id="Grupo_1235008" data-name="Grupo 1235008" transform="translate(0 8.327)">
          <path id="Trazado_1236271" data-name="Trazado 1236271" d="M61.574,122.963V76.506a.364.364,0,0,1,.364-.364H57.875a.364.364,0,0,0-.364.364v46.457a.364.364,0,0,0,.364.364h4.063A.364.364,0,0,1,61.574,122.963Z" transform="translate(-57.511 -76.142)" fill="#c8effe"/>
        </g>
      </g>
      <g id="Grupo_1235013" data-name="Grupo 1235013" transform="translate(73.023 27.244)">
        <g id="Grupo_1235010" data-name="Grupo 1235010">
          <path id="Trazado_1236272" data-name="Trazado 1236272" d="M239.7,232.917v10.057a10.137,10.137,0,0,0,3.562,7.715l9.016,7.684a.694.694,0,0,0,.9,0l9.016-7.684a10.136,10.136,0,0,0,3.562-7.715V232.917a.694.694,0,0,0-.329-.59l-12.334-7.639a.694.694,0,0,0-.731,0l-12.334,7.639A.694.694,0,0,0,239.7,232.917Z" transform="translate(-239.698 -224.584)" fill="#fac600"/>
        </g>
        <g id="Grupo_1235012" data-name="Grupo 1235012" transform="translate(0 5.666)">
          <g id="Grupo_1235011" data-name="Grupo 1235011">
            <path id="Trazado_1236273" data-name="Trazado 1236273" d="M246.942,290.088a10.136,10.136,0,0,1-3.562-7.715v-11.08l-3.354,2.077a.694.694,0,0,0-.328.59v10.057a10.137,10.137,0,0,0,3.562,7.715l9.016,7.684a.694.694,0,0,0,.9,0l2.355-2.007Z" transform="translate(-239.698 -271.293)" fill="#e8b800"/>
          </g>
        </g>
      </g>
      <g id="Grupo_1235014" data-name="Grupo 1235014" transform="translate(78.626 35.122)">
        <circle id="Elipse_12082" data-name="Elipse 12082" cx="7.424" cy="7.424" r="7.424" transform="translate(0)" fill="#4fc123"/>
      </g>
      <g id="Grupo_1235015" data-name="Grupo 1235015" transform="translate(78.626 35.123)">
        <path id="Trazado_1236274" data-name="Trazado 1236274" d="M289.982,296.955a7.426,7.426,0,0,1,5.38-7.137,7.424,7.424,0,1,0,0,14.273A7.426,7.426,0,0,1,289.982,296.955Z" transform="translate(-285.893 -289.531)" fill="#47a920"/>
      </g>
      <g id="Grupo_1235016" data-name="Grupo 1235016" transform="translate(50.012 0)">
        <path id="Trazado_1236275" data-name="Trazado 1236275" d="M156.445,119.32a.91.91,0,0,0,0-1.82H144.439a.91.91,0,1,0,0,1.82Z" transform="translate(-132.185 -103.246)"/>
        <path id="Trazado_1236276" data-name="Trazado 1236276" d="M109.529,169.41a.91.91,0,0,0,.91.91h20.255a.91.91,0,0,0,0-1.82H110.439A.91.91,0,0,0,109.529,169.41Z" transform="translate(-102.309 -148.059)"/>
        <path id="Trazado_1236277" data-name="Trazado 1236277" d="M110.439,205.32h20.255a.91.91,0,0,0,0-1.82H110.439a.91.91,0,1,0,0,1.82Z" transform="translate(-102.309 -178.814)"/>
        <path id="Trazado_1236278" data-name="Trazado 1236278" d="M110.439,275.32h6.911a.91.91,0,1,0,0-1.82h-6.911a.91.91,0,0,0,0,1.82Z" transform="translate(-102.309 -240.322)"/>
        <path id="Trazado_1236279" data-name="Trazado 1236279" d="M99.078,40.576a.91.91,0,0,0,.91-.91V35.577a1.594,1.594,0,0,0-.759-1.363L94.853,31.5V1.274A1.275,1.275,0,0,0,93.58,0H59.612a1.275,1.275,0,0,0-1.274,1.274v2.89h-2.89a1.275,1.275,0,0,0-1.274,1.274v2.89h-2.89A1.275,1.275,0,0,0,50.012,9.6V56.058a1.275,1.275,0,0,0,1.274,1.274h6.731a.91.91,0,0,0,0-1.82H51.832V10.146H84.707V26.884l-5.53,3.425a.908.908,0,0,0-.78-1.377H58.142a.91.91,0,1,0,0,1.82H78.4c.024,0,.047,0,.071,0l-3.923,2.43h-6.58a.91.91,0,0,0,0,1.82h4.257a1.607,1.607,0,0,0-.108.58v1.846H58.142a.91.91,0,1,0,0,1.82H72.113V41.67H58.142a.91.91,0,1,0,0,1.82H72.113v2.145q0,.141,0,.281H58.142a.91.91,0,1,0,0,1.82H72.314a11.028,11.028,0,0,0,3.681,6.306l1.726,1.471H62.263a.91.91,0,0,0,0,1.82H79.855l5.155,4.393a1.6,1.6,0,0,0,2.08,0l9.016-7.684a11.03,11.03,0,0,0,3.881-8.407V43.912a.91.91,0,1,0-1.82,0v1.722a9.213,9.213,0,0,1-3.242,7.022L86.05,60.22l-8.876-7.564a9.213,9.213,0,0,1-3.242-7.022V35.7L86.05,28.192,98.169,35.7v3.968a.91.91,0,0,0,.91.91ZM86.527,26.406V9.6a1.275,1.275,0,0,0-1.274-1.274H55.995V5.983H88.87v6.39a.91.91,0,1,0,1.82,0V5.437a1.275,1.275,0,0,0-1.274-1.274H60.158V1.82H93.034V30.377L90.69,28.925V16.619a.91.91,0,1,0-1.82,0V27.8l-1.976-1.224a1.617,1.617,0,0,0-.368-.168Z" transform="translate(-50.012 0)"/>
        <path id="Trazado_1236280" data-name="Trazado 1236280" d="M278.394,290.364a8.334,8.334,0,1,0,8.334-8.334A8.343,8.343,0,0,0,278.394,290.364Zm14.848,0a6.514,6.514,0,1,1-6.514-6.514A6.522,6.522,0,0,1,293.242,290.364Z" transform="translate(-250.689 -247.817)"/>
        <path id="Trazado_1236281" data-name="Trazado 1236281" d="M320.44,332.652a.91.91,0,1,0-1.287,1.287l2.2,2.2a.91.91,0,0,0,1.287,0l3.4-3.4a.91.91,0,1,0-1.287-1.287l-2.759,2.76Z" transform="translate(-286.27 -291.003)"/>
      </g>
    </g>
  </g>
</svg>
