<svg xmlns="http://www.w3.org/2000/svg" width="112.93" height="164.378" viewBox="0 0 112.93 164.378">
  <g id="Grupo_1234469" data-name="Grupo 1234469" transform="translate(-165.647 -3959.237)">
    <path id="influencer-their-pet-creating-content-online-spaces-social-media" d="M0,0H85V158.011H0Z" transform="translate(180 3959.237)" fill="#ff9d1c"/>
    <g id="Grupo_1234468" data-name="Grupo 1234468" transform="matrix(0.978, 0.208, -0.208, 0.978, -6406.053, -3027.635)">
      <path id="Trazado_1235124" data-name="Trazado 1235124" d="M1097.964,496.5a44.786,44.786,0,0,1,8.371,2.622,43.376,43.376,0,0,1,14.456,9.949,39.428,39.428,0,0,1,6.923,9.931,37.792,37.792,0,0,1,3.8,16.6,42.343,42.343,0,0,1-2.157,13.152h0a44.482,44.482,0,0,1-3.15,7.3,57.354,57.354,0,0,1-3.942,6.259,124.282,124.282,0,0,1-8.491,10.262c-1.83,2.044-3.564,3.971-5.107,5.816a48.338,48.338,0,0,0-5,6.944c-.407.715-.76,1.413-1.072,2.1l-.3,12.681a11.516,11.516,0,0,1-7.494,10.518,11.463,11.463,0,0,0,5.513,1.555c.093,0,.184,0,.276,0a11.52,11.52,0,0,0,11.511-11.249l.3-12.69c2.168-4.787,6.3-9.4,10.642-14.251,6.013-6.716,12.828-14.328,16.123-24.423,7.034-21.551-3.935-39.549-19.46-47.91a43.237,43.237,0,0,0-21.742-5.168Z" transform="translate(6855.501 4974.411)" fill="#e9600b"/>
      <path id="Trazado_1235125" data-name="Trazado 1235125" d="M1089.684,1205.293a21.267,21.267,0,0,0-3.659.237c5.75,1.938,9.724,6.295,9.607,11.267-.133,5.664-5.534,10.273-12.656,11.34a20.808,20.808,0,0,0,6.146,1.064c8.855.208,16.159-4.975,16.314-11.578S1098.539,1205.5,1089.684,1205.293Z" transform="translate(6865.294 4387.573)" fill="#e9600b"/>
      <path id="Trazado_1235126" data-name="Trazado 1235126" d="M888.2,595.775l.3-12.681c.312-.691.665-1.389,1.072-2.1a48.345,48.345,0,0,1,5-6.944c1.543-1.845,3.277-3.772,5.107-5.816a124.284,124.284,0,0,0,8.491-10.262,57.405,57.405,0,0,0,3.942-6.259,44.472,44.472,0,0,0,3.149-7.3h0a42.343,42.343,0,0,0,2.157-13.152,37.791,37.791,0,0,0-3.8-16.6,39.429,39.429,0,0,0-6.923-9.931,43.373,43.373,0,0,0-14.456-9.949,44.812,44.812,0,0,0-8.371-2.622,43.571,43.571,0,0,0-8.85-.917,41.152,41.152,0,0,0-11.035,1.491,39.4,39.4,0,0,0-15.453,8.355,44.806,44.806,0,0,0-11.323,15.686,11.519,11.519,0,0,0,21.054,9.355h0a23.8,23.8,0,0,1,3.508-5.726,16.887,16.887,0,0,1,6.125-4.665,17.533,17.533,0,0,1,7.124-1.457,20.937,20.937,0,0,1,6.616,1.12c.239.08.482.145.718.233a21.332,21.332,0,0,1,4.952,2.634,17.767,17.767,0,0,1,5.219,5.743,14.75,14.75,0,0,1,1.373,3.4,15,15,0,0,1,.489,3.842,19.3,19.3,0,0,1-1.02,6.006,21.536,21.536,0,0,1-1.562,3.577,43.984,43.984,0,0,1-4.791,6.852c-1.5,1.824-3.2,3.73-5.011,5.75-2.711,3.034-5.673,6.314-8.485,10.11a51.776,51.776,0,0,0-7.324,13.293,11.122,11.122,0,0,0-.673,3.617l-.347,14.772c-.008.356.005.708.028,1.057a11.517,11.517,0,0,0,23-.516Z" transform="translate(7069.596 4978.748)" fill="#f2f2f2"/>
      <path id="Trazado_1235127" data-name="Trazado 1235127" d="M1002.22,1212.818c.117-4.972-3.856-9.329-9.607-11.267a20.8,20.8,0,0,0-6.146-1.064c-8.855-.208-16.159,4.975-16.315,11.578s6.9,12.124,15.753,12.332a21.3,21.3,0,0,0,3.659-.238C996.686,1223.091,1002.088,1218.481,1002.22,1212.818Z" transform="translate(6958.705 4391.553)" fill="#f2f2f2"/>
    </g>
  </g>
</svg>
