<svg xmlns="http://www.w3.org/2000/svg" xmlns:xlink="http://www.w3.org/1999/xlink" width="108" height="108" viewBox="0 0 108 108">
  <defs>
    <filter id="Trazado_904820" x="0" y="0" width="108" height="108" filterUnits="userSpaceOnUse">
      <feOffset dy="3" input="SourceAlpha"/>
      <feGaussianBlur stdDeviation="3" result="blur"/>
      <feFlood flood-opacity="0.161"/>
      <feComposite operator="in" in2="blur"/>
      <feComposite in="SourceGraphic"/>
    </filter>
  </defs>
  <g id="Grupo_1242091" data-name="Grupo 1242091" transform="translate(-621 -6494.736)">
    <g id="Grupo_1241925" data-name="Grupo 1241925" transform="translate(630 6500.736)">
      <g id="Grupo_1233818" data-name="Grupo 1233818" transform="translate(0 0)">
        <g id="Grupo_1228307" data-name="Grupo 1228307">
          <g id="Grupo_1228100" data-name="Grupo 1228100">
            <g id="Grupo_1221597" data-name="Grupo 1221597">
              <g id="Grupo_1219744" data-name="Grupo 1219744">
                <g id="Grupo_1202418" data-name="Grupo 1202418">
                  <g id="Grupo_1177315" data-name="Grupo 1177315">
                    <g id="Grupo_1173585" data-name="Grupo 1173585">
                      <g id="Grupo_1173428" data-name="Grupo 1173428">
                        <g id="Grupo_1171958" data-name="Grupo 1171958">
                          <g id="Grupo_1167341" data-name="Grupo 1167341">
                            <g id="Grupo_1166792" data-name="Grupo 1166792">
                              <g transform="matrix(1, 0, 0, 1, -9, -6)" filter="url(#Trazado_904820)">
                                <g id="Trazado_904820-2" data-name="Trazado 904820" transform="translate(9 6)" fill="#f2f7e5">
                                  <path d="M 44.99999618530273 88.50004577636719 C 39.12687301635742 88.50004577636719 33.43022155761719 87.35012054443359 28.06829643249512 85.08220672607422 C 22.88852119445801 82.891357421875 18.23629570007324 79.75463104248047 14.24084663391113 75.75917816162109 C 10.24540901184082 71.76373291015625 7.108683586120605 67.11150360107422 4.917821407318115 61.93173217773438 C 2.649921178817749 56.56979370117188 1.499996185302734 50.87314224243164 1.499996185302734 45.00001907348633 C 1.499996185302734 39.12689590454102 2.649921178817749 33.43024444580078 4.917821407318115 28.06830596923828 C 7.108683586120605 22.88853073120117 10.24540901184082 18.23631858825684 14.24084663391113 14.24086952209473 C 18.23629570007324 10.2454195022583 22.88852119445801 7.108694076538086 28.06829643249512 4.917831420898438 C 33.43022155761719 2.649931669235229 39.12687301635742 1.500006556510925 44.99999618530273 1.500006556510925 C 50.87311935424805 1.500006556510925 56.56977081298828 2.649931669235229 61.93169784545898 4.917831420898438 C 67.11147308349609 7.108694076538086 71.76369476318359 10.2454195022583 75.75914764404297 14.24086952209473 C 79.75458526611328 18.23631858825684 82.89131164550781 22.88853073120117 85.08216857910156 28.06830596923828 C 87.35007476806641 33.43024444580078 88.5 39.12689590454102 88.5 45.00001907348633 C 88.5 50.87314224243164 87.35007476806641 56.56979370117188 85.08216857910156 61.93173217773438 C 82.89131164550781 67.11150360107422 79.75458526611328 71.76373291015625 75.75914764404297 75.75917816162109 C 71.76369476318359 79.75463104248047 67.11147308349609 82.891357421875 61.93169784545898 85.08220672607422 C 56.56977081298828 87.35012054443359 50.87311935424805 88.50004577636719 44.99999618530273 88.50004577636719 Z" stroke="none"/>
                                  <path d="M 44.99999618530273 3.000007629394531 C 39.32870864868164 3.000007629394531 33.82865142822266 4.110061645507812 28.65262603759766 6.299346923828125 C 23.65165710449219 8.414573669433594 19.15968322753906 11.44334411621094 15.301513671875 15.30152130126953 C 11.44333648681641 19.15969085693359 8.414566040039062 23.65166473388672 6.299339294433594 28.65263366699219 C 4.110054016113281 33.82867431640625 2.999992370605469 39.32873153686523 2.999992370605469 45.00001907348633 C 2.999992370605469 50.67130661010742 4.110054016113281 56.17136383056641 6.299339294433594 61.34740447998047 C 8.414566040039062 66.34837341308594 11.44333648681641 70.84034729003906 15.301513671875 74.69851684570312 C 19.15968322753906 78.55668640136719 23.65165710449219 81.58546447753906 28.65262603759766 83.70069122314453 C 33.82865142822266 85.88997650146484 39.32870864868164 87.00003051757812 44.99999618530273 87.00003051757812 C 50.67128372192383 87.00003051757812 56.17134094238281 85.88997650146484 61.34736633300781 83.70069122314453 C 66.34834289550781 81.58546447753906 70.84030914306641 78.55668640136719 74.69847869873047 74.69851684570312 C 78.55665588378906 70.84034729003906 81.58542633056641 66.34837341308594 83.70065307617188 61.34740447998047 C 85.88993835449219 56.17136383056641 87 50.67130661010742 87 45.00001907348633 C 87 39.32873153686523 85.88993835449219 33.82867431640625 83.70065307617188 28.65263366699219 C 81.58542633056641 23.65166473388672 78.55665588378906 19.15969085693359 74.69847869873047 15.30152130126953 C 70.84030914306641 11.44334411621094 66.34834289550781 8.414573669433594 61.34736633300781 6.299346923828125 C 56.17134094238281 4.110061645507812 50.67128372192383 3.000007629394531 44.99999618530273 3.000007629394531 M 44.99999618530273 7.62939453125e-06 C 69.85281372070312 7.62939453125e-06 90 20.14719390869141 90 45.00001907348633 C 90 69.85284423828125 69.85281372070312 90.00003051757812 44.99999618530273 90.00003051757812 C 20.14717864990234 90.00003051757812 -7.62939453125e-06 69.85284423828125 -7.62939453125e-06 45.00001907348633 C -7.62939453125e-06 20.14719390869141 20.14717864990234 7.62939453125e-06 44.99999618530273 7.62939453125e-06 Z" stroke="none" fill="#496406"/>
                                </g>
                              </g>
                            </g>
                          </g>
                        </g>
                      </g>
                    </g>
                  </g>
                </g>
              </g>
            </g>
          </g>
        </g>
      </g>
    </g>
    <g id="productividad_3_" data-name="productividad (3)" transform="translate(645.973 6516.709)">
      <path id="Trazado_1241038" data-name="Trazado 1241038" d="M382.889,13.382l5.345-5.345a1.833,1.833,0,0,1,2.592,0l5.345,5.345a.916.916,0,0,1,0,1.3l-1.3,1.3a.916.916,0,0,1-1.3,0l-2.217-2.217v30.72a.916.916,0,0,1-.916.916h-1.833a.916.916,0,0,1-.916-.916V13.757l-2.217,2.217a.916.916,0,0,1-1.3,0l-1.3-1.3a.917.917,0,0,1,0-1.3Z" transform="translate(-339.237 -6.65)" fill="#bbec6c"/>
      <path id="Trazado_1241039" data-name="Trazado 1241039" d="M427.4,223.062V235.6a.916.916,0,0,0,.916.916h1.833a.916.916,0,0,0,.916-.916V224.885A18.052,18.052,0,0,0,427.4,223.062Z" transform="translate(-378.936 -197.77)" fill="#a2e62e"/>
      <path id="Trazado_1241040" data-name="Trazado 1241040" d="M53.947,108.858l-4.35-1.012a.962.962,0,0,1-.71-.69,18.307,18.307,0,0,0-1.854-4.462.962.962,0,0,1,.013-.992l2.364-3.8a.959.959,0,0,0-.136-1.185l-2.992-2.992a.959.959,0,0,0-1.185-.136l-3.8,2.364a.962.962,0,0,1-.992.013,18.307,18.307,0,0,0-4.462-1.854.961.961,0,0,1-.69-.71l-1.012-4.35a.959.959,0,0,0-.934-.742H28.978a.959.959,0,0,0-.934.742L27.032,93.4a.961.961,0,0,1-.69.71,18.307,18.307,0,0,0-4.462,1.854.962.962,0,0,1-.992-.013l-3.8-2.364a.959.959,0,0,0-1.185.136L12.914,96.72a.959.959,0,0,0-.136,1.185l2.364,3.8a.961.961,0,0,1,.013.992,18.307,18.307,0,0,0-1.854,4.462.961.961,0,0,1-.71.69l-4.35,1.012a.959.959,0,0,0-.742.934v4.231a.959.959,0,0,0,.742.934l4.35,1.012a.961.961,0,0,1,.71.69,18.307,18.307,0,0,0,1.854,4.462.962.962,0,0,1-.013.992l-2.364,3.8a.959.959,0,0,0,.136,1.185l2.992,2.992a.959.959,0,0,0,1.185.136l3.8-2.364a.962.962,0,0,1,.992-.013,18.307,18.307,0,0,0,4.462,1.854.961.961,0,0,1,.69.71l1.012,4.35a.959.959,0,0,0,.934.742H33.21a.959.959,0,0,0,.934-.742l1.012-4.35a.961.961,0,0,1,.69-.71,18.307,18.307,0,0,0,4.462-1.854.962.962,0,0,1,.992.013l3.8,2.364a.959.959,0,0,0,1.185-.136l2.992-2.992a.959.959,0,0,0,.136-1.185l-2.364-3.8a.961.961,0,0,1-.013-.992,18.3,18.3,0,0,0,1.854-4.462.961.961,0,0,1,.71-.69l4.35-1.012a.959.959,0,0,0,.742-.934v-4.231A.959.959,0,0,0,53.947,108.858Zm-22.853,14.5a11.454,11.454,0,1,1,11.454-11.454,11.454,11.454,0,0,1-11.454,11.454Z" transform="translate(-6.649 -78.3)" fill="#528fd8"/>
      <path id="Trazado_1241041" data-name="Trazado 1241041" d="M89.555,166.055l-2.364-3.8a.96.96,0,0,1-.014-.99,18.3,18.3,0,0,0,1.856-4.467.959.959,0,0,1,.709-.688l4.35-1.012a.959.959,0,0,0,.742-.934v-4.231a.959.959,0,0,0-.742-.934l-4.35-1.012a.959.959,0,0,1-.709-.688,18.3,18.3,0,0,0-1.856-4.467.959.959,0,0,1,.014-.99l2.364-3.8a.959.959,0,0,0-.136-1.185l-2.992-2.992a.959.959,0,0,0-1.185-.136l-3.013,1.876a20.024,20.024,0,0,1,.923,1.858,5.76,5.76,0,0,1-2.606,7.347q-.149.08-.3.163a11.454,11.454,0,0,1-9.011,18.525c0,.006-.014,0-.021,0a13.5,13.5,0,0,1-6.549,2.118,20.048,20.048,0,0,1-9.87-2.582l-1.876,3.013a.959.959,0,0,0,.136,1.185l2.992,2.992a.959.959,0,0,0,1.185.136l3.8-2.364a.96.96,0,0,1,.99-.014,18.3,18.3,0,0,0,4.467,1.856.959.959,0,0,1,.687.709l1.012,4.35a.959.959,0,0,0,.934.742h4.231a.959.959,0,0,0,.934-.742l1.012-4.35a.959.959,0,0,1,.687-.709,18.306,18.306,0,0,0,4.467-1.856.959.959,0,0,1,.99.014l3.8,2.364a.959.959,0,0,0,1.185-.136l2.992-2.992A.959.959,0,0,0,89.555,166.055Z" transform="translate(-46.793 -118.444)" fill="#0573ce"/>
      <circle id="Elipse_11556" data-name="Elipse 11556" cx="14.89" cy="14.89" r="14.89" transform="translate(27.423 27.423)" fill="#99e6fc"/>
      <path id="Trazado_1241042" data-name="Trazado 1241042" d="M288.295,267.475A14.89,14.89,0,0,1,267.474,288.3a14.89,14.89,0,1,0,20.821-20.821Z" transform="translate(-237.146 -237.147)" fill="#62dbfb"/>
      <circle id="Elipse_11557" data-name="Elipse 11557" cx="11.225" cy="11.225" r="11.225" transform="translate(31.088 31.088)" fill="#f2fbff"/>
      <path id="Trazado_1241043" data-name="Trazado 1241043" d="M143.814,39.673l-1.963,1.963a1.389,1.389,0,0,1-1.963,0l-3.182-3.183-.175-.175V70.257a11.538,11.538,0,0,1-5.553,0V38.278l-.175.175-3.182,3.183a1.389,1.389,0,0,1-1.963,0l-1.963-1.963a1.389,1.389,0,0,1,0-1.963l8.1-8.1a2.776,2.776,0,0,1,3.926,0l8.1,8.1A1.389,1.389,0,0,1,143.814,39.673Z" transform="translate(-109.308 -25.534)" fill="#ffe177"/>
      <g id="Grupo_1242090" data-name="Grupo 1242090" transform="translate(0 0)">
        <path id="Trazado_1241044" data-name="Trazado 1241044" d="M52.976,30.746V21.509a.85.85,0,0,0-1.7,0v7.872a15.753,15.753,0,0,0-1.965-1.165V7.107a.85.85,0,0,0-1.452-.6L45.643,8.722a.064.064,0,0,1-.047.02.062.062,0,0,1-.046-.02L44.256,7.429a.068.068,0,0,1,0-.1L49.6,1.989a.981.981,0,0,1,1.389,0l5.346,5.346a.061.061,0,0,1,.019.045.065.065,0,0,1-.019.047l-1.3,1.3a.064.064,0,0,1-.091,0L52.727,6.506a.85.85,0,0,0-1.452.6V17.541a.85.85,0,0,0,1.7,0V9.159l.765.765a1.765,1.765,0,0,0,2.5,0l1.3-1.3a1.766,1.766,0,0,0,0-2.5L52.191.787a2.682,2.682,0,0,0-3.8,0L43.051,6.132a1.772,1.772,0,0,0,0,2.5l1.295,1.294a1.753,1.753,0,0,0,1.248.519h0a1.756,1.756,0,0,0,1.25-.518l.764-.764v18.33a15.667,15.667,0,0,0-5.23-.917,19.214,19.214,0,0,0-1.259-2.605.113.113,0,0,1,0-.116l2.364-3.8a1.8,1.8,0,0,0-.256-2.236l-2.993-2.993A1.8,1.8,0,0,0,38,14.571l-3.8,2.364a.113.113,0,0,1-.116,0c-.249-.145-.5-.282-.758-.415l1.78-1.779a2.244,2.244,0,0,0,0-3.166l-8.1-8.1a3.634,3.634,0,0,0-5.129,0l-8.1,8.1a2.242,2.242,0,0,0,0,3.167l1.779,1.778c-.255.133-.509.27-.758.415a.114.114,0,0,1-.116,0l-3.8-2.364a1.8,1.8,0,0,0-2.236.256L5.663,17.819a1.8,1.8,0,0,0-.256,2.236l2.364,3.8a.113.113,0,0,1,0,.116,19.171,19.171,0,0,0-1.94,4.669.111.111,0,0,1-.081.082L1.4,29.73A1.8,1.8,0,0,0,0,31.493v4.231a1.8,1.8,0,0,0,1.4,1.763L5.75,38.5a.111.111,0,0,1,.08.082,19.17,19.17,0,0,0,1.94,4.668.113.113,0,0,1,0,.116l-2.364,3.8A1.8,1.8,0,0,0,5.663,49.4l2.993,2.993a1.8,1.8,0,0,0,2.236.256l3.8-2.364a.113.113,0,0,1,.116,0,19.173,19.173,0,0,0,4.669,1.94.111.111,0,0,1,.082.081l1.011,4.348a1.8,1.8,0,0,0,1.763,1.4h4.231a1.8,1.8,0,0,0,1.763-1.4l1.012-4.35a.111.111,0,0,1,.082-.08c.183-.049.367-.1.551-.157A15.734,15.734,0,1,0,52.976,30.746ZM35.1,18.379l3.8-2.364a.109.109,0,0,1,.135.015l2.993,2.993a.109.109,0,0,1,.015.135l-2.365,3.8a1.811,1.811,0,0,0-.026,1.868,17.533,17.533,0,0,1,.93,1.847,15.616,15.616,0,0,0-5.111,1.472,12.347,12.347,0,0,0-7.4-6.292V16.071a1.814,1.814,0,0,0,.906.566A17.476,17.476,0,0,1,33.232,18.4a1.811,1.811,0,0,0,1.868-.026ZM28.072,35.613V23.643a10.645,10.645,0,0,1,5.908,5.323A15.847,15.847,0,0,0,28.072,35.613ZM14.986,12.777l8.1-8.1a1.93,1.93,0,0,1,2.724,0l8.1,8.1a.54.54,0,0,1,0,.762L31.94,15.5a.538.538,0,0,1-.76,0l-3.357-3.359a.85.85,0,0,0-1.452.6V44.037a10.8,10.8,0,0,1-3.852,0V33.1a.85.85,0,0,0-1.7,0V43.574a10.606,10.606,0,0,1,0-19.931v5.49a.85.85,0,1,0,1.7,0V12.743a.85.85,0,0,0-1.452-.6L17.711,15.5a.537.537,0,0,1-.382.158.532.532,0,0,1-.379-.158l-1.964-1.963a.539.539,0,0,1,0-.761ZM27.678,51.919l-1.012,4.35a.108.108,0,0,1-.106.084H22.33a.108.108,0,0,1-.106-.084l-1.011-4.348a1.807,1.807,0,0,0-1.3-1.34,17.477,17.477,0,0,1-4.254-1.769,1.812,1.812,0,0,0-1.868.026L9.994,51.2a.108.108,0,0,1-.135-.015L6.866,48.195a.109.109,0,0,1-.015-.135l2.365-3.8a1.811,1.811,0,0,0,.026-1.868,17.473,17.473,0,0,1-1.768-4.254,1.807,1.807,0,0,0-1.339-1.3L1.784,35.83a.108.108,0,0,1-.084-.106V31.493a.108.108,0,0,1,.084-.106l4.348-1.011a1.807,1.807,0,0,0,1.34-1.3,17.473,17.473,0,0,1,1.768-4.254,1.811,1.811,0,0,0-.026-1.868l-2.364-3.8a.108.108,0,0,1,.014-.135l2.993-2.993a.109.109,0,0,1,.135-.015l3.8,2.365a1.812,1.812,0,0,0,1.867.026,17.469,17.469,0,0,1,4.254-1.768,1.816,1.816,0,0,0,.907-.566V21.85a12.305,12.305,0,0,0,6.113,23.81,15.645,15.645,0,0,0,2,4.934,1.805,1.805,0,0,0-1.254,1.325Zm14.635,4.434a14.04,14.04,0,1,1,14.04-14.04A14.055,14.055,0,0,1,42.313,56.353Z" transform="translate(0 0)"/>
        <path id="Trazado_1241045" data-name="Trazado 1241045" d="M278.756,266.68a12.072,12.072,0,1,0,11.867,9.843.85.85,0,1,0-1.671.316,10.387,10.387,0,1,1-1.3-3.412.85.85,0,0,0,1.457-.877A12.154,12.154,0,0,0,278.756,266.68Z" transform="translate(-236.442 -236.442)"/>
        <path id="Trazado_1241046" data-name="Trazado 1241046" d="M330.749,312.009a.851.851,0,0,0,1.2,0l3.028-3.028a1.6,1.6,0,0,0,1.209-2.919v-6.2a.85.85,0,0,0-1.7,0v6.2a1.594,1.594,0,0,0-.711,1.717l-3.028,3.028A.851.851,0,0,0,330.749,312.009Z" transform="translate(-293.026 -265.106)"/>
      </g>
    </g>
  </g>
</svg>
