<svg xmlns="http://www.w3.org/2000/svg" xmlns:xlink="http://www.w3.org/1999/xlink" width="108" height="108" viewBox="0 0 108 108">
  <defs>
    <filter id="Trazado_904820" x="0" y="0" width="108" height="108" filterUnits="userSpaceOnUse">
      <feOffset dy="3" input="SourceAlpha"/>
      <feGaussianBlur stdDeviation="3" result="blur"/>
      <feFlood flood-opacity="0.161"/>
      <feComposite operator="in" in2="blur"/>
      <feComposite in="SourceGraphic"/>
    </filter>
  </defs>
  <g id="Grupo_1234603" data-name="Grupo 1234603" transform="translate(-198 -524)">
    <g id="Grupo_1233829" data-name="Grupo 1233829" transform="translate(207 530)">
      <g id="Grupo_1228307" data-name="Grupo 1228307" transform="translate(0 0)">
        <g id="Grupo_1228100" data-name="Grupo 1228100" transform="translate(0)">
          <g id="Grupo_1221597" data-name="Grupo 1221597">
            <g id="Grupo_1219744" data-name="Grupo 1219744">
              <g id="Grupo_1202418" data-name="Grupo 1202418">
                <g id="Grupo_1177315" data-name="Grupo 1177315">
                  <g id="Grupo_1173585" data-name="Grupo 1173585">
                    <g id="Grupo_1173428" data-name="Grupo 1173428">
                      <g id="Grupo_1171958" data-name="Grupo 1171958">
                        <g id="Grupo_1167341" data-name="Grupo 1167341">
                          <g id="Grupo_1166792" data-name="Grupo 1166792">
                            <g transform="matrix(1, 0, 0, 1, -9, -6)" filter="url(#Trazado_904820)">
                              <g id="Trazado_904820-2" data-name="Trazado 904820" transform="translate(9 6)" fill="#fff4e6">
                                <path d="M 44.99999618530273 88.49994659423828 C 39.12687301635742 88.49994659423828 33.43022155761719 87.35002136230469 28.06829643249512 85.08212280273438 C 22.88852119445801 82.89125823974609 18.23629570007324 79.75454711914062 14.24084663391113 75.75910186767578 C 10.24540901184082 71.76364898681641 7.108683586120605 67.11143493652344 4.917821407318115 61.93165969848633 C 2.649921178817749 56.56973648071289 1.499996185302734 50.87309646606445 1.499996185302734 44.99997329711914 C 1.499996185302734 39.12685012817383 2.649921178817749 33.43021011352539 4.917821407318115 28.06828498840332 C 7.108683586120605 22.88851165771484 10.24540901184082 18.23629760742188 14.24084663391113 14.24084854125977 C 18.23629570007324 10.24539852142334 22.88852119445801 7.108685970306396 28.06829643249512 4.917823314666748 C 33.43022155761719 2.649923324584961 39.12687301635742 1.499998331069946 44.99999618530273 1.499998331069946 C 50.87311935424805 1.499998331069946 56.56977081298828 2.649923324584961 61.93169784545898 4.917823314666748 C 67.11147308349609 7.108685970306396 71.76369476318359 10.24539852142334 75.75914764404297 14.24084854125977 C 79.75458526611328 18.23629760742188 82.89131164550781 22.88851165771484 85.08216857910156 28.06828498840332 C 87.35007476806641 33.43021011352539 88.5 39.12685012817383 88.5 44.99997329711914 C 88.5 50.87309646606445 87.35007476806641 56.56973648071289 85.08216857910156 61.93165969848633 C 82.89131164550781 67.11143493652344 79.75458526611328 71.76364898681641 75.75914764404297 75.75910186767578 C 71.76369476318359 79.75454711914062 67.11147308349609 82.89125823974609 61.93169784545898 85.08212280273438 C 56.56977081298828 87.35002136230469 50.87311935424805 88.49994659423828 44.99999618530273 88.49994659423828 Z" stroke="none"/>
                                <path d="M 44.99999618530273 3 C 39.32870864868164 3 33.82865142822266 4.110061645507812 28.65262603759766 6.299331665039062 C 23.65165710449219 8.414573669433594 19.15968322753906 11.44332885742188 15.301513671875 15.30149841308594 C 11.44333648681641 19.15969085693359 8.414566040039062 23.65164184570312 6.299339294433594 28.65261459350586 C 4.110054016113281 33.82864379882812 2.999992370605469 39.32868576049805 2.999992370605469 44.99997329711914 C 2.999992370605469 50.67126083374023 4.110054016113281 56.17130279541016 6.299339294433594 61.34732818603516 C 8.414566040039062 66.34829711914062 11.44333648681641 70.84025573730469 15.301513671875 74.69844055175781 C 19.15968322753906 78.55661773681641 23.65165710449219 81.58537292480469 28.65262603759766 83.70061492919922 C 33.82865142822266 85.88988494873047 39.32870864868164 86.99994659423828 44.99999618530273 86.99994659423828 C 50.67128372192383 86.99994659423828 56.17134094238281 85.88988494873047 61.34736633300781 83.70061492919922 C 66.34834289550781 81.58537292480469 70.84030914306641 78.55661773681641 74.69847869873047 74.69844055175781 C 78.55665588378906 70.84025573730469 81.58542633056641 66.34829711914062 83.70065307617188 61.34732818603516 C 85.88993835449219 56.17130279541016 87 50.67126083374023 87 44.99997329711914 C 87 39.32868576049805 85.88993835449219 33.82864379882812 83.70065307617188 28.65261459350586 C 81.58542633056641 23.65164184570312 78.55665588378906 19.15969085693359 74.69847869873047 15.30149841308594 C 70.84030914306641 11.44332885742188 66.34834289550781 8.414573669433594 61.34736633300781 6.299331665039062 C 56.17134094238281 4.110061645507812 50.67128372192383 3 44.99999618530273 3 M 44.99999618530273 0 C 69.85281372070312 0 90 20.14717102050781 90 44.99997329711914 C 90 69.85277557373047 69.85281372070312 89.99994659423828 44.99999618530273 89.99994659423828 C 20.14717864990234 89.99994659423828 -7.62939453125e-06 69.85277557373047 -7.62939453125e-06 44.99997329711914 C -7.62939453125e-06 20.14717102050781 20.14717864990234 0 44.99999618530273 0 Z" stroke="none" fill="#8b550e"/>
                              </g>
                            </g>
                          </g>
                        </g>
                      </g>
                    </g>
                  </g>
                </g>
              </g>
            </g>
          </g>
        </g>
      </g>
    </g>
    <g id="trabajo-en-equipo_7_" data-name="trabajo-en-equipo (7)" transform="translate(222.069 545.337)">
      <circle id="Elipse_12070" data-name="Elipse 12070" cx="12.6" cy="12.6" r="12.6" transform="translate(17.289 17.069)" fill="#ffb850"/>
      <path id="Trazado_1235750" data-name="Trazado 1235750" d="M27.6,343.445a9.9,9.9,0,1,1-9.9-9.9A9.862,9.862,0,0,1,27.6,343.445Z" transform="translate(-6.633 -294.889)" fill="#eaf6ff"/>
      <path id="Trazado_1235751" data-name="Trazado 1235751" d="M47.347,436.292v2.268a9.9,9.9,0,0,1-13.842,0v-2.268a1.589,1.589,0,0,1,1.074-1.505l4.833-1.662H41.44l4.832,1.662A1.588,1.588,0,0,1,47.347,436.292Z" transform="translate(-29.354 -382.928)" fill="#ffb850"/>
      <path id="Trazado_1235752" data-name="Trazado 1235752" d="M36.982,438.56a9.854,9.854,0,0,0,5.183,2.67,9.906,9.906,0,0,1-8.66-2.67v-2.268a1.589,1.589,0,0,1,1.074-1.505l4.833-1.662H41.44l.724.249-4.108,1.413a1.589,1.589,0,0,0-1.074,1.505Z" transform="translate(-29.354 -382.928)" fill="#f5a30f"/>
      <path id="Trazado_1235753" data-name="Trazado 1235753" d="M353.044,343.445a9.9,9.9,0,1,1-9.9-9.9A9.862,9.862,0,0,1,353.044,343.445Z" transform="translate(-294.356 -294.889)" fill="#eaf6ff"/>
      <path id="Trazado_1235754" data-name="Trazado 1235754" d="M372.787,436.292v2.268a9.9,9.9,0,0,1-13.842,0v-2.268a1.588,1.588,0,0,1,1.076-1.505l4.832-1.662h2.028l4.833,1.662A1.589,1.589,0,0,1,372.787,436.292Z" transform="translate(-317.077 -382.928)" fill="#88b4f5"/>
      <path id="Trazado_1235755" data-name="Trazado 1235755" d="M362.422,438.56a9.854,9.854,0,0,0,5.183,2.67,9.906,9.906,0,0,1-8.66-2.67v-2.268a1.588,1.588,0,0,1,1.076-1.505l4.832-1.662h2.028l.724.249-4.107,1.413a1.588,1.588,0,0,0-1.076,1.505Z" transform="translate(-317.077 -382.928)" fill="#6ea2f2"/>
      <path id="Trazado_1235756" data-name="Trazado 1235756" d="M353.044,17.4a9.864,9.864,0,0,1-2.979,7.077h0a9.9,9.9,0,0,1-13.842,0h0A9.9,9.9,0,1,1,353.044,17.4Z" transform="translate(-294.356 -6.635)" fill="#eaf6ff"/>
      <path id="Trazado_1235757" data-name="Trazado 1235757" d="M372.787,110.251v2.27a9.9,9.9,0,0,1-13.842,0v-2.27a1.59,1.59,0,0,1,1.076-1.505l4.832-1.661h2.028l4.833,1.661A1.59,1.59,0,0,1,372.787,110.251Z" transform="translate(-317.077 -94.674)" fill="#f07281"/>
      <path id="Trazado_1235758" data-name="Trazado 1235758" d="M362.422,112.522a9.861,9.861,0,0,0,5.183,2.669,9.908,9.908,0,0,1-8.66-2.669v-2.27a1.59,1.59,0,0,1,1.076-1.505l4.832-1.661h2.028l.724.249-4.107,1.412a1.59,1.59,0,0,0-1.076,1.505Z" transform="translate(-317.077 -94.674)" fill="#eb5569"/>
      <path id="Trazado_1235759" data-name="Trazado 1235759" d="M27.6,17.4a9.864,9.864,0,0,1-2.978,7.077h0a9.9,9.9,0,0,1-13.842,0h0A9.9,9.9,0,1,1,27.6,17.4Z" transform="translate(-6.633 -6.635)" fill="#eaf6ff"/>
      <path id="Trazado_1235760" data-name="Trazado 1235760" d="M47.347,110.251v2.27a9.9,9.9,0,0,1-13.842,0v-2.27a1.59,1.59,0,0,1,1.074-1.505l4.833-1.661H41.44l4.832,1.661A1.59,1.59,0,0,1,47.347,110.251Z" transform="translate(-29.354 -94.674)" fill="#ade194"/>
      <path id="Trazado_1235761" data-name="Trazado 1235761" d="M36.982,112.522a9.861,9.861,0,0,0,5.183,2.669,9.908,9.908,0,0,1-8.66-2.669v-2.27a1.59,1.59,0,0,1,1.074-1.505l4.833-1.661H41.44l.724.249-4.108,1.412a1.59,1.59,0,0,0-1.074,1.505Z" transform="translate(-29.354 -94.674)" fill="#87d469"/>
      <circle id="Elipse_12071" data-name="Elipse 12071" cx="9.272" cy="9.272" r="9.272" transform="matrix(0.987, -0.16, 0.16, 0.987, 19.247, 22.004)" fill="#fbd94f"/>
      <path id="Trazado_1235762" data-name="Trazado 1235762" d="M220.673,217.277l1.414,2.866,3.163.46-2.289,2.231.54,3.15-2.829-1.487-2.829,1.487.54-3.15L216.1,220.6l3.163-.46Z" transform="translate(-190.784 -192.096)" fill="#ffb850"/>
      <circle id="Elipse_12072" data-name="Elipse 12072" cx="3.577" cy="3.577" r="3.577" transform="translate(45.212 5.252)" fill="#ffeee6"/>
      <path id="Trazado_1235763" data-name="Trazado 1235763" d="M393.12,52.018a3.577,3.577,0,1,1,0-6.253,3.578,3.578,0,0,0,0,6.253Z" transform="translate(-342.593 -40.063)" fill="#ffdfcf"/>
      <circle id="Elipse_12073" data-name="Elipse 12073" cx="3.577" cy="3.577" r="3.577" transform="translate(7.495 5.252)" fill="#ffcebf"/>
      <path id="Trazado_1235764" data-name="Trazado 1235764" d="M67.671,52.018a3.577,3.577,0,1,1,0-6.253,3.577,3.577,0,0,0,0,6.253Z" transform="translate(-54.861 -40.063)" fill="#ffb09e"/>
      <circle id="Elipse_12074" data-name="Elipse 12074" cx="3.577" cy="3.577" r="3.577" transform="translate(45.212 43.039)" fill="#ffcebf"/>
      <path id="Trazado_1235765" data-name="Trazado 1235765" d="M393.12,378.068a3.577,3.577,0,1,1,0-6.253,3.578,3.578,0,0,0,0,6.253Z" transform="translate(-342.593 -328.326)" fill="#ffb09e"/>
      <circle id="Elipse_12075" data-name="Elipse 12075" cx="3.577" cy="3.577" r="3.577" transform="translate(7.495 43.039)" fill="#ffeee6"/>
      <path id="Trazado_1235766" data-name="Trazado 1235766" d="M67.671,378.068a3.577,3.577,0,1,1,0-6.253,3.577,3.577,0,0,0,0,6.253Z" transform="translate(-54.861 -328.326)" fill="#ffdfcf"/>
      <g id="Grupo_1234602" data-name="Grupo 1234602" transform="translate(0.303 0)">
        <path id="Trazado_1235767" data-name="Trazado 1235767" d="M168.085,178.645A10.139,10.139,0,0,0,186.5,184.5a.869.869,0,1,0-1.418-1.006,8.356,8.356,0,1,1,1.372-3.153.869.869,0,0,0,1.7.352,10.141,10.141,0,1,0-20.074-2.049Z" transform="translate(-148.64 -148.975)"/>
        <path id="Trazado_1235768" data-name="Trazado 1235768" d="M218.267,212.318l-2.71-.394-1.212-2.456c-.39-.842-1.2-.726-1.559,0l-1.212,2.456-2.71.394c-.907.075-1.022.944-.482,1.483l1.961,1.912-.463,2.7q.061,1.242,1.261.916l2.424-1.274,2.424,1.274a.883.883,0,0,0,1.261-.916l-.463-2.7,1.961-1.912A.81.81,0,0,0,218.267,212.318Zm-3.02,2.468a.869.869,0,0,0-.25.769l.242,1.414-1.27-.668a.87.87,0,0,0-.809,0l-1.27.668.242-1.414a.869.869,0,0,0-.25-.769l-1.027-1,1.42-.206a.869.869,0,0,0,.654-.476l.635-1.287.635,1.287a.869.869,0,0,0,.654.476l1.42.206Z" transform="translate(-183.978 -184.672)"/>
        <path id="Trazado_1235769" data-name="Trazado 1235769" d="M52.517,38.453a24.335,24.335,0,0,0,0-17.578,10.9,10.9,0,0,0,7.045-10.105A10.769,10.769,0,0,0,38.684,7.045a24.332,24.332,0,0,0-17.517-.027A10.769,10.769,0,0,0,.3,10.769,10.9,10.9,0,0,0,7.276,20.847a24.329,24.329,0,0,0,0,17.633A10.786,10.786,0,0,0,.3,48.556,10.906,10.906,0,0,0,11.072,59.325a10.892,10.892,0,0,0,10.09-7.007,24.332,24.332,0,0,0,17.526-.028A10.769,10.769,0,1,0,52.517,38.453Zm2.324-20.987a9.013,9.013,0,0,1-12.1,0V15.577a.722.722,0,0,1,.488-.684l4.695-1.614h1.738l4.7,1.614a.721.721,0,0,1,.487.683v1.889Zm-8.76-8.637a2.708,2.708,0,1,1,2.708,2.708A2.711,2.711,0,0,1,46.081,8.829Zm2.708-7.091a9.025,9.025,0,0,1,7.779,13.61,2.458,2.458,0,0,0-1.65-2.1l-3.183-1.094a4.446,4.446,0,1,0-5.892,0l-3.182,1.094a2.458,2.458,0,0,0-1.651,2.1,9.024,9.024,0,0,1,7.779-13.61Zm-45.5,13.61A9.029,9.029,0,1,1,20.1,10.769a8.973,8.973,0,0,1-1.252,4.58,2.458,2.458,0,0,0-1.65-2.1l-3.183-1.094a4.446,4.446,0,1,0-5.892,0L4.944,13.249a2.459,2.459,0,0,0-1.651,2.1ZM13.78,8.829a2.708,2.708,0,1,1-2.708-2.708A2.711,2.711,0,0,1,13.78,8.829ZM5.02,17.466V15.577a.722.722,0,0,1,.488-.684L10.2,13.279h1.738l4.7,1.614a.721.721,0,0,1,.487.683v1.889a9.013,9.013,0,0,1-12.1,0Zm12.1,37.787a9.012,9.012,0,0,1-12.1,0V53.364a.722.722,0,0,1,.488-.684L10.2,51.067h1.738l4.7,1.614a.721.721,0,0,1,.487.683Zm-8.76-8.636a2.708,2.708,0,1,1,2.708,2.708A2.711,2.711,0,0,1,8.364,46.616Zm29.853,3.992a22.6,22.6,0,0,1-16.579.03A10.964,10.964,0,0,0,17.9,40.229a.869.869,0,1,0-1.1,1.344,9.141,9.141,0,0,1,2.053,11.563,2.458,2.458,0,0,0-1.65-2.1l-3.183-1.094a4.446,4.446,0,1,0-5.892,0L4.945,51.036a2.459,2.459,0,0,0-1.651,2.1,8.974,8.974,0,0,1-1.252-4.579,9.12,9.12,0,0,1,11.714-8.625.869.869,0,0,0,.517-1.66A11.01,11.01,0,0,0,8.951,38a22.595,22.595,0,0,1,0-16.669A10.873,10.873,0,0,0,21.641,8.7a22.6,22.6,0,0,1,16.574.029A10.873,10.873,0,0,0,50.83,21.343a22.6,22.6,0,0,1,0,16.639A10.9,10.9,0,0,0,38.217,50.608Zm4.52,4.644V53.364a.722.722,0,0,1,.488-.684l4.695-1.614h1.738l4.7,1.614a.721.721,0,0,1,.487.683v1.888a9.013,9.013,0,0,1-12.1,0Zm6.052-5.929A2.708,2.708,0,1,1,51.5,46.616,2.711,2.711,0,0,1,48.789,49.324Zm7.779,3.812a2.458,2.458,0,0,0-1.65-2.1l-3.183-1.094a4.446,4.446,0,1,0-5.892,0l-3.182,1.094a2.459,2.459,0,0,0-1.651,2.1,9.031,9.031,0,1,1,15.557,0Z" transform="translate(-0.303 0)"/>
        <path id="Trazado_1235770" data-name="Trazado 1235770" d="M163.029,145.475a13.485,13.485,0,0,0-8.1-4.512.869.869,0,1,0-.269,1.717,11.733,11.733,0,1,1-3.528-.017.869.869,0,1,0-.251-1.72,13.48,13.48,0,1,0,12.152,4.532Z" transform="translate(-123.248 -124.6)"/>
      </g>
    </g>
  </g>
</svg>
