<svg xmlns="http://www.w3.org/2000/svg" xmlns:xlink="http://www.w3.org/1999/xlink" width="108" height="108" viewBox="0 0 108 108">
  <defs>
    <filter id="Trazado_904820" x="0" y="0" width="108" height="108" filterUnits="userSpaceOnUse">
      <feOffset dy="3" input="SourceAlpha"/>
      <feGaussianBlur stdDeviation="3" result="blur"/>
      <feFlood flood-opacity="0.161"/>
      <feComposite operator="in" in2="blur"/>
      <feComposite in="SourceGraphic"/>
    </filter>
  </defs>
  <g id="Grupo_1234476" data-name="Grupo 1234476" transform="translate(-617 -322)">
    <g id="Grupo_1233816" data-name="Grupo 1233816" transform="translate(0 -484)">
      <g id="Grupo_1228307" data-name="Grupo 1228307" transform="translate(0 -3017.921)">
        <g id="Grupo_1228100" data-name="Grupo 1228100" transform="translate(626 3829.921)">
          <g id="Grupo_1221597" data-name="Grupo 1221597" transform="translate(0 0)">
            <g id="Grupo_1219744" data-name="Grupo 1219744">
              <g id="Grupo_1202418" data-name="Grupo 1202418">
                <g id="Grupo_1177315" data-name="Grupo 1177315">
                  <g id="Grupo_1173585" data-name="Grupo 1173585">
                    <g id="Grupo_1173428" data-name="Grupo 1173428">
                      <g id="Grupo_1171958" data-name="Grupo 1171958">
                        <g id="Grupo_1167341" data-name="Grupo 1167341">
                          <g id="Grupo_1166792" data-name="Grupo 1166792">
                            <g transform="matrix(1, 0, 0, 1, -9, -6)" filter="url(#Trazado_904820)">
                              <g id="Trazado_904820-2" data-name="Trazado 904820" transform="translate(9 6)" fill="#fff4e6">
                                <path d="M 44.99999618530273 88.49995422363281 C 39.12687301635742 88.49995422363281 33.43022155761719 87.35002899169922 28.06829643249512 85.08213043212891 C 22.88852119445801 82.89126586914062 18.23629570007324 79.75455474853516 14.24084663391113 75.75910186767578 C 10.24540901184082 71.76364898681641 7.108683586120605 67.11144256591797 4.917821407318115 61.93166351318359 C 2.649921178817749 56.56974029541016 1.499996185302734 50.87310028076172 1.499996185302734 44.99997711181641 C 1.499996185302734 39.12685394287109 2.649921178817749 33.43021392822266 4.917821407318115 28.06828880310059 C 7.108683586120605 22.88851547241211 10.24540901184082 18.23630142211914 14.24084663391113 14.24085235595703 C 18.23629570007324 10.24540233612061 22.88852119445801 7.108689785003662 28.06829643249512 4.917827129364014 C 33.43022155761719 2.649927139282227 39.12687301635742 1.500002145767212 44.99999618530273 1.500002145767212 C 50.87311935424805 1.500002145767212 56.56977081298828 2.649927139282227 61.93169784545898 4.917827129364014 C 67.11147308349609 7.108689785003662 71.76369476318359 10.24540233612061 75.75914764404297 14.24085235595703 C 79.75458526611328 18.23630142211914 82.89131164550781 22.88851547241211 85.08216857910156 28.06828880310059 C 87.35007476806641 33.43021392822266 88.5 39.12685394287109 88.5 44.99997711181641 C 88.5 50.87310028076172 87.35007476806641 56.56974029541016 85.08216857910156 61.93166351318359 C 82.89131164550781 67.11144256591797 79.75458526611328 71.76364898681641 75.75914764404297 75.75910186767578 C 71.76369476318359 79.75455474853516 67.11147308349609 82.89126586914062 61.93169784545898 85.08213043212891 C 56.56977081298828 87.35002899169922 50.87311935424805 88.49995422363281 44.99999618530273 88.49995422363281 Z" stroke="none"/>
                                <path d="M 44.99999618530273 2.999992370605469 C 39.32870864868164 2.999992370605469 33.82865142822266 4.11004638671875 28.65262603759766 6.299331665039062 C 23.65165710449219 8.414566040039062 19.15968322753906 11.44333648681641 15.301513671875 15.30150604248047 C 11.44333648681641 19.15967559814453 8.414566040039062 23.65163421630859 6.299339294433594 28.65260696411133 C 4.110054016113281 33.82864761352539 2.999992370605469 39.32868957519531 2.999992370605469 44.99997711181641 C 2.999992370605469 50.6712646484375 4.110054016113281 56.17130661010742 6.299339294433594 61.34733581542969 C 8.414566040039062 66.34830474853516 11.44333648681641 70.84026336669922 15.301513671875 74.69844818115234 C 19.15968322753906 78.55661773681641 23.65165710449219 81.58537292480469 28.65262603759766 83.70062255859375 C 33.82865142822266 85.889892578125 39.32870864868164 86.99994659423828 44.99999618530273 86.99994659423828 C 50.67128372192383 86.99994659423828 56.17134094238281 85.889892578125 61.34736633300781 83.70062255859375 C 66.34834289550781 81.58537292480469 70.84030914306641 78.55661773681641 74.69847869873047 74.69844818115234 C 78.55665588378906 70.84026336669922 81.58542633056641 66.34830474853516 83.70065307617188 61.34733581542969 C 85.88993835449219 56.17130661010742 87 50.6712646484375 87 44.99997711181641 C 87 39.32868957519531 85.88993835449219 33.82864761352539 83.70065307617188 28.65260696411133 C 81.58542633056641 23.65163421630859 78.55665588378906 19.15967559814453 74.69847869873047 15.30150604248047 C 70.84030914306641 11.44333648681641 66.34834289550781 8.414566040039062 61.34736633300781 6.299331665039062 C 56.17134094238281 4.11004638671875 50.67128372192383 2.999992370605469 44.99999618530273 2.999992370605469 M 44.99999618530273 -7.62939453125e-06 C 69.85281372070312 -7.62939453125e-06 90 20.14717864990234 90 44.99997711181641 C 90 69.85277557373047 69.85281372070312 89.99994659423828 44.99999618530273 89.99994659423828 C 20.14717864990234 89.99994659423828 -7.62939453125e-06 69.85277557373047 -7.62939453125e-06 44.99997711181641 C -7.62939453125e-06 20.14717864990234 20.14717864990234 -7.62939453125e-06 44.99999618530273 -7.62939453125e-06 Z" stroke="none" fill="#8b550e"/>
                              </g>
                            </g>
                          </g>
                        </g>
                      </g>
                    </g>
                  </g>
                </g>
              </g>
            </g>
          </g>
        </g>
      </g>
    </g>
    <g id="recursos-humanos" transform="translate(634.907 341.783)">
      <g id="Grupo_1234475" data-name="Grupo 1234475" transform="translate(7.415 1.885)">
        <g id="Grupo_1234470" data-name="Grupo 1234470" transform="translate(16.202)">
          <path id="Trazado_1235128" data-name="Trazado 1235128" d="M167.729,8.5h4.557a1.184,1.184,0,0,1,1.18,1.18v2.15a3.148,3.148,0,0,0,5.374,2.226l1.52-1.52a1.184,1.184,0,0,1,1.669,0l3.222,3.222a1.184,1.184,0,0,1,0,1.669l-1.52,1.52a3.148,3.148,0,0,0,2.226,5.374h2.15a1.184,1.184,0,0,1,1.18,1.18v2.279h-9a10.28,10.28,0,1,0-20.559,0h-9V25.5a1.184,1.184,0,0,1,1.18-1.18h2.15a3.148,3.148,0,0,0,2.226-5.374l-1.52-1.52a1.184,1.184,0,0,1,0-1.669l3.222-3.222a1.184,1.184,0,0,1,1.669,0l1.52,1.52a3.148,3.148,0,0,0,5.374-2.226V9.682A1.184,1.184,0,0,1,167.729,8.5Z" transform="translate(-150.727 -8.502)" fill="#ffc328" fill-rule="evenodd"/>
          <path id="Trazado_1235129" data-name="Trazado 1235129" d="M231.492,37.9a3.148,3.148,0,0,0,5.37,2.072l1.52-1.52a1.184,1.184,0,0,1,1.669,0l3.222,3.222a1.184,1.184,0,0,1,0,1.669l-1.52,1.52a3.148,3.148,0,0,0,2.226,5.374h2.15a1.184,1.184,0,0,1,1.18,1.18v2.279h-9a10.28,10.28,0,1,0-20.559,0h-1.2A19.534,19.534,0,0,1,231.492,37.9Z" transform="translate(-208.749 -34.412)" fill="#ffd54f" fill-rule="evenodd"/>
        </g>
        <g id="Grupo_1234471" data-name="Grupo 1234471" transform="translate(41.137 21.469)">
          <path id="Trazado_1235130" data-name="Trazado 1235130" d="M376.8,275.108H361.538a.416.416,0,0,1-.415-.415v-3.441a6.866,6.866,0,0,1,6.846-6.846h2.4a6.866,6.866,0,0,1,6.846,6.846v3.441A.416.416,0,0,1,376.8,275.108Z" transform="translate(-361.123 -255.547)" fill="#58d561" fill-rule="evenodd"/>
          <path id="Trazado_1235131" data-name="Trazado 1235131" d="M393.848,265.088a6.783,6.783,0,0,1,2.967-.681h2.4a6.866,6.866,0,0,1,6.846,6.846v2.732A12.88,12.88,0,0,1,393.848,265.088Z" transform="translate(-389.97 -255.547)" fill="#6ce75a" fill-rule="evenodd"/>
          <ellipse id="Elipse_12059" data-name="Elipse 12059" cx="4.845" cy="4.786" rx="4.845" ry="4.786" transform="translate(3.201)" fill="#fecbaa"/>
          <path id="Trazado_1235132" data-name="Trazado 1235132" d="M406.737,189.648a4.878,4.878,0,0,0-1.97.412A4.728,4.728,0,0,0,403.742,193a4.816,4.816,0,0,0,4.845,4.786,4.878,4.878,0,0,0,1.97-.412,4.728,4.728,0,0,0,1.025-2.944A4.816,4.816,0,0,0,406.737,189.648Z" transform="translate(-398.691 -189.648)" fill="#fedfc5" fill-rule="evenodd"/>
        </g>
        <g id="Grupo_1234472" data-name="Grupo 1234472" transform="translate(13.735 21.469)">
          <path id="Trazado_1235133" data-name="Trazado 1235133" d="M145.593,275.108H130.331a.416.416,0,0,1-.415-.415v-3.441a6.866,6.866,0,0,1,6.846-6.846h2.4a6.866,6.866,0,0,1,6.846,6.846v3.441A.416.416,0,0,1,145.593,275.108Z" transform="translate(-129.916 -255.547)" fill="#eb4e5c" fill-rule="evenodd"/>
          <path id="Trazado_1235134" data-name="Trazado 1235134" d="M162.641,265.088a6.783,6.783,0,0,1,2.967-.681h2.4a6.866,6.866,0,0,1,6.846,6.846v2.732A12.88,12.88,0,0,1,162.641,265.088Z" transform="translate(-158.763 -255.547)" fill="#ff6372" fill-rule="evenodd"/>
          <ellipse id="Elipse_12060" data-name="Elipse 12060" cx="4.845" cy="4.786" rx="4.845" ry="4.786" transform="translate(3.201)" fill="#fecbaa"/>
          <path id="Trazado_1235135" data-name="Trazado 1235135" d="M175.531,189.648a4.878,4.878,0,0,0-1.97.412A4.728,4.728,0,0,0,172.536,193a4.816,4.816,0,0,0,4.845,4.786,4.878,4.878,0,0,0,1.97-.412,4.728,4.728,0,0,0,1.025-2.944A4.816,4.816,0,0,0,175.531,189.648Z" transform="translate(-167.485 -189.648)" fill="#fedfc5" fill-rule="evenodd"/>
        </g>
        <g id="Grupo_1234473" data-name="Grupo 1234473" transform="translate(26.102 17.501)">
          <path id="Trazado_1235136" data-name="Trazado 1235136" d="M252.54,258.171H234.748a.485.485,0,0,1-.484-.484v-6.382a8,8,0,0,1,7.98-7.98h2.8a8,8,0,0,1,7.98,7.98v6.382A.485.485,0,0,1,252.54,258.171Z" transform="translate(-234.264 -232.996)" fill="#2891fa" fill-rule="evenodd"/>
          <path id="Trazado_1235137" data-name="Trazado 1235137" d="M272.414,244.117a7.907,7.907,0,0,1,3.459-.794h2.8a8,8,0,0,1,7.98,7.98v3.185a15.015,15.015,0,0,1-14.239-10.372Z" transform="translate(-267.893 -232.994)" fill="#43a2ff" fill-rule="evenodd"/>
          <ellipse id="Elipse_12061" data-name="Elipse 12061" cx="5.649" cy="5.579" rx="5.649" ry="5.579" transform="translate(3.732)" fill="#fecbaa"/>
          <path id="Trazado_1235138" data-name="Trazado 1235138" d="M287.442,156.171a5.688,5.688,0,0,0-2.3.481,5.512,5.512,0,0,0-1.195,3.432,5.614,5.614,0,0,0,5.649,5.579,5.688,5.688,0,0,0,2.3-.481,5.513,5.513,0,0,0,1.195-3.432A5.614,5.614,0,0,0,287.442,156.171Z" transform="translate(-278.062 -156.171)" fill="#fedfc5" fill-rule="evenodd"/>
        </g>
        <g id="Grupo_1234474" data-name="Grupo 1234474" transform="translate(0 33.361)">
          <path id="Trazado_1235139" data-name="Trazado 1235139" d="M51.3,293.1l5.22,19.481c7.089-2.066,10.524-.443,16.407,1.133A6.46,6.46,0,0,0,78,313.042l24.4-14.086a3.69,3.69,0,0,0-3.691-6.392L85.68,300.085a4.325,4.325,0,0,0-4.708-6.6l-4.421,1.185a7.048,7.048,0,0,1-5.536-.729l-5.894-3.4c-3.4-1.961-7.027,1.837-13.819,2.554Z" transform="translate(-46.883 -289.986)" fill="#fecbaa" fill-rule="evenodd"/>
          <path id="Trazado_1235140" data-name="Trazado 1235140" d="M220.337,343.86a8.461,8.461,0,0,1-4.386.03,1.268,1.268,0,0,1,.655-2.45,5.753,5.753,0,0,0,3.077-.03l7.18-1.924a4.347,4.347,0,0,0,3.206-4.029,4.293,4.293,0,0,1,.512,1.175,4.342,4.342,0,0,1-3.062,5.3l-7.182,1.924h0Z" transform="translate(-191.19 -330.068)" fill="#fecbaa" fill-rule="evenodd"/>
          <path id="Trazado_1235141" data-name="Trazado 1235141" d="M51.3,293.1l2.415,9.015a38.365,38.365,0,0,0,48.033-9.836,3.685,3.685,0,0,0-3.043.29L85.68,300.086a4.325,4.325,0,0,0-4.708-6.6l-4.421,1.185a7.048,7.048,0,0,1-5.536-.729l-5.894-3.4c-3.4-1.961-7.027,1.837-13.819,2.554Z" transform="translate(-46.883 -289.987)" fill="#fedfc5" fill-rule="evenodd"/>
          <path id="Trazado_1235142" data-name="Trazado 1235142" d="M220.337,343.861a8.46,8.46,0,0,1-4.386.03,1.268,1.268,0,0,1,.655-2.45,5.755,5.755,0,0,0,3.077-.03l7.18-1.924a4.347,4.347,0,0,0,3.206-4.029,4.292,4.292,0,0,1,.512,1.175,4.342,4.342,0,0,1-3.062,5.3l-7.182,1.924h0Z" transform="translate(-191.19 -330.069)" fill="#fecbaa" fill-rule="evenodd"/>
          <path id="Trazado_1235143" data-name="Trazado 1235143" d="M18.864,299.624l5.827,21.747a.81.81,0,0,1-.571.989l-3.252.871a.81.81,0,0,1-.989-.571l-5.827-21.747a.81.81,0,0,1,.571-.989l3.252-.871a.81.81,0,0,1,.989.571Z" transform="translate(-14.025 -297.954)" fill="#ffc328" fill-rule="evenodd"/>
          <path id="Trazado_1235144" data-name="Trazado 1235144" d="M18.864,299.625l2.931,10.94a38.368,38.368,0,0,1-6.2-3.892l-1.543-5.759a.81.81,0,0,1,.571-.989l3.252-.871A.81.81,0,0,1,18.864,299.625Z" transform="translate(-14.025 -297.955)" fill="#ffd54f" fill-rule="evenodd"/>
        </g>
      </g>
      <path id="Trazado_1235145" data-name="Trazado 1235145" d="M63.787,41.743a2.794,2.794,0,0,1-1.3,1.7l-24.4,14.086a5.542,5.542,0,0,1-4.4.579c-.793-.212-1.541-.425-2.264-.632-4.223-1.2-7.6-2.167-12.988-.922L13.727,38.973a32.96,32.96,0,0,0,5.651-1.714c2.471-.927,4.256-1.6,5.83-.689l5.894,3.4a7.912,7.912,0,0,0,6.211.817l4.421-1.183A3.438,3.438,0,0,1,45.513,44.8a1.192,1.192,0,0,0-.069.1,3.419,3.419,0,0,1-1.929,1.356L37.05,47.986a6.217,6.217,0,0,1-3.27.029.889.889,0,1,0-.463,1.717A7.685,7.685,0,0,0,35.328,50a8.409,8.409,0,0,0,2.182-.3l6.465-1.733a5.19,5.19,0,0,0,2.855-1.956l12.854-7.422a2.8,2.8,0,0,1,4.1,3.151Zm-49.68,17.9,3.094-.829-5.785-21.59-3.094.829Zm15.09-35.4a3.9,3.9,0,1,1-3.958,3.9A3.931,3.931,0,0,1,29.2,24.242ZM32.629,37.7a8.83,8.83,0,0,1,.832-3.737,5.978,5.978,0,0,0-1.768-.711,5.779,5.779,0,0,1-4.995,0,5.949,5.949,0,0,0-2.407,1.162,4.876,4.876,0,0,1,1.8.623l5.894,3.4a6.8,6.8,0,0,0,.639.328V37.7ZM40,30.764a7.079,7.079,0,0,0-5.6,6.931v1.572a6.375,6.375,0,0,0,2.444-.194l4.422-1.184a5.218,5.218,0,0,1,6.549,5.5l3.566-2.059V37.7a7.08,7.08,0,0,0-5.6-6.931,6.584,6.584,0,0,1-5.786,0ZM42.9,20.274a4.691,4.691,0,1,1-4.76,4.691A4.732,4.732,0,0,1,42.9,20.274ZM54.1,33.247a5.984,5.984,0,0,0-1.769.711,8.823,8.823,0,0,1,.833,3.737V40.3l5.628-3.25a4.6,4.6,0,0,1,4.623.03A5.944,5.944,0,0,0,59.1,33.246a5.781,5.781,0,0,1-5,0Zm2.5-9a3.9,3.9,0,1,1-3.956,3.9A3.933,3.933,0,0,1,56.6,24.242Zm8.933,15.694v-.877a7.718,7.718,0,0,0-4.684-7.11,5.632,5.632,0,0,0,1.487-3.811,5.735,5.735,0,0,0-11.47,0,5.618,5.618,0,0,0,1.492,3.814,7.624,7.624,0,0,0-.934.479c-.119-.16-.242-.319-.371-.471a8.95,8.95,0,0,0-3.463-2.5,6.41,6.41,0,0,0,1.847-4.5,6.538,6.538,0,0,0-13.076,0,6.413,6.413,0,0,0,1.846,4.5,8.939,8.939,0,0,0-3.462,2.5c-.13.151-.254.31-.372.471a7.732,7.732,0,0,0-.933-.479,5.623,5.623,0,0,0,1.491-3.814,5.735,5.735,0,0,0-11.469,0,5.62,5.62,0,0,0,1.494,3.815,7.8,7.8,0,0,0-3.281,2.662,27.62,27.62,0,0,0-2.921.979,31.308,31.308,0,0,1-5.489,1.654l-.151-.564a1.7,1.7,0,0,0-2.078-1.2l-3.252.871a1.7,1.7,0,0,0-1.2,2.079l5.827,21.746a1.69,1.69,0,0,0,2.078,1.2l3.252-.871a1.7,1.7,0,0,0,1.2-2.077l-.043-.159c4.9-1.12,7.934-.257,12.04.914.73.209,1.486.424,2.292.64a7.772,7.772,0,0,0,2.023.275,7.367,7.367,0,0,0,3.725-1.031l24.4-14.086a4.59,4.59,0,0,0,2.158-5.049ZM24.506,18.886v1.389h7.258a11.169,11.169,0,0,1,22.267,0h7.257V18.886A.3.3,0,0,0,61,18.595H58.845A4.038,4.038,0,0,1,55.993,11.7l1.52-1.519a.3.3,0,0,0,0-.412L54.291,6.548a.3.3,0,0,0-.413,0l-1.52,1.521a4.036,4.036,0,0,1-6.89-2.855V3.064a.3.3,0,0,0-.292-.292H40.619a.3.3,0,0,0-.292.292v2.15a4.037,4.037,0,0,1-6.892,2.855l-1.52-1.521a.3.3,0,0,0-.411,0L28.282,9.771a.285.285,0,0,0-.084.206.289.289,0,0,0,.084.206L29.8,11.7a4.037,4.037,0,0,1-2.854,6.892H24.8a.3.3,0,0,0-.292.291Zm-.889,3.167h9a.888.888,0,0,0,.889-.889,9.391,9.391,0,0,1,18.782,0,.887.887,0,0,0,.889.889h9a.887.887,0,0,0,.889-.889V18.886A2.071,2.071,0,0,0,61,16.817H58.846a2.258,2.258,0,0,1-1.595-3.856l1.522-1.52a2.075,2.075,0,0,0,0-2.926L55.548,5.291a2.072,2.072,0,0,0-2.926,0L51.1,6.812a2.258,2.258,0,0,1-3.855-1.6V3.064A2.072,2.072,0,0,0,45.176,1H40.62A2.071,2.071,0,0,0,38.55,3.064v2.15a2.259,2.259,0,0,1-3.857,1.6l-1.52-1.52a2.072,2.072,0,0,0-2.926,0L27.025,8.514a2.072,2.072,0,0,0,0,2.926l1.52,1.52a2.259,2.259,0,0,1-1.6,3.856H24.8a2.071,2.071,0,0,0-2.069,2.069v2.278a.888.888,0,0,0,.889.889Z" fill-rule="evenodd"/>
    </g>
  </g>
</svg>
