<svg xmlns="http://www.w3.org/2000/svg" xmlns:xlink="http://www.w3.org/1999/xlink" width="295" height="264" viewBox="0 0 295 264">
  <defs>
    <clipPath id="clip-path">
      <rect id="Rectángulo_422693" data-name="Rectángulo 422693" width="295" height="264" transform="translate(1125 820)" fill="#7b776f" stroke="#707070" stroke-width="1"/>
    </clipPath>
    <clipPath id="clip-path-2">
      <path id="Trazado_1235176" data-name="Trazado 1235176" d="M168.153,247.468l3.026,6.4a338.7,338.7,0,0,1,20.13,55.345c.181.7,4.138,14.7.965,49.541l1.808,6.115-1.975,10.1s2.97,4.3,2.864,5.7c0,0-7.334,1.37-9.778,2.683-1.906,1.024-7.618,6.665-7.618,6.665-1.62-.334-1.762-6.889-1.762-6.889s-3.394-58.167-4.363-60.676-6.927-13.313-16.208-38.045c0,0-.21,34.548-2.689,43.285-2.206,7.774.406,29.535.406,29.535l-1.489,24.223s5.22,5.425.985,6.88c0,0-2.828-5.444-10.889-6.681-4.1-.629-9.205,6.647-9.205,6.647-1.79-.574.763-9.714.763-9.714-5.714-43.116-1.5-35.312-2.637-56.385-.733-13.523-4.572-71.388-.069-76.09Z" transform="translate(-128.265 -246.1)"/>
    </clipPath>
    <clipPath id="clip-path-4">
      <path id="Trazado_1235201" data-name="Trazado 1235201" d="M20.422,13.09,1.1,14.874.006,3.074A1.42,1.42,0,0,1,1.29,1.529L17.788.006A1.42,1.42,0,0,1,19.333,1.29Z"/>
    </clipPath>
    <clipPath id="clip-path-5">
      <path id="Trazado_1235206" data-name="Trazado 1235206" d="M20.422,13.09,1.1,14.873.006,3.073A1.42,1.42,0,0,1,1.29,1.529L17.788.006A1.419,1.419,0,0,1,19.332,1.29Z"/>
    </clipPath>
    <clipPath id="clip-path-6">
      <path id="Trazado_1235242" data-name="Trazado 1235242" d="M350.631,394.836s-9.808-3.616-11.734,3.616c0,0,1.751,7.964.7,12.315s-6.328,12.671-6.655,14.256c-.638,3.09-.157,3.3-.157,3.3a10.212,10.212,0,0,0,9-.157c5.157-2.378,14.1-12.609,15.5-14.715s-4.378-10.439-4.378-10.439Z" transform="translate(-332.612 -393.932)" fill="#e2dacc"/>
    </clipPath>
    <clipPath id="clip-path-7">
      <path id="Trazado_1235255" data-name="Trazado 1235255" d="M19.338,14.769,0,13.106,1.015,1.3A1.421,1.421,0,0,1,2.552.005l16.507,1.42a1.42,1.42,0,0,1,1.293,1.537Z"/>
    </clipPath>
    <clipPath id="clip-path-8">
      <path id="Trazado_1235260" data-name="Trazado 1235260" d="M19.338,14.768,0,13.105,1.015,1.3A1.42,1.42,0,0,1,2.552.005L19.059,1.424a1.42,1.42,0,0,1,1.293,1.537Z" transform="translate(0 0)"/>
    </clipPath>
    <clipPath id="clip-path-9">
      <path id="Trazado_1235266" data-name="Trazado 1235266" d="M309.257,242.931l-4.668,54.288L217.124,289.7l4.668-54.288a3.432,3.432,0,0,1,3.716-3.127l80.623,6.932A3.432,3.432,0,0,1,309.257,242.931Z" transform="translate(-217.124 -232.27)"/>
    </clipPath>
    <clipPath id="clip-path-10">
      <path id="Trazado_1235272" data-name="Trazado 1235272" d="M382.89,408.011s-4.18-2.986-12.84-2.389c0,0-.627,10.38-1.806,13.4s-7.385,8.247-8.537,9.143-1.153,4.031-1.153,4.031H384.83a83.1,83.1,0,0,0-2.09-13.327Z" transform="translate(-358.554 -405.543)" fill="#e2dacc"/>
    </clipPath>
    <clipPath id="clip-path-11">
      <path id="Trazado_1235284" data-name="Trazado 1235284" d="M383.567,243.613s-16.764,3.283-33.2-2.045a47.54,47.54,0,0,1-10.673-4.929s.045-1.057.076-2.785c.136-6.748.1-23.723-3.457-27.957-2.234-2.649-4.038-19.028.332-27.308l13.367-10.748c18.507,3.615,22.417,8.514,25.474,19.081.566,1.932,1.094,4.053,1.683,6.393.642,2.551,1.245,5.668,1.819,9.1C381.763,219.3,383.567,243.613,383.567,243.613Z" transform="translate(-333.969 -167.84)"/>
    </clipPath>
    <clipPath id="clip-path-12">
      <path id="Trazado_1235315" data-name="Trazado 1235315" d="M233.86,370.583H214.451V358.733a1.42,1.42,0,0,1,1.421-1.421H232.44a1.42,1.42,0,0,1,1.421,1.421v11.851Z" transform="translate(-214.451 -357.312)"/>
    </clipPath>
    <clipPath id="clip-path-13">
      <path id="Trazado_1235319" data-name="Trazado 1235319" d="M271.86,370.583H252.451V358.733a1.42,1.42,0,0,1,1.421-1.421H270.44a1.42,1.42,0,0,1,1.42,1.421v11.851Z" transform="translate(-252.451 -357.312)"/>
    </clipPath>
    <clipPath id="clip-path-15">
      <path id="Trazado_1235326" data-name="Trazado 1235326" d="M290.9,370.117v54.488H203.11V370.117a3.432,3.432,0,0,1,3.434-3.434h80.92A3.432,3.432,0,0,1,290.9,370.117Z" transform="translate(-203.11 -366.683)"/>
    </clipPath>
  </defs>
  <g id="Enmascarar_grupo_1211508" data-name="Enmascarar grupo 1211508" transform="translate(-1125 -820)" clip-path="url(#clip-path)">
    <g id="_10117880_4351529" data-name="10117880_4351529" transform="translate(1070.955 726.34)">
      <g id="Floor" transform="translate(54.045 357.659)">
        <line id="Línea_625" data-name="Línea 625" x2="295.807" fill="none" stroke="#263238" stroke-linecap="round" stroke-linejoin="round" stroke-miterlimit="10" stroke-width="1"/>
      </g>
      <g id="Window" transform="translate(233.629 93.66)">
        <g id="Grupo_1234479" data-name="Grupo 1234479">
          <path id="Trazado_1235149" data-name="Trazado 1235149" d="M291.973,204.717V93.66h6.875" transform="translate(-291.973 -93.66)" fill="none" stroke="#263238" stroke-linecap="round" stroke-linejoin="round" stroke-miterlimit="10" stroke-width="1"/>
          <line id="Línea_626" data-name="Línea 626" y1="2.95" transform="translate(0 121.329)" fill="none" stroke="#263238" stroke-linecap="round" stroke-linejoin="round" stroke-miterlimit="10" stroke-width="1"/>
          <path id="Trazado_1235150" data-name="Trazado 1235150" d="M316.534,93.66h70.953V228.289H291.973" transform="translate(-291.973 -93.66)" fill="none" stroke="#263238" stroke-linecap="round" stroke-linejoin="round" stroke-miterlimit="10" stroke-width="1"/>
          <line id="Línea_627" data-name="Línea 627" x2="6.235" transform="translate(15.861)" fill="none" stroke="#263238" stroke-linecap="round" stroke-linejoin="round" stroke-miterlimit="10" stroke-width="1"/>
          <rect id="Rectángulo_422697" data-name="Rectángulo 422697" width="88.331" height="127.46" transform="translate(3.592 3.584)" fill="none" stroke="#263238" stroke-linecap="round" stroke-linejoin="round" stroke-miterlimit="10" stroke-width="1"/>
          <path id="Trazado_1235151" data-name="Trazado 1235151" d="M382.289,107.454v52.928H302.174v-3.452" transform="translate(-294.474 -97.043)" fill="none" stroke="#263238" stroke-linecap="round" stroke-linejoin="round" stroke-miterlimit="10" stroke-width="1"/>
          <path id="Trazado_1235152" data-name="Trazado 1235152" d="M302.174,147.84V103.388h80.115" transform="translate(-294.474 -96.045)" fill="none" stroke="#263238" stroke-linecap="round" stroke-linejoin="round" stroke-miterlimit="10" stroke-width="1"/>
          <line id="Línea_628" data-name="Línea 628" y1="3.356" transform="translate(7.7 53.877)" fill="none" stroke="#263238" stroke-linecap="round" stroke-linejoin="round" stroke-miterlimit="10" stroke-width="1"/>
          <line id="Línea_629" data-name="Línea 629" x2="17.636" transform="translate(74.287 67.315)" fill="none" stroke="#263238" stroke-linecap="round" stroke-linejoin="round" stroke-miterlimit="10" stroke-width="1"/>
          <line id="Línea_630" data-name="Línea 630" x2="2.495" transform="translate(68.014 67.315)" fill="none" stroke="#263238" stroke-linecap="round" stroke-linejoin="round" stroke-miterlimit="10" stroke-width="1"/>
          <line id="Línea_631" data-name="Línea 631" x2="61.442" transform="translate(3.592 67.315)" fill="none" stroke="#263238" stroke-linecap="round" stroke-linejoin="round" stroke-miterlimit="10" stroke-width="1"/>
          <path id="Trazado_1235153" data-name="Trazado 1235153" d="M349.364,176.985v-1.822h7.386V176.2H353.8v.786" transform="translate(-306.046 -113.646)" fill="none" stroke="#263238" stroke-linecap="round" stroke-linejoin="round" stroke-miterlimit="10" stroke-width="1"/>
          <path id="Trazado_1235154" data-name="Trazado 1235154" d="M296.934,245.2s1.224.927,2.085,6.539c0,0,1.483-8.962,3.281-9.1s1.431,5.831,1.431,5.831.3-2.942,1.709-2.806,0,6.077,0,6.077,1.688-4.631,3.291-4.552-1.063,8.392-1.063,8.392,4.107-2.973,5.77-1.517-.925,5.123-.925,5.123,5.889-1.276,6.806,2.178" transform="translate(-293.19 -130.191)" fill="none" stroke="#263238" stroke-linecap="round" stroke-linejoin="round" stroke-miterlimit="10" stroke-width="1"/>
          <path id="Trazado_1235155" data-name="Trazado 1235155" d="M326.593,257.266s2.568-1.682,4.585-.9c0,0-1.284-1.957,0-3.154s2.934,3.154,2.934,3.154.183-7.284,2.751-6.918,0,6.918,0,6.918,4.585-4.065,5.685-2.649-.734,3.546-.734,3.546a4.947,4.947,0,0,1,4.767,1.171s3.074-3.135,6.489-3.585c0,0-2.27-6.593-1.17-7.923s3.1,5.754,3.1,5.754.872-4.607,3.741-4.963c0,0-2.387-1.3-1.68-3.268s4.009.462,4.009.462-1.356-3.464.789-4.415,3.041,2.9,3.041,2.9.6-4.034,3.12-3.812c2.5.22,1.7,4.865,1.7,4.865s2.379-3.69,3.653-3.314c2.546.751,1.773,6.582,1.773,6.582s3.554-2.47,4.468-1.332c.987,1.227-3.7,4.382-3.7,4.382a11.359,11.359,0,0,1,5.719,2.445" transform="translate(-300.462 -129.441)" fill="none" stroke="#263238" stroke-linecap="round" stroke-linejoin="round" stroke-miterlimit="10" stroke-width="1"/>
          <path id="Trazado_1235156" data-name="Trazado 1235156" d="M408.412,246.533a4.4,4.4,0,0,0-4.108-3.895c-3.7-.195,1.017,8.114,1.017,8.114s-3.051-2.525-4.148-1.748,3.13,5.059,3.13,5.059-2.028-1.876-4.168-1.3,1.221,6.536,1.221,6.536a15.279,15.279,0,0,0-9.407,1.1" transform="translate(-316.489 -130.191)" fill="none" stroke="#263238" stroke-linecap="round" stroke-linejoin="round" stroke-miterlimit="10" stroke-width="1"/>
        </g>
      </g>
      <g id="Table" transform="translate(57.737 215.569)">
        <g id="Grupo_1234483" data-name="Grupo 1234483">
          <g id="Grupo_1234480" data-name="Grupo 1234480" transform="translate(0 74.539)">
            <line id="Línea_632" data-name="Línea 632" y2="32.853" transform="translate(141.714 34.506)" fill="none" stroke="#263238" stroke-linecap="round" stroke-linejoin="round" stroke-miterlimit="10" stroke-width="1"/>
            <line id="Línea_633" data-name="Línea 633" y2="7.04" transform="translate(141.714 23.756)" fill="none" stroke="#263238" stroke-linecap="round" stroke-linejoin="round" stroke-miterlimit="10" stroke-width="1"/>
            <path id="Trazado_1235157" data-name="Trazado 1235157" d="M63.49,423.541V362.328H201.766v13.437" transform="translate(-60.053 -355.99)" fill="none" stroke="#263238" stroke-linecap="round" stroke-linejoin="round" stroke-miterlimit="10" stroke-width="1"/>
            <path id="Trazado_1235158" data-name="Trazado 1235158" d="M86.282,371.2h-12V420.1" transform="translate(-62.7 -358.165)" fill="none" stroke="#263238" stroke-linecap="round" stroke-linejoin="round" stroke-miterlimit="10" stroke-width="1"/>
            <path id="Trazado_1235159" data-name="Trazado 1235159" d="M202.428,425.523V371.2H99.411" transform="translate(-68.861 -358.165)" fill="none" stroke="#263238" stroke-linecap="round" stroke-linejoin="round" stroke-miterlimit="10" stroke-width="1"/>
            <line id="Línea_634" data-name="Línea 634" x1="3.812" transform="translate(124.006)" fill="none" stroke="#263238" stroke-linecap="round" stroke-linejoin="round" stroke-miterlimit="10" stroke-width="1"/>
            <path id="Trazado_1235160" data-name="Trazado 1235160" d="M177.472,353.931H58.936v6.293H204.087v-6.293h-14.9" transform="translate(-58.936 -353.931)" fill="none" stroke="#263238" stroke-linecap="round" stroke-linejoin="round" stroke-miterlimit="10" stroke-width="1"/>
          </g>
          <g id="Grupo_1234482" data-name="Grupo 1234482" transform="translate(8.174)">
            <g id="Grupo_1234481" data-name="Grupo 1234481">
              <path id="Trazado_1235161" data-name="Trazado 1235161" d="M69.765,300.49s11.362.9,11.836,9.279C81.6,309.769,70.1,315.066,69.765,300.49Z" transform="translate(-69.765 -266.287)" fill="none" stroke="#263238" stroke-linecap="round" stroke-linejoin="round" stroke-miterlimit="10" stroke-width="1"/>
              <path id="Trazado_1235162" data-name="Trazado 1235162" d="M99.543,301.481s6.348-8.581,16.6-4.181C116.146,297.3,109.884,307.675,99.543,301.481Z" transform="translate(-77.067 -265.197)" fill="none" stroke="#263238" stroke-linecap="round" stroke-linejoin="round" stroke-miterlimit="10" stroke-width="1"/>
              <path id="Trazado_1235163" data-name="Trazado 1235163" d="M116.1,267.35s1.825,16.51-13.2,11.963C102.9,279.314,107.669,267.177,116.1,267.35Z" transform="translate(-77.889 -258.16)" fill="none" stroke="#263238" stroke-linecap="round" stroke-linejoin="round" stroke-miterlimit="10" stroke-width="1"/>
              <path id="Trazado_1235164" data-name="Trazado 1235164" d="M95.39,255.175s11.885,6.409,3.146,16.134C98.537,271.309,90.2,264.363,95.39,255.175Z" transform="translate(-75.632 -255.175)" fill="none" stroke="#263238" stroke-linecap="round" stroke-linejoin="round" stroke-miterlimit="10" stroke-width="1"/>
              <path id="Trazado_1235165" data-name="Trazado 1235165" d="M76.569,274.706s12.922-1.3,12.922,10.658C89.491,285.365,76.569,285.874,76.569,274.706Z" transform="translate(-71.433 -259.954)" fill="none" stroke="#263238" stroke-linecap="round" stroke-linejoin="round" stroke-miterlimit="10" stroke-width="1"/>
              <path id="Trazado_1235166" data-name="Trazado 1235166" d="M89.375,307.013a30.809,30.809,0,0,1,2.265-14.634c5.655-12.592,7.567-23.2,4.612-30.67" transform="translate(-74.556 -256.777)" fill="none" stroke="#263238" stroke-linecap="round" stroke-linejoin="round" stroke-miterlimit="10" stroke-width="1"/>
              <path id="Trazado_1235167" data-name="Trazado 1235167" d="M82.193,278.981s7.746,3.077,10.378,11.056" transform="translate(-72.813 -261.013)" fill="none" stroke="#263238" stroke-linecap="round" stroke-linejoin="round" stroke-miterlimit="10" stroke-width="1"/>
              <path id="Trazado_1235168" data-name="Trazado 1235168" d="M111.059,276.1s-4.476,6.1-12.059,5.439" transform="translate(-76.934 -260.307)" fill="none" stroke="#263238" stroke-linecap="round" stroke-linejoin="round" stroke-miterlimit="10" stroke-width="1"/>
              <path id="Trazado_1235169" data-name="Trazado 1235169" d="M109.349,300.032s-12.4,3.572-17.323,2.4" transform="translate(-75.224 -266.175)" fill="none" stroke="#263238" stroke-linecap="round" stroke-linejoin="round" stroke-miterlimit="10" stroke-width="1"/>
              <path id="Trazado_1235170" data-name="Trazado 1235170" d="M74.674,305.491s5.541,6.082,11.114,5.987" transform="translate(-70.969 -267.513)" fill="none" stroke="#263238" stroke-linecap="round" stroke-linejoin="round" stroke-miterlimit="10" stroke-width="1"/>
            </g>
            <path id="Trazado_1235171" data-name="Trazado 1235171" d="M99.961,321.731H73.022a.656.656,0,0,0-.656.656v2.042a.656.656,0,0,0,.656.656h.786l2.4,20.95H96.774l2.4-20.95h.786a.656.656,0,0,0,.656-.656v-2.042A.656.656,0,0,0,99.961,321.731Z" transform="translate(-70.403 -271.496)" fill="none" stroke="#263238" stroke-miterlimit="10" stroke-width="1"/>
            <line id="Línea_635" data-name="Línea 635" x2="15.668" transform="translate(5.136 53.59)" fill="none" stroke="#263238" stroke-linecap="round" stroke-linejoin="round" stroke-miterlimit="10" stroke-width="1"/>
            <line id="Línea_636" data-name="Línea 636" x2="2.355" transform="translate(23.758 53.59)" fill="none" stroke="#263238" stroke-linecap="round" stroke-linejoin="round" stroke-miterlimit="10" stroke-width="1"/>
          </g>
        </g>
      </g>
      <g id="Character_2" transform="translate(105.831 95.995)">
        <g id="Grupo_1234498" data-name="Grupo 1234498" transform="translate(0)">
          <path id="Trazado_1235172" data-name="Trazado 1235172" d="M133.239,437.383s-1.29-4.926.218-6.751c2.709-3.277-.331-6.025,2.388-7.164l1.139,1.322c.221-1.343-.413-5.42,4.63-5.952,6.1-.643,6.211,3.794,6.54,5.254l-.1-2.042c2.6,0,1.252,2.595,5.193,6.839a11.235,11.235,0,0,1,2.848,8.494H133.239Z" transform="translate(-125.125 -175.718)" fill="#263238"/>
          <path id="Trazado_1235173" data-name="Trazado 1235173" d="M194.475,437.32c-2.452-1.1-.2-10.344-.2-10.344s-3.3-2.216,0-4.512a9.183,9.183,0,0,0,9.367,1.522s.645-6.192,4.515-5.4a15.326,15.326,0,0,0,3.263,6.162c6.155,6.072,14.1,6.766,15.435,9.693a6.272,6.272,0,0,1-.085,2.875Z" transform="translate(-139.858 -175.655)" fill="#263238"/>
          <g id="Grupo_1234487" data-name="Grupo 1234487" transform="translate(4.234 112.725)">
            <g id="Grupo_1234486" data-name="Grupo 1234486">
              <path id="Trazado_1235174" data-name="Trazado 1235174" d="M168.153,247.468l3.026,6.4a338.7,338.7,0,0,1,20.13,55.345c.181.7,4.138,14.7.965,49.541l1.808,6.115-1.975,10.1s2.97,4.3,2.864,5.7c0,0-7.334,1.37-9.778,2.683-1.906,1.024-7.618,6.665-7.618,6.665-1.62-.334-1.762-6.889-1.762-6.889s-3.394-58.167-4.363-60.676-6.927-13.313-16.208-38.045c0,0-.21,34.548-2.689,43.285-2.206,7.774.406,29.535.406,29.535l-1.489,24.223s5.22,5.425.985,6.88c0,0-2.828-5.444-10.889-6.681-4.1-.629-9.205,6.647-9.205,6.647-1.79-.574.763-9.714.763-9.714-5.714-43.116-1.5-35.312-2.637-56.385-.733-13.523-4.572-71.388-.069-76.09Z" transform="translate(-128.265 -246.1)" fill="#bfbfbf"/>
              <g id="Grupo_1234484" data-name="Grupo 1234484" clip-path="url(#clip-path-2)">
                <path id="Trazado_1235175" data-name="Trazado 1235175" d="M128.263,267.39c20.178,1.59,37.657-5.013,45.236-8.464-1.436-3.235-2.322-5.062-2.322-5.062l-3.026-6.394L130.417,246.1C128.793,247.8,128.255,256.423,128.263,267.39Z" transform="translate(-128.264 -246.101)" opacity="0.2"/>
              </g>
              <g id="Grupo_1234485" data-name="Grupo 1234485" clip-path="url(#clip-path-2)">
                <path id="Trazado_1235177" data-name="Trazado 1235177" d="M164.233,294.5c9.183,24.417,15.081,35.105,16.043,37.6.551,1.443,1.9,21.2,2.956,37.775,1.213-15.081,2.454-31,2.566-34.122.223-6.212-4.267-14.739-4.943-16.943s.851-4.588.851-4.588l-8.081-10.187c.272-3.458-4-18.547-4-18.547C167.078,287.9,164.84,293.022,164.233,294.5Z" transform="translate(-137.085 -255.76)" opacity="0.2"/>
              </g>
              <path id="Trazado_1235179" data-name="Trazado 1235179" d="M168.153,247.468l3.026,6.4a338.7,338.7,0,0,1,20.13,55.345c.181.7,4.138,14.7.965,49.541l1.808,6.115-1.975,10.1s2.97,4.3,2.864,5.7c0,0-7.334,1.37-9.778,2.683-1.906,1.024-7.618,6.665-7.618,6.665-1.62-.334-1.762-6.889-1.762-6.889s-3.394-58.167-4.363-60.676-6.927-13.313-16.208-38.045c0,0-.21,34.548-2.689,43.285-2.206,7.774.406,29.535.406,29.535l-1.489,24.223s5.22,5.425.985,6.88c0,0-2.828-5.444-10.889-6.681-4.1-.629-9.205,6.647-9.205,6.647-1.79-.574.763-9.714.763-9.714-5.714-43.116-1.5-35.312-2.637-56.385-.733-13.523-4.572-71.388-.069-76.09Z" transform="translate(-128.265 -246.1)" fill="none" stroke="#263238" stroke-linecap="round" stroke-linejoin="round" stroke-miterlimit="10" stroke-width="1"/>
            </g>
            <path id="Trazado_1235180" data-name="Trazado 1235180" d="M164.01,293.143s4.612-8.9,8.546-11.385" transform="translate(-137.03 -254.844)" fill="none" stroke="#263238" stroke-linecap="round" stroke-linejoin="round" stroke-miterlimit="10" stroke-width="1"/>
            <path id="Trazado_1235181" data-name="Trazado 1235181" d="M171.494,277.94s-14.01,4.261-18.866,5.089" transform="translate(-134.239 -253.908)" fill="none" stroke="#263238" stroke-linecap="round" stroke-linejoin="round" stroke-miterlimit="10" stroke-width="1"/>
            <path id="Trazado_1235182" data-name="Trazado 1235182" d="M167.756,259c.6,11.664,4.719,13.65.74,16.195,0,0,.109,5.456-1.867,8.913" transform="translate(-137.672 -249.262)" fill="none" stroke="#263238" stroke-linecap="round" stroke-linejoin="round" stroke-miterlimit="10" stroke-width="1"/>
            <path id="Trazado_1235183" data-name="Trazado 1235183" d="M134.343,253.094s1.655,17.926-3.861,21.3" transform="translate(-128.809 -247.815)" fill="none" stroke="#263238" stroke-linecap="round" stroke-linejoin="round" stroke-miterlimit="10" stroke-width="1"/>
            <path id="Trazado_1235184" data-name="Trazado 1235184" d="M130.422,260.746s-.414,11.937,0,21.553c0,0,1.379,40.646,2.758,45.749s-2.125,12.8-1.821,34.882" transform="translate(-128.749 -249.691)" fill="none" stroke="#263238" stroke-linecap="round" stroke-linejoin="round" stroke-miterlimit="10" stroke-width="1"/>
            <path id="Trazado_1235185" data-name="Trazado 1235185" d="M146.767,418.987a5.746,5.746,0,0,0-3.861.516" transform="translate(-131.855 -288.465)" fill="none" stroke="#263238" stroke-linecap="round" stroke-linejoin="round" stroke-miterlimit="10" stroke-width="1"/>
            <path id="Trazado_1235186" data-name="Trazado 1235186" d="M157.084,424.09a21.2,21.2,0,0,0-5.936-4.072" transform="translate(-133.876 -288.747)" fill="none" stroke="#263238" stroke-linecap="round" stroke-linejoin="round" stroke-miterlimit="10" stroke-width="1"/>
            <path id="Trazado_1235187" data-name="Trazado 1235187" d="M151.725,300.573c-3.095,3.466-7.995,10.011-13.021,10.564" transform="translate(-130.825 -259.458)" fill="none" stroke="#263238" stroke-linecap="round" stroke-linejoin="round" stroke-miterlimit="10" stroke-width="1"/>
            <path id="Trazado_1235188" data-name="Trazado 1235188" d="M161.323,293.087c-.952,1.2-1.934,2.381-2.931,3.546" transform="translate(-135.653 -257.622)" fill="none" stroke="#263238" stroke-linecap="round" stroke-linejoin="round" stroke-miterlimit="10" stroke-width="1"/>
            <path id="Trazado_1235189" data-name="Trazado 1235189" d="M152.888,346.91s-7.034,9.575-10.9,10.127" transform="translate(-131.631 -270.82)" fill="none" stroke="#263238" stroke-linecap="round" stroke-linejoin="round" stroke-miterlimit="10" stroke-width="1"/>
            <path id="Trazado_1235190" data-name="Trazado 1235190" d="M167.391,294.549s12.526,34.892,16.882,38.34c0,0,.494,25.652.633,34.616a164.042,164.042,0,0,0,2.207,20.875" transform="translate(-137.859 -257.98)" fill="none" stroke="#263238" stroke-linecap="round" stroke-linejoin="round" stroke-miterlimit="10" stroke-width="1"/>
            <path id="Trazado_1235191" data-name="Trazado 1235191" d="M207.883,418.52s-4.827,1.667-7.171,2.732a6.469,6.469,0,0,0-3.172,3.409" transform="translate(-145.252 -288.38)" fill="none" stroke="#263238" stroke-linecap="round" stroke-linejoin="round" stroke-miterlimit="10" stroke-width="1"/>
            <path id="Trazado_1235192" data-name="Trazado 1235192" d="M188.844,323.173c-6.729-4.224-15.6-9.5-19.171-16.931" transform="translate(-138.419 -260.848)" fill="none" stroke="#263238" stroke-linecap="round" stroke-linejoin="round" stroke-miterlimit="10" stroke-width="1"/>
            <path id="Trazado_1235193" data-name="Trazado 1235193" d="M201.613,332.573c-1.272-.7-2.526-1.44-3.769-2.191" transform="translate(-145.327 -266.767)" fill="none" stroke="#263238" stroke-linecap="round" stroke-linejoin="round" stroke-miterlimit="10" stroke-width="1"/>
            <path id="Trazado_1235194" data-name="Trazado 1235194" d="M171.3,264.411c-3.618-.053-7.579-.528-10.666-2.569" transform="translate(-136.201 -249.96)" fill="none" stroke="#263238" stroke-linecap="round" stroke-linejoin="round" stroke-miterlimit="10" stroke-width="1"/>
            <path id="Trazado_1235195" data-name="Trazado 1235195" d="M181.36,264.8c-1.035.146-2.079.234-3.123.288" transform="translate(-140.519 -250.685)" fill="none" stroke="#263238" stroke-linecap="round" stroke-linejoin="round" stroke-miterlimit="10" stroke-width="1"/>
          </g>
          <path id="Trazado_1235196" data-name="Trazado 1235196" d="M174.437,156.907c-2.763-4.178-16.842-5.247-25.874-5.247s-20-1.524-24.956,8.681c-3.78,7.783,4.925,48.935,4.925,48.935L126.4,227.042c16.367,5.135,44.4,4,44.4,4l-3.774-16.061S177.2,161.086,174.437,156.907Z" transform="translate(-122.656 -110.197)" fill="#263238"/>
          <path id="Trazado_1235197" data-name="Trazado 1235197" d="M149.071,138s1.212,9.685-2.472,11.774c0,0,1.842,7.1,8.289,7.543s9.328-6.509,9.328-6.509Z" transform="translate(-128.527 -106.867)" fill="#fff" stroke="#263238" stroke-linecap="round" stroke-linejoin="round" stroke-miterlimit="10" stroke-width="1"/>
          <g id="Grupo_1234496" data-name="Grupo 1234496" transform="translate(45.832)">
            <g id="Grupo_1234490" data-name="Grupo 1234490" transform="translate(7.204 4.367)">
              <path id="Trazado_1235198" data-name="Trazado 1235198" d="M214,116.092l-19.326,1.784-1.089-11.8a1.42,1.42,0,0,1,1.284-1.545l16.5-1.522a1.42,1.42,0,0,1,1.545,1.284Z" transform="translate(-193.082 -102.652)" fill="#7b776f"/>
              <g id="Grupo_1234489" data-name="Grupo 1234489" transform="translate(0 1.877) rotate(-5.273)" clip-path="url(#clip-path-4)">
                <rect id="Rectángulo_422698" data-name="Rectángulo 422698" width="4.778" height="9.555" transform="translate(13.947 1.414)" fill="rgba(255,255,255,0.7)" opacity="0.3"/>
              </g>
              <path id="Trazado_1235202" data-name="Trazado 1235202" d="M214,116.092l-19.326,1.784-1.089-11.8a1.42,1.42,0,0,1,1.284-1.545l16.5-1.522a1.42,1.42,0,0,1,1.545,1.284Z" transform="translate(-193.082 -102.652)" fill="none" stroke="#263238" stroke-linecap="round" stroke-linejoin="round" stroke-miterlimit="10" stroke-width="1"/>
            </g>
            <g id="Grupo_1234493" data-name="Grupo 1234493" transform="translate(35.772 1.79)">
              <path id="Trazado_1235203" data-name="Trazado 1235203" d="M251.836,112.6l-19.327,1.784-1.089-11.8a1.42,1.42,0,0,1,1.284-1.544l16.5-1.522a1.419,1.419,0,0,1,1.544,1.284Z" transform="translate(-230.928 -99.219)" fill="#7b776f"/>
              <g id="Grupo_1234492" data-name="Grupo 1234492" transform="translate(0 1.877) rotate(-5.273)" clip-path="url(#clip-path-5)">
                <rect id="Rectángulo_422699" data-name="Rectángulo 422699" width="2.886" height="9.555" transform="translate(15.521 1.355)" fill="rgba(255,255,255,0.7)" opacity="0.3"/>
              </g>
              <path id="Trazado_1235207" data-name="Trazado 1235207" d="M251.836,112.6l-19.327,1.784-1.089-11.8a1.42,1.42,0,0,1,1.284-1.544l16.5-1.522a1.419,1.419,0,0,1,1.544,1.284Z" transform="translate(-230.928 -99.219)" fill="none" stroke="#263238" stroke-linecap="round" stroke-linejoin="round" stroke-miterlimit="10" stroke-width="1"/>
            </g>
            <path id="Trazado_1235208" data-name="Trazado 1235208" d="M243.87,113.335l-19.326,1.784-1.089-11.8a1.42,1.42,0,0,1,1.284-1.544l16.5-1.522a1.419,1.419,0,0,1,1.544,1.284Z" transform="translate(-193.204 -97.609)" fill="#e2dacc" stroke="#263238" stroke-linecap="round" stroke-linejoin="round" stroke-miterlimit="10" stroke-width="1"/>
            <path id="Trazado_1235209" data-name="Trazado 1235209" d="M281.709,109.843l-19.326,1.784-1.089-11.8a1.421,1.421,0,0,1,1.284-1.545l16.5-1.522a1.421,1.421,0,0,1,1.545,1.284Z" transform="translate(-202.482 -96.753)" fill="#e2dacc" stroke="#263238" stroke-linecap="round" stroke-linejoin="round" stroke-miterlimit="10" stroke-width="1"/>
            <rect id="Rectángulo_422700" data-name="Rectángulo 422700" width="4.778" height="9.555" transform="translate(43.77 4.292) rotate(-5.273)" fill="rgba(255,255,255,0.7)" opacity="0.3"/>
            <rect id="Rectángulo_422701" data-name="Rectángulo 422701" width="4.778" height="9.555" transform="translate(72.018 1.682) rotate(-5.273)" fill="rgba(255,255,255,0.7)" opacity="0.3"/>
            <g id="Grupo_1234495" data-name="Grupo 1234495" transform="translate(0 6.439)">
              <path id="Trazado_1235210" data-name="Trazado 1235210" d="M270.81,108.4l5.007,54.258L188.4,170.727l-5.006-54.258a3.432,3.432,0,0,1,3.1-3.735l80.578-7.435A3.432,3.432,0,0,1,270.81,108.4Z" transform="translate(-183.377 -105.283)" fill="#7b776f"/>
              <path id="Trazado_1235213" data-name="Trazado 1235213" d="M270.81,108.4l5.007,54.258L188.4,170.727l-5.006-54.258a3.432,3.432,0,0,1,3.1-3.735l80.578-7.435A3.432,3.432,0,0,1,270.81,108.4Z" transform="translate(-183.377 -105.283)" fill="none" stroke="#263238" stroke-linecap="round" stroke-linejoin="round" stroke-miterlimit="10" stroke-width="1"/>
            </g>
            <path id="Trazado_1235214" data-name="Trazado 1235214" d="M278.135,108.4l5.007,54.258-64.87,5.986-5.006-54.258a3.432,3.432,0,0,1,3.1-3.735L274.4,105.3A3.433,3.433,0,0,1,278.135,108.4Z" transform="translate(-190.703 -98.845)" fill="#e2dacc" stroke="#263238" stroke-linecap="round" stroke-linejoin="round" stroke-miterlimit="10" stroke-width="1"/>
            <path id="Trazado_1235215" data-name="Trazado 1235215" d="M275.119,111.589l-55.452,5.117a1.419,1.419,0,0,1-1.543-1.282h0a1.419,1.419,0,0,1,1.282-1.543l55.452-5.117a1.419,1.419,0,0,1,1.543,1.282h0A1.419,1.419,0,0,1,275.119,111.589Z" transform="translate(-191.896 -99.697)" fill="rgba(255,255,255,0.7)" opacity="0.3"/>
          </g>
          <g id="Grupo_1234497" data-name="Grupo 1234497" transform="translate(17.115 10.554)">
            <path id="Trazado_1235216" data-name="Trazado 1235216" d="M159.827,112.435s-12.791-2.564-14.224,5.671,3.264,11.734,3.264,11.734Z" transform="translate(-145.331 -111.06)" fill="#263238"/>
            <path id="Trazado_1235217" data-name="Trazado 1235217" d="M149.621,134.68a22.183,22.183,0,0,1-.657-12.751c1.256-5.288,7.554-12.551,17.094-5.945,4.919,3.406,5.219,10.79,3.687,17.558-.365,1.614-.091,3.193-.627,4.675-1.885,5.211-5.336,9.219-7.221,9.31-3.153.154-9.448-3.656-9.187-6.976" transform="translate(-146.066 -111.376)" fill="#fff" stroke="#263238" stroke-linecap="round" stroke-linejoin="round" stroke-miterlimit="10" stroke-width="1"/>
            <path id="Trazado_1235218" data-name="Trazado 1235218" d="M165.266,138.14s-2.543-1.842-4.991-.335" transform="translate(-148.995 -117.228)" fill="none" stroke="#263238" stroke-linecap="round" stroke-linejoin="round" stroke-miterlimit="10" stroke-width="1"/>
            <path id="Trazado_1235219" data-name="Trazado 1235219" d="M173.251,137.5s1.922-1.763,3.175-1.515" transform="translate(-152.177 -116.921)" fill="none" stroke="#263238" stroke-linecap="round" stroke-linejoin="round" stroke-miterlimit="10" stroke-width="1"/>
            <path id="Trazado_1235220" data-name="Trazado 1235220" d="M162.128,141.909c0,.468.239.848.532.848s.532-.38.532-.848-.239-.848-.532-.848S162.128,141.441,162.128,141.909Z" transform="translate(-149.45 -118.172)" fill="#263238"/>
            <ellipse id="Elipse_12062" data-name="Elipse 12062" cx="0.532" cy="0.848" rx="0.532" ry="0.848" transform="translate(20.542 22.419)" fill="#263238"/>
            <path id="Trazado_1235221" data-name="Trazado 1235221" d="M170.877,140.356c-.942,1.224.377,5.886,0,6.216s-2.778-.612-2.778-.612-.565-.706.612-1.083" transform="translate(-150.88 -117.999)" fill="none" stroke="#263238" stroke-linecap="round" stroke-linejoin="round" stroke-miterlimit="10" stroke-width="1"/>
            <path id="Trazado_1235222" data-name="Trazado 1235222" d="M167.621,151.306s-3.22,0-4.082-1.171" transform="translate(-149.796 -120.397)" fill="none" stroke="#263238" stroke-linecap="round" stroke-linejoin="round" stroke-miterlimit="10" stroke-width="1"/>
            <path id="Trazado_1235223" data-name="Trazado 1235223" d="M155.91,126.73l-.251,3.892s-2.763,1.423-3.453,2.877a5.745,5.745,0,0,0-.439,3.024s-1.677-2.929-2.577-2.689c-.327.087-.326,1.312-.326,1.312s-3.753-8.417-.362-12.874S155.91,126.73,155.91,126.73Z" transform="translate(-145.76 -113.259)" fill="#757575" stroke="#263238" stroke-linecap="round" stroke-linejoin="round" stroke-miterlimit="10" stroke-width="1"/>
            <path id="Trazado_1235224" data-name="Trazado 1235224" d="M150.247,139.256a5.41,5.41,0,0,0-3.3-3.578c-2.543-.753-.8,6.021,1.365,6.922s2.71,1.507,2.838.706" transform="translate(-145.419 -116.838)" fill="#fff" stroke="#263238" stroke-linecap="round" stroke-linejoin="round" stroke-miterlimit="10" stroke-width="1"/>
            <path id="Trazado_1235225" data-name="Trazado 1235225" d="M147.067,123.712c-.208-.285-1.143-7.531,3.646-10.809s12.894-2.91,18.052,1.6,3.684,12.338,0,15.011v-3.265s-1.7,3.277-6.791,3.548l1.554-2.4a13.989,13.989,0,0,1-6.921,1.381s2.074-1.658,1.774-3.132C158.383,125.65,151.373,129.6,147.067,123.712Z" transform="translate(-145.705 -110.736)" fill="#263238"/>
          </g>
          <path id="Trazado_1235226" data-name="Trazado 1235226" d="M146.272,159.677c-3.532.424-8.555,5.035-5.258,13.223,2.09,5.191,19.266,2.105,19.266,2.105,6.371-2.622,15.678-12.079,22.507-16.462,0,0-1.441-9.048-3.1-7.775-7.716,5.911-14.069,6.321-24.835,11.5C154.849,162.264,148.5,159.41,146.272,159.677Z" transform="translate(-126.894 -109.968)" fill="#fff" stroke="#263238" stroke-linecap="round" stroke-linejoin="round" stroke-miterlimit="10" stroke-width="1"/>
          <path id="Trazado_1235227" data-name="Trazado 1235227" d="M158.776,175.93c-.106,3.384,1.286,3.981,3.626,4.778" transform="translate(-131.512 -116.168)" fill="#fff" stroke="#263238" stroke-linecap="round" stroke-linejoin="round" stroke-miterlimit="10" stroke-width="1"/>
          <path id="Trazado_1235228" data-name="Trazado 1235228" d="M191.89,147.987c.155-.488,2.991-5.513,3.826-6.8s4.419-2.434,5.812-3.2,1.493-1.938,2.289-1.1,0,2.748-4.18,4.777a39.735,39.735,0,0,0,4.455,0c1.118-.161,2.113-1.179,2.611-.471s.6,1.959-1.891,2.728a12.693,12.693,0,0,1-3.683.725,26.469,26.469,0,0,1,3.583,1.04c.4.3,1,.985,1.593,1.088s1.244.767.149,1.547a2.7,2.7,0,0,1-2.538.05s2.886,1.393,1.99,2.289-3.782.7-3.782.7-4.28,5.176-7.863,4.08" transform="translate(-139.633 -106.524)" fill="#fff" stroke="#263238" stroke-linecap="round" stroke-linejoin="round" stroke-miterlimit="10" stroke-width="1"/>
          <path id="Trazado_1235229" data-name="Trazado 1235229" d="M198.659,142.683a1.354,1.354,0,0,1,1.045,1.007c.249.9.976.946,1.424,1.941s.318,2.54.765,3.061,0,2.761,0,2.761" transform="translate(-141.293 -108.016)" fill="none" stroke="#263238" stroke-linecap="round" stroke-linejoin="round" stroke-miterlimit="10" stroke-width="1"/>
          <path id="Trazado_1235230" data-name="Trazado 1235230" d="M147.362,161.26c-1.853-2.354-6-1.29-6-1.29" transform="translate(-127.243 -112.196)" fill="none" stroke="#fff" stroke-linecap="round" stroke-linejoin="round" stroke-miterlimit="10" stroke-width="1"/>
          <path id="Trazado_1235231" data-name="Trazado 1235231" d="M138.363,154.3s4.27.623,5.531,4.181" transform="translate(-126.507 -110.865)" fill="none" stroke="#fff" stroke-linecap="round" stroke-linejoin="round" stroke-miterlimit="10" stroke-width="1"/>
          <path id="Trazado_1235232" data-name="Trazado 1235232" d="M144.915,183.667s-4.163,3.221-10.508-1.408" transform="translate(-125.537 -117.72)" fill="none" stroke="#fff" stroke-linecap="round" stroke-linejoin="round" stroke-miterlimit="10" stroke-width="1"/>
          <path id="Trazado_1235233" data-name="Trazado 1235233" d="M139,185.409s-2.115,2.921-7.266,2.885" transform="translate(-124.883 -118.493)" fill="none" stroke="#fff" stroke-linecap="round" stroke-linejoin="round" stroke-miterlimit="10" stroke-width="1"/>
          <path id="Trazado_1235234" data-name="Trazado 1235234" d="M169.3,234.1s-10.9,8.682-21.972,7.569" transform="translate(-128.706 -130.433)" fill="none" stroke="#fff" stroke-linecap="round" stroke-linejoin="round" stroke-miterlimit="10" stroke-width="1"/>
          <path id="Trazado_1235235" data-name="Trazado 1235235" d="M137.407,208.81s16.921,12.407,29.461,13.2" transform="translate(-126.273 -124.231)" fill="none" stroke="#fff" stroke-linecap="round" stroke-linejoin="round" stroke-miterlimit="10" stroke-width="1"/>
        </g>
      </g>
      <g id="Character_3" transform="translate(177.134 119.197)">
        <g id="Grupo_1234518" data-name="Grupo 1234518">
          <path id="Trazado_1235236" data-name="Trazado 1235236" d="M319.725,211.088,316.672,227.5l-24.617,14.958,3.4,6.252S323.922,240.026,324.61,238s7.257-23.532,7.257-23.532Z" transform="translate(-235.498 -147.992)" fill="#263238"/>
          <path id="Trazado_1235237" data-name="Trazado 1235237" d="M338.995,174.33l-1.645,19.9-.868,10.439c-4.748,2.31-9.39-1.162-9.676-1.389a.023.023,0,0,0-.015-.008C328.126,199.487,329.628,178.1,338.995,174.33Z" transform="translate(-244.016 -138.978)" fill="#e2dacc" stroke="#263238" stroke-linecap="round" stroke-linejoin="round" stroke-miterlimit="10" stroke-width="1"/>
          <path id="Trazado_1235238" data-name="Trazado 1235238" d="M337.354,198.79l-.868,10.439c-4.748,2.31-9.389-1.162-9.676-1.389.2.091,2.7,1.147,4.325-.008a12.668,12.668,0,0,1-1.494-1.993c-.1-.393,1.494-.5,1.494-.5s-1.057-8.461,1.759-12.039C334,191.9,335.716,194.767,337.354,198.79Z" transform="translate(-244.021 -143.542)" fill="#263238"/>
          <g id="Grupo_1234501" data-name="Grupo 1234501" transform="translate(87.168 201.104)">
            <path id="Trazado_1235239" data-name="Trazado 1235239" d="M357.51,418.443l.786,2.213a44.922,44.922,0,0,1-3.834,5.4s-.776-.247-2,.848a4.609,4.609,0,0,0-1.331,2.838s-5.762,6.916-13.081,7.016-5.107-3.583-5.107-3.583Z" transform="translate(-332.617 -399.943)" fill="#7b776f" stroke="#263238" stroke-linecap="round" stroke-linejoin="round" stroke-miterlimit="10" stroke-width="1"/>
            <g id="Grupo_1234500" data-name="Grupo 1234500">
              <path id="Trazado_1235240" data-name="Trazado 1235240" d="M350.631,394.836s-9.808-3.616-11.734,3.616c0,0,1.751,7.964.7,12.315s-6.328,12.671-6.655,14.256c-.638,3.09-.157,3.3-.157,3.3a10.212,10.212,0,0,0,9-.157c5.157-2.378,14.1-12.609,15.5-14.715s-4.378-10.439-4.378-10.439Z" transform="translate(-332.612 -393.932)" fill="#e2dacc"/>
              <g id="Grupo_1234499" data-name="Grupo 1234499" clip-path="url(#clip-path-6)">
                <path id="Trazado_1235241" data-name="Trazado 1235241" d="M350.631,394.836s-9.808-3.616-11.734,3.616c0,0,1.751,7.964.7,12.315s-6.328,12.671-6.655,14.256c-.638,3.09-.157,3.3-.157,3.3a10.212,10.212,0,0,0,9-.157c5.157-2.378,14.1-12.609,15.5-14.715s-4.378-10.439-4.378-10.439Z" transform="translate(-332.612 -393.932)" fill="#e2dacc" opacity="0.4"/>
              </g>
              <path id="Trazado_1235243" data-name="Trazado 1235243" d="M350.631,394.836s-9.808-3.616-11.734,3.616c0,0,1.751,7.964.7,12.315s-6.328,12.671-6.655,14.256c-.638,3.09-.157,3.3-.157,3.3a10.212,10.212,0,0,0,9-.157c5.157-2.378,14.1-12.609,15.5-14.715s-4.378-10.439-4.378-10.439Z" transform="translate(-332.612 -393.932)" fill="none" stroke="#263238" stroke-linecap="round" stroke-linejoin="round" stroke-miterlimit="10" stroke-width="1"/>
            </g>
            <path id="Trazado_1235244" data-name="Trazado 1235244" d="M349.036,408.678a21.323,21.323,0,0,1-2.455,14.194" transform="translate(-336.037 -397.548)" fill="none" stroke="#263238" stroke-linecap="round" stroke-linejoin="round" stroke-miterlimit="10" stroke-width="1"/>
            <path id="Trazado_1235245" data-name="Trazado 1235245" d="M343.263,429.691a6.632,6.632,0,0,1-4.2,3.882,11.684,11.684,0,0,1-6.013,0l2.356-4.776A15.042,15.042,0,0,0,343.263,429.691Z" transform="translate(-332.719 -402.482)" fill="#7b776f" stroke="#263238" stroke-linecap="round" stroke-linejoin="round" stroke-miterlimit="10" stroke-width="1"/>
            <path id="Trazado_1235246" data-name="Trazado 1235246" d="M345.882,425.931s-5.132.306-7.812-.74" transform="translate(-333.95 -401.597)" fill="none" stroke="#263238" stroke-linecap="round" stroke-linejoin="round" stroke-miterlimit="10" stroke-width="1"/>
            <path id="Trazado_1235247" data-name="Trazado 1235247" d="M347.249,422.161s-4.8.734-7.477-.786" transform="translate(-334.368 -400.662)" fill="none" stroke="#263238" stroke-linecap="round" stroke-linejoin="round" stroke-miterlimit="10" stroke-width="1"/>
            <path id="Trazado_1235248" data-name="Trazado 1235248" d="M348.5,418.027s-4.207.614-6.949-.688" transform="translate(-334.805 -399.672)" fill="none" stroke="#263238" stroke-linecap="round" stroke-linejoin="round" stroke-miterlimit="10" stroke-width="1"/>
            <path id="Trazado_1235249" data-name="Trazado 1235249" d="M349.141,413.529s-4.677,1.467-6.892,0" transform="translate(-334.975 -398.738)" fill="none" stroke="#263238" stroke-linecap="round" stroke-linejoin="round" stroke-miterlimit="10" stroke-width="1"/>
            <path id="Trazado_1235250" data-name="Trazado 1235250" d="M349.234,401.463l.817,5.142s-6.188,4.081-10.279-1.014l.019-5.366S341.309,403.843,349.234,401.463Z" transform="translate(-334.368 -395.475)" fill="#7b776f" stroke="#263238" stroke-linecap="round" stroke-linejoin="round" stroke-miterlimit="10" stroke-width="1"/>
          </g>
          <path id="Trazado_1235251" data-name="Trazado 1235251" d="M337.421,248.992c-6.271,19.871-25.737,51.75-23.764,59.9,1.079,4.455,7.5,29.69,12.525,40.785a19.694,19.694,0,0,0,6.038,7.066l2.984,6.395c7.266,3.16,9.871-3.272,9.871-3.272l-1.461-7.245c3.9-7.078,2.233-7.078-2.8-43.777-.593-4.324,9.433-17.692,9.433-17.692l5.155,33.62.838,27.55,2.678,8.511s.658,8,.6,8.476h11.944l1.319-8.789s5.549-5.23,5.549-11.269-1.194-36.794,0-45.752-2.8-50.726-2.8-50.726Z" transform="translate(-240.761 -157.287)" fill="#263238"/>
          <g id="Grupo_1234510" data-name="Grupo 1234510" transform="translate(0 71.215)">
            <g id="Grupo_1234504" data-name="Grupo 1234504" transform="translate(12.367)">
              <path id="Trazado_1235252" data-name="Trazado 1235252" d="M253.63,238.455l-19.338-1.663,1.015-11.807a1.421,1.421,0,0,1,1.537-1.294l16.507,1.42a1.42,1.42,0,0,1,1.293,1.537Z" transform="translate(-233.701 -222.296)" fill="#7b776f"/>
              <g id="Grupo_1234503" data-name="Grupo 1234503" transform="translate(1.266 0) rotate(4.916)" clip-path="url(#clip-path-7)">
                <rect id="Rectángulo_422702" data-name="Rectángulo 422702" width="4.778" height="9.555" transform="translate(14.148 2.479)" fill="rgba(255,255,255,0.7)" opacity="0.3"/>
              </g>
              <path id="Trazado_1235256" data-name="Trazado 1235256" d="M253.63,238.455l-19.338-1.663,1.015-11.807a1.421,1.421,0,0,1,1.537-1.294l16.507,1.42a1.42,1.42,0,0,1,1.293,1.537Z" transform="translate(-233.701 -222.296)" fill="none" stroke="#263238" stroke-linecap="round" stroke-linejoin="round" stroke-miterlimit="10" stroke-width="1"/>
            </g>
            <g id="Grupo_1234507" data-name="Grupo 1234507" transform="translate(40.947 2.407)">
              <path id="Trazado_1235257" data-name="Trazado 1235257" d="M291.49,241.71l-19.338-1.663,1.015-11.807a1.42,1.42,0,0,1,1.537-1.293l16.507,1.419A1.42,1.42,0,0,1,292.5,229.9Z" transform="translate(-271.565 -225.501)" fill="#7b776f"/>
              <g id="Grupo_1234506" data-name="Grupo 1234506" transform="translate(1.266 0) rotate(4.916)" clip-path="url(#clip-path-8)">
                <rect id="Rectángulo_422703" data-name="Rectángulo 422703" width="2.886" height="9.555" transform="translate(15.722 2.532)" fill="rgba(255,255,255,0.7)" opacity="0.3"/>
              </g>
              <path id="Trazado_1235261" data-name="Trazado 1235261" d="M291.49,241.71l-19.338-1.663,1.015-11.807a1.42,1.42,0,0,1,1.537-1.293l16.507,1.419A1.42,1.42,0,0,1,292.5,229.9Z" transform="translate(-271.565 -225.501)" fill="none" stroke="#263238" stroke-linecap="round" stroke-linejoin="round" stroke-miterlimit="10" stroke-width="1"/>
            </g>
            <path id="Trazado_1235262" data-name="Trazado 1235262" d="M283.52,241.025l-19.338-1.663,1.015-11.807a1.42,1.42,0,0,1,1.537-1.293l16.508,1.419a1.421,1.421,0,0,1,1.294,1.537Z" transform="translate(-228.663 -222.927)" fill="#e2dacc" stroke="#263238" stroke-linecap="round" stroke-linejoin="round" stroke-miterlimit="10" stroke-width="1"/>
            <path id="Trazado_1235263" data-name="Trazado 1235263" d="M321.38,244.281l-19.338-1.663,1.015-11.807a1.421,1.421,0,0,1,1.537-1.294l16.508,1.42a1.421,1.421,0,0,1,1.294,1.537Z" transform="translate(-237.947 -223.725)" fill="#e2dacc" stroke="#263238" stroke-linecap="round" stroke-linejoin="round" stroke-miterlimit="10" stroke-width="1"/>
            <rect id="Rectángulo_422704" data-name="Rectángulo 422704" width="4.778" height="9.555" transform="translate(50.073 5.625) rotate(4.916)" fill="rgba(255,255,255,0.7)" opacity="0.3"/>
            <rect id="Rectángulo_422705" data-name="Rectángulo 422705" width="4.778" height="9.555" transform="translate(78.338 8.053) rotate(4.916)" fill="rgba(255,255,255,0.7)" opacity="0.3"/>
            <g id="Grupo_1234509" data-name="Grupo 1234509" transform="translate(0 7.869)">
              <path id="Trazado_1235264" data-name="Trazado 1235264" d="M309.257,242.931l-4.668,54.288L217.124,289.7l4.668-54.288a3.432,3.432,0,0,1,3.716-3.127l80.623,6.932A3.432,3.432,0,0,1,309.257,242.931Z" transform="translate(-217.124 -232.27)" fill="#7b776f"/>
              <path id="Trazado_1235267" data-name="Trazado 1235267" d="M309.257,242.931l-4.668,54.288L217.124,289.7l4.668-54.288a3.432,3.432,0,0,1,3.716-3.127l80.623,6.932A3.432,3.432,0,0,1,309.257,242.931Z" transform="translate(-217.124 -232.27)" fill="none" stroke="#263238" stroke-linecap="round" stroke-linejoin="round" stroke-miterlimit="10" stroke-width="1"/>
            </g>
            <path id="Trazado_1235268" data-name="Trazado 1235268" d="M316.587,243.561l-4.668,54.288-64.906-5.581,4.668-54.288a3.432,3.432,0,0,1,3.716-3.127l58.063,4.993A3.431,3.431,0,0,1,316.587,243.561Z" transform="translate(-224.453 -225.031)" fill="#e2dacc" stroke="#263238" stroke-linecap="round" stroke-linejoin="round" stroke-miterlimit="10" stroke-width="1"/>
            <path id="Trazado_1235269" data-name="Trazado 1235269" d="M314.707,245.983l-55.483-4.771a1.418,1.418,0,0,1-1.291-1.534h0a1.418,1.418,0,0,1,1.534-1.291l55.483,4.771a1.418,1.418,0,0,1,1.291,1.534h0A1.418,1.418,0,0,1,314.707,245.983Z" transform="translate(-227.13 -225.9)" fill="rgba(255,255,255,0.7)" opacity="0.3"/>
          </g>
          <g id="Grupo_1234513" data-name="Grupo 1234513" transform="translate(106.452 209.013)">
            <g id="Grupo_1234512" data-name="Grupo 1234512" transform="translate(0.297 0.855)">
              <path id="Trazado_1235270" data-name="Trazado 1235270" d="M382.89,408.011s-4.18-2.986-12.84-2.389c0,0-.627,10.38-1.806,13.4s-7.385,8.247-8.537,9.143-1.153,4.031-1.153,4.031H384.83a83.1,83.1,0,0,0-2.09-13.327Z" transform="translate(-358.554 -405.543)" fill="#e2dacc"/>
              <g id="Grupo_1234511" data-name="Grupo 1234511" clip-path="url(#clip-path-10)">
                <path id="Trazado_1235271" data-name="Trazado 1235271" d="M382.89,408.011s-4.18-2.986-12.84-2.389c0,0-.627,10.38-1.806,13.4s-7.385,8.247-8.537,9.143-1.153,4.031-1.153,4.031H384.83a83.1,83.1,0,0,0-2.09-13.327Z" transform="translate(-358.554 -405.543)" fill="#e2dacc" opacity="0.4"/>
              </g>
              <path id="Trazado_1235273" data-name="Trazado 1235273" d="M382.89,408.011s-4.18-2.986-12.84-2.389c0,0-.627,10.38-1.806,13.4s-7.385,8.247-8.537,9.143-1.153,4.031-1.153,4.031H384.83a83.1,83.1,0,0,0-2.09-13.327Z" transform="translate(-358.554 -405.543)" fill="none" stroke="#263238" stroke-linecap="round" stroke-linejoin="round" stroke-miterlimit="10" stroke-width="1"/>
            </g>
            <path id="Trazado_1235274" data-name="Trazado 1235274" d="M381.98,410.593s-.621,9.555-2.1,12.043a17.619,17.619,0,0,1-2.913,3.782" transform="translate(-362.771 -405.927)" fill="none" stroke="#263238" stroke-linecap="round" stroke-linejoin="round" stroke-miterlimit="10" stroke-width="1"/>
            <path id="Trazado_1235275" data-name="Trazado 1235275" d="M372.067,432.9a5.549,5.549,0,0,1-2.787,1.867c-1.468.224-9.2-.224-9.2-.224l3.153-2.726S369.678,430.736,372.067,432.9Z" transform="translate(-358.631 -411.065)" fill="#e2dacc" stroke="#263238" stroke-linecap="round" stroke-linejoin="round" stroke-miterlimit="10" stroke-width="1"/>
            <path id="Trazado_1235276" data-name="Trazado 1235276" d="M376.5,429.822s-5.6-3.22-9.594-.789" transform="translate(-360.305 -410.226)" fill="none" stroke="#263238" stroke-linecap="round" stroke-linejoin="round" stroke-miterlimit="10" stroke-width="1"/>
            <path id="Trazado_1235277" data-name="Trazado 1235277" d="M378.642,426.866s-3.911-3.057-8.525-1.379" transform="translate(-361.092 -409.456)" fill="none" stroke="#263238" stroke-linecap="round" stroke-linejoin="round" stroke-miterlimit="10" stroke-width="1"/>
            <path id="Trazado_1235278" data-name="Trazado 1235278" d="M380.8,422.454s-4.209-3.27-8.648-1.187" transform="translate(-361.591 -408.374)" fill="none" stroke="#263238" stroke-linecap="round" stroke-linejoin="round" stroke-miterlimit="10" stroke-width="1"/>
            <path id="Trazado_1235279" data-name="Trazado 1235279" d="M381.5,417.087s-5.105-2.746-8.823-.663" transform="translate(-361.72 -407.165)" fill="none" stroke="#263238" stroke-linecap="round" stroke-linejoin="round" stroke-miterlimit="10" stroke-width="1"/>
            <path id="Trazado_1235280" data-name="Trazado 1235280" d="M384.734,440.857V442.8h-3.01a5.3,5.3,0,0,0-5.052,0H362.489a10.306,10.306,0,0,1-4.329-.971l.3-.971h26.276Z" transform="translate(-358.16 -413.348)" fill="#7b776f" stroke="#263238" stroke-linecap="round" stroke-linejoin="round" stroke-miterlimit="10" stroke-width="1"/>
            <path id="Trazado_1235281" data-name="Trazado 1235281" d="M384.184,407.137l-.673,4.229s-7.887-2.557-12.243-.9v-5.2S379.382,402.411,384.184,407.137Z" transform="translate(-361.375 -404.411)" fill="#7b776f" stroke="#263238" stroke-linecap="round" stroke-linejoin="round" stroke-miterlimit="10" stroke-width="1"/>
          </g>
          <g id="Grupo_1234515" data-name="Grupo 1234515" transform="translate(88.193 30.453)">
            <path id="Trazado_1235282" data-name="Trazado 1235282" d="M383.567,243.613s-16.764,3.283-33.2-2.045a47.54,47.54,0,0,1-10.673-4.929s.045-1.057.076-2.785c.136-6.748.1-23.723-3.457-27.957-2.234-2.649-4.038-19.028.332-27.308l13.367-10.748c18.507,3.615,22.417,8.514,25.474,19.081.566,1.932,1.094,4.053,1.683,6.393.642,2.551,1.245,5.668,1.819,9.1C381.763,219.3,383.567,243.613,383.567,243.613Z" transform="translate(-333.969 -167.84)" fill="#e2dacc"/>
            <g id="Grupo_1234514" data-name="Grupo 1234514" clip-path="url(#clip-path-11)">
              <path id="Trazado_1235283" data-name="Trazado 1235283" d="M380.844,208.608,373.3,242.324s-10.907,3.049-21.074,5.442a47.539,47.539,0,0,1-10.673-4.929s.045-1.057.075-2.785c9.133-4.672,22.462-11.541,22.357-11.865-.174-.506,0-18.122,0-18.122s12.039-2.8,13.36-16.945c.566,1.932,1.094,4.053,1.683,6.393C379.667,202.064,380.27,205.181,380.844,208.608Z" transform="translate(-335.828 -174.039)" opacity="0.2"/>
            </g>
            <path id="Trazado_1235285" data-name="Trazado 1235285" d="M383.567,243.613s-16.764,3.283-33.2-2.045a47.54,47.54,0,0,1-10.673-4.929s.045-1.057.076-2.785c.136-6.748.1-23.723-3.457-27.957-2.234-2.649-4.038-19.028.332-27.308l13.367-10.748c18.507,3.615,22.417,8.514,25.474,19.081.566,1.932,1.094,4.053,1.683,6.393.642,2.551,1.245,5.668,1.819,9.1C381.763,219.3,383.567,243.613,383.567,243.613Z" transform="translate(-333.969 -167.84)" fill="none" stroke="#263238" stroke-linecap="round" stroke-linejoin="round" stroke-miterlimit="10" stroke-width="1"/>
          </g>
          <path id="Trazado_1235286" data-name="Trazado 1235286" d="M350.736,149.2s-5.9,8.455,1.948,15.047c0,0-9.528,10.694-12.661,9.22-1.319-.62,0-4.479,0-4.479L334.5,158.773Z" transform="translate(-245.907 -132.816)" fill="#fff" stroke="#263238" stroke-linecap="round" stroke-linejoin="round" stroke-miterlimit="10" stroke-width="1"/>
          <g id="Grupo_1234516" data-name="Grupo 1234516" transform="translate(78.642)">
            <path id="Trazado_1235287" data-name="Trazado 1235287" d="M346.249,148.761c1.848-8.055.959-20.049-10.322-18.979-7.907.75-13.551,5.126-11.352,15.739.928,4.482,1.691,10.821,5.8,16.537,1.14,1.587,13.064-4.021,12.345-8.556" transform="translate(-321.997 -128.038)" fill="#fff" stroke="#263238" stroke-linecap="round" stroke-linejoin="round" stroke-miterlimit="10" stroke-width="1"/>
            <path id="Trazado_1235288" data-name="Trazado 1235288" d="M332.057,148.211a5.483,5.483,0,0,1,4.9.474" transform="translate(-323.949 -132.483)" fill="none" stroke="#263238" stroke-linecap="round" stroke-linejoin="round" stroke-miterlimit="10" stroke-width="1"/>
            <path id="Trazado_1235289" data-name="Trazado 1235289" d="M324.539,149.38a1.415,1.415,0,0,1,1.7-.777" transform="translate(-322.106 -132.66)" fill="none" stroke="#263238" stroke-linecap="round" stroke-linejoin="round" stroke-miterlimit="10" stroke-width="1"/>
            <path id="Trazado_1235290" data-name="Trazado 1235290" d="M327.52,151.862s-2.322,4.234-2.328,4.84,2.86.8,2.86.8" transform="translate(-322.265 -133.469)" fill="#fff" stroke="#263238" stroke-linecap="round" stroke-linejoin="round" stroke-miterlimit="10" stroke-width="1"/>
            <path id="Trazado_1235291" data-name="Trazado 1235291" d="M334.564,152.754c.014.46-.205.842-.491.85s-.528-.357-.543-.818.205-.842.491-.851S334.55,152.293,334.564,152.754Z" transform="translate(-324.31 -133.487)" fill="#263238"/>
            <path id="Trazado_1235292" data-name="Trazado 1235292" d="M330.545,162.639s4.465-.838,5.256-2.407" transform="translate(-323.578 -135.521)" fill="none" stroke="#263238" stroke-linecap="round" stroke-linejoin="round" stroke-miterlimit="10" stroke-width="1"/>
            <path id="Trazado_1235293" data-name="Trazado 1235293" d="M323.719,137.708l3.47-1.011s4.866-2.229,5.9-1.947,3.133,3.546,3.07,5.386a12.051,12.051,0,0,1,3.685,7.067l1-.459s-.056-3.747,2.091-3.674,3.11,2.667,2.962,3.474-2.485,4.157-2.485,4.157,5.37-.8,5.544-11.293S337.6,127.1,331.991,127.556a74.06,74.06,0,0,1-8.541.315l.317,3-2.292.6,1.712,2.09-1.871.857Z" transform="translate(-321.315 -127.493)" fill="#263238"/>
          </g>
          <path id="Trazado_1235294" data-name="Trazado 1235294" d="M350.258,293.008s13.666,3.618,17.365,13.791" transform="translate(-249.771 -168.08)" fill="none" stroke="#fff" stroke-linecap="round" stroke-linejoin="round" stroke-miterlimit="10" stroke-width="1"/>
          <path id="Trazado_1235295" data-name="Trazado 1235295" d="M352.483,300.254s-7.389,12.3-18.688,18.68" transform="translate(-245.734 -169.857)" fill="none" stroke="#fff" stroke-linecap="round" stroke-linejoin="round" stroke-miterlimit="10" stroke-width="1"/>
          <path id="Trazado_1235296" data-name="Trazado 1235296" d="M344.8,391.023s4.194-.941,5.339-2.572" transform="translate(-248.433 -191.484)" fill="none" stroke="#fff" stroke-linecap="round" stroke-linejoin="round" stroke-miterlimit="10" stroke-width="1"/>
          <path id="Trazado_1235297" data-name="Trazado 1235297" d="M375.763,393.625a9.553,9.553,0,0,1,8.192,0" transform="translate(-256.025 -192.521)" fill="none" stroke="#fff" stroke-linecap="round" stroke-linejoin="round" stroke-miterlimit="10" stroke-width="1"/>
          <path id="Trazado_1235298" data-name="Trazado 1235298" d="M390,318.091s-6.889,17.848-10.376,19.5" transform="translate(-256.971 -174.231)" fill="none" stroke="#fff" stroke-linecap="round" stroke-linejoin="round" stroke-miterlimit="10" stroke-width="1"/>
          <path id="Trazado_1235299" data-name="Trazado 1235299" d="M353.391,281.049c.186,1.938,8.316,10.93,15,14.5" transform="translate(-250.539 -165.148)" fill="none" stroke="#fff" stroke-linecap="round" stroke-linejoin="round" stroke-miterlimit="10" stroke-width="1"/>
          <path id="Trazado_1235300" data-name="Trazado 1235300" d="M362.564,271a12.5,12.5,0,0,1,.576,7.583,11.667,11.667,0,0,0,0,6.689" transform="translate(-252.788 -162.684)" fill="none" stroke="#fff" stroke-linecap="round" stroke-linejoin="round" stroke-miterlimit="10" stroke-width="1"/>
          <path id="Trazado_1235301" data-name="Trazado 1235301" d="M342.96,221.816s12.706,16.444,26.357,21.84" transform="translate(-247.981 -150.623)" fill="none" stroke="#263238" stroke-linecap="round" stroke-linejoin="round" stroke-miterlimit="10" stroke-width="1"/>
          <path id="Trazado_1235302" data-name="Trazado 1235302" d="M360.42,186.611s-.044,11.179,8.019,16.22" transform="translate(-252.262 -141.99)" fill="none" stroke="#263238" stroke-linecap="round" stroke-linejoin="round" stroke-miterlimit="10" stroke-width="1"/>
          <g id="Grupo_1234517" data-name="Grupo 1234517" transform="translate(66.897 60.841)">
            <path id="Trazado_1235303" data-name="Trazado 1235303" d="M356.187,208.189c-1.7,1.682.157,22.7.157,22.7s-9.916,3.883-13.014,6.383-17.8,8.233-17.8,8.233-2.261,7.716.565,7.98,32.056-9.7,38.741-13.2c0,0,4.353-25.688,4.324-32.192" transform="translate(-310.393 -208.101)" fill="#fff" stroke="#263238" stroke-linecap="round" stroke-linejoin="round" stroke-miterlimit="10" stroke-width="1"/>
            <path id="Trazado_1235304" data-name="Trazado 1235304" d="M322.051,256.756c-1.356-.255-3.745-1.151-5.039-.852s-3.583,1.692-5.972,2.289-1.393,1.493,0,1.792a9.471,9.471,0,0,0,3.086,0l-1.935,1.891a30.212,30.212,0,0,1-3.44,1.593c-.7,0-3.185.678-2.986,1.732s1.593.934,3.185.994c0,0-2.538.508-2.289,1.952.17.986,2.986.1,4.479.1,0,0-1.194,1.294-.3,1.692s2.863-.6,2.863-.6-.076,1.074.82,1.184,3.131-.786,4.651-1.682a40.454,40.454,0,0,0,4.307-3.185,7.194,7.194,0,0,1,1.953-1.264" transform="translate(-305.754 -219.808)" fill="#fff" stroke="#263238" stroke-linecap="round" stroke-linejoin="round" stroke-miterlimit="10" stroke-width="1"/>
            <path id="Trazado_1235305" data-name="Trazado 1235305" d="M309.989,269.366a17.41,17.41,0,0,0,2.09-.238c.6-.149,1.195-.349,1.195-.349" transform="translate(-306.793 -222.98)" fill="none" stroke="#263238" stroke-linecap="round" stroke-linejoin="round" stroke-miterlimit="10" stroke-width="1"/>
            <path id="Trazado_1235306" data-name="Trazado 1235306" d="M312.89,271.984a7.268,7.268,0,0,0,2.588-.9" transform="translate(-307.504 -223.546)" fill="none" stroke="#263238" stroke-linecap="round" stroke-linejoin="round" stroke-miterlimit="10" stroke-width="1"/>
            <path id="Trazado_1235307" data-name="Trazado 1235307" d="M316.287,273.5a4.426,4.426,0,0,0,1.89-.7" transform="translate(-308.337 -223.967)" fill="none" stroke="#263238" stroke-linecap="round" stroke-linejoin="round" stroke-miterlimit="10" stroke-width="1"/>
            <path id="Trazado_1235308" data-name="Trazado 1235308" d="M314.525,264.56s-.547,1.244,0,1.941,1.194.736,1.294,1.537,1.393.752,1.867,1.249.824,1.43,2.314,1.493" transform="translate(-307.845 -221.946)" fill="none" stroke="#263238" stroke-linecap="round" stroke-linejoin="round" stroke-miterlimit="10" stroke-width="1"/>
          </g>
          <path id="Trazado_1235309" data-name="Trazado 1235309" d="M364.85,179.329c-5.142,11.629,0,27.769,0,27.769s12.434,4.23,13.6,2.405,3.249-10.737,3.6-14.859" transform="translate(-252.788 -140.204)" fill="#e2dacc" stroke="#263238" stroke-linecap="round" stroke-linejoin="round" stroke-miterlimit="10" stroke-width="1"/>
          <path id="Trazado_1235310" data-name="Trazado 1235310" d="M380.529,201.33s-5.3,7.266-9.485,7.365" transform="translate(-254.868 -145.599)" fill="none" stroke="#263238" stroke-linecap="round" stroke-linejoin="round" stroke-miterlimit="10" stroke-width="1"/>
        </g>
      </g>
      <g id="Character_1" transform="translate(87.244 231.887)">
        <g id="Grupo_1234531" data-name="Grupo 1234531" transform="translate(0)">
          <path id="Trazado_1235311" data-name="Trazado 1235311" d="M138.023,329.989a12.9,12.9,0,0,1,9.545-1.194c5.522,1.393,19.855,21.9,21.845,23.887s5.723,3.053,9.157,6.637C184,364.99,191.907,370,192.7,370a15.607,15.607,0,0,0,2.439-.7c1-.2,8.709-.9,8.709-.9s2.588.575,0,1.681-2.389,2.1-2.389,2.1-.52.838.52,1.634,1.654.364,3.138,2.471-2.1.913-2.1.913.8,2.277-.8,2.034-.2,2.213-2.787,1.881-8.128-3.824-9.522-7.49c0,0-22.594-10.8-25.977-13.586s-17.6-17.717-18.6-17.916" transform="translate(-107.837 -289.445)" fill="#263238"/>
          <g id="Grupo_1234527" data-name="Grupo 1234527" transform="translate(79.313 60.773)">
            <g id="Grupo_1234521" data-name="Grupo 1234521" transform="translate(8.56)">
              <path id="Trazado_1235312" data-name="Trazado 1235312" d="M233.86,370.583H214.451V358.733a1.42,1.42,0,0,1,1.421-1.421H232.44a1.42,1.42,0,0,1,1.421,1.421v11.851Z" transform="translate(-214.451 -357.312)" fill="#7b776f"/>
              <g id="Grupo_1234520" data-name="Grupo 1234520" clip-path="url(#clip-path-12)">
                <rect id="Rectángulo_422706" data-name="Rectángulo 422706" width="4.778" height="9.555" transform="translate(13.586 1.248)" fill="rgba(255,255,255,0.7)" opacity="0.3"/>
              </g>
              <path id="Trazado_1235316" data-name="Trazado 1235316" d="M233.86,370.583H214.451V358.733a1.42,1.42,0,0,1,1.421-1.421H232.44a1.42,1.42,0,0,1,1.421,1.421v11.851Z" transform="translate(-214.451 -357.312)" fill="none" stroke="#263238" stroke-linecap="round" stroke-linejoin="round" stroke-miterlimit="10" stroke-width="1"/>
            </g>
            <g id="Grupo_1234524" data-name="Grupo 1234524" transform="translate(37.242)">
              <path id="Trazado_1235317" data-name="Trazado 1235317" d="M271.86,370.583H252.451V358.733a1.42,1.42,0,0,1,1.421-1.421H270.44a1.42,1.42,0,0,1,1.42,1.421v11.851Z" transform="translate(-252.451 -357.312)" fill="#7b776f"/>
              <g id="Grupo_1234523" data-name="Grupo 1234523" clip-path="url(#clip-path-13)">
                <rect id="Rectángulo_422707" data-name="Rectángulo 422707" width="2.886" height="9.555" transform="translate(15.161 1.248)" fill="rgba(255,255,255,0.7)" opacity="0.3"/>
              </g>
              <path id="Trazado_1235321" data-name="Trazado 1235321" d="M271.86,370.583H252.451V358.733a1.42,1.42,0,0,1,1.421-1.421H270.44a1.42,1.42,0,0,1,1.42,1.421v11.851Z" transform="translate(-252.451 -357.312)" fill="none" stroke="#263238" stroke-linecap="round" stroke-linejoin="round" stroke-miterlimit="10" stroke-width="1"/>
            </g>
            <path id="Trazado_1235322" data-name="Trazado 1235322" d="M263.86,370.583H244.451V358.733a1.42,1.42,0,0,1,1.421-1.421H262.44a1.42,1.42,0,0,1,1.421,1.421v11.851Z" transform="translate(-213.247 -357.312)" fill="#e2dacc" stroke="#263238" stroke-linecap="round" stroke-linejoin="round" stroke-miterlimit="10" stroke-width="1"/>
            <path id="Trazado_1235323" data-name="Trazado 1235323" d="M301.86,370.583H282.451V358.733a1.42,1.42,0,0,1,1.421-1.421H300.44a1.42,1.42,0,0,1,1.421,1.421v11.851Z" transform="translate(-222.566 -357.312)" fill="#e2dacc" stroke="#263238" stroke-linecap="round" stroke-linejoin="round" stroke-miterlimit="10" stroke-width="1"/>
            <rect id="Rectángulo_422708" data-name="Rectángulo 422708" width="4.778" height="9.555" transform="translate(44.79 1.248)" fill="rgba(255,255,255,0.7)" opacity="0.3"/>
            <rect id="Rectángulo_422709" data-name="Rectángulo 422709" width="4.778" height="9.555" transform="translate(73.156 1.248)" fill="rgba(255,255,255,0.7)" opacity="0.3"/>
            <g id="Grupo_1234526" data-name="Grupo 1234526" transform="translate(0 7.073)">
              <path id="Trazado_1235324" data-name="Trazado 1235324" d="M290.9,370.117v54.488H203.11V370.117a3.432,3.432,0,0,1,3.434-3.434h80.92A3.432,3.432,0,0,1,290.9,370.117Z" transform="translate(-203.11 -366.683)" fill="#7b776f"/>
              <path id="Trazado_1235327" data-name="Trazado 1235327" d="M290.9,370.117v54.488H203.11V370.117a3.432,3.432,0,0,1,3.434-3.434h80.92A3.432,3.432,0,0,1,290.9,370.117Z" transform="translate(-203.11 -366.683)" fill="none" stroke="#263238" stroke-linecap="round" stroke-linejoin="round" stroke-miterlimit="10" stroke-width="1"/>
            </g>
            <path id="Trazado_1235328" data-name="Trazado 1235328" d="M298.255,370.117v54.488H233.11V370.117a3.432,3.432,0,0,1,3.434-3.434h58.277A3.432,3.432,0,0,1,298.255,370.117Z" transform="translate(-210.466 -359.61)" fill="#e2dacc" stroke="#263238" stroke-linecap="round" stroke-linejoin="round" stroke-miterlimit="10" stroke-width="1"/>
            <path id="Trazado_1235329" data-name="Trazado 1235329" d="M295.029,372.88H239.341a1.418,1.418,0,0,1-1.418-1.418h0a1.418,1.418,0,0,1,1.418-1.418h55.688a1.418,1.418,0,0,1,1.418,1.418h0A1.418,1.418,0,0,1,295.029,372.88Z" transform="translate(-211.647 -360.434)" fill="rgba(255,255,255,0.7)" opacity="0.3"/>
          </g>
          <g id="Grupo_1234528" data-name="Grupo 1234528" transform="translate(0 83.056)">
            <path id="Trazado_1235330" data-name="Trazado 1235330" d="M157.62,429.546c-4.536,0-10.892-2.913-18.22-5.993-7.6-3.2-16.258-6.582-25.044-7.087-3.276-.189-1.291,13.08-1.291,13.08h-7.17s-7.065-9.45-7.865-17.911c0,0,5.782-3.57,7.17-3.781a12.645,12.645,0,0,1,1.442-.068c1.555-.015,3.631.068,3.631.068a.023.023,0,0,1-.015-.008,44.224,44.224,0,0,1-8.544-6.619,16.275,16.275,0,0,1-3.593-9.412,45.594,45.594,0,0,1,.554-4.981l37.676.626s.408.287,1.132.823c4.37,3.185,20.341,15.05,28.327,23.995,2.581,2.891,4.325,5.472,4.582,7.359C171.584,428.354,164.466,429.546,157.62,429.546Z" transform="translate(-98.03 -386.834)" fill="#757575" stroke="#263238" stroke-linecap="round" stroke-linejoin="round" stroke-miterlimit="10" stroke-width="1"/>
            <path id="Trazado_1235331" data-name="Trazado 1235331" d="M165.81,412.277l-18.326,4.189a27.028,27.028,0,0,0-8.084,7.087c-7.6-3.2-16.258-6.582-25.044-7.087-3.276-.189-1.291,13.08-1.291,13.08h-7.17s-7.065-9.45-7.865-17.911c0,0,6.672,9.51,8.265,14.311,0,0,2.589-8.937,6.77-12.522a34.462,34.462,0,0,0-6.423-5.638c1.555-.015,3.631.068,3.631.068a.023.023,0,0,1-.015-.008,44.224,44.224,0,0,1-8.544-6.619c-2.408-2.672-3.384-6.9-3.593-9.412-.1-1.241.043-4.981.043-4.981s28.1,4.007,39.319,1.448C141.853,391.468,157.824,403.333,165.81,412.277Z" transform="translate(-98.03 -386.834)" fill="#263238"/>
            <path id="Trazado_1235332" data-name="Trazado 1235332" d="M148.8,419.692s14.93,7.481,18.911,10.409,5.171,2.132,5.171,2.132" transform="translate(-110.48 -394.891)" fill="none" stroke="#263238" stroke-linecap="round" stroke-linejoin="round" stroke-miterlimit="10" stroke-width="1"/>
            <path id="Trazado_1235333" data-name="Trazado 1235333" d="M102.912,418.637s3.583,5.474,3.782,7.116" transform="translate(-99.227 -394.633)" fill="none" stroke="#263238" stroke-linecap="round" stroke-linejoin="round" stroke-miterlimit="10" stroke-width="1"/>
          </g>
          <path id="Trazado_1235334" data-name="Trazado 1235334" d="M176.667,279.366s7.967-3.461,7.221,11.247,1.941,15.454,1.941,15.454-20.006,8.211-25.082,1.194S160.488,281.032,176.667,279.366Z" transform="translate(-112.936 -277.338)" fill="#263238"/>
          <path id="Trazado_1235335" data-name="Trazado 1235335" d="M174.472,313.207s-8.227,3.882-8.974,7.465-11.048-1.805-11.048-1.805l7.465-10.737Z" transform="translate(-111.865 -284.479)" fill="#fff" stroke="#263238" stroke-linecap="round" stroke-linejoin="round" stroke-miterlimit="10" stroke-width="1"/>
          <path id="Trazado_1235336" data-name="Trazado 1235336" d="M106.754,366.119c-18.9,24.028-3.555,35.625,17.837,33.709L120.3,406.6l10.757,1.867s8.256-5.388,19.5-11.147c19.143-9.806,26.873-9.224,24.883-19.044s-25.429-16.19-48.944-5.839C126.5,372.431,113.724,357.258,106.754,366.119Z" transform="translate(-98.073 -298.017)" fill="#757575" stroke="#263238" stroke-linecap="round" stroke-linejoin="round" stroke-miterlimit="10" stroke-width="1"/>
          <g id="Grupo_1234529" data-name="Grupo 1234529" transform="translate(14.733 105.949)">
            <path id="Trazado_1235337" data-name="Trazado 1235337" d="M118.08,431.613s4.91-13.6,6.967-14.333,9.771,2.19,10.757,4.379c0,0,2.622-4.018,3.7-2.307s-.476,4.5,0,6.687,5.777,5.176,7.9,5.574,3.322,1.593,3.322,2.787v2.588H118.08A6.825,6.825,0,0,1,118.08,431.613Z" transform="translate(-117.549 -417.165)" fill="#fff" stroke="#263238" stroke-linecap="round" stroke-linejoin="round" stroke-miterlimit="10" stroke-width="1"/>
            <path id="Trazado_1235338" data-name="Trazado 1235338" d="M144.541,426.094s-4.327,2.135-5.907,1.538.809,3.583,1.406,3.981,4.5-1.393,4.5-1.393" transform="translate(-122.59 -419.355)" fill="none" stroke="#263238" stroke-linecap="round" stroke-linejoin="round" stroke-miterlimit="10" stroke-width="1"/>
            <path id="Trazado_1235339" data-name="Trazado 1235339" d="M123.665,423.12s5.868.11,7.66,2.245" transform="translate(-119.049 -418.625)" fill="none" stroke="#263238" stroke-linecap="round" stroke-linejoin="round" stroke-miterlimit="10" stroke-width="1"/>
            <path id="Trazado_1235340" data-name="Trazado 1235340" d="M118.253,436.307s9.356,2.19,10.153,2.19a22.883,22.883,0,0,0,3.782-1.1s2.563,1.294,4.268,2.09,12.852,0,12.852,0" transform="translate(-117.722 -421.859)" fill="none" stroke="#263238" stroke-linecap="round" stroke-linejoin="round" stroke-miterlimit="10" stroke-width="1"/>
          </g>
          <path id="Trazado_1235341" data-name="Trazado 1235341" d="M133.164,405.589c8.943-.971,26.291-11.982,32.3-15.807s7.6-2.83,7.6-2.83" transform="translate(-106.645 -303.778)" fill="none" stroke="#263238" stroke-linecap="round" stroke-linejoin="round" stroke-miterlimit="10" stroke-width="1"/>
          <path id="Trazado_1235342" data-name="Trazado 1235342" d="M98.207,369.888l1.429-10.832,3.443-2.6c5.574-13.536,30.845-38.809,37.729-38.729,10.351.121,12.177,10.98,13.454,22.869s-14.847,10.1-14.847,10.1v2.986l-9.169,4.748,5.553-.175S119.823,373.78,98.207,369.888Z" transform="translate(-98.073 -286.832)" fill="#e2dacc" stroke="#263238" stroke-linecap="round" stroke-linejoin="round" stroke-miterlimit="10" stroke-width="1"/>
          <g id="Grupo_1234530" data-name="Grupo 1234530" transform="translate(38.479)">
            <path id="Trazado_1235343" data-name="Trazado 1235343" d="M157.325,287.414c2.163-6.786,12.086-8.6,15.636-7.489a12.631,12.631,0,0,1,6.726,6.136c.907,1.949-.987,5.408.362,7.425,1.933,2.889,1.769,8.986,1.072,12.8-.374,2.041-8.851,3.25-15.783-1.5C157.9,299.694,155.228,293.994,157.325,287.414Z" transform="translate(-150.879 -277.488)" fill="#fff" stroke="#263238" stroke-linecap="round" stroke-linejoin="round" stroke-miterlimit="10" stroke-width="1"/>
            <path id="Trazado_1235344" data-name="Trazado 1235344" d="M165.468,277.24s8.728-1.424,8.786.82c.389,14.89-8.539,18.016-8.539,18.016s-3.646-2.9-4.465-.911,1.288,7.5,3.866,7.615a5.908,5.908,0,0,0-.106,6.22s-14.776,2.465-16-4.382a54.876,54.876,0,0,0,1.224-7.228C151.194,287.8,148.949,281.341,165.468,277.24Z" transform="translate(-149.01 -276.795)" fill="#263238"/>
            <path id="Trazado_1235345" data-name="Trazado 1235345" d="M186.26,297.486c1.82,1.644,3.126,1.644,3.1,2.226-.068,1.838-2.285,2.753-2.285,2.753" transform="translate(-158.144 -281.869)" fill="#fff" stroke="#263238" stroke-linecap="round" stroke-linejoin="round" stroke-miterlimit="10" stroke-width="1"/>
            <path id="Trazado_1235346" data-name="Trazado 1235346" d="M186.017,308.13a6.706,6.706,0,0,1-3.975.1" transform="translate(-157.11 -284.479)" fill="none" stroke="#263238" stroke-linecap="round" stroke-linejoin="round" stroke-miterlimit="10" stroke-width="1"/>
            <path id="Trazado_1235347" data-name="Trazado 1235347" d="M180.448,283.933s5.8-1.684,4.734,7.737a13.343,13.343,0,0,0,2.413-6.975c-.015-6.388-8.552-5.108-8.552-5.108l1.113,4.523" transform="translate(-156.375 -277.454)" fill="#263238"/>
            <path id="Trazado_1235348" data-name="Trazado 1235348" d="M187.39,291.39a1.933,1.933,0,0,0-1.537-.279" transform="translate(-158.044 -280.297)" fill="none" stroke="#263238" stroke-linecap="round" stroke-linejoin="round" stroke-miterlimit="10" stroke-width="1"/>
            <path id="Trazado_1235349" data-name="Trazado 1235349" d="M181.258,291.355s-3.12.176-4.467,2.285" transform="translate(-155.822 -280.365)" fill="none" stroke="#263238" stroke-linecap="round" stroke-linejoin="round" stroke-miterlimit="10" stroke-width="1"/>
            <path id="Trazado_1235350" data-name="Trazado 1235350" d="M181.353,297.643c.048.5-.165.928-.475.957s-.6-.352-.645-.851.165-.928.475-.957S181.305,297.144,181.353,297.643Z" transform="translate(-156.665 -281.698)" fill="#263238"/>
          </g>
          <path id="Trazado_1235351" data-name="Trazado 1235351" d="M133.813,414.681s6.943.734,8.452,3.782" transform="translate(-106.805 -310.607)" fill="none" stroke="#263238" stroke-linecap="round" stroke-linejoin="round" stroke-miterlimit="10" stroke-width="1"/>
          <path id="Trazado_1235352" data-name="Trazado 1235352" d="M157.1,323.961a12.9,12.9,0,0,1,9.545-1.194c5.522,1.393,19.855,21.9,21.845,23.887s5.723,3.053,9.157,6.637c5.434,5.671,13.337,10.682,14.133,10.682a15.608,15.608,0,0,0,2.439-.7c1-.2,8.709-.9,8.709-.9s2.588.575,0,1.681-2.389,2.1-2.389,2.1-.52.838.52,1.634,1.654.364,3.138,2.471-2.1.913-2.1.913.8,2.277-.8,2.034-.2,2.213-2.787,1.881-8.128-3.824-9.522-7.49c0,0-22.594-10.8-25.978-13.586s-17.6-17.717-18.6-17.916" transform="translate(-112.516 -287.967)" fill="#fff" stroke="#263238" stroke-linecap="round" stroke-linejoin="round" stroke-miterlimit="10" stroke-width="1"/>
          <path id="Trazado_1235353" data-name="Trazado 1235353" d="M152.8,321.063s11.14-2.986,15.025-.8,11.251,12.342,11.251,12.342-8.977,8.041-11.755,7.3-11.274-1.93-11.274-1.93" transform="translate(-111.461 -287.258)" fill="#e2dacc" stroke="#263238" stroke-linecap="round" stroke-linejoin="round" stroke-miterlimit="10" stroke-width="1"/>
          <path id="Trazado_1235354" data-name="Trazado 1235354" d="M163.8,345.3s-4.037,2.221-5.526,2.221" transform="translate(-112.803 -293.594)" fill="none" stroke="#263238" stroke-linecap="round" stroke-linejoin="round" stroke-miterlimit="10" stroke-width="1"/>
          <path id="Trazado_1235355" data-name="Trazado 1235355" d="M157.1,330.549c.336.6.222,7.127,7.312,9.157" transform="translate(-112.516 -289.976)" fill="none" stroke="#263238" stroke-linecap="round" stroke-linejoin="round" stroke-miterlimit="10" stroke-width="1"/>
          <path id="Trazado_1235356" data-name="Trazado 1235356" d="M106.912,368.671s15.129,2.588,20.3-1.99" transform="translate(-100.208 -298.836)" fill="none" stroke="#263238" stroke-linecap="round" stroke-linejoin="round" stroke-miterlimit="10" stroke-width="1"/>
          <path id="Trazado_1235357" data-name="Trazado 1235357" d="M136.067,371.616s-3.77-.666-5.163,1.275-8.958,3.732-8.958,3.732" transform="translate(-103.895 -300.02)" fill="none" stroke="#263238" stroke-linecap="round" stroke-linejoin="round" stroke-miterlimit="10" stroke-width="1"/>
          <path id="Trazado_1235358" data-name="Trazado 1235358" d="M100.379,390.739s-2.178,9.4,7.122,13.613" transform="translate(-98.552 -304.736)" fill="none" stroke="#263238" stroke-linecap="round" stroke-linejoin="round" stroke-miterlimit="10" stroke-width="1"/>
          <path id="Trazado_1235359" data-name="Trazado 1235359" d="M106.912,391.168s.05,4.628,1.543,7.167l4.628,1.493,5.176-2.882s-1.1-5.927-1.195-7.121" transform="translate(-100.208 -304.512)" fill="none" stroke="#263238" stroke-linecap="round" stroke-linejoin="round" stroke-miterlimit="10" stroke-width="1"/>
        </g>
      </g>
    </g>
  </g>
</svg>
