<svg xmlns="http://www.w3.org/2000/svg" xmlns:xlink="http://www.w3.org/1999/xlink" width="400" height="208" viewBox="0 0 400 208">
  <defs>
    <clipPath id="clip-path">
      <rect id="Rectángulo_422695" data-name="Rectángulo 422695" width="400" height="208" transform="translate(180 1742)" fill="#fff" stroke="#707070" stroke-width="1"/>
    </clipPath>
    <clipPath id="clip-path-2">
      <rect id="Rectángulo_422778" data-name="Rectángulo 422778" width="401" height="208" transform="translate(-44 0)" fill="none"/>
    </clipPath>
    <clipPath id="clip-path-3">
      <rect id="Rectángulo_422740" data-name="Rectángulo 422740" width="400" height="208" transform="translate(-44 0)" fill="none"/>
    </clipPath>
    <clipPath id="clip-path-4">
      <rect id="Rectángulo_422739" data-name="Rectángulo 422739" width="399.53" height="13.488" fill="none"/>
    </clipPath>
    <clipPath id="clip-path-5">
      <rect id="Rectángulo_422751" data-name="Rectángulo 422751" width="312" height="208" transform="translate(0 0)" fill="none"/>
    </clipPath>
    <clipPath id="clip-path-6">
      <rect id="Rectángulo_422743" data-name="Rectángulo 422743" width="42.983" height="42.984" fill="none"/>
    </clipPath>
    <clipPath id="clip-path-7">
      <rect id="Rectángulo_422744" data-name="Rectángulo 422744" width="21.491" height="24.81" fill="none"/>
    </clipPath>
    <clipPath id="clip-path-8">
      <rect id="Rectángulo_422750" data-name="Rectángulo 422750" width="5.211" height="43.417" fill="none"/>
    </clipPath>
    <clipPath id="clip-path-10">
      <rect id="Rectángulo_422757" data-name="Rectángulo 422757" width="53.686" height="53.207" fill="none"/>
    </clipPath>
    <clipPath id="clip-path-11">
      <rect id="Rectángulo_422759" data-name="Rectángulo 422759" width="5.244" height="23.361" fill="none"/>
    </clipPath>
    <clipPath id="clip-path-12">
      <rect id="Rectángulo_422761" data-name="Rectángulo 422761" width="5.244" height="35.939" fill="none"/>
    </clipPath>
    <clipPath id="clip-path-13">
      <rect id="Rectángulo_422763" data-name="Rectángulo 422763" width="5.244" height="28.393" fill="none"/>
    </clipPath>
    <clipPath id="clip-path-14">
      <rect id="Rectángulo_422765" data-name="Rectángulo 422765" width="5.244" height="41.018" fill="none"/>
    </clipPath>
    <clipPath id="clip-path-15">
      <rect id="Rectángulo_422766" data-name="Rectángulo 422766" width="57.89" height="32.676" fill="none"/>
    </clipPath>
    <clipPath id="clip-path-16">
      <rect id="Rectángulo_422767" data-name="Rectángulo 422767" width="62.223" height="32.347" fill="none"/>
    </clipPath>
    <clipPath id="clip-path-17">
      <rect id="Rectángulo_422768" data-name="Rectángulo 422768" width="3.929" height="1.258" fill="none"/>
    </clipPath>
    <clipPath id="clip-path-18">
      <rect id="Rectángulo_422769" data-name="Rectángulo 422769" width="1.258" height="3.929" fill="none"/>
    </clipPath>
    <clipPath id="clip-path-19">
      <rect id="Rectángulo_422770" data-name="Rectángulo 422770" width="65.235" height="22.693" fill="none"/>
    </clipPath>
    <clipPath id="clip-path-20">
      <rect id="Rectángulo_422771" data-name="Rectángulo 422771" width="4.236" height="3.882" fill="none"/>
    </clipPath>
    <clipPath id="clip-path-21">
      <rect id="Rectángulo_422773" data-name="Rectángulo 422773" width="5.016" height="4.056" fill="none"/>
    </clipPath>
    <clipPath id="clip-path-22">
      <rect id="Rectángulo_422774" data-name="Rectángulo 422774" width="4.019" height="4.237" fill="none"/>
    </clipPath>
    <clipPath id="clip-path-23">
      <rect id="Rectángulo_422775" data-name="Rectángulo 422775" width="53.863" height="47.66" fill="none"/>
    </clipPath>
    <clipPath id="clip-path-24">
      <rect id="Rectángulo_422776" data-name="Rectángulo 422776" width="4.236" height="3.881" fill="none"/>
    </clipPath>
  </defs>
  <g id="Enmascarar_grupo_1211511" data-name="Enmascarar grupo 1211511" transform="translate(-180 -1742)" clip-path="url(#clip-path)">
    <g id="Grupo_1234741" data-name="Grupo 1234741">
      <rect id="Rectángulo_422779" data-name="Rectángulo 422779" width="248" height="155" transform="translate(255 1753)" fill="#f2f7e5"/>
      <g id="Grupo_1234740" data-name="Grupo 1234740" transform="translate(224 1742)">
        <g id="Grupo_1234739" data-name="Grupo 1234739" clip-path="url(#clip-path-2)">
          <rect id="Rectángulo_422737" data-name="Rectángulo 422737" width="399.001" height="48.551" transform="translate(-44 159.45)" fill="#c5e0fd"/>
          <g id="Grupo_1234680" data-name="Grupo 1234680">
            <g id="Grupo_1234679" data-name="Grupo 1234679" clip-path="url(#clip-path-3)">
              <g id="Grupo_1234678" data-name="Grupo 1234678" transform="translate(-44 194.513)" opacity="0.8" style="mix-blend-mode: multiply;isolation: isolate">
                <g id="Grupo_1234677" data-name="Grupo 1234677">
                  <g id="Grupo_1234676" data-name="Grupo 1234676" clip-path="url(#clip-path-4)">
                    <rect id="Rectángulo_422738" data-name="Rectángulo 422738" width="399.53" height="13.488" transform="translate(0 0)" fill="#b4d3ef"/>
                  </g>
                </g>
              </g>
            </g>
          </g>
          <rect id="Rectángulo_422741" data-name="Rectángulo 422741" width="170.716" height="106.15" transform="translate(79.618 19.604)" fill="#c5e0fd"/>
          <rect id="Rectángulo_422742" data-name="Rectángulo 422742" width="166.938" height="102.874" transform="translate(81.508 21.242)" fill="#f7fbfc"/>
          <g id="Grupo_1234691" data-name="Grupo 1234691">
            <g id="Grupo_1234690" data-name="Grupo 1234690" clip-path="url(#clip-path-5)">
              <g id="Grupo_1234683" data-name="Grupo 1234683" transform="translate(174.403 72.999)" opacity="0.8" style="mix-blend-mode: multiply;isolation: isolate">
                <g id="Grupo_1234682" data-name="Grupo 1234682">
                  <g id="Grupo_1234681" data-name="Grupo 1234681" clip-path="url(#clip-path-6)">
                    <path id="Trazado_1235919" data-name="Trazado 1235919" d="M440.729,183.831a13.139,13.139,0,1,1-13.14,13.14,13.155,13.155,0,0,1,13.14-13.14m0-8.352a21.492,21.492,0,1,0,21.491,21.492,21.492,21.492,0,0,0-21.491-21.492" transform="translate(-419.237 -175.479)" fill="#b4d3ef"/>
                  </g>
                </g>
              </g>
              <g id="Grupo_1234686" data-name="Grupo 1234686" transform="translate(195.895 72.999)" opacity="0.8" style="mix-blend-mode: multiply;isolation: isolate">
                <g id="Grupo_1234685" data-name="Grupo 1234685">
                  <g id="Grupo_1234684" data-name="Grupo 1234684" clip-path="url(#clip-path-7)">
                    <path id="Trazado_1235920" data-name="Trazado 1235920" d="M484.039,196.971a13.06,13.06,0,0,1-.173,2.026l8.269,1.292a21.5,21.5,0,0,0-21.236-24.81v8.352a13.154,13.154,0,0,1,13.139,13.139" transform="translate(-470.9 -175.479)" fill="#b4d3ef"/>
                  </g>
                </g>
              </g>
              <g id="Grupo_1234689" data-name="Grupo 1234689" transform="translate(225.431 72.566)" opacity="0.8" style="mix-blend-mode: multiply;isolation: isolate">
                <g id="Grupo_1234688" data-name="Grupo 1234688">
                  <g id="Grupo_1234687" data-name="Grupo 1234687" clip-path="url(#clip-path-8)">
                    <rect id="Rectángulo_422745" data-name="Rectángulo 422745" width="5.21" height="5.21" transform="translate(0)" fill="#b4d3ef"/>
                    <rect id="Rectángulo_422746" data-name="Rectángulo 422746" width="5.21" height="5.21" transform="translate(0 9.551)" fill="#b4d3ef"/>
                    <rect id="Rectángulo_422747" data-name="Rectángulo 422747" width="5.21" height="5.21" transform="translate(0 19.103)" fill="#b4d3ef"/>
                    <rect id="Rectángulo_422748" data-name="Rectángulo 422748" width="5.21" height="5.21" transform="translate(0 28.655)" fill="#b4d3ef"/>
                    <rect id="Rectángulo_422749" data-name="Rectángulo 422749" width="5.21" height="5.211" transform="translate(0 38.206)" fill="#b4d3ef"/>
                  </g>
                </g>
              </g>
            </g>
          </g>
          <rect id="Rectángulo_422752" data-name="Rectángulo 422752" width="37.772" height="3.048" transform="translate(89.772 34.735)" fill="#c5e0fd"/>
          <rect id="Rectángulo_422753" data-name="Rectángulo 422753" width="35.903" height="3.048" transform="translate(89.772 40.155)" fill="#c5e0fd"/>
          <rect id="Rectángulo_422754" data-name="Rectángulo 422754" width="38.922" height="3.048" transform="translate(89.772 45.574)" fill="#c5e0fd"/>
          <rect id="Rectángulo_422755" data-name="Rectángulo 422755" width="35.903" height="3.048" transform="translate(89.772 50.994)" fill="#c5e0fd"/>
          <rect id="Rectángulo_422756" data-name="Rectángulo 422756" width="32.34" height="3.048" transform="translate(89.772 56.414)" fill="#c5e0fd"/>
          <g id="Grupo_1234738" data-name="Grupo 1234738">
            <g id="Grupo_1234737" data-name="Grupo 1234737" clip-path="url(#clip-path-5)">
              <g id="Grupo_1234694" data-name="Grupo 1234694" transform="translate(89.772 62.776)" opacity="0.5" style="mix-blend-mode: multiply;isolation: isolate">
                <g id="Grupo_1234693" data-name="Grupo 1234693">
                  <g id="Grupo_1234692" data-name="Grupo 1234692" clip-path="url(#clip-path-10)">
                    <path id="Trazado_1235921" data-name="Trazado 1235921" d="M268.227,204.111H215.8v-51.95a1.257,1.257,0,1,1,2.514,0V201.6h49.916a1.257,1.257,0,1,1,0,2.513" transform="translate(-215.798 -150.904)" fill="#b4d3ef"/>
                  </g>
                </g>
              </g>
              <g id="Grupo_1234697" data-name="Grupo 1234697" transform="translate(95.951 88.686)" opacity="0.8" style="mix-blend-mode: multiply;isolation: isolate">
                <g id="Grupo_1234696" data-name="Grupo 1234696">
                  <g id="Grupo_1234695" data-name="Grupo 1234695" clip-path="url(#clip-path-11)">
                    <rect id="Rectángulo_422758" data-name="Rectángulo 422758" width="5.244" height="23.361" fill="#b4d3ef"/>
                  </g>
                </g>
              </g>
              <g id="Grupo_1234700" data-name="Grupo 1234700" transform="translate(107.057 76.108)" opacity="0.8" style="mix-blend-mode: multiply;isolation: isolate">
                <g id="Grupo_1234699" data-name="Grupo 1234699">
                  <g id="Grupo_1234698" data-name="Grupo 1234698" clip-path="url(#clip-path-12)">
                    <rect id="Rectángulo_422760" data-name="Rectángulo 422760" width="5.244" height="35.939" fill="#b4d3ef"/>
                  </g>
                </g>
              </g>
              <g id="Grupo_1234703" data-name="Grupo 1234703" transform="translate(118.162 83.654)" opacity="0.8" style="mix-blend-mode: multiply;isolation: isolate">
                <g id="Grupo_1234702" data-name="Grupo 1234702">
                  <g id="Grupo_1234701" data-name="Grupo 1234701" clip-path="url(#clip-path-13)">
                    <rect id="Rectángulo_422762" data-name="Rectángulo 422762" width="5.244" height="28.393" fill="#b4d3ef"/>
                  </g>
                </g>
              </g>
              <g id="Grupo_1234706" data-name="Grupo 1234706" transform="translate(129.268 71.029)" opacity="0.8" style="mix-blend-mode: multiply;isolation: isolate">
                <g id="Grupo_1234705" data-name="Grupo 1234705">
                  <g id="Grupo_1234704" data-name="Grupo 1234704" clip-path="url(#clip-path-14)">
                    <rect id="Rectángulo_422764" data-name="Rectángulo 422764" width="5.243" height="41.018" transform="translate(0)" fill="#b4d3ef"/>
                  </g>
                </g>
              </g>
              <g id="Grupo_1234709" data-name="Grupo 1234709" transform="translate(171.279 26.786)" opacity="0.8" style="mix-blend-mode: multiply;isolation: isolate">
                <g id="Grupo_1234708" data-name="Grupo 1234708">
                  <g id="Grupo_1234707" data-name="Grupo 1234707" clip-path="url(#clip-path-15)">
                    <path id="Trazado_1235922" data-name="Trazado 1235922" d="M468.844,97.066H411.725v-31.9a.772.772,0,0,1,1.544,0v30.36h55.575a.772.772,0,0,1,0,1.544" transform="translate(-411.725 -64.39)" fill="#b4d3ef"/>
                  </g>
                </g>
              </g>
              <g id="Grupo_1234712" data-name="Grupo 1234712" transform="translate(173.378 24.458)" opacity="0.8" style="mix-blend-mode: multiply;isolation: isolate">
                <g id="Grupo_1234711" data-name="Grupo 1234711">
                  <g id="Grupo_1234710" data-name="Grupo 1234710" clip-path="url(#clip-path-16)">
                    <path id="Trazado_1235923" data-name="Trazado 1235923" d="M417.159,91.139a.386.386,0,0,1-.259-.671l13.48-12.243,4.053,3.218,3.982-6.155,3.552,2.2,7.146-8.993,4.964,6.825,6.98-3.489,3.188,2.715,14.079-15.63a.386.386,0,1,1,.573.516L464.315,75.624l-3.37-2.871-7.108,3.554-4.751-6.533-6.942,8.737-3.491-2.167-4.034,6.233-4.205-3.34-12.994,11.8a.385.385,0,0,1-.26.1" transform="translate(-416.774 -58.792)" fill="#b4d3ef"/>
                  </g>
                </g>
              </g>
              <g id="Grupo_1234715" data-name="Grupo 1234715" transform="translate(232.758 23.364)" opacity="0.8" style="mix-blend-mode: multiply;isolation: isolate">
                <g id="Grupo_1234714" data-name="Grupo 1234714">
                  <g id="Grupo_1234713" data-name="Grupo 1234713" clip-path="url(#clip-path-17)">
                    <path id="Trazado_1235924" data-name="Trazado 1235924" d="M559.9,57.422a.386.386,0,0,1-.059-.767L563,56.169a.386.386,0,1,1,.117.763l-3.157.485a.423.423,0,0,1-.06,0" transform="translate(-559.511 -56.164)" fill="#b4d3ef"/>
                  </g>
                </g>
              </g>
              <g id="Grupo_1234718" data-name="Grupo 1234718" transform="translate(235.429 23.364)" opacity="0.8" style="mix-blend-mode: multiply;isolation: isolate">
                <g id="Grupo_1234717" data-name="Grupo 1234717">
                  <g id="Grupo_1234716" data-name="Grupo 1234716" clip-path="url(#clip-path-18)">
                    <path id="Trazado_1235925" data-name="Trazado 1235925" d="M566.32,60.093a.4.4,0,0,1-.06,0,.386.386,0,0,1-.323-.44l.486-3.158a.386.386,0,1,1,.763.118l-.486,3.157a.386.386,0,0,1-.381.327" transform="translate(-565.933 -56.164)" fill="#b4d3ef"/>
                  </g>
                </g>
              </g>
              <g id="Grupo_1234721" data-name="Grupo 1234721" transform="translate(173.655 30.413)" opacity="0.7">
                <g id="Grupo_1234720" data-name="Grupo 1234720">
                  <g id="Grupo_1234719" data-name="Grupo 1234719" clip-path="url(#clip-path-19)">
                    <path id="Trazado_1235926" data-name="Trazado 1235926" d="M417.825,95.8a.391.391,0,0,1-.16-.035.386.386,0,0,1-.191-.511,16.607,16.607,0,0,1,1.186-2.068.386.386,0,1,1,.644.425,16.146,16.146,0,0,0-1.127,1.962.387.387,0,0,1-.352.226m2.536-3.878a.386.386,0,0,1-.3-.632,19.717,19.717,0,0,1,1.614-1.725.386.386,0,1,1,.531.561,18.9,18.9,0,0,0-1.551,1.657.384.384,0,0,1-.3.139m3.371-3.162a.386.386,0,0,1-.224-.7,15.163,15.163,0,0,1,2.036-1.221.386.386,0,1,1,.343.692,14.313,14.313,0,0,0-1.931,1.159.382.382,0,0,1-.224.071m19.387-.819a10.961,10.961,0,0,1-1.644-.126.386.386,0,0,1,.115-.764,9.85,9.85,0,0,0,2.224.094.4.4,0,0,1,.411.359.386.386,0,0,1-.359.411c-.257.017-.505.025-.746.025m3-.387a.386.386,0,0,1-.09-.761c.671-.161,1.4-.379,2.181-.649a.386.386,0,0,1,.253.729,23.343,23.343,0,0,1-2.254.671.4.4,0,0,1-.09.01m-6.847-.239a.413.413,0,0,1-.1-.013l-.248-.066c-.612-.163-1.258-.336-1.978-.493a.386.386,0,0,1,.164-.755c.732.16,1.39.335,2.013.5l.247.066a.386.386,0,0,1-.1.759m-11.409-.588a.386.386,0,0,1-.109-.756,13.342,13.342,0,0,1,2.335-.462.386.386,0,1,1,.081.768,12.567,12.567,0,0,0-2.2.436.391.391,0,0,1-.109.015m6.887-.356-.045,0c-.739-.085-1.481-.136-2.273-.156a.386.386,0,0,1,.01-.772h.01c.815.02,1.582.073,2.343.161a.386.386,0,0,1-.044.769m15.747-.31a.386.386,0,0,1-.15-.742c.705-.3,1.4-.618,2.078-.956a.386.386,0,1,1,.347.69c-.69.347-1.4.676-2.125.978a.392.392,0,0,1-.151.03m4.136-2.07a.386.386,0,0,1-.194-.719c.637-.371,1.275-.767,1.948-1.21a.386.386,0,1,1,.423.645c-.684.45-1.333.853-1.983,1.232a.388.388,0,0,1-.195.052m3.877-2.525a.386.386,0,0,1-.222-.7l.755-.533c.386-.272.765-.54,1.139-.8a.386.386,0,1,1,.44.634c-.373.259-.749.525-1.133.8l-.758.534a.383.383,0,0,1-.221.07m3.824-2.6a.386.386,0,0,1-.2-.715,20.052,20.052,0,0,1,2.074-1.119.386.386,0,0,1,.323.7,19.286,19.286,0,0,0-1.994,1.077.38.38,0,0,1-.2.057m4.2-1.9a.386.386,0,0,1-.1-.758,14.354,14.354,0,0,1,2.329-.447.386.386,0,0,1,.084.768,13.61,13.61,0,0,0-2.206.423.373.373,0,0,1-.1.015m4.636-.527a.412.412,0,0,1-.415-.386.362.362,0,0,1,.357-.386h.058c.747,0,1.5-.03,2.223-.087a.391.391,0,0,1,.416.354.385.385,0,0,1-.354.415c-.749.06-1.518.09-2.285.09m4.551-.374a.386.386,0,0,1-.064-.766c.757-.129,1.506-.292,2.225-.487a.386.386,0,0,1,.2.745c-.743.2-1.516.371-2.3.5a.447.447,0,0,1-.066,0m4.461-1.216a.386.386,0,0,1-.141-.745,18.134,18.134,0,0,0,2.058-.947.386.386,0,1,1,.368.678,19,19,0,0,1-2.146.988.382.382,0,0,1-.14.026" transform="translate(-417.439 -73.107)" fill="#3e88c7"/>
                  </g>
                </g>
              </g>
              <path id="Trazado_1235927" data-name="Trazado 1235927" d="M145.753,295.5s-34.479.895-37.1-2.447-15.121-47.922-13.3-53.655c3.469-10.948,12.327-6.045,15.278,1.541,3.535,9.083,9.266,42.9,10.093,43.567s25.605,10.026,25.605,10.026,1.334,1.308-.568.968" transform="translate(-55.576 -136.082)" fill="#d87d91"/>
              <path id="Trazado_1235928" data-name="Trazado 1235928" d="M47.549,294.184H88.236s-.407-19.061-1.8-32.73c-1.668-16.343-6.683-29.126-13.44-29.877-10.475-1.164-25.446.3-25.446,9.609Z" transform="translate(-27.769 -135.04)" fill="#3a8ac5"/>
              <path id="Trazado_1235929" data-name="Trazado 1235929" d="M58.4,233.015c-6.06,1.189-10.855,3.943-10.855,9.21v53H76.576a32.82,32.82,0,0,1-7.857-14.7c-4.44-15.818-6.065-31.893-10.315-47.513" transform="translate(-27.769 -136.08)" fill="#306eb2"/>
              <path id="Trazado_1235930" data-name="Trazado 1235930" d="M181.255,381.022a1.133,1.133,0,1,0,0-2.266H135.821a1.133,1.133,0,0,0,0,2.266Z" transform="translate(-78.658 -221.193)" fill="#3e88c7"/>
              <path id="Trazado_1235931" data-name="Trazado 1235931" d="M246.126,318.456a1.133,1.133,0,0,1-2.192-.573l11.49-43.956a1.133,1.133,0,0,1,2.192.573Z" transform="translate(-142.435 -159.479)" fill="#3e88c7"/>
              <path id="Trazado_1235932" data-name="Trazado 1235932" d="M38.031,249c-1.817,5.732-3.237,48.341-.612,51.682s37.661.944,37.661.944c2.984,2.614,5.409,1.072,5.409,1.072s4.459,2.145,6.756-.368a3.691,3.691,0,0,0,.382-4.873c2.6.324,4.282,3.314,6.275,2.193s-4.434-5.677-9-6.43c-5.815-.96-8.449,2.1-8.449,2.1s-25.587-4.025-26.414-4.692,2.491-30.106,2.341-39.861C52.257,242.637,41.5,238.057,38.031,249" transform="translate(-21.011 -141.644)" fill="#f4a2a8"/>
              <path id="Trazado_1235933" data-name="Trazado 1235933" d="M151.233,373.772a.168.168,0,0,1,.191-.143,5.106,5.106,0,0,1,4.108,4.021.168.168,0,0,1-.136.2l-.012,0a.169.169,0,0,1-.184-.138,4.683,4.683,0,0,0-3.825-3.748.169.169,0,0,1-.142-.192" transform="translate(-88.319 -218.198)" fill="#d87d91"/>
              <path id="Trazado_1235934" data-name="Trazado 1235934" d="M147.461,379.357a.171.171,0,0,1,.194-.139,4.326,4.326,0,0,1,3.795,3.717.168.168,0,0,1-.151.181h-.005a.169.169,0,0,1-.181-.156,3.981,3.981,0,0,0-3.513-3.41.169.169,0,0,1-.139-.2" transform="translate(-86.116 -221.462)" fill="#d87d91"/>
              <path id="Trazado_1235935" data-name="Trazado 1235935" d="M78.9,184.349l.537,20s3.91,5.555,11.981,3.9V193.687Z" transform="translate(-46.078 -107.66)" fill="#f4a2a8"/>
              <path id="Trazado_1235936" data-name="Trazado 1235936" d="M91.418,200.823v-7.137L78.9,184.349l.2,7.543a21.4,21.4,0,0,0,12.316,8.932" transform="translate(-46.078 -107.66)" fill="#d87d91"/>
              <path id="Trazado_1235937" data-name="Trazado 1235937" d="M80.414,168.361s9.454,8.354,18.692.818c7.634-6.228,2.3-26.229-1.416-27.033-5.976-1.292-17.276,1-17.276,1Z" transform="translate(-46.962 -82.783)" fill="#f4a2a8"/>
              <path id="Trazado_1235938" data-name="Trazado 1235938" d="M125.809,177.889c-.112-.982-1.231-.924-1.973-.672-1.337-1.343-1.171-3.608-1.117-5.359.009-.291-.441-.29-.451,0-.059,1.883-.188,4.253,1.262,5.692h0a.246.246,0,0,0,.322.134c.49-.211,1.519-.413,1.515.386,0,.708-1.128,1.325-1.728,1.387-.286.03-.289.48,0,.451.924-.1,2.292-.947,2.169-2.02" transform="translate(-71.386 -100.238)" fill="#d87d91"/>
              <path id="Trazado_1235939" data-name="Trazado 1235939" d="M112.847,192.108a3.4,3.4,0,0,0,4.422,3.308.225.225,0,0,0-.119-.434,2.946,2.946,0,0,1-3.852-2.873c-.02-.288-.47-.29-.451,0" transform="translate(-65.902 -112.064)" fill="#ea4a76"/>
              <path id="Trazado_1235940" data-name="Trazado 1235940" d="M109.108,166.589c-.85-.022-1.373.741-1.74,1.407-.14.255.249.482.389.228.284-.517.678-1.2,1.351-1.184a.225.225,0,0,0,0-.451" transform="translate(-62.685 -97.288)" fill="#d6842b"/>
              <path id="Trazado_1235941" data-name="Trazado 1235941" d="M126.982,164.881a1.113,1.113,0,0,1,1.27.871c.03.286.48.289.451,0a1.549,1.549,0,0,0-1.721-1.322c-.289.014-.29.464,0,.451" transform="translate(-74.03 -96.026)" fill="#d6842b"/>
              <g id="Grupo_1234724" data-name="Grupo 1234724" transform="translate(40.99 75.564)" opacity="0.6" style="mix-blend-mode: multiply;isolation: isolate">
                <g id="Grupo_1234723" data-name="Grupo 1234723">
                  <g id="Grupo_1234722" data-name="Grupo 1234722" clip-path="url(#clip-path-20)">
                    <path id="Trazado_1235942" data-name="Trazado 1235942" d="M102.769,183.585a2.126,2.126,0,1,1-2.118-1.941,2.035,2.035,0,0,1,2.118,1.941" transform="translate(-98.532 -181.644)" fill="#e54b6d"/>
                  </g>
                </g>
              </g>
              <path id="Trazado_1235943" data-name="Trazado 1235943" d="M110.7,177.861c0,.808.423,1.463.943,1.463s.943-.655.943-1.463-.423-1.463-.943-1.463-.943.655-.943,1.463" transform="translate(-64.648 -103.016)" fill="#231323"/>
              <path id="Trazado_1235944" data-name="Trazado 1235944" d="M128.441,177.676c0,.682.357,1.235.8,1.235s.8-.553.8-1.235-.357-1.235-.8-1.235-.8.553-.8,1.235" transform="translate(-75.009 -103.041)" fill="#231323"/>
              <path id="Trazado_1235945" data-name="Trazado 1235945" d="M62.5,132.5s-4.96,12.912-13.359,17.116a49.04,49.04,0,0,0,.677,7.374c.545,2.032,8.021,10.641-1.888,16.647-10.768,6.526-27.645-6.319-18.391-18.317,10.509-13.627,5.1-13.679,8.254-21.924,4.357-11.406,21.848-11.481,26.177-4.275a5.976,5.976,0,0,1,7.086,3.378c2.172,4.8.292,10.649.292,10.649S69.393,132.727,62.5,132.5" transform="translate(-15.689 -72.524)" fill="#ffd67e"/>
              <path id="Trazado_1235946" data-name="Trazado 1235946" d="M88.343,136.045A29.612,29.612,0,0,1,83,147.688a30.408,30.408,0,0,1-4.2,4.853,25.919,25.919,0,0,1-5.518,3.639c-.258.134-.03.522.228.389a29.965,29.965,0,0,0,5.045-3.227,27.054,27.054,0,0,0,4.369-4.792,29.949,29.949,0,0,0,5.853-12.384c.054-.284-.381-.405-.434-.12" transform="translate(-42.731 -79.355)" fill="#feb96c"/>
              <path id="Trazado_1235947" data-name="Trazado 1235947" d="M82.673,132.329c.255-.139.027-.528-.228-.389-7.766,4.219-10.711,13.813-11.964,21.979-.044.284.39.406.434.12,1.236-8.053,4.095-17.548,11.757-21.71" transform="translate(-41.159 -77.035)" fill="#feb96c"/>
              <path id="Trazado_1235948" data-name="Trazado 1235948" d="M63.145,194.238A15.768,15.768,0,0,0,58,204.747c-.223,2.753.168,7.172,2.941,8.612.257.134.485-.255.227-.389-2.652-1.377-2.864-5.614-2.717-8.223a15.074,15.074,0,0,1,5.015-10.19c.218-.193-.1-.51-.318-.319" transform="translate(-33.84 -113.4)" fill="#feb96c"/>
              <path id="Trazado_1235949" data-name="Trazado 1235949" d="M73.778,198.6a31.324,31.324,0,0,1,1,7.757c-.041,2.269-.547,5.11-2.07,6.887-.188.22.129.54.318.319,1.473-1.72,1.962-4.19,2.159-6.384a27.625,27.625,0,0,0-.975-8.7c-.067-.282-.5-.163-.434.12" transform="translate(-42.429 -115.82)" fill="#feb96c"/>
              <path id="Trazado_1235950" data-name="Trazado 1235950" d="M41.577,151.905c.113-.264-.275-.494-.389-.228-1.743,4.076-.8,8.8-2.918,12.742-1.114,2.068-2.65,3.924-3.833,5.961a24.619,24.619,0,0,0-2.58,6.273.225.225,0,0,0,.434.12,25.4,25.4,0,0,1,2.717-6.479c1.126-1.941,2.509-3.719,3.65-5.648,2.274-3.84,1.191-8.7,2.918-12.742" transform="translate(-18.6 -88.511)" fill="#feb96c"/>
              <path id="Trazado_1235951" data-name="Trazado 1235951" d="M46.459,155.994c1-1.475,2.346-2.667,3.142-4.282a14.3,14.3,0,0,0,.881-5.154,23.806,23.806,0,0,1,1.177-6.665,21.624,21.624,0,0,1,6.851-8.852c.224-.186-.1-.5-.318-.318a22.424,22.424,0,0,0-6.711,8.413,20.046,20.046,0,0,0-1.36,6.173c-.189,2.356-.1,4.954-1.382,7.028-1.028,1.667-2.466,3.051-3.512,4.723a21.644,21.644,0,0,0-2.571,5.776c-1.122,4.121.306,7.545,2.589,10.948.161.24.551.015.389-.227a18.973,18.973,0,0,1-2.648-5.163,11.139,11.139,0,0,1,.441-6.564,23.493,23.493,0,0,1,3.033-5.836" transform="translate(-24.683 -76.31)" fill="#feb96c"/>
              <path id="Trazado_1235952" data-name="Trazado 1235952" d="M117.542,140.423c-.257-.135-.484.254-.227.389a10.614,10.614,0,0,1,5.9,7.447c.053.285.488.164.434-.119a11.04,11.04,0,0,0-6.109-7.717" transform="translate(-68.446 -81.99)" fill="#feb96c"/>
              <path id="Trazado_1235953" data-name="Trazado 1235953" d="M122.428,137.764c1.7.411,3.445,1.756,3.588,3.611.022.288.473.29.451,0a4.907,4.907,0,0,0-3.919-4.045c-.282-.069-.4.366-.12.434" transform="translate(-71.403 -80.196)" fill="#feb96c"/>
              <path id="Trazado_1235954" data-name="Trazado 1235954" d="M70.425,184.177s-3.587-3.5-6.924-.612-.3,10.046,6.924,6.452Z" transform="translate(-36.295 -106.535)" fill="#f4a2a8"/>
              <path id="Trazado_1235955" data-name="Trazado 1235955" d="M72.417,189.946a3.465,3.465,0,0,0-2.9-.789c-.287.025-.29.475,0,.451a3.193,3.193,0,0,1,2.58.657,3.255,3.255,0,0,1,.684.919,1.443,1.443,0,0,0-1.288,1.449,1.4,1.4,0,0,0,1.945.82c.126.141.411.1.391-.132a5.6,5.6,0,0,0-1.414-3.373m-.453,2.714c-.165-.408.561-1.238.98-.99a.218.218,0,0,0,.071.025A6.1,6.1,0,0,1,73.342,193a1.013,1.013,0,0,1-1.378-.341" transform="translate(-40.472 -110.451)" fill="#d87d91"/>
              <path id="Trazado_1235956" data-name="Trazado 1235956" d="M340.006,139.261s1.947-5.361,10.61-5.684c6.525-.243,16.869,6.639,17.988,19.173s7.591,39.889,4.146,45.565-37.9,7.469-40.721,1.522-.568-21.684.561-30.24-1.014-32.552,7.416-30.337" transform="translate(-193.109 -78.005)" fill="#6a3770"/>
              <path id="Trazado_1235957" data-name="Trazado 1235957" d="M360.8,146.969c2.419,2.992,5.686,4.972,9.016,6.8a50.868,50.868,0,0,0,11.29,4.824c.28.075.178.514-.1.438a52.765,52.765,0,0,1-11.725-5.044,28.647,28.647,0,0,1-8.858-6.777c-.183-.226.2-.465.38-.242" transform="translate(-210.456 -85.778)" fill="#492846"/>
              <path id="Trazado_1235958" data-name="Trazado 1235958" d="M384.5,148.528a14.659,14.659,0,0,0-6.022-7c-2.826-1.6-6.127-2.916-9.428-2.66-.29.022-.306-.428-.017-.45,3.513-.273,6.959,1.184,9.955,2.881a14.907,14.907,0,0,1,5.941,7.1c.118.266-.314.4-.429.136" transform="translate(-215.392 -80.815)" fill="#492846"/>
              <path id="Trazado_1235959" data-name="Trazado 1235959" d="M379.555,151.894c.206.2-.1.535-.307.33-3.285-3.233-7.005-6.382-11.652-7.295-.285-.056-.181-.494.1-.438,4.72.927,8.518,4.118,11.856,7.4" transform="translate(-214.577 -84.38)" fill="#492846"/>
              <path id="Trazado_1235960" data-name="Trazado 1235960" d="M416.832,179.664c.162,3.212-.354,6.4-.152,9.617a95.547,95.547,0,0,0,1.35,10.37c.537,3.09,1.437,6.107,1.964,9.2a31.539,31.539,0,0,1,.023,9.557c-.039.288-.477.183-.438-.1a31.3,31.3,0,0,0-.18-10.229c-.6-3.061-1.415-6.069-1.946-9.144-.525-3.048-.957-6.111-1.192-9.2-.257-3.365.291-6.693.121-10.053a.226.226,0,0,1,.451-.017" transform="translate(-243.055 -104.802)" fill="#492846"/>
              <path id="Trazado_1235961" data-name="Trazado 1235961" d="M411.577,221.948a106.543,106.543,0,0,1-1.17-14.922c0-.29.452-.307.451-.017a109.027,109.027,0,0,0,1.216,15.277c.562,4.2.962,8.661-.673,12.676-.108.27-.505.054-.4-.212,1.648-4.047,1.137-8.583.572-12.8" transform="translate(-239.676 -120.771)" fill="#492846"/>
              <path id="Trazado_1235962" data-name="Trazado 1235962" d="M402.794,220.7c-.049,5.839-.022,11.682.453,17.505.024.29-.427.305-.45.017-.475-5.824-.5-11.666-.453-17.506,0-.289.453-.307.45-.017" transform="translate(-234.959 -128.769)" fill="#492846"/>
              <path id="Trazado_1235963" data-name="Trazado 1235963" d="M357.1,220.636c-.183,7.186.462,14.349.8,21.52a.226.226,0,0,1-.451.016c-.342-7.17-.987-14.333-.8-21.519.007-.288.458-.307.451-.017" transform="translate(-208.265 -128.729)" fill="#492846"/>
              <path id="Trazado_1235964" data-name="Trazado 1235964" d="M348.551,204.931c.026-.285.476-.305.451-.017-.38,4.107-.989,8.167-1.014,12.3-.027,4.414.248,8.824.357,13.234a.225.225,0,0,1-.45.018c-.105-4.266-.349-8.527-.358-12.795-.009-4.286.621-8.484,1.015-12.741" transform="translate(-202.961 -119.549)" fill="#492846"/>
              <path id="Trazado_1235965" data-name="Trazado 1235965" d="M340.474,164.676a22.2,22.2,0,0,0,3.854-11.867c.015-.288.464-.307.45-.017a22.709,22.709,0,0,1-3.974,12.19c-.168.236-.5-.074-.33-.307" transform="translate(-198.81 -89.109)" fill="#492846"/>
              <path id="Trazado_1235966" data-name="Trazado 1235966" d="M337.074,207.366a107.886,107.886,0,0,0,.835-16.284c0-.29.45-.307.45-.017-.01,4.91.143,9.838-.585,14.711-.823,5.5-1.911,11.106-.6,16.625.067.281-.362.418-.43.136-1.194-5.032-.438-10.138.332-15.172" transform="translate(-196.293 -111.46)" fill="#492846"/>
              <path id="Trazado_1235967" data-name="Trazado 1235967" d="M340.815,161.145c.02.29-.43.306-.45.017a15.838,15.838,0,0,1,2.022-9.588c.148-.248.547-.038.4.213a15.41,15.41,0,0,0-1.969,9.358" transform="translate(-198.74 -88.454)" fill="#492846"/>
              <path id="Trazado_1235968" data-name="Trazado 1235968" d="M370.768,296.243s.9-49.609-5.146-58.458a39.823,39.823,0,0,0-29.611,0c-6.048,8.849-5.146,58.458-5.146,58.458Z" transform="translate(-193.197 -137.199)" fill="#fed579"/>
              <path id="Trazado_1235969" data-name="Trazado 1235969" d="M310.46,241.624c-1.32-1.823-18.048,17.469-21.93,30.713s.343,24.433,8.107,27.744a24.255,24.255,0,0,0,14.725,1.37s-.323-59.029-.9-59.828" transform="translate(-167.646 -141.038)" fill="#fed579"/>
              <path id="Trazado_1235970" data-name="Trazado 1235970" d="M412.77,241.624c1.321-1.823,18.049,17.469,21.93,30.713s-.343,24.433-8.107,27.744a24.255,24.255,0,0,1-14.725,1.37s.323-59.029.9-59.828" transform="translate(-240.53 -141.038)" fill="#fed579"/>
              <path id="Rectángulo_422772" data-name="Rectángulo 422772" d="M10.827,0H51.585A10.827,10.827,0,0,1,62.412,10.827V37.585A10.827,10.827,0,0,1,51.585,48.412H10.828A10.828,10.828,0,0,1,0,37.584V10.827A10.827,10.827,0,0,1,10.827,0Z" transform="translate(124.452 115.952)" fill="#3e88c7"/>
              <path id="Trazado_1235971" data-name="Trazado 1235971" d="M372.422,330.813a4.348,4.348,0,1,1-4.348-4.348,4.349,4.349,0,0,1,4.348,4.348" transform="translate(-212.415 -190.655)" fill="#f7fbfc"/>
              <path id="Trazado_1235972" data-name="Trazado 1235972" d="M363.851,213.249l.73,11.988s2.695,4.224,6.409,4.224,6.409-4.224,6.409-4.224l.73-11.988Z" transform="translate(-212.489 -124.537)" fill="#f4a2a8"/>
              <path id="Trazado_1235973" data-name="Trazado 1235973" d="M364.182,218.685l-.331-5.435H378.13l-.323,5.318c-4.509,2.195-9.174,2.424-13.625.117" transform="translate(-212.489 -124.538)" fill="#d87d91"/>
              <path id="Trazado_1235974" data-name="Trazado 1235974" d="M405.353,187.25s3.256-3.56,6.623-.968.837,9.642-6.3,6.583Z" transform="translate(-236.726 -108.236)" fill="#f4a2a8"/>
              <path id="Trazado_1235975" data-name="Trazado 1235975" d="M408.906,195.823c-.007.234.28.258.4.109a1.4,1.4,0,0,0,1.9-.93,1.443,1.443,0,0,0-1.369-1.372,3.261,3.261,0,0,1,.631-.956,3.2,3.2,0,0,1,2.539-.8c.29.009.262-.441-.026-.45a3.466,3.466,0,0,0-2.848.953,5.6,5.6,0,0,0-1.219,3.449m.47-.346a6.091,6.091,0,0,1,.253-1.323.211.211,0,0,0,.069-.028c.4-.272,1.176.515,1.035.932a1.013,1.013,0,0,1-1.357.419" transform="translate(-238.8 -111.788)" fill="#d87d91"/>
              <path id="Trazado_1235976" data-name="Trazado 1235976" d="M342.092,194.759s-4-2.7-6.666.613,1.449,9.569,7.672,4.92Z" transform="translate(-195.407 -113.134)" fill="#f4a2a8"/>
              <path id="Trazado_1235977" data-name="Trazado 1235977" d="M342.748,200.751a3.463,3.463,0,0,0-2.992-.258c-.278.076-.2.52.08.443a3.2,3.2,0,0,1,2.657.185,3.28,3.28,0,0,1,.838.782,1.443,1.443,0,0,0-1.009,1.656,1.4,1.4,0,0,0,2.061.458c.148.116.422.026.36-.2a5.589,5.589,0,0,0-1.994-3.066m.04,2.751c-.235-.372.33-1.318.788-1.149a.206.206,0,0,0,.073.012,6.04,6.04,0,0,1,.557,1.227,1.014,1.014,0,0,1-1.418-.089" transform="translate(-198.316 -116.963)" fill="#d87d91"/>
              <path id="Trazado_1235978" data-name="Trazado 1235978" d="M344.911,166.975c1.178,9.9,8.262,17.2,15.82,16.3s12.732-9.657,11.554-19.56c0,0-19.332-3.193-24.195-11.126a44.169,44.169,0,0,1-3.18,14.383" transform="translate(-201.428 -89.114)" fill="#f4a2a8"/>
              <path id="Trazado_1235979" data-name="Trazado 1235979" d="M386.051,192.542c.6-.091,1.689-.763,1.659-1.468-.034-.8-1.052-.547-1.532-.313a.245.245,0,0,1-.328-.119h0c-1.518-1.367-1.5-3.74-1.535-5.624-.005-.29.445-.312.449-.022.03,1.751-.025,4.021,1.374,5.3.729-.287,1.844-.4,2,.576.173,1.066-1.151,1.981-2.07,2.122-.287.043-.306-.406-.022-.45" transform="translate(-224.439 -107.916)" fill="#d87d91"/>
              <g id="Grupo_1234727" data-name="Grupo 1234727" transform="translate(148.168 81.944)" opacity="0.6" style="mix-blend-mode: multiply;isolation: isolate">
                <g id="Grupo_1234726" data-name="Grupo 1234726">
                  <g id="Grupo_1234725" data-name="Grupo 1234725" clip-path="url(#clip-path-21)">
                    <path id="Trazado_1235980" data-name="Trazado 1235980" d="M361.081,199.991c-.4.98-1.8,1.334-3.125.791s-2.076-1.777-1.675-2.757,1.8-1.333,3.128-.79,2.074,1.777,1.673,2.756" transform="translate(-356.173 -196.98)" fill="#e54b6d"/>
                  </g>
                </g>
              </g>
              <g id="Grupo_1234730" data-name="Grupo 1234730" transform="translate(166.618 78.471)" opacity="0.6" style="mix-blend-mode: multiply;isolation: isolate">
                <g id="Grupo_1234729" data-name="Grupo 1234729">
                  <g id="Grupo_1234728" data-name="Grupo 1234728" clip-path="url(#clip-path-22)">
                    <path id="Trazado_1235981" data-name="Trazado 1235981" d="M401.027,192.553a2.457,2.457,0,1,0,.171-2.915,2.112,2.112,0,0,0-.171,2.915" transform="translate(-400.522 -188.631)" fill="#e54b6d"/>
                  </g>
                </g>
              </g>
              <path id="Trazado_1235982" data-name="Trazado 1235982" d="M381.662,212.123a5.677,5.677,0,0,1-6.842-.675c-.218-.193.085-.525.3-.333a5.217,5.217,0,0,0,6.294.63.225.225,0,0,1,.245.378" transform="translate(-218.851 -123.257)" fill="#ea4a76"/>
              <path id="Trazado_1235983" data-name="Trazado 1235983" d="M359.893,182.281a3.025,3.025,0,0,1,1.692-.857c.287-.036.29.415,0,.45a2.5,2.5,0,0,0-1.372.718c-.215.193-.541-.118-.325-.312" transform="translate(-210.136 -105.95)" fill="#492846"/>
              <path id="Trazado_1235984" data-name="Trazado 1235984" d="M396.9,177.289a3.023,3.023,0,0,0-1.892-.138c-.279.077-.107.494.17.417a2.51,2.51,0,0,1,1.543.134c.272.1.453-.317.179-.413" transform="translate(-230.603 -103.4)" fill="#492846"/>
              <path id="Trazado_1235985" data-name="Trazado 1235985" d="M365.083,190.576c.115.971.717,1.7,1.343,1.624s1.04-.923.924-1.894-.717-1.7-1.343-1.623-1.04.922-.924,1.893" transform="translate(-213.197 -110.187)" fill="#231323"/>
              <path id="Trazado_1235986" data-name="Trazado 1235986" d="M396.324,186.72c.1.871.643,1.523,1.2,1.456s.933-.827.829-1.7-.643-1.523-1.2-1.456-.932.827-.829,1.7" transform="translate(-231.443 -108.05)" fill="#231323"/>
              <g id="Grupo_1234733" data-name="Grupo 1234733" transform="translate(133.001 116.704)" opacity="0.8" style="mix-blend-mode: multiply;isolation: isolate">
                <g id="Grupo_1234732" data-name="Grupo 1234732">
                  <g id="Grupo_1234731" data-name="Grupo 1234731" clip-path="url(#clip-path-23)">
                    <path id="Trazado_1235987" data-name="Trazado 1235987" d="M319.714,328.2h49.359a4.5,4.5,0,0,0,4.5-4.5v-39.4a4.5,4.5,0,0,0-2.015-3.752c-10.025,21.826-29.611,38.114-51.848,47.66" transform="translate(-319.714 -280.538)" fill="#b4d3ef"/>
                  </g>
                </g>
              </g>
              <path id="Trazado_1235988" data-name="Trazado 1235988" d="M505.791,348.625c-2.26-5.424-6.024-10.114-8.284-15.538-.757-1.868-1.669-4.731-.05-6.568,1.374-1.365,3.567-1.32,5.249-.7a9.1,9.1,0,0,1,4.452,4.007c-.765-4.879-.412-10.834,4.432-13.6,5.2-2.975,6.571,4.329,6.25,7.909a29.894,29.894,0,0,1-1.716,7.5c2.033-1.042,4.747-2.856,7.168-2.1,2.143.686,2.571,3.123,2.237,5.06a10.192,10.192,0,0,1-4.353,6.208c-1.84,1.211-4.083,1.81-5.826,3.107-1.568,1.194-1.918,2.859-2.076,4.694Z" transform="translate(-289.988 -184.268)" fill="#1bb88d"/>
              <path id="Trazado_1235989" data-name="Trazado 1235989" d="M525.858,336.3a6.709,6.709,0,0,1-1.467.341,11.287,11.287,0,0,1,.614-1.781c.079-.231-.285-.329-.364-.1a11.44,11.44,0,0,0-.628,1.884l-.031.022a.151.151,0,0,0-.069.05,36.094,36.094,0,0,0-3.054,2.424,9.164,9.164,0,0,1,.079-2.473c.033-.238-.331-.341-.364-.1a9.283,9.283,0,0,0-.049,2.873,22.136,22.136,0,0,0-2.813,3.118,4.458,4.458,0,0,1-.7-2.461c-.027-.238-.4-.241-.377,0a4.823,4.823,0,0,0,.8,2.719.2.2,0,0,0-.025.154c-1.7,2.463-2.647,5.314-3.866,8.028q.017-4.1.288-8.206a18.794,18.794,0,0,0,1.389-2.51c.1-.218-.221-.41-.326-.19-.313.655-.638,1.3-1.011,1.924q.238-3.252.65-6.488a5.115,5.115,0,0,0,1.29-.947,15.165,15.165,0,0,0,1.718-1.718c.153-.186-.113-.455-.267-.266a12.45,12.45,0,0,1-1.258,1.315,7.946,7.946,0,0,1-1.427,1.181q.406-3.092.977-6.156c1.117-.051,2.158-1.169,2.969-1.815.191-.151-.078-.417-.266-.266-.7.56-1.658,1.59-2.63,1.7q.691-3.6,1.628-7.152a.189.189,0,0,0-.364-.1q-.956,3.594-1.65,7.258a10.465,10.465,0,0,1-2.249-3.067c-.128-.206-.455-.017-.325.19a10.624,10.624,0,0,0,2.418,3.232.163.163,0,0,0,.082.032q-.568,3.038-.966,6.108a6.872,6.872,0,0,1-2.184-2.919c-.087-.224-.453-.127-.364.1a7.324,7.324,0,0,0,2.491,3.25q-.444,3.5-.686,7.016a10.264,10.264,0,0,1-1.352-2.863c-.085-.226-.45-.128-.364.1a9.458,9.458,0,0,0,1.63,3.247.182.182,0,0,0,.052.037q-.262,4.039-.273,8.076c-1.673-3.121-3.211-6.311-4.763-9.494.43-.964.824-1.944,1.258-2.906.1-.22-.226-.412-.326-.19-.4.879-.761,1.771-1.149,2.654-.676-1.385-1.358-2.768-2.057-4.142a.168.168,0,0,0,.025-.039,24.063,24.063,0,0,0,.859-3.481c.055-.237-.309-.337-.364-.1a30.731,30.731,0,0,1-.749,3.176c-.661-1.292-1.335-2.576-2.041-3.845,0,0,0,0-.006-.007a13.653,13.653,0,0,1,.049-1.715.189.189,0,0,0-.378,0c-.009.517-.087,1.03-.057,1.545a4.433,4.433,0,0,0-1.426-.468c-.242-.028-.239.35,0,.377a4.143,4.143,0,0,1,1.351.472.184.184,0,0,0,.154.008c.7,1.265,1.376,2.546,2.035,3.833a4.4,4.4,0,0,1-2.224-.661c-.224-.093-.322.272-.1.364a4.24,4.24,0,0,0,2.5.648c.735,1.444,1.452,2.9,2.162,4.353a17.091,17.091,0,0,1-2.624-.89c-.228-.088-.325.277-.1.364a14.616,14.616,0,0,0,2.93.948c1.614,3.312,3.211,6.633,4.967,9.873a.173.173,0,0,0,.071.071c-.008.181.254.3.346.111,1.3-2.726,2.211-5.635,3.819-8.209.138-.221.289-.431.436-.644a23.448,23.448,0,0,0,3.886.116c.243-.008.244-.386,0-.378a23.659,23.659,0,0,1-3.655-.082,20.807,20.807,0,0,1,2.746-3.031.186.186,0,0,0,.05.01,21.419,21.419,0,0,0,3.3-.233c.24-.038.138-.4-.1-.364a19.766,19.766,0,0,1-2.842.214,36.608,36.608,0,0,1,2.955-2.329,5.822,5.822,0,0,0,1.84-.368c.232-.072.133-.436-.1-.364" transform="translate(-293.088 -187.564)" fill="#008e66"/>
              <path id="Trazado_1235990" data-name="Trazado 1235990" d="M524.315,393.562v16.326a3.773,3.773,0,0,1-3.773,3.773h-7.381a3.773,3.773,0,0,1-3.774-3.773V393.562Z" transform="translate(-297.482 -229.84)" fill="#6a3770"/>
              <path id="Trazado_1235991" data-name="Trazado 1235991" d="M523.821,392.492a1.692,1.692,0,0,1-1.692,1.693H508.845a1.692,1.692,0,0,1,0-3.385h13.283a1.692,1.692,0,0,1,1.692,1.692" transform="translate(-296.177 -228.227)" fill="#492846"/>
              <path id="Trazado_1235992" data-name="Trazado 1235992" d="M47.652,353.667a35.752,35.752,0,0,1-4.969-4.236c-.815-.9-3.177-3.258-2.526-4.724.9-2.362,6.354,1.14,7.576,1.955a23.745,23.745,0,0,1-2.036-4.073c-.326-1.059-2.118-4.725-1.14-5.865,1.466-1.629,5.62,4.724,6.354,5.865a28.061,28.061,0,0,1-2.118-11.567c.163-1.222.9-7.169,3.34-5.539,1.059.815,1.548,2.769,1.873,3.991a45.547,45.547,0,0,1,1.222,5.784,46.371,46.371,0,0,0,.9,5.865c.408-1.3,3.177-7.575,5.214-6.027,1.548,1.221-.651,6.516-1.059,8.145.733-1.222,4.969-5.865,6.272-2.932.977,2.281-2.77,5.865-4.155,7.332.733-.57,2.037-1.629,3.1-1.467,1.548.163.651,1.629.082,2.444a29.239,29.239,0,0,1-8.391,7.087Z" transform="translate(-23.386 -189.917)" fill="#1bb88d"/>
              <path id="Trazado_1235993" data-name="Trazado 1235993" d="M67.947,364.8a1.45,1.45,0,0,0-1.649-.726c.052-.126.095-.239.122-.322a2.955,2.955,0,0,0-.622-3.11,2.061,2.061,0,0,0-2.568-.128,20.36,20.36,0,0,0-1.393-3.537c-.456-.991-1.767-3.958-3.327-2.877-1.238.857-.409,3.464-.1,4.561a22.524,22.524,0,0,0,.89,2.687c-1.517-1.244-3.521-2.119-4.658-.59-.839,1.129.229,2.66.971,3.489.027.03.058.06.085.089-.244-.056-.487-.106-.728-.143-1.035-.162-3.155-.088-3.534,1.216-.607,2.082,3.821,3.475,5.218,3.916.286.09.407-.357.123-.447-1.57-.5-3.9-1.267-4.822-2.723-1.036-1.629,2.816-1.544,3.488-1.411a8.105,8.105,0,0,1,.913.241A9.09,9.09,0,0,0,59.34,366.8c.233.08.371-.227.225-.387a7.006,7.006,0,0,0-3.109-1.867c-1.055-.929-1.834-2.082-1.564-3.225.549-2.319,3.778.033,5.192,1.493a4.632,4.632,0,0,0,.619.75.232.232,0,0,0,.364-.28,6.464,6.464,0,0,0-.731-.95,15.334,15.334,0,0,1-1.107-2.627c-.507-1.406-1.114-3.183-.765-4.689.224-.964,1.079-.674,1.593-.126a8.937,8.937,0,0,1,1.38,2.32,16.672,16.672,0,0,1,1.414,3.7,4.846,4.846,0,0,0-.341,2.974.233.233,0,0,0,.431.116,4.38,4.38,0,0,0,.4-2.931,1.315,1.315,0,0,1,1.063-.485c2-.043,1.9,2.344,1.309,3.652a4.323,4.323,0,0,0-.4.181c-.3.153-1.544,1.1-.694,1.385.565.191,1.094-.539,1.44-1.212.108-.036.211-.068.3-.091,1.426-.383,1.385,1.338,1.132,2.174a5.558,5.558,0,0,1-4.42,3.74c-.293.035-.3.5,0,.463a5.6,5.6,0,0,0,3.855-2.268c.691-.934,1.709-2.61,1.025-3.813m-5.038-2.1a4.644,4.644,0,0,1,.055-.669,4.1,4.1,0,0,1-.055.669" transform="translate(-30.004 -206.66)" fill="#008e66"/>
              <path id="Trazado_1235994" data-name="Trazado 1235994" d="M68.946,394.294V410.62a3.774,3.774,0,0,1-3.774,3.773H57.791a3.774,3.774,0,0,1-3.773-3.773V394.294Z" transform="translate(-31.546 -230.267)" fill="#6a3770"/>
              <path id="Trazado_1235995" data-name="Trazado 1235995" d="M68.452,393.225a1.692,1.692,0,0,1-1.692,1.693H53.477a1.692,1.692,0,0,1,0-3.385H66.76a1.692,1.692,0,0,1,1.692,1.692" transform="translate(-30.242 -228.655)" fill="#492846"/>
              <path id="Trazado_1235996" data-name="Trazado 1235996" d="M644.785,337.791l-37.649-.555-2.63,19.16H644.98c.077-5.718.09-13.03-.2-18.6" transform="translate(-353.031 -196.945)" fill="#343e7c"/>
              <path id="Trazado_1235997" data-name="Trazado 1235997" d="M643.06,342.85c1.067-.4,2.125-.8,3.162-1.24-.036-1.331-.084-2.615-.145-3.818l-37.649-.555-1.709,12.455q7.956-.821,15.913-2.137a125.429,125.429,0,0,0,20.429-4.705" transform="translate(-354.323 -196.946)" fill="#21215e"/>
              <path id="Trazado_1235998" data-name="Trazado 1235998" d="M646.848,261.618H606.161s.407-19.062,1.8-32.73c1.668-16.343,6.567-23.542,13.326-27.437,9.132-5.262,25.56-2.14,25.56,7.169Z" transform="translate(-353.997 -116.158)" fill="#ef4979"/>
              <path id="Trazado_1235999" data-name="Trazado 1235999" d="M640.291,203.059c-6.3,21.327-16.995,41.419-33.952,54.918-.128,3.685-.178,6.07-.178,6.07h40.687v-53c0-3.934-2.679-6.463-6.557-7.988" transform="translate(-353.997 -118.586)" fill="#d13d6b"/>
              <path id="Trazado_1236000" data-name="Trazado 1236000" d="M662.053,151.953l-.946,19.982s-4.024,5.474-12.059,3.657l.3-14.56Z" transform="translate(-379.043 -88.74)" fill="#f4a2a8"/>
              <path id="Trazado_1236001" data-name="Trazado 1236001" d="M649.414,168.168l.147-7.135,12.706-9.078-.357,7.537a21.4,21.4,0,0,1-12.5,8.677" transform="translate(-379.257 -88.741)" fill="#d87d91"/>
              <path id="Trazado_1236002" data-name="Trazado 1236002" d="M646.953,135.56s-9.623,8.158-18.7.434c-7.5-6.383-1.762-26.27,1.969-27,6-1.17,17.252,1.359,17.252,1.359Z" transform="translate(-364.756 -63.473)" fill="#f4a2a8"/>
              <path id="Trazado_1236003" data-name="Trazado 1236003" d="M629.887,135.9c-7.5-6.383-1.761-26.27,1.969-27,.18-.035.365-.067.553-.095a16.85,16.85,0,0,0-2.19.26c-3.732.728-9.474,20.615-1.97,27a12.84,12.84,0,0,0,10.738,3.147,12.913,12.913,0,0,1-9.1-3.312" transform="translate(-364.756 -63.542)" fill="#ffb8c2"/>
              <path id="Trazado_1236004" data-name="Trazado 1236004" d="M630.471,146.139c-.6-.075-1.711-.715-1.7-1.422.012-.8,1.037-.577,1.523-.355a.245.245,0,0,0,.325-.128h0c1.48-1.409,1.4-3.78,1.379-5.665,0-.29-.453-.3-.45-.009.019,1.752.138,4.019-1.227,5.335-.736-.267-1.853-.348-1.987.631-.144,1.07,1.206,1.949,2.127,2.064.288.036.294-.415.01-.451" transform="translate(-366.94 -80.794)" fill="#d87d91"/>
              <path id="Trazado_1236005" data-name="Trazado 1236005" d="M647.678,133.527c.851,0,1.357.769,1.71,1.443.135.258-.258.476-.393.219-.273-.522-.654-1.216-1.326-1.212a.225.225,0,0,1,.009-.45" transform="translate(-378.113 -77.98)" fill="#492846"/>
              <path id="Trazado_1236006" data-name="Trazado 1236006" d="M629.878,131.492a1.114,1.114,0,0,0-1.288.845c-.035.285-.485.279-.45-.009a1.548,1.548,0,0,1,1.748-1.286c.288.02.28.47-.01.45" transform="translate(-366.832 -76.526)" fill="#492846"/>
              <g id="Grupo_1234736" data-name="Grupo 1234736" transform="translate(270.593 61.876)" opacity="0.6" style="mix-blend-mode: multiply;isolation: isolate">
                <g id="Grupo_1234735" data-name="Grupo 1234735">
                  <g id="Grupo_1234734" data-name="Grupo 1234734" clip-path="url(#clip-path-24)">
                    <path id="Trazado_1236007" data-name="Trazado 1236007" d="M650.461,150.637a2.126,2.126,0,1,0,2.157-1.9,2.035,2.035,0,0,0-2.157,1.9" transform="translate(-650.461 -148.74)" fill="#e54b6d"/>
                  </g>
                </g>
              </g>
              <path id="Trazado_1236008" data-name="Trazado 1236008" d="M646.164,143c-.017.808-.452,1.454-.973,1.444s-.93-.674-.914-1.482.453-1.454.974-1.444.929.675.913,1.483" transform="translate(-376.257 -82.647)" fill="#231323"/>
              <path id="Trazado_1236009" data-name="Trazado 1236009" d="M628.85,142.457c-.014.682-.382,1.227-.822,1.218s-.785-.569-.77-1.251.382-1.227.821-1.218.785.569.771,1.251" transform="translate(-366.318 -82.464)" fill="#231323"/>
              <path id="Trazado_1236010" data-name="Trazado 1236010" d="M631.391,162.33c-.252.405,1.389,3.128,3.592,2.549s2.1-4.607,1.322-4.592a18.669,18.669,0,0,0-4.913,2.043" transform="translate(-368.717 -93.607)" fill="#f7fbfc"/>
              <path id="Trazado_1236011" data-name="Trazado 1236011" d="M640.294,101.573s-3.776,3.744-6.223,3.036.645-4.754.645-4.754-12.784,7.488-15.579,2.1,2.872-8.9,9.981-8.091c0,0-4.932-3.449-1.577-5.785S637.883,90.4,637.883,90.4a12.77,12.77,0,0,1,7.8-.38c4.448,1.132,16.83,16.025,1.206,29.284l-4.137-.085.082-4.023s-2.237.966-2.489-1.418,2-9.454,2-9.454-2.393,1.515-2.049-2.749" transform="translate(-361.15 -51.055)" fill="#6a3770"/>
              <path id="Trazado_1236012" data-name="Trazado 1236012" d="M639.312,108.106c-3.459,3.365-8.421,3.524-12.753,1.919-.273-.1-.4.332-.129.431,4.482,1.66,9.626,1.446,13.194-2.026a.225.225,0,0,0-.312-.325" transform="translate(-365.746 -63.096)" fill="#492846"/>
              <path id="Trazado_1236013" data-name="Trazado 1236013" d="M635.331,104.6c2.668.568,5.607.658,7.789-1.224.22-.19-.093-.514-.312-.325-2.05,1.77-4.853,1.648-7.348,1.118-.283-.06-.413.371-.129.431" transform="translate(-370.94 -60.148)" fill="#492846"/>
              <path id="Trazado_1236014" data-name="Trazado 1236014" d="M654.128,94.605c.287-.042.174-.478-.111-.436a8.277,8.277,0,0,1-7.6-2.834c-.2-.215-.521.1-.325.312a8.74,8.74,0,0,0,8.034,2.959" transform="translate(-377.282 -53.297)" fill="#492846"/>
              <path id="Trazado_1236015" data-name="Trazado 1236015" d="M665.793,105.661a6.684,6.684,0,0,1-2.145,4.04c-1.114,1.184-2.853,2.472-4.576,2.072-.282-.066-.412.366-.129.431,1.748.406,3.376-.664,4.618-1.787,1.289-1.166,2.635-2.936,2.682-4.747a.225.225,0,0,0-.45-.009" transform="translate(-384.729 -61.581)" fill="#492846"/>
              <path id="Trazado_1236016" data-name="Trazado 1236016" d="M661.974,106.755c2.08.124,3.767-2.552,3.963-4.372.032-.289-.419-.3-.451-.01-.17,1.582-1.7,4.039-3.5,3.932-.29-.017-.3.433-.009.45" transform="translate(-386.468 -59.662)" fill="#492846"/>
              <path id="Trazado_1236017" data-name="Trazado 1236017" d="M685.865,100.74c-.223-.18-.55.129-.325.312a15.919,15.919,0,0,1,4.792,18.2c-.11.269.323.395.432.129a16.348,16.348,0,0,0-4.9-18.642" transform="translate(-400.31 -58.8)" fill="#492846"/>
              <path id="Trazado_1236018" data-name="Trazado 1236018" d="M684.827,112.669c-.217-.189-.545.121-.324.312,3.823,3.327,4.351,9.3,3.137,13.94-.073.281.359.409.432.129,1.251-4.785.7-10.949-3.245-14.38" transform="translate(-399.706 -65.764)" fill="#492846"/>
              <path id="Trazado_1236019" data-name="Trazado 1236019" d="M683.945,139.083c-2.862-1.237-1.465-5.694-.676-7.862.1-.274-.333-.4-.432-.129-.894,2.46-2.2,7.047.979,8.422.267.116.391-.318.128-.431" transform="translate(-398.168 -76.47)" fill="#492846"/>
              <path id="Trazado_1236020" data-name="Trazado 1236020" d="M676.958,122.235c-1.176,3.012-3.675,8.024-.66,10.735.215.193.541-.117.325-.312-2.849-2.561-.349-7.437.766-10.295.106-.271-.327-.4-.431-.129" transform="translate(-394.121 -71.299)" fill="#492846"/>
              <path id="Trazado_1236021" data-name="Trazado 1236021" d="M675.717,152.04s4.243-3.585,7.52-.631.089,10.05-7.055,6.309Z" transform="translate(-394.618 -87.741)" fill="#f4a2a8"/>
              <path id="Trazado_1236022" data-name="Trazado 1236022" d="M678.718,161c-.025.232.259.279.388.14a1.4,1.4,0,0,0,1.961-.78,1.442,1.442,0,0,0-1.258-1.475,3.266,3.266,0,0,1,.7-.9,3.2,3.2,0,0,1,2.594-.6c.289.031.3-.42.009-.451a3.466,3.466,0,0,0-2.914.729A5.6,5.6,0,0,0,678.718,161m.5-.309a6.093,6.093,0,0,1,.354-1.3.218.218,0,0,0,.072-.023c.424-.239,1.133.605.959,1.01a1.013,1.013,0,0,1-1.385.313" transform="translate(-396.369 -91.621)" fill="#d87d91"/>
              <path id="Trazado_1236023" data-name="Trazado 1236023" d="M593.916,200.372c-4.393,4.106-42.118,23.774-46.264,22.843S531.6,189.023,531.6,189.023c-3.644-1.569-3.3-4.422-3.3-4.422s-3.854-3.1-2.574-6.257a3.691,3.691,0,0,1,4.234-2.441c-1.411-2.209-4.834-2.441-4.679-4.722s7.032,1.561,9.675,5.356c3.368,4.837,1.736,8.532,1.736,8.532s14.64,21.368,15.6,21.828,24.975-14.66,33.847-18.72c7.4-3.387,16.163,4.353,7.772,12.194" transform="translate(-306.765 -99.57)" fill="#f4a2a8"/>
              <path id="Trazado_1236024" data-name="Trazado 1236024" d="M533.217,187.911a.169.169,0,0,0,.046-.235,5.105,5.105,0,0,0-5.4-1.978.168.168,0,0,0-.118.207.049.049,0,0,0,0,.012.169.169,0,0,0,.2.107,4.684,4.684,0,0,1,5.029,1.841.169.169,0,0,0,.234.046" transform="translate(-308.201 -108.342)" fill="#d87d91"/>
              <path id="Trazado_1236025" data-name="Trazado 1236025" d="M530.393,193.895a.171.171,0,0,0,.042-.235,4.327,4.327,0,0,0-4.989-1.827.169.169,0,0,0-.1.214v0a.17.17,0,0,0,.219.1,3.982,3.982,0,0,1,4.59,1.7.168.168,0,0,0,.235.042" transform="translate(-306.797 -111.91)" fill="#d87d91"/>
              <path id="Trazado_1236026" data-name="Trazado 1236026" d="M615.658,219.787a38.666,38.666,0,0,0,9.542,20.026s30.9-13.275,25.609-25.974-35.151,5.948-35.151,5.948" transform="translate(-359.544 -122.295)" fill="#ef4979"/>
              <path id="Trazado_1236027" data-name="Trazado 1236027" d="M617.948,218.909a.208.208,0,0,1-.12-.378c.169-.119,16.974-11.886,28.038-9.743a.208.208,0,0,1,.165.244.211.211,0,0,1-.244.165c-10.9-2.113-27.552,9.556-27.719,9.674a.2.2,0,0,1-.12.038" transform="translate(-360.76 -121.78)" fill="#ff5f94"/>
            </g>
          </g>
        </g>
      </g>
    </g>
  </g>
</svg>
