<svg xmlns="http://www.w3.org/2000/svg" xmlns:xlink="http://www.w3.org/1999/xlink" width="102.648" height="102.649" viewBox="0 0 102.648 102.649">
  <defs>
    <filter id="Trazado_904820" x="0" y="0" width="102.648" height="102.649" filterUnits="userSpaceOnUse">
      <feOffset dy="3" input="SourceAlpha"/>
      <feGaussianBlur stdDeviation="3" result="blur"/>
      <feFlood flood-opacity="0.161"/>
      <feComposite operator="in" in2="blur"/>
      <feComposite in="SourceGraphic"/>
    </filter>
  </defs>
  <g id="Grupo_1234675" data-name="Grupo 1234675" transform="translate(-171.352 -2017.188)">
    <g id="Grupo_1233830" data-name="Grupo 1233830" transform="translate(0 418.59)">
      <g id="Grupo_1228512" data-name="Grupo 1228512" transform="translate(180.352 1604.598)">
        <g id="Grupo_1222530" data-name="Grupo 1222530" transform="translate(0 0)">
          <g id="Grupo_1203724" data-name="Grupo 1203724" transform="translate(0 0)">
            <g id="Grupo_1173585" data-name="Grupo 1173585">
              <g id="Grupo_1173428" data-name="Grupo 1173428">
                <g id="Grupo_1171958" data-name="Grupo 1171958">
                  <g id="Grupo_1167341" data-name="Grupo 1167341">
                    <g id="Grupo_1166792" data-name="Grupo 1166792">
                      <g transform="matrix(1, 0, 0, 1, -9, -6)" filter="url(#Trazado_904820)">
                        <g id="Trazado_904820-2" data-name="Trazado 904820" transform="translate(9 6)" fill="#e9f9fd">
                          <path d="M 42.3242073059082 83.14846038818359 C 36.81231307983398 83.14846038818359 31.46608924865723 82.06928253173828 26.43404197692871 79.94090270996094 C 21.57291412353516 77.88481140136719 17.20684242248535 74.94102478027344 13.45713710784912 71.19131469726562 C 9.707430839538574 67.44161224365234 6.76364278793335 63.07553863525391 4.707560062408447 58.21439743041992 C 2.57918381690979 53.18235015869141 1.500007271766663 47.83612823486328 1.500007271766663 42.32423400878906 C 1.500007271766663 36.81233978271484 2.57918381690979 31.46611595153809 4.707560062408447 26.43406867980957 C 6.76364278793335 21.57292747497559 9.707430839538574 17.20685768127441 13.45713710784912 13.45715141296387 C 17.20684242248535 9.707433700561523 21.57291412353516 6.763657569885254 26.43404197692871 4.707563400268555 C 31.46608924865723 2.579186916351318 36.81231307983398 1.50001049041748 42.3242073059082 1.50001049041748 C 47.83610153198242 1.50001049041748 53.18232345581055 2.579186916351318 58.21437072753906 4.707563400268555 C 63.07551193237305 6.763657569885254 67.44157409667969 9.707433700561523 71.19127655029297 13.45715141296387 C 74.94099426269531 17.20685768127441 77.88477325439453 21.57292747497559 79.94086456298828 26.43406867980957 C 82.06924438476562 31.46611595153809 83.14842224121094 36.81233978271484 83.14842224121094 42.32423400878906 C 83.14842224121094 47.83612823486328 82.06924438476562 53.18235015869141 79.94086456298828 58.21439743041992 C 77.88477325439453 63.07553863525391 74.94099426269531 67.44161224365234 71.19127655029297 71.19131469726562 C 67.44157409667969 74.94102478027344 63.07551193237305 77.88481140136719 58.21437072753906 79.94090270996094 C 53.18232345581055 82.06928253173828 47.83610153198242 83.14846038818359 42.3242073059082 83.14846038818359 Z" stroke="none"/>
                          <path d="M 42.3242073059082 3.000007629394531 C 37.01415252685547 3.000007629394531 31.86452865600586 4.039314270019531 27.01836776733398 6.089073181152344 C 22.33603286743164 8.069526672363281 18.13021850585938 10.90536499023438 14.51779174804688 14.51780700683594 C 10.90535736083984 18.1302490234375 8.069511413574219 22.3360481262207 6.089057922363281 27.01839447021484 C 4.039299011230469 31.86454010009766 2.999992370605469 37.01417922973633 2.999992370605469 42.32423400878906 C 2.999992370605469 47.6342887878418 4.039299011230469 52.78391265869141 6.089057922363281 57.63007354736328 C 8.069511413574219 62.31241989135742 10.90535736083984 66.51821899414062 14.51779174804688 70.13066101074219 C 18.13023376464844 73.74310302734375 22.33603286743164 76.57892608642578 27.01836776733398 78.55939483642578 C 31.86452865600586 80.60915374755859 37.01415252685547 81.64846038818359 42.3242073059082 81.64846038818359 C 47.63426208496094 81.64846038818359 52.78388977050781 80.60915374755859 57.63003540039062 78.55939483642578 C 62.3123779296875 76.57892608642578 66.51818084716797 73.74310302734375 70.13062286376953 70.13066101074219 C 73.74304962158203 66.51821899414062 76.57888793945312 62.31241989135742 78.55935668945312 57.63007354736328 C 80.60910034179688 52.78391265869141 81.64840698242188 47.6342887878418 81.64840698242188 42.32423400878906 C 81.64840698242188 37.01417922973633 80.60910034179688 31.86454010009766 78.55935668945312 27.01839447021484 C 76.57888793945312 22.3360481262207 73.74304962158203 18.1302490234375 70.13062286376953 14.51780700683594 C 66.51818084716797 10.90536499023438 62.3123779296875 8.069526672363281 57.63004684448242 6.089073181152344 C 52.78388977050781 4.039314270019531 47.63426208496094 3.000007629394531 42.3242073059082 3.000007629394531 M 42.3242073059082 7.62939453125e-06 C 65.69921875 7.62939453125e-06 84.64840698242188 18.94921112060547 84.64840698242188 42.32423400878906 C 84.64840698242188 65.69924926757812 65.69921875 84.64846038818359 42.3242073059082 84.64846038818359 C 18.94919586181641 84.64846038818359 -7.62939453125e-06 65.69924926757812 -7.62939453125e-06 42.32423400878906 C -7.62939453125e-06 18.94921112060547 18.94919586181641 7.62939453125e-06 42.3242073059082 7.62939453125e-06 Z" stroke="none" fill="#1d7083"/>
                        </g>
                      </g>
                    </g>
                  </g>
                </g>
              </g>
            </g>
          </g>
        </g>
      </g>
    </g>
    <g id="meta" transform="translate(147.592 2034.125)">
      <g id="Grupo_1234674" data-name="Grupo 1234674" transform="translate(50.653 0.922)">
        <path id="Trazado_1235906" data-name="Trazado 1235906" d="M343.4,39.281H333.336c-5.261-2.407-5.368-11.491-.471-12.9H343.2a1.3,1.3,0,0,1,.8,2.33L339.016,32.6l5.226,4.379A1.3,1.3,0,0,1,343.4,39.281Z" transform="translate(-295.85 -24.059)" fill="#fd7a6e"/>
        <path id="Trazado_1235907" data-name="Trazado 1235907" d="M277.678,39.281H265.831V26.38h11.377C273.766,30.448,275.44,36.681,277.678,39.281Z" transform="translate(-240.192 -24.059)" fill="#f85647"/>
        <path id="Trazado_1235908" data-name="Trazado 1235908" d="M237.665,423h2.195a1.586,1.586,0,0,0,1.586-1.586v-9.835h-5.366v9.835A1.585,1.585,0,0,0,237.665,423Z" transform="translate(-214.097 -361.918)" fill="#7b849b"/>
        <g id="Grupo_1234673" data-name="Grupo 1234673" transform="translate(0 14.255)">
          <g id="Grupo_1234671" data-name="Grupo 1234671">
            <path id="Trazado_1235909" data-name="Trazado 1235909" d="M68.072,191.474V178.108h-8.2a2.635,2.635,0,0,0-2.635,2.635v8.1a2.635,2.635,0,0,0,2.635,2.635Z" transform="translate(-57.235 -171.394)" fill="#736acc"/>
            <path id="Trazado_1235910" data-name="Trazado 1235910" d="M231.648,163l-2.126,0a2.286,2.286,0,0,1,0,4.572h-1.273a2.286,2.286,0,0,1-.042,4.572l-4.843,2.142-.347-.134.347-1.651c-6.368-2.61-4.441-15.855-2.821-19.585l5.876.935h3.1a2.286,2.286,0,0,1,.076,4.571h2.05a2.286,2.286,0,0,1,0,4.572Z" transform="translate(-199.072 -149.304)" fill="#ffddcf"/>
            <path id="Trazado_1235911" data-name="Trazado 1235911" d="M179.45,146.684l-.347,1.651-5.2-2.008a5.868,5.868,0,0,1-4.911-2.655l-.113-14.27a16.809,16.809,0,0,1,3.968-4.3,7.74,7.74,0,0,1,4.7-1.626c.826.651,3.5,3.053,4.959,4.554h-5.365C175.521,131.764,175.291,142.469,179.45,146.684Z" transform="translate(-155.159 -123.479)" fill="#ffcbbe"/>
            <path id="Trazado_1235912" data-name="Trazado 1235912" d="M138.5,174.614V160.99a2.252,2.252,0,0,1,4.5,0v13.624a2.252,2.252,0,0,1-4.5,0Z" transform="translate(-128.514 -154.404)" fill="#c5cff1"/>
          </g>
          <g id="Grupo_1234672" data-name="Grupo 1234672" transform="translate(13.722 22.609)">
            <path id="Trazado_1235913" data-name="Trazado 1235913" d="M364.346,340.16V326.794h8.2a2.635,2.635,0,0,1,2.635,2.635v8.1a2.635,2.635,0,0,1-2.635,2.635Z" transform="translate(-340.321 -324.413)" fill="#73da8c"/>
            <path id="Trazado_1235914" data-name="Trazado 1235914" d="M250.825,310.666l-.113,14.271a5.867,5.867,0,0,1-4.911,2.654h-2.162c-6.146-2.766-7.2-16.132-2.536-18.28l3.995.006C246.794,309.316,250.053,309.3,250.825,310.666Z" transform="translate(-229.686 -309.078)" fill="#db9e82"/>
            <path id="Trazado_1235915" data-name="Trazado 1235915" d="M182.834,327.512h-8.225a2.286,2.286,0,0,1-.042-4.571h-1.273a2.286,2.286,0,0,1,0-4.572l-2.126-.006a2.286,2.286,0,0,1,0-4.572h2.05a2.286,2.286,0,0,1,.076-4.57l7,.011c-3.287,4.737-.838,14.905,2.536,18.28Z" transform="translate(-168.881 -308.999)" fill="#c8866a"/>
            <path id="Trazado_1235916" data-name="Trazado 1235916" d="M339.112,323.3V309.675a2.252,2.252,0,0,0-4.5,0V323.3a2.252,2.252,0,0,0,4.5,0Z" transform="translate(-314.239 -307.423)" fill="#e8ecf9"/>
          </g>
        </g>
        <path id="Trazado_1235917" data-name="Trazado 1235917" d="M236.078,26.309h5.366V9.254A1.754,1.754,0,0,0,239.69,7.5h-1.859a1.754,1.754,0,0,0-1.754,1.754V26.309Z" transform="translate(-214.096 -7.5)" fill="#7b849b"/>
      </g>
      <path id="Trazado_1235918" data-name="Trazado 1235918" d="M98.208,17.065a2.225,2.225,0,0,0,1.429-3.931L95.285,9.487,99.371,6.3A2.225,2.225,0,0,0,98,2.32H87.666a.922.922,0,1,0,0,1.844H98a.381.381,0,0,1,.235.682L93.252,8.734a.922.922,0,0,0-.025,1.434l5.226,4.379a.381.381,0,0,1-.245.674H78.922V4.164h4.441a.922.922,0,1,0,0-1.844H78.9A2.679,2.679,0,0,0,76.247,0H74.388a2.679,2.679,0,0,0-2.676,2.676V14.351a8.782,8.782,0,0,0-3.931,1.721,20.038,20.038,0,0,0-3.135,3.047A3.171,3.171,0,0,0,59.82,20.97H53.288a3.561,3.561,0,0,0-3.557,3.557v8.1a3.561,3.561,0,0,0,3.557,3.557H59.82a3.172,3.172,0,0,0,5.423,1.338,6.824,6.824,0,0,0,1.1.7,3.218,3.218,0,0,0-.425,3.525,3.209,3.209,0,0,0,.008,6.246,3.207,3.207,0,0,0,1.452,4.336,3.177,3.177,0,0,0-.486,1.689A3.212,3.212,0,0,0,70.1,57.22h1.61v3.2A2.51,2.51,0,0,0,74.22,62.93h2.195a2.51,2.51,0,0,0,2.507-2.507v-3.2h1.568a6.8,6.8,0,0,0,4.156-1.428,3.172,3.172,0,0,0,5.423-1.338H96.6a3.561,3.561,0,0,0,3.557-3.557V49.842a.922.922,0,0,0-1.844,0V50.9A1.715,1.715,0,0,1,96.6,52.61H90.17V41.088H96.6A1.715,1.715,0,0,1,98.315,42.8V45.54a.922.922,0,0,0,1.844,0V42.8A3.561,3.561,0,0,0,96.6,39.245H90.071a3.172,3.172,0,0,0-5.235-1.528,8.218,8.218,0,0,0-2.2-.5,3.194,3.194,0,0,0-.128-3.164,3.207,3.207,0,0,0,1.452-4.337,3.209,3.209,0,0,0,.008-6.245A3.216,3.216,0,0,0,81.1,18.809h-2.18V17.065ZM51.575,32.623v-8.1a1.715,1.715,0,0,1,1.713-1.713H59.72V34.335H53.288A1.715,1.715,0,0,1,51.575,32.623Zm11.319,4.094a1.331,1.331,0,0,1-1.33-1.33V21.762a1.33,1.33,0,1,1,2.66,0V35.386a1.331,1.331,0,0,1-1.33,1.33ZM77.079,60.423a.664.664,0,0,1-.664.664H74.22a.664.664,0,0,1-.664-.664v-3.2h3.522v3.2Zm3.412-5.046H70.1a1.364,1.364,0,0,1-.027-2.728h1.055a.922.922,0,1,0,0-1.844H68.788a1.364,1.364,0,0,1,0-2.729h2.343a.922.922,0,1,0,0-1.844l-4.47-.005a1.364,1.364,0,0,1,0-2.729h4.47a.922.922,0,0,0,0-1.844H68.736a1.357,1.357,0,0,1-1.312-1.362,1.384,1.384,0,0,1,1.524-1.364c.15.01,10.839.017,10.839.017a15.335,15.335,0,0,1,4.116.386,3.172,3.172,0,0,0-.08.706V53.661a3.194,3.194,0,0,0,.025.395,4.952,4.952,0,0,1-3.358,1.32ZM87,38.707a1.336,1.336,0,0,1,1.33,1.33V53.661a1.33,1.33,0,1,1-2.66,0V40.037A1.335,1.335,0,0,1,87,38.707Zm-4.53-16.69a1.357,1.357,0,0,1-1.312,1.362H78.759a.922.922,0,1,0,0,1.844h4.469a1.364,1.364,0,1,1,0,2.729l-4.467.005a.922.922,0,1,0,0,1.844H81.1a1.364,1.364,0,1,1,0,2.729H78.759a.922.922,0,0,0,0,1.844h1.055a1.37,1.37,0,0,1,1.338,1.363A1.364,1.364,0,0,1,79.787,37.1H69.569a5.015,5.015,0,0,1-3.527-1.32,3.192,3.192,0,0,0,.025-.395V21.762a3.154,3.154,0,0,0-.229-1.182A18.081,18.081,0,0,1,68.9,17.534a6.993,6.993,0,0,1,2.809-1.31v3.507a.922.922,0,0,0,.922.922H81.1A1.366,1.366,0,0,1,82.466,22.017Zm-8.91-3.208V2.676a.833.833,0,0,1,.832-.832h1.859a.833.833,0,0,1,.832.832V18.809Z"/>
    </g>
  </g>
</svg>
