<svg xmlns="http://www.w3.org/2000/svg" xmlns:xlink="http://www.w3.org/1999/xlink" width="108" height="108" viewBox="0 0 108 108">
  <defs>
    <filter id="Trazado_904820" x="0" y="0" width="108" height="108" filterUnits="userSpaceOnUse">
      <feOffset dy="3" input="SourceAlpha"/>
      <feGaussianBlur stdDeviation="3" result="blur"/>
      <feFlood flood-opacity="0.161"/>
      <feComposite operator="in" in2="blur"/>
      <feComposite in="SourceGraphic"/>
    </filter>
  </defs>
  <g id="Grupo_1242035" data-name="Grupo 1242035" transform="translate(-201 -2925.412)">
    <g id="Grupo_1241892" data-name="Grupo 1241892" transform="translate(210 2931.412)">
      <g id="Grupo_1233818" data-name="Grupo 1233818" transform="translate(0 0)">
        <g id="Grupo_1228307" data-name="Grupo 1228307">
          <g id="Grupo_1228100" data-name="Grupo 1228100" transform="translate(0)">
            <g id="Grupo_1221597" data-name="Grupo 1221597">
              <g id="Grupo_1219744" data-name="Grupo 1219744">
                <g id="Grupo_1202418" data-name="Grupo 1202418">
                  <g id="Grupo_1177315" data-name="Grupo 1177315">
                    <g id="Grupo_1173585" data-name="Grupo 1173585">
                      <g id="Grupo_1173428" data-name="Grupo 1173428">
                        <g id="Grupo_1171958" data-name="Grupo 1171958">
                          <g id="Grupo_1167341" data-name="Grupo 1167341">
                            <g id="Grupo_1166792" data-name="Grupo 1166792">
                              <g transform="matrix(1, 0, 0, 1, -9, -6)" filter="url(#Trazado_904820)">
                                <g id="Trazado_904820-2" data-name="Trazado 904820" transform="translate(9 6)" fill="#f2f7e5">
                                  <path d="M 44.99999618530273 88.49995422363281 C 39.12687301635742 88.49995422363281 33.43022155761719 87.35002899169922 28.06829643249512 85.08213043212891 C 22.88852119445801 82.89126586914062 18.23629570007324 79.75455474853516 14.24084663391113 75.75910186767578 C 10.24540901184082 71.76364898681641 7.108683586120605 67.11144256591797 4.917821407318115 61.93166351318359 C 2.649921178817749 56.56974029541016 1.499996185302734 50.87310028076172 1.499996185302734 44.99997711181641 C 1.499996185302734 39.12685394287109 2.649921178817749 33.43021392822266 4.917821407318115 28.06828880310059 C 7.108683586120605 22.88851547241211 10.24540901184082 18.23630142211914 14.24084663391113 14.24085235595703 C 18.23629570007324 10.24540233612061 22.88852119445801 7.108689785003662 28.06829643249512 4.917827129364014 C 33.43022155761719 2.649927139282227 39.12687301635742 1.500002145767212 44.99999618530273 1.500002145767212 C 50.87311935424805 1.500002145767212 56.56977081298828 2.649927139282227 61.93169784545898 4.917827129364014 C 67.11147308349609 7.108689785003662 71.76369476318359 10.24540233612061 75.75914764404297 14.24085235595703 C 79.75458526611328 18.23630142211914 82.89131164550781 22.88851547241211 85.08216857910156 28.06828880310059 C 87.35007476806641 33.43021392822266 88.5 39.12685394287109 88.5 44.99997711181641 C 88.5 50.87310028076172 87.35007476806641 56.56974029541016 85.08216857910156 61.93166351318359 C 82.89131164550781 67.11144256591797 79.75458526611328 71.76364898681641 75.75914764404297 75.75910186767578 C 71.76369476318359 79.75455474853516 67.11147308349609 82.89126586914062 61.93169784545898 85.08213043212891 C 56.56977081298828 87.35002899169922 50.87311935424805 88.49995422363281 44.99999618530273 88.49995422363281 Z" stroke="none"/>
                                  <path d="M 44.99999618530273 2.999992370605469 C 39.32870864868164 2.999992370605469 33.82865142822266 4.11004638671875 28.65262603759766 6.299331665039062 C 23.65165710449219 8.414566040039062 19.15968322753906 11.44333648681641 15.301513671875 15.30150604248047 C 11.44333648681641 19.15967559814453 8.414566040039062 23.65163421630859 6.299339294433594 28.65260696411133 C 4.110054016113281 33.82864761352539 2.999992370605469 39.32868957519531 2.999992370605469 44.99997711181641 C 2.999992370605469 50.6712646484375 4.110054016113281 56.17130661010742 6.299339294433594 61.34733581542969 C 8.414566040039062 66.34830474853516 11.44333648681641 70.84026336669922 15.301513671875 74.69844818115234 C 19.15968322753906 78.55661773681641 23.65165710449219 81.58537292480469 28.65262603759766 83.70062255859375 C 33.82865142822266 85.889892578125 39.32870864868164 86.99994659423828 44.99999618530273 86.99994659423828 C 50.67128372192383 86.99994659423828 56.17134094238281 85.889892578125 61.34736633300781 83.70062255859375 C 66.34834289550781 81.58537292480469 70.84030914306641 78.55661773681641 74.69847869873047 74.69844818115234 C 78.55665588378906 70.84026336669922 81.58542633056641 66.34830474853516 83.70065307617188 61.34733581542969 C 85.88993835449219 56.17130661010742 87 50.6712646484375 87 44.99997711181641 C 87 39.32868957519531 85.88993835449219 33.82864761352539 83.70065307617188 28.65260696411133 C 81.58542633056641 23.65163421630859 78.55665588378906 19.15967559814453 74.69847869873047 15.30150604248047 C 70.84030914306641 11.44333648681641 66.34834289550781 8.414566040039062 61.34736633300781 6.299331665039062 C 56.17134094238281 4.11004638671875 50.67128372192383 2.999992370605469 44.99999618530273 2.999992370605469 M 44.99999618530273 -7.62939453125e-06 C 69.85281372070312 -7.62939453125e-06 90 20.14717864990234 90 44.99997711181641 C 90 69.85277557373047 69.85281372070312 89.99994659423828 44.99999618530273 89.99994659423828 C 20.14717864990234 89.99994659423828 -7.62939453125e-06 69.85277557373047 -7.62939453125e-06 44.99997711181641 C -7.62939453125e-06 20.14717864990234 20.14717864990234 -7.62939453125e-06 44.99999618530273 -7.62939453125e-06 Z" stroke="none" fill="#496406"/>
                                </g>
                              </g>
                            </g>
                          </g>
                        </g>
                      </g>
                    </g>
                  </g>
                </g>
              </g>
            </g>
          </g>
        </g>
      </g>
    </g>
    <g id="lider_5_" data-name="lider (5)" transform="translate(227 2948.247)">
      <g id="Grupo_1242032" data-name="Grupo 1242032" transform="translate(1.094 1.28)">
        <path id="Trazado_1239536" data-name="Trazado 1239536" d="M302.239,272.556v-5.147H288.184V287.33h14.055V272.556Z" transform="translate(-257.758 -239.275)" fill="#fff"/>
        <path id="Trazado_1239537" data-name="Trazado 1239537" d="M416.689,262.629v5.152l9.331-.088V245.459l-9.331,2.4v14.77Z" transform="translate(-372.207 -219.726)" fill="#5c90ae"/>
        <path id="Trazado_1239538" data-name="Trazado 1239538" d="M40.426,231.154H38.772c-3.029,0-4-2.37-5.2-3.884l-.84-1.058a6.342,6.342,0,0,0-4.966-2.4H20.632l.726,4.715H13.24a2.624,2.624,0,0,0,0,5.247h-.615a2.624,2.624,0,1,0,0,5.247h1.71a2.624,2.624,0,0,0,0,5.248h.988a2.624,2.624,0,0,0,0,5.247H28.527a6.342,6.342,0,0,0,4.128-1.527l.858-.735a6.342,6.342,0,0,1,4.128-1.527h2.785Z" transform="translate(-10 -200.449)" fill="#ffc6ae"/>
        <path id="Trazado_1239539" data-name="Trazado 1239539" d="M42.713,38.266,38.692,12.195a2.371,2.371,0,1,0-4.685.73l4,25.341Z" transform="translate(-31.355 -10.185)" fill="#f9f5f3"/>
        <path id="Trazado_1239540" data-name="Trazado 1239540" d="M107.736,458.832l.287,2.149a2.255,2.255,0,1,1-4.474.574l-.342-2.724Z" transform="translate(-93.012 -409.761)" fill="#f9f5f3"/>
        <g id="Grupo_1242031" data-name="Grupo 1242031" transform="translate(7.38 2.313)">
          <path id="Trazado_1239541" data-name="Trazado 1239541" d="M77.472,31.329H90.681L88.89,44.446H79.47Z" transform="translate(-77.472 -31.329)" fill="#ff7e96"/>
          <path id="Trazado_1239542" data-name="Trazado 1239542" d="M179.006,65.365h9.558l-2.8,6.777,4.8,6.339H177.215Z" transform="translate(-166.306 -61.642)" fill="#ff7e96"/>
        </g>
      </g>
      <g id="Grupo_1242034" data-name="Grupo 1242034" transform="translate(0 0.186)">
        <g id="Grupo_1242033" data-name="Grupo 1242033" transform="translate(0 0)">
          <path id="Trazado_1239543" data-name="Trazado 1239543" d="M408.816,349.169a1.093,1.093,0,1,0-.592,1.429A1.1,1.1,0,0,0,408.816,349.169Z" transform="translate(-362.231 -310.4)"/>
          <path id="Trazado_1239544" data-name="Trazado 1239544" d="M55.576,26.148a1.094,1.094,0,0,0-.943-.195l-9.2,2.366H31.52a1.094,1.094,0,0,0-1.094,1.094v1.477h-.56c-1.9,0-2.712-1.166-3.65-2.517-.221-.319-1.533-2.012-1.533-2.012a7.4,7.4,0,0,0-5.822-2.811h-6.2L11.776,17.8h6.862L18.3,20.284a1.107,1.107,0,0,0,1.084,1.242H32.729a1.1,1.1,0,0,0,.872-1.754l-4.419-5.84,2.56-6.2a1.094,1.094,0,0,0-1.011-1.511h-8.3l.339-2.481A1.107,1.107,0,0,0,21.682,2.5H9.357A3.443,3.443,0,0,0,6.088.186a3.5,3.5,0,0,0-3.422,4l3.8,24.076H4.333A3.715,3.715,0,0,0,1.43,34.3,3.716,3.716,0,0,0,2.2,40.627a3.714,3.714,0,0,0,1.176,4.954,3.716,3.716,0,0,0,3.034,5.863h3.908l.222,1.764a3.349,3.349,0,1,0,6.643-.853l-.122-.911h2.555a7.44,7.44,0,0,0,4.84-1.791l.858-.735a5.251,5.251,0,0,1,3.416-1.264h1.691v1.681a1.094,1.094,0,0,0,1.094,1.094H45.586l9.331-.088A1.094,1.094,0,0,0,56,49.247V27.013a1.094,1.094,0,0,0-.424-.864ZM29.1,8.409l-2.175,5.266a1.094,1.094,0,0,0,.139,1.077l3.47,4.586H20.636L22.129,8.409H29.1Zm-9-1.256,0,.015-1.153,8.448h-7.5L9.753,4.686H20.429ZM4.826,3.849A1.289,1.289,0,0,1,6.088,2.374c.843,0,1.194.66,1.3,1.383l3.784,24.51h-2.5ZM15.02,52.644a1.162,1.162,0,1,1-2.3.294l-.188-1.494H14.86Zm13.715-7.177a7.44,7.44,0,0,0-4.84,1.791l-.858.735a5.252,5.252,0,0,1-3.416,1.264H6.415a1.53,1.53,0,0,1,0-3.06,1.094,1.094,0,0,0,0-2.187H5.427a1.53,1.53,0,1,1,0-3.06,1.094,1.094,0,0,0,0-2.187H3.718a1.53,1.53,0,1,1,0-3.06h.615a1.094,1.094,0,0,0,0-2.187,1.53,1.53,0,0,1,0-3.06H17.47a1.094,1.094,0,1,0,0-2.187H13.39L13,25.739h5.86a5.221,5.221,0,0,1,4.11,1.984s1.238,1.594,1.449,1.9c1.013,1.459,2.4,3.457,5.447,3.457h.56V45.467H28.735Zm25.077,2.7-7.143.067V44.183a1.094,1.094,0,1,0-2.187,0v4.058H32.614V30.507H44.482V34.56a1.094,1.094,0,1,0,2.187,0v-4.3l7.143-1.838Z" transform="translate(0 -0.186)"/>
        </g>
      </g>
    </g>
  </g>
</svg>
