<svg xmlns="http://www.w3.org/2000/svg" xmlns:xlink="http://www.w3.org/1999/xlink" width="103" height="103" viewBox="0 0 103 103">
  <defs>
    <filter id="Trazado_978624" x="0" y="0" width="103" height="103" filterUnits="userSpaceOnUse">
      <feOffset dy="3" input="SourceAlpha"/>
      <feGaussianBlur stdDeviation="3" result="blur"/>
      <feFlood flood-opacity="0.161"/>
      <feComposite operator="in" in2="blur"/>
      <feComposite in="SourceGraphic"/>
    </filter>
  </defs>
  <g id="Grupo_1234601" data-name="Grupo 1234601" transform="translate(-171 -4265)">
    <g id="Grupo_1233827" data-name="Grupo 1233827" transform="translate(0 2673)">
      <g id="Grupo_1228308" data-name="Grupo 1228308" transform="translate(0 579)">
        <g id="Grupo_1220654" data-name="Grupo 1220654" transform="translate(180 1019)">
          <g id="Grupo_1176881" data-name="Grupo 1176881">
            <g id="Grupo_1175148" data-name="Grupo 1175148">
              <g id="Grupo_1173798" data-name="Grupo 1173798">
                <g id="Grupo_1171925" data-name="Grupo 1171925">
                  <g id="Grupo_1164524" data-name="Grupo 1164524">
                    <g id="Grupo_1144123" data-name="Grupo 1144123">
                      <g transform="matrix(1, 0, 0, 1, -9, -6)" filter="url(#Trazado_978624)">
                        <g id="Trazado_978624-2" data-name="Trazado 978624" transform="translate(9 6)" fill="#e9f9fd">
                          <path d="M 42.5 83.5 C 36.96437835693359 83.5 31.59512901306152 82.41617584228516 26.54141235351562 80.27863311767578 C 21.65934181213379 78.21369171142578 17.27447128295898 75.25723266601562 13.50862312316895 71.49137878417969 C 9.742764472961426 67.72553253173828 6.786305904388428 63.34066009521484 4.721364498138428 58.45858764648438 C 2.583823442459106 53.40486907958984 1.5 48.03562164306641 1.5 42.5 C 1.5 36.96437835693359 2.583823442459106 31.59512901306152 4.721364498138428 26.54141235351562 C 6.786305904388428 21.65934181213379 9.742764472961426 17.27447128295898 13.50862312316895 13.50862312316895 C 17.27447128295898 9.742764472961426 21.65934181213379 6.786305904388428 26.54141235351562 4.721364498138428 C 31.59512901306152 2.583823442459106 36.96437835693359 1.5 42.5 1.5 C 48.03562164306641 1.5 53.40486907958984 2.583823442459106 58.45858764648438 4.721364498138428 C 63.34066009521484 6.786305904388428 67.72553253173828 9.742764472961426 71.49137878417969 13.50862312316895 C 75.25723266601562 17.27447128295898 78.21369171142578 21.65934181213379 80.27863311767578 26.54141235351562 C 82.41617584228516 31.59512901306152 83.5 36.96437835693359 83.5 42.5 C 83.5 48.03562164306641 82.41617584228516 53.40486907958984 80.27863311767578 58.45858764648438 C 78.21369171142578 63.34066009521484 75.25723266601562 67.72553253173828 71.49137878417969 71.49137878417969 C 67.72553253173828 75.25723266601562 63.34066009521484 78.21369171142578 58.45858764648438 80.27863311767578 C 53.40486907958984 82.41617584228516 48.03562164306641 83.5 42.5 83.5 Z" stroke="none"/>
                          <path d="M 42.5 3 C 37.16621398925781 3 31.99356079101562 4.043960571289062 27.125732421875 6.102882385253906 C 22.42246627807617 8.092185974121094 18.19785308837891 10.94070434570312 14.56928253173828 14.56928253173828 C 10.94070434570312 18.19785308837891 8.092185974121094 22.42246627807617 6.102882385253906 27.125732421875 C 4.043960571289062 31.99356079101562 3 37.16621398925781 3 42.5 C 3 47.83378601074219 4.043960571289062 53.00643920898438 6.102882385253906 57.87425231933594 C 8.092185974121094 62.57753372192383 10.94070434570312 66.80213165283203 14.56928253173828 70.43071746826172 C 18.19786834716797 74.05929565429688 22.42246627807617 76.90781402587891 27.125732421875 78.89711761474609 C 31.99356079101562 80.95603942871094 37.16621398925781 82 42.5 82 C 47.83378601074219 82 53.00642395019531 80.95603942871094 57.87425231933594 78.89711761474609 C 62.57753372192383 76.90781402587891 66.80213165283203 74.05929565429688 70.43071746826172 70.43071746826172 C 74.05929565429688 66.80213165283203 76.90781402587891 62.57753372192383 78.89711761474609 57.87425231933594 C 80.95603942871094 53.00642395019531 82 47.83378601074219 82 42.5 C 82 37.16621398925781 80.95603942871094 31.99356079101562 78.89711761474609 27.125732421875 C 76.90781402587891 22.42246627807617 74.05929565429688 18.19786834716797 70.43071746826172 14.56928253173828 C 66.80213165283203 10.94070434570312 62.57753372192383 8.092185974121094 57.87425231933594 6.102882385253906 C 53.00643920898438 4.043960571289062 47.83378601074219 3 42.5 3 M 42.5 0 C 65.97209167480469 0 85 19.02789306640625 85 42.5 C 85 65.97209167480469 65.97209167480469 85 42.5 85 C 19.02789306640625 85 0 65.97209167480469 0 42.5 C 0 19.02789306640625 19.02789306640625 0 42.5 0 Z" stroke="none" fill="#36ceef"/>
                        </g>
                      </g>
                    </g>
                  </g>
                </g>
              </g>
            </g>
          </g>
        </g>
      </g>
    </g>
    <g id="gestion-de-equipos_3_" data-name="gestion-de-equipos (3)" transform="translate(195.282 4283.963)">
      <g id="Grupo_1234577" data-name="Grupo 1234577" transform="translate(15.876 1.275)">
        <g id="Grupo_1234572" data-name="Grupo 1234572">
          <circle id="Elipse_12064" data-name="Elipse 12064" cx="12.776" cy="12.776" r="12.776" fill="#f7e365"/>
        </g>
        <g id="Grupo_1234573" data-name="Grupo 1234573" transform="translate(2.522 2.522)">
          <path id="Trazado_1235731" data-name="Trazado 1235731" d="M182.261,30.468a12.776,12.776,0,0,1-17.875,17.875,12.776,12.776,0,1,0,17.875-17.875Z" transform="translate(-164.386 -30.468)" fill="#f3d332"/>
        </g>
        <g id="Grupo_1234576" data-name="Grupo 1234576" transform="translate(5.164 4.726)">
          <g id="Grupo_1234574" data-name="Grupo 1234574" transform="translate(0 0)">
            <path id="Trazado_1235732" data-name="Trazado 1235732" d="M201.257,58.168l1.661-1.8a1.131,1.131,0,0,0,.148-1.331l-.978-1.694a1.131,1.131,0,0,0-1.227-.538l-2.392.537-.076-.044-.731-2.34a1.131,1.131,0,0,0-1.079-.793h-1.956a1.131,1.131,0,0,0-1.079.793l-.731,2.34-.076.044-2.392-.537a1.131,1.131,0,0,0-1.227.538l-.978,1.694a1.131,1.131,0,0,0,.148,1.331l1.661,1.8v.087l-1.661,1.8a1.131,1.131,0,0,0-.148,1.331l.978,1.694a1.131,1.131,0,0,0,1.227.538l2.392-.537.076.044.731,2.34a1.131,1.131,0,0,0,1.079.793h1.955a1.131,1.131,0,0,0,1.079-.793l.731-2.34.076-.044,2.392.537a1.131,1.131,0,0,0,1.227-.538l.978-1.694a1.131,1.131,0,0,0-.148-1.331l-1.661-1.8v-.087Zm-5.652,1.852a1.809,1.809,0,1,1,1.809-1.809A1.809,1.809,0,0,1,195.606,60.02Z" transform="translate(-187.994 -50.161)" fill="#62a4fb"/>
          </g>
          <g id="Grupo_1234575" data-name="Grupo 1234575" transform="translate(4.957 2.613)">
            <path id="Trazado_1235733" data-name="Trazado 1235733" d="M240.589,78.988V78.9l1.661-1.8a1.131,1.131,0,0,0,.148-1.331l-.978-1.694a1.131,1.131,0,0,0-1.227-.538l-1.358.3a7.964,7.964,0,0,1-6.553,10.447l.6,1.915a1.131,1.131,0,0,0,1.079.793h1.955a1.131,1.131,0,0,0,1.079-.793l.731-2.34.076-.044,2.392.537a1.13,1.13,0,0,0,1.227-.538l.978-1.694a1.131,1.131,0,0,0-.148-1.331Z" transform="translate(-232.282 -73.507)" fill="#5392f9"/>
          </g>
        </g>
      </g>
      <g id="Grupo_1234593" data-name="Grupo 1234593" transform="translate(12.597 22.1)">
        <g id="Grupo_1234582" data-name="Grupo 1234582" transform="translate(18.091)">
          <g id="Grupo_1234578" data-name="Grupo 1234578" transform="translate(0 9.045)">
            <path id="Trazado_1235734" data-name="Trazado 1235734" d="M274.2,278.9v10.732h14.019V278.9a4.07,4.07,0,0,0-4.07-4.07h-5.879A4.07,4.07,0,0,0,274.2,278.9Z" transform="translate(-274.198 -274.832)" fill="#e175a5"/>
          </g>
          <g id="Grupo_1234579" data-name="Grupo 1234579" transform="translate(0 9.045)">
            <path id="Trazado_1235735" data-name="Trazado 1235735" d="M281.885,278.9a6.749,6.749,0,0,0-1.36-4.07h-2.257a4.07,4.07,0,0,0-4.07,4.07v10.732h7.687Z" transform="translate(-274.198 -274.831)" fill="#de5791"/>
          </g>
          <g id="Grupo_1234580" data-name="Grupo 1234580" transform="translate(2.487)">
            <circle id="Elipse_12065" data-name="Elipse 12065" cx="4.522" cy="4.522" r="4.522" fill="#fed2a4"/>
          </g>
          <g id="Grupo_1234581" data-name="Grupo 1234581" transform="translate(3.018 0.531)">
            <path id="Trazado_1235736" data-name="Trazado 1235736" d="M307.282,198.759a4.523,4.523,0,0,1-6.118,6.118,4.522,4.522,0,1,0,6.118-6.118Z" transform="translate(-301.164 -198.759)" fill="#ffbd86"/>
          </g>
        </g>
        <g id="Grupo_1234587" data-name="Grupo 1234587">
          <g id="Grupo_1234583" data-name="Grupo 1234583" transform="translate(0 9.045)">
            <path id="Trazado_1235737" data-name="Trazado 1235737" d="M112.552,278.9v10.732h14.019V278.9a4.07,4.07,0,0,0-4.07-4.07h-5.879A4.07,4.07,0,0,0,112.552,278.9Z" transform="translate(-112.552 -274.832)" fill="#e175a5"/>
          </g>
          <g id="Grupo_1234584" data-name="Grupo 1234584" transform="translate(6.332 9.045)">
            <path id="Trazado_1235738" data-name="Trazado 1235738" d="M176.817,289.634V278.9a4.07,4.07,0,0,0-4.07-4.07H170.49a6.748,6.748,0,0,0-1.36,4.07v10.732Z" transform="translate(-169.13 -274.832)" fill="#de5791"/>
          </g>
          <g id="Grupo_1234585" data-name="Grupo 1234585" transform="translate(2.487)">
            <circle id="Elipse_12066" data-name="Elipse 12066" cx="4.522" cy="4.522" r="4.522" fill="#fed2a4"/>
          </g>
          <g id="Grupo_1234586" data-name="Grupo 1234586" transform="translate(3.018 0.531)">
            <path id="Trazado_1235739" data-name="Trazado 1235739" d="M145.636,198.759a4.523,4.523,0,0,1-6.118,6.118,4.523,4.523,0,1,0,6.118-6.118Z" transform="translate(-139.518 -198.759)" fill="#ffbd86"/>
          </g>
        </g>
        <g id="Grupo_1234592" data-name="Grupo 1234592" transform="translate(9.046)">
          <g id="Grupo_1234588" data-name="Grupo 1234588" transform="translate(0 9.045)">
            <path id="Trazado_1235740" data-name="Trazado 1235740" d="M193.375,278.9v10.732h14.019V278.9a4.07,4.07,0,0,0-4.07-4.07h-5.879A4.07,4.07,0,0,0,193.375,278.9Z" transform="translate(-193.375 -274.832)" fill="#62a4fb"/>
          </g>
          <g id="Grupo_1234589" data-name="Grupo 1234589" transform="translate(7.01 9.045)">
            <path id="Trazado_1235741" data-name="Trazado 1235741" d="M258.947,274.832h-2.94a4.07,4.07,0,0,1,4.07,4.07v10.732h2.94V278.9a4.07,4.07,0,0,0-4.07-4.07Z" transform="translate(-256.007 -274.832)" fill="#5392f9"/>
          </g>
          <g id="Grupo_1234590" data-name="Grupo 1234590" transform="translate(2.487)">
            <circle id="Elipse_12067" data-name="Elipse 12067" cx="4.522" cy="4.522" r="4.522" fill="#fed2a4"/>
          </g>
          <g id="Grupo_1234591" data-name="Grupo 1234591" transform="translate(3.018 0.531)">
            <path id="Trazado_1235742" data-name="Trazado 1235742" d="M226.459,198.759a4.523,4.523,0,0,1-6.118,6.118,4.523,4.523,0,1,0,6.118-6.118Z" transform="translate(-220.341 -198.759)" fill="#ffbd86"/>
          </g>
        </g>
      </g>
      <g id="Grupo_1234599" data-name="Grupo 1234599" transform="translate(0.839 36.623)">
        <g id="Grupo_1234594" data-name="Grupo 1234594" transform="translate(7.236 3.897)">
          <path id="Trazado_1235743" data-name="Trazado 1235743" d="M72.152,358.6h4.07v14.471h-4.07Z" transform="translate(-72.152 -358.597)" fill="#d3effd"/>
        </g>
        <g id="Grupo_1234595" data-name="Grupo 1234595" transform="translate(11.306)">
          <path id="Trazado_1235744" data-name="Trazado 1235744" d="M152.043,324.57a2.713,2.713,0,0,0-3.837,0l-8.529,8.529h-7.868a2.713,2.713,0,0,0,0-5.427h-8.592l-1.743-1.413a8.863,8.863,0,0,0-11.073-.072l-1.881,1.485v14.471l16.377,1.027a9.044,9.044,0,0,0,3.235-.385l12.723-3.929a4.523,4.523,0,0,0,1.863-1.123l9.326-9.326A2.714,2.714,0,0,0,152.043,324.57Z" transform="translate(-108.519 -323.775)" fill="#fed2a4"/>
        </g>
        <g id="Grupo_1234596" data-name="Grupo 1234596" transform="translate(27.561)">
          <path id="Trazado_1235745" data-name="Trazado 1235745" d="M281.032,324.57a2.713,2.713,0,0,0-3.837,0l-8.529,8.529h-1.618a33.216,33.216,0,0,1-2.72,3.077,30.372,30.372,0,0,1-10.564,6.987l.121.008a9.044,9.044,0,0,0,3.235-.385l12.723-3.929a4.523,4.523,0,0,0,1.863-1.123l9.326-9.326A2.713,2.713,0,0,0,281.032,324.57Z" transform="translate(-253.763 -323.775)" fill="#ffbd86"/>
        </g>
        <g id="Grupo_1234597" data-name="Grupo 1234597" transform="translate(0 2.088)">
          <path id="Trazado_1235746" data-name="Trazado 1235746" d="M7.5,342.434h7.236v18.089H7.5Z" transform="translate(-7.5 -342.434)" fill="#62a4fb"/>
        </g>
        <g id="Grupo_1234598" data-name="Grupo 1234598" transform="translate(4.748 2.088)">
          <path id="Trazado_1235747" data-name="Trazado 1235747" d="M49.928,342.434h2.487v18.089H49.928Z" transform="translate(-49.928 -342.434)" fill="#5392f9"/>
        </g>
      </g>
      <g id="Grupo_1234600" data-name="Grupo 1234600" transform="translate(0 0.435)">
        <circle id="Elipse_12068" data-name="Elipse 12068" cx="0.905" cy="0.905" r="0.905" transform="translate(3.553 40.989)"/>
        <circle id="Elipse_12069" data-name="Elipse 12069" cx="0.905" cy="0.905" r="0.905" transform="translate(3.553 44.607)"/>
        <path id="Trazado_1235748" data-name="Trazado 1235748" d="M237.64,101.074a2.648,2.648,0,1,0-2.648,2.648A2.651,2.651,0,0,0,237.64,101.074Zm-2.648.97a.97.97,0,1,1,.969-.97A.971.971,0,0,1,234.991,102.044Z" transform="translate(-206.34 -87.459)"/>
        <path id="Trazado_1235749" data-name="Trazado 1235749" d="M56.263,36.824a3.553,3.553,0,0,0-5.025,0l-5.692,5.693V39.754a.839.839,0,0,0-1.679,0V44.2l-.912.912h-4.5A3.554,3.554,0,0,0,36.5,39.843V35.215a4.888,4.888,0,0,0-1.217-3.231h5.354a3.234,3.234,0,0,1,3.23,3.231v.621a.839.839,0,0,0,1.679,0v-.621a4.917,4.917,0,0,0-4.034-4.83,5.355,5.355,0,0,0-1.62-8.652,13.653,13.653,0,0,0,2.374-7.683,13.5,13.5,0,0,0-4.1-9.738.839.839,0,0,0-1.172,1.2,11.831,11.831,0,0,1,3.6,8.536,11.964,11.964,0,0,1-2.44,7.231c-.149-.013-.3-.02-.451-.02a5.361,5.361,0,0,0-4.523,2.487,5.4,5.4,0,0,0-1.852-1.772,1.992,1.992,0,0,0,.187-.419l.519-1.659,1.7.381a1.961,1.961,0,0,0,2.137-.937l.978-1.693a1.962,1.962,0,0,0-.257-2.32L35.4,14.051l1.177-1.278a1.961,1.961,0,0,0,.257-2.32l-.978-1.693a1.961,1.961,0,0,0-2.137-.937l-1.7.381L31.51,6.543a1.962,1.962,0,0,0-1.88-1.382H27.674a1.961,1.961,0,0,0-1.88,1.382L25.275,8.2l-1.7-.381a1.961,1.961,0,0,0-2.137.937l-.978,1.693a1.962,1.962,0,0,0,.257,2.32L21.9,14.05l-1.177,1.278a1.962,1.962,0,0,0-.257,2.32l.978,1.693a1.961,1.961,0,0,0,2.137.937l1.7-.381.518,1.659a1.987,1.987,0,0,0,.187.419,5.4,5.4,0,0,0-1.852,1.772,5.361,5.361,0,0,0-4.523-2.487c-.152,0-.3.008-.451.02a11.937,11.937,0,0,1,9.5-19.167,11.815,11.815,0,0,1,5.373,1.275.839.839,0,1,0,.757-1.5A13.477,13.477,0,0,0,28.652.435a13.616,13.616,0,0,0-11.241,21.3,5.356,5.356,0,0,0-1.62,8.652,4.916,4.916,0,0,0-4.034,4.83V39.68H8.915v-.97a.839.839,0,0,0-.839-.839H.839A.839.839,0,0,0,0,38.711V56.8a.839.839,0,0,0,.839.839H8.075a.839.839,0,0,0,.839-.839v-.97h3.21l11.009.691a.839.839,0,1,0,.105-1.676L12.985,54.2V40.926l1.562-1.233a8.022,8.022,0,0,1,10.024.066l1.744,1.412a.839.839,0,0,0,.528.187h8.592a1.874,1.874,0,0,1,0,3.748H25.712a.839.839,0,0,0-.594.246L23.932,46.54a.839.839,0,1,0,1.187,1.187l.941-.941H43.3a.84.84,0,0,0,.594-.246l8.528-8.529a1.874,1.874,0,0,1,2.651,2.651L45.75,49.988a3.7,3.7,0,0,1-1.518.914l-12.724,3.93a8.165,8.165,0,0,1-2.934.349l-1.427-.09a.839.839,0,1,0-.105,1.676l1.427.09q.313.019.624.019A9.823,9.823,0,0,0,32,56.436l12.723-3.929a5.38,5.38,0,0,0,2.21-1.331l9.326-9.326a3.558,3.558,0,0,0,0-5.025ZM37.7,22.94a3.683,3.683,0,1,1-3.683,3.683A3.687,3.687,0,0,1,37.7,22.94ZM27.674,21.261a.29.29,0,0,1-.278-.2l-.731-2.34a.839.839,0,0,0-.381-.477l-.076-.044a.839.839,0,0,0-.6-.092l-2.392.537A.29.29,0,0,1,22.9,18.5l-.978-1.693a.29.29,0,0,1,.038-.343l1.661-1.8a.84.84,0,0,0,.222-.569v-.087a.84.84,0,0,0-.222-.569l-1.661-1.8a.29.29,0,0,1-.038-.343L22.9,9.6a.291.291,0,0,1,.316-.139L25.6,10a.839.839,0,0,0,.6-.092l.076-.044a.839.839,0,0,0,.381-.477l.731-2.34a.29.29,0,0,1,.278-.2H29.63a.29.29,0,0,1,.278.2l.731,2.34a.839.839,0,0,0,.381.476L31.1,9.9a.839.839,0,0,0,.6.092l2.392-.537a.29.29,0,0,1,.316.139l.978,1.694a.29.29,0,0,1-.038.343l-1.661,1.8a.84.84,0,0,0-.222.569v.087a.84.84,0,0,0,.222.569l1.661,1.8a.29.29,0,0,1,.038.343L34.408,18.5a.29.29,0,0,1-.316.138L31.7,18.1a.838.838,0,0,0-.6.092l-.077.045a.839.839,0,0,0-.381.476l-.731,2.34a.29.29,0,0,1-.278.2H27.674Zm.978,1.679a3.683,3.683,0,1,1-3.683,3.683A3.687,3.687,0,0,1,28.652,22.94Zm-9.046,0a3.683,3.683,0,1,1-3.683,3.683A3.687,3.687,0,0,1,19.606,22.94ZM7.236,55.961H1.679V39.55H7.236Zm1.679-14.6h2.392V54.152H8.915Zm7.421-4.534a9.677,9.677,0,0,0-2.829,1.55l-.071.056V35.215a3.234,3.234,0,0,1,3.231-3.231H22.02A4.888,4.888,0,0,0,20.8,35.215v1.161a9.654,9.654,0,0,0-4.467.45Zm9.292,1.63a9.706,9.706,0,0,0-3.147-1.7V35.215a3.234,3.234,0,0,1,3.231-3.231h5.879a3.234,3.234,0,0,1,3.231,3.231V39.68H27.14Z" transform="translate(0 -0.435)"/>
      </g>
    </g>
  </g>
</svg>
