<svg xmlns="http://www.w3.org/2000/svg" xmlns:xlink="http://www.w3.org/1999/xlink" width="295" height="353" viewBox="0 0 295 353">
  <defs>
    <clipPath id="clip-path">
      <rect id="Rectángulo_423947" data-name="Rectángulo 423947" width="295" height="353" transform="translate(180 3192)" fill="#fff" stroke="#707070" stroke-width="1"/>
    </clipPath>
  </defs>
  <g id="Enmascarar_grupo_1211526" data-name="Enmascarar grupo 1211526" transform="translate(-180 -3192)" clip-path="url(#clip-path)">
    <g id="OBJECTS" transform="translate(127.363 3161.696)">
      <g id="Grupo_1242064" data-name="Grupo 1242064" transform="translate(52.637 40.82)">
        <g id="Grupo_1242063" data-name="Grupo 1242063" transform="translate(1.151 -12.066)">
          <line id="Línea_651" data-name="Línea 651" x2="2.404" y2="10.921" transform="translate(96.474 4.465)" fill="none" stroke="#fff" stroke-miterlimit="10" stroke-width="0.85"/>
          <line id="Línea_652" data-name="Línea 652" y2="13.077" transform="translate(105.648)" fill="none" stroke="#fff" stroke-miterlimit="10" stroke-width="0.85"/>
          <line id="Línea_653" data-name="Línea 653" x1="5.78" y2="8.612" transform="translate(110.311 7.973)" fill="none" stroke="#fff" stroke-miterlimit="10" stroke-width="0.85"/>
          <line id="Línea_654" data-name="Línea 654" x2="5.641" y2="6.66" transform="translate(170.189 9.926)" fill="none" stroke="#fff" stroke-miterlimit="10" stroke-width="0.85"/>
          <line id="Línea_655" data-name="Línea 655" x2="3.914" y2="11.057" transform="translate(178.051 2.02)" fill="none" stroke="#fff" stroke-miterlimit="10" stroke-width="0.85"/>
          <line id="Línea_656" data-name="Línea 656" x1="0.681" y2="10.259" transform="translate(188.256 2.02)" fill="none" stroke="#fff" stroke-miterlimit="10" stroke-width="0.85"/>
          <path id="Trazado_1239581" data-name="Trazado 1239581" d="M342.324,193.035c3.2.978,7.191,1.229,7.247,5.55a23.82,23.82,0,0,1-.4,3.5c-.426,3.122.168,5.883.552,8.919.336,2.664,2.278,6.947-.31,8.418-.471.268-3.389-1.106-3.828-.787-.363.263-.676.591-1.045.846-2.049,1.412-5.15,3.7-6.56,2.415-2.653-2.418-14.215.256-17.615.277-1.834.012,3.6-6.55,2.789-9.051-.853-2.622.8-3.48,1.168-5.758a16.135,16.135,0,0,0,.058-4.033c-.937-10.216,6.969-14.847,13.45-12.4.805.3,3.522,1.8,4.345,2.056Z" transform="translate(-114.776 -65.809)" fill="#4d170c"/>
          <path id="Trazado_1239582" data-name="Trazado 1239582" d="M237.387,201.078c-.67-4.37,2.387-8.125,4.87-8.011s13.205,4.486,13.689,9.044-1.666,11.827-7.056,11.42S237.387,201.078,237.387,201.078Z" transform="translate(-100.951 -66.273)" fill="#762f0e"/>
          <path id="Trazado_1239583" data-name="Trazado 1239583" d="M144.62,205.617c.317,4.7-3.347,7.035-3.589,9.282s-12.591,8.022-5.466,20.045,25.11,4.775,30.737,1.9,2.029-7.739,1.568-13.148,3.159-23.555-5.338-24.674" transform="translate(-83.574 -67.268)" fill="#762f0e"/>
          <g id="Grupo_1242048" data-name="Grupo 1242048" transform="translate(220.375 267.621)">
            <path id="Trazado_1239584" data-name="Trazado 1239584" d="M371.522,423.984c-3.794-17.613-3.384-43.11-14.967-60.8-2.612-3.987-18.359,4.974-18.359,4.974l22.161,62.34S373.248,432,371.522,423.984Z" transform="translate(-338.195 -362.164)" fill="#e9a493"/>
          </g>
          <g id="Grupo_1242049" data-name="Grupo 1242049" transform="translate(228.393 326.527)">
            <path id="Trazado_1239585" data-name="Trazado 1239585" d="M374.257,432.9s6.043,12.521,5.446,16.132c-8.864,9.125-24.866,13.425-29.433,11.4-4.526-2.544-2.789-10.877,5.326-12.238,6.086-6.488,3.521-11.279,3.521-11.279Z" transform="translate(-347.823 -432.896)" fill="#30373e"/>
            <line id="Línea_657" data-name="Línea 657" x1="4.96" y1="0.988" transform="translate(8.585 14.22)" fill="none" stroke="#fff" stroke-miterlimit="10" stroke-width="0.85"/>
            <line id="Línea_658" data-name="Línea 658" x1="5.606" y1="0.571" transform="translate(10.323 11.902)" fill="none" stroke="#fff" stroke-miterlimit="10" stroke-width="0.85"/>
            <line id="Línea_659" data-name="Línea 659" x1="5.614" y2="0.667" transform="translate(11.277 9.16)" fill="none" stroke="#fff" stroke-miterlimit="10" stroke-width="0.85"/>
            <line id="Línea_660" data-name="Línea 660" x1="5.836" y2="0.687" transform="translate(11.507 6.039)" fill="none" stroke="#fff" stroke-miterlimit="10" stroke-width="0.85"/>
            <path id="Trazado_1239586" data-name="Trazado 1239586" d="M379.746,449.18a40.939,40.939,0,0,1-30.492,12.629" transform="translate(-348.062 -435.618)" fill="none" stroke="#21262b" stroke-linecap="round" stroke-linejoin="round" stroke-miterlimit="10" stroke-width="0.85"/>
            <path id="Trazado_1239587" data-name="Trazado 1239587" d="M359.844,461.194s-1.568-8.476-7.866-8.251" transform="translate(-348.517 -436.247)" fill="none" stroke="#21262b" stroke-linecap="round" stroke-linejoin="round" stroke-miterlimit="10" stroke-width="0.85"/>
            <path id="Trazado_1239588" data-name="Trazado 1239588" d="M358.564,452.27s5.607-2.917,6.983-6.423a26.924,26.924,0,0,0,1.507-10.089" transform="translate(-349.619 -433.375)" fill="none" stroke="#21262b" stroke-linecap="round" stroke-linejoin="round" stroke-miterlimit="10" stroke-width="0.85"/>
          </g>
          <g id="Grupo_1242050" data-name="Grupo 1242050" transform="translate(200.087 267.709)">
            <path id="Trazado_1239589" data-name="Trazado 1239589" d="M327.606,426.961c1.879-17.919,10.727-41.938,5.225-62.352-1.24-4.6-19-.99-19-.99l1.13,66.059S326.75,435.116,327.606,426.961Z" transform="translate(-313.835 -362.271)" fill="#e9a493"/>
          </g>
          <g id="Grupo_1242051" data-name="Grupo 1242051" transform="translate(183.857 329.255)">
            <path id="Trazado_1239590" data-name="Trazado 1239590" d="M326.337,436.171s2.915,13.594,1.482,16.962c-10.768,6.773-28.145,7.191-32.1,4.14-3.8-3.541.67-11.247,8.878-10.653,7.446-4.867,6.085-10.128,6.085-10.128Z" transform="translate(-294.347 -436.171)" fill="#30373e"/>
            <line id="Línea_661" data-name="Línea 661" x1="4.586" y1="2.132" transform="translate(11.288 9.6)" fill="none" stroke="#fff" stroke-miterlimit="10" stroke-width="0.85"/>
            <line id="Línea_662" data-name="Línea 662" x1="5.313" y1="1.88" transform="translate(13.524 7.759)" fill="none" stroke="#fff" stroke-miterlimit="10" stroke-width="0.85"/>
            <line id="Línea_663" data-name="Línea 663" x1="5.612" y1="0.679" transform="translate(14.942 5.968)" fill="none" stroke="#fff" stroke-miterlimit="10" stroke-width="0.85"/>
            <line id="Línea_664" data-name="Línea 664" x1="5.833" y1="0.71" transform="translate(15.897 3.009)" fill="none" stroke="#fff" stroke-miterlimit="10" stroke-width="0.85"/>
            <path id="Trazado_1239591" data-name="Trazado 1239591" d="M328.328,453.482s-14.924,10.157-33.423,5.089" transform="translate(-294.44 -439.065)" fill="none" stroke="#21262b" stroke-linecap="round" stroke-linejoin="round" stroke-miterlimit="10" stroke-width="0.85"/>
            <path id="Trazado_1239592" data-name="Trazado 1239592" d="M306.913,459.01s.478-8.606-5.695-9.876" transform="translate(-295.495 -438.338)" fill="none" stroke="#21262b" stroke-linecap="round" stroke-linejoin="round" stroke-miterlimit="10" stroke-width="0.85"/>
            <path id="Trazado_1239593" data-name="Trazado 1239593" d="M307,450.439s6.137-1.51,8.3-4.591a26.936,26.936,0,0,0,3.848-9.447" transform="translate(-296.461 -436.209)" fill="none" stroke="#21262b" stroke-linecap="round" stroke-linejoin="round" stroke-miterlimit="10" stroke-width="0.85"/>
          </g>
          <g id="Grupo_1242052" data-name="Grupo 1242052" transform="translate(149.383 307.647)">
            <path id="Trazado_1239594" data-name="Trazado 1239594" d="M277.673,410.226l-15.747,3.8,4.639,20.063,15.549,8.6Z" transform="translate(-254.452 -410.226)" fill="#e9a493"/>
            <path id="Trazado_1239595" data-name="Trazado 1239595" d="M253,457.563c.16.826-.08,2.123.406,2.773,2,2.673,20.566,1.336,29.554-8.818,1.5-1.7-.016-4.239.134-4.408C278.628,449.946,259.884,462.5,253,457.563Z" transform="translate(-252.959 -416.392)" fill="#fff"/>
            <path id="Trazado_1239596" data-name="Trazado 1239596" d="M272.509,438.443c-.366-4.341-7.986-4.147-9.367-.355-1.161,3.186-1.161,3.868-2.974,6.178-3.193,4.067-7.514,9.553-7.175,11.308,2,4.325,25.684-1.323,29.882-9.987.943-4.864-2.752-8.72-3.51-9.422C278.064,438.247,274.49,439.39,272.509,438.443Z" transform="translate(-252.955 -414.404)" fill="#6073c9"/>
            <path id="Trazado_1239597" data-name="Trazado 1239597" d="M267.051,458.375c-5.971,1.657-12.9,2.437-14.062-.079-.2-1.034.331-4.972,3.32-6.707C262.644,450.923,265.76,453.9,267.051,458.375Z" transform="translate(-252.951 -417.126)" fill="#fff"/>
            <path id="Trazado_1239598" data-name="Trazado 1239598" d="M274.647,439.091s-3.515,7.578-8.889,12.113" transform="translate(-255.092 -415.052)" fill="none" stroke="#fff" stroke-miterlimit="10" stroke-width="0.85"/>
            <path id="Trazado_1239599" data-name="Trazado 1239599" d="M262.306,444.451s5.036-1.833,8.922,0" transform="translate(-254.515 -415.812)" fill="none" stroke="#fff" stroke-miterlimit="10" stroke-width="0.85"/>
            <path id="Trazado_1239600" data-name="Trazado 1239600" d="M260.35,447.374s5.532-1.577,8.516.619" transform="translate(-254.188 -416.345)" fill="none" stroke="#fff" stroke-miterlimit="10" stroke-width="0.85"/>
            <path id="Trazado_1239601" data-name="Trazado 1239601" d="M257.378,450.311s7.218-.954,9.217.941" transform="translate(-253.691 -416.887)" fill="none" stroke="#fff" stroke-miterlimit="10" stroke-width="0.85"/>
            <path id="Trazado_1239602" data-name="Trazado 1239602" d="M263.967,441.514c3.19-1.708,8.512-.333,9.071.425" transform="translate(-254.793 -415.32)" fill="none" stroke="#fff" stroke-miterlimit="10" stroke-width="0.85"/>
          </g>
          <g id="Grupo_1242053" data-name="Grupo 1242053" transform="translate(69.632 307.886)">
            <path id="Trazado_1239603" data-name="Trazado 1239603" d="M161.946,410.513l16.044,2.24-2.648,20.421-14.63,10.087Z" transform="translate(-157.78 -410.513)" fill="#e9a493"/>
            <path id="Trazado_1239604" data-name="Trazado 1239604" d="M188.678,455.319c-.077.838.288,2.1-.132,2.8-1.724,2.856-20.545,3.51-30.486-5.712-1.661-1.541-.4-4.22-.565-4.373C162.214,450.417,182.308,460.907,188.678,455.319Z" transform="translate(-157.191 -416.786)" fill="#fff"/>
            <path id="Trazado_1239605" data-name="Trazado 1239605" d="M167.409,438.07c-.062-4.356,7.54-4.911,9.288-1.273,1.468,3.056,1.535,3.736,3.565,5.856,3.576,3.733,8.624,8.607,8.459,10.386-1.564,4.5-25.9,1.367-30.927-6.843-1.415-4.748,1.883-8.949,2.569-9.721C161.862,438.419,165.531,439.206,167.409,438.07Z" transform="translate(-157.233 -414.506)" fill="#dd5325"/>
            <path id="Trazado_1239606" data-name="Trazado 1239606" d="M178.792,457.6c6.105,1.064,12.588.56,13.5-2.057a7.666,7.666,0,0,0-4.171-6.186C181.749,449.314,179.638,453.019,178.792,457.6Z" transform="translate(-160.802 -417.007)" fill="#fff"/>
            <path id="Trazado_1239607" data-name="Trazado 1239607" d="M169.409,438.807s4.241,7.2,10.035,11.182" transform="translate(-159.234 -415.243)" fill="none" stroke="#fff" stroke-miterlimit="10" stroke-width="0.85"/>
            <line id="Línea_665" data-name="Línea 665" x2="9.637" transform="translate(11.116 25.03)" fill="none" stroke="#fff" stroke-miterlimit="10" stroke-width="0.85"/>
            <line id="Línea_666" data-name="Línea 666" y1="5.233" x2="6.394" transform="translate(13.305 22.788)" fill="none" stroke="#fff" stroke-miterlimit="10" stroke-width="0.85"/>
            <line id="Línea_667" data-name="Línea 667" x2="9.882" transform="translate(13.305 28.069)" fill="none" stroke="#fff" stroke-miterlimit="10" stroke-width="0.85"/>
            <line id="Línea_668" data-name="Línea 668" y1="4.89" x2="4.997" transform="translate(16.076 25.916)" fill="none" stroke="#fff" stroke-miterlimit="10" stroke-width="0.85"/>
            <line id="Línea_669" data-name="Línea 669" x2="10.2" y2="0.055" transform="translate(16.076 31.192)" fill="none" stroke="#fff" stroke-miterlimit="10" stroke-width="0.85"/>
            <line id="Línea_670" data-name="Línea 670" y1="4.689" x2="5.042" transform="translate(18.991 29.154)" fill="none" stroke="#fff" stroke-miterlimit="10" stroke-width="0.85"/>
          </g>
          <g id="Grupo_1242054" data-name="Grupo 1242054" transform="translate(107.326 306.271)">
            <path id="Trazado_1239608" data-name="Trazado 1239608" d="M234.78,408.573l-16.154,1.214,1.342,20.549,13.958,11Z" transform="translate(-205.156 -408.573)" fill="#e9a493"/>
            <path id="Trazado_1239609" data-name="Trazado 1239609" d="M202.649,451.507c.024.841-.421,2.082-.047,2.8,1.538,2.96,19.988,4.9,30.5-3.668,1.756-1.432.668-4.186.843-4.329C229.08,448.392,208.652,457.488,202.649,451.507Z" transform="translate(-202.452 -414.883)" fill="#fff"/>
            <path id="Trazado_1239610" data-name="Trazado 1239610" d="M224.619,435.551c.338-4.343-7.212-5.381-9.188-1.861-1.66,2.957-1.77,3.631-3.931,5.617-3.807,3.5-8.862,7.948-8.811,9.735,1.274,4.59,25.468,3.1,31.008-4.769,1.715-4.648-1.309-9.05-1.945-9.864C230.132,436.253,226.421,436.806,224.619,435.551Z" transform="translate(-202.492 -412.418)" fill="#6073c9"/>
            <path id="Trazado_1239611" data-name="Trazado 1239611" d="M215.854,454.026c-6.16.673-12.424.025-13.165-2.645a7.068,7.068,0,0,1,4.264-5.816C213.313,445.931,215.3,449.4,215.854,454.026Z" transform="translate(-202.492 -414.757)" fill="#fff"/>
            <path id="Trazado_1239612" data-name="Trazado 1239612" d="M226.868,436.35s-4.69,6.912-10.727,10.521" transform="translate(-204.741 -413.217)" fill="none" stroke="#fff" stroke-miterlimit="10" stroke-width="0.85"/>
            <path id="Trazado_1239613" data-name="Trazado 1239613" d="M214.191,439.483s5.266-1,8.805,1.439" transform="translate(-204.415 -413.707)" fill="none" stroke="#fff" stroke-miterlimit="10" stroke-width="0.85"/>
            <path id="Trazado_1239614" data-name="Trazado 1239614" d="M211.8,442.025s5.714-.665,8.3,1.985" transform="translate(-204.015 -414.153)" fill="none" stroke="#fff" stroke-miterlimit="10" stroke-width="0.85"/>
            <path id="Trazado_1239615" data-name="Trazado 1239615" d="M208.4,444.4s7.278.222,8.944,2.415" transform="translate(-203.447 -414.562)" fill="none" stroke="#fff" stroke-miterlimit="10" stroke-width="0.85"/>
            <path id="Trazado_1239616" data-name="Trazado 1239616" d="M216.3,436.826c3.424-1.172,8.454,1.044,8.884,1.882" transform="translate(-204.768 -413.241)" fill="none" stroke="#fff" stroke-miterlimit="10" stroke-width="0.85"/>
          </g>
          <g id="Grupo_1242055" data-name="Grupo 1242055" transform="translate(25.099 304.594)">
            <path id="Trazado_1239617" data-name="Trazado 1239617" d="M119.229,406.56l14.476,7.271-9.063,18.491-17.094,4.858Z" transform="translate(-104.359 -406.56)" fill="#e9a493"/>
            <path id="Trazado_1239618" data-name="Trazado 1239618" d="M132.019,457.257c-.342.769-.4,2.085-1.024,2.609-2.549,2.152-20.507-3.012-26.962-14.937-1.078-1.993.975-4.125.868-4.324C108.6,444.379,124.192,460.5,132.019,457.257Z" transform="translate(-103.719 -412.252)" fill="#fff"/>
            <path id="Trazado_1239619" data-name="Trazado 1239619" d="M116.974,434.915c1.34-4.145,8.718-2.231,9.205,1.776.41,3.366.254,4.031,1.5,6.691,2.189,4.684,5.328,10.661,4.6,12.293-2.926,3.76-24.89-6.761-27.017-16.15.183-4.95,4.655-7.871,5.553-8.381C111.609,433.466,114.83,435.389,116.974,434.915Z" transform="translate(-103.977 -410.67)" fill="#dd5325"/>
            <path id="Trazado_1239620" data-name="Trazado 1239620" d="M121.928,456.235c5.441,2.967,11.217,5,12.919,2.81a6.9,6.9,0,0,0-1.671-6.939C127.155,450.023,124.2,452.169,121.928,456.235Z" transform="translate(-106.763 -414.039)" fill="#fff"/>
            <path id="Trazado_1239621" data-name="Trazado 1239621" d="M119.325,435.672s1.706,8.177,5.915,13.812" transform="translate(-106.328 -411.427)" fill="none" stroke="#fff" stroke-miterlimit="10" stroke-width="0.85"/>
            <line id="Línea_671" data-name="Línea 671" x2="9.127" y2="3.093" transform="translate(13.417 25.936)" fill="none" stroke="#fff" stroke-miterlimit="10" stroke-width="0.85"/>
            <line id="Línea_672" data-name="Línea 672" y1="2.902" x2="7.736" transform="translate(14.53 26.569)" fill="none" stroke="#fff" stroke-miterlimit="10" stroke-width="0.85"/>
            <line id="Línea_673" data-name="Línea 673" x2="9.359" y2="3.172" transform="translate(14.515 29.518)" fill="none" stroke="#fff" stroke-miterlimit="10" stroke-width="0.85"/>
            <line id="Línea_674" data-name="Línea 674" y1="3.027" x2="6.302" transform="translate(16.261 29.971)" fill="none" stroke="#fff" stroke-miterlimit="10" stroke-width="0.85"/>
            <line id="Línea_675" data-name="Línea 675" x2="9.642" y2="3.327" transform="translate(16.137 33.363)" fill="none" stroke="#fff" stroke-miterlimit="10" stroke-width="0.85"/>
            <line id="Línea_676" data-name="Línea 676" y1="2.822" x2="6.28" transform="translate(18.046 33.988)" fill="none" stroke="#fff" stroke-miterlimit="10" stroke-width="0.85"/>
          </g>
          <path id="Trazado_1239622" data-name="Trazado 1239622" d="M183.135,246.833l10.129,10.546,27.467-1.251,1.351,9.763s-26.954,7.127-32.611,5.271c-3.664-1.2-15.892-8.888-21.554-13.761C171.67,255.763,180.614,249.927,183.135,246.833Z" transform="translate(-89.352 -75.262)" fill="#e9a493"/>
          <path id="Trazado_1239623" data-name="Trazado 1239623" d="M170.684,231.857l12.443,12.473c-2.522,3.093-6.236,4.827-9.988,6.466-3.081-2.653-5.274-4.64-5.274-4.64Z" transform="translate(-89.344 -72.758)" fill="#8da664"/>
          <path id="Trazado_1239624" data-name="Trazado 1239624" d="M225.6,253.777c5.209-2.305,10.837-1.679,10.552.525-.157,1.223-4.86.771-4.86.771" transform="translate(-98.997 -76.18)" fill="#e9a493"/>
          <path id="Trazado_1239625" data-name="Trazado 1239625" d="M230.129,255.366s13.261,1.375,12.769,3.465c-.476,2.3-7.923.981-7.923.981s8.891.232,8.378,2.687c-.45,2.146-9.074.369-9.074.369s7.679,1.5,7.613,3.248-8.778-.1-8.778-.1,5.92,1.111,5.759,2.9c-.145,1.606-7.057-.156-7.9-.36-3.868-.934-9.668-3.027-11.41-6.958-1.665-3.757,1.764-6.231,4.877-7.529" transform="translate(-97.914 -76.472)" fill="#e9a493"/>
          <g id="Grupo_1242056" data-name="Grupo 1242056" transform="translate(165.949 159.431)">
            <path id="Trazado_1239626" data-name="Trazado 1239626" d="M326.693,243.95l6.373,11.9-7.378,6.39c-1.835-1.651-5.882-9.641-6.97-11.88Z" transform="translate(-280.513 -234.211)" fill="#e9a493"/>
            <path id="Trazado_1239627" data-name="Trazado 1239627" d="M322.918,266.145l6.9-6.465-6.956-13.572-7.809,4.952Z" transform="translate(-279.899 -234.572)" fill="#fff"/>
            <path id="Trazado_1239628" data-name="Trazado 1239628" d="M309.908,247.478l-11.517,7.638L279.548,233.74l-6.705,31.488s12.8,11.505,21.729,13.005c6.4,1.075,17.249-7.925,22.884-13.112A94.393,94.393,0,0,1,309.908,247.478Z" transform="translate(-272.843 -232.504)" fill="#dd5325"/>
            <path id="Trazado_1239629" data-name="Trazado 1239629" d="M333.044,254.68c2.357-1.21,5.613-3.522,10.12-5.243,3.026-1.156,7.263-2.443,6.865-4.112-.348-1.46-3.388-.114-5.547.013,1.706-.633,6.409-1.986,6.045-3.525-.411-1.745-5.525,0-7.682.319,3.522-1.181,7.874-2.867,7.222-4.619-.764-2.05-5.985.387-9.362,1.734,11.27-5.376,8.262-10.2-3.657-2.061-3.523,2.4,4.3-2.085,3.269-4.172-1.7-3.436-15.719,5.477-12.511,13.614C329.431,250.746,331.882,253.845,333.044,254.68Z" transform="translate(-281.953 -232.256)" fill="#e9a493"/>
          </g>
          <g id="Grupo_1242059" data-name="Grupo 1242059" transform="translate(91.605 86.212)">
            <g id="Grupo_1242057" data-name="Grupo 1242057">
              <path id="Trazado_1239630" data-name="Trazado 1239630" d="M199.882,166.07c.366-2.624,1.475-6.46,1.614-11.283.093-3.237-.087-7.663,1.619-7.837,1.493-.152,1.224,3.161,1.816,5.242.036-1.819-.237-6.705,1.336-6.87,1.783-.187,1.817,5.218,2.23,7.357-.046-3.715.112-8.379,1.98-8.341,2.187.045,1.607,5.778,1.449,9.411,1.36-12.412,6.9-11.161,3.151,2.772-1.108,4.118.551-4.748,2.861-4.461,3.8.472.01,16.646-8.73,16.3C204.787,168.185,201.054,166.893,199.882,166.07Z" transform="translate(-186.302 -144.339)" fill="#e9a493"/>
              <path id="Trazado_1239631" data-name="Trazado 1239631" d="M212.805,170.56l-13.338-2.094-3.6,9.072c2.164,1.188,11.041,2.376,13.514,2.664Z" transform="translate(-185.63 -148.372)" fill="#e9a493"/>
              <path id="Trazado_1239632" data-name="Trazado 1239632" d="M193.962,178.612l3.881-8.758,14.009,4.57-1.085,4.652Z" transform="translate(-185.312 -148.604)" fill="#fff"/>
              <path id="Trazado_1239633" data-name="Trazado 1239633" d="M207.361,197.5l4.808-17.34c-6.394-1.445-13.207-4.247-19.315-6.858-3.973,5.791-10.678,29.326-9.02,35.447,2.932,10.82,27.809,33.184,27.809,33.184l16.763-19.861Z" transform="translate(-183.576 -149.181)" fill="#dd5325"/>
            </g>
            <path id="Trazado_1239634" data-name="Trazado 1239634" d="M262.206,302.667v-8.8l-42.343-3.73s-8.471,48.73-9.308,62.925c-.57,9.655.264,32.472.856,46.1,7.908.975,15.777-.687,23.387-1l-.433-41.531,6.364-30.069,9.695,75.091c7.926-.47,16.008-2.528,24.152-4.763Z" transform="translate(-188.054 -168.714)" fill="#30373e"/>
            <g id="Grupo_1242058" data-name="Grupo 1242058" transform="translate(26.01 61.047)">
              <path id="Trazado_1239635" data-name="Trazado 1239635" d="M270.07,231.715c-7.878-7.2-47.218-16.561-55.147-8.455a567.239,567.239,0,0,0,1.817,57.518c16.127,3.964,33.153,6.353,49.536,2.849C268.043,266.407,269.6,249.017,270.07,231.715Z" transform="translate(-214.807 -218.056)" fill="#dd5325"/>
              <path id="Trazado_1239636" data-name="Trazado 1239636" d="M224.674,217.64c6.558,14.43,21.864,17.713,33.887,7.363C249.89,221.144,235.6,219.035,224.674,217.64Z" transform="translate(-216.456 -217.64)" fill="#fff"/>
            </g>
            <path id="Trazado_1239637" data-name="Trazado 1239637" d="M241.488,221.134c-6.249-.931-8.056,7.021,1.563,8.579s10.978-6.583,5.665-7.285" transform="translate(-192.393 -157.165)" fill="none" stroke="#dae4fe" stroke-linecap="round" stroke-linejoin="round" stroke-miterlimit="10" stroke-width="0.85"/>
            <path id="Trazado_1239638" data-name="Trazado 1239638" d="M239.35,213.2l-.395,9.993c.317,4.3,10.789,4.062,11.321-1.135.432-6.578.946-9,.879-11.732Z" transform="translate(-192.834 -155.37)" fill="#e9a493"/>
            <path id="Trazado_1239639" data-name="Trazado 1239639" d="M245.535,211.947c-5.547,1.98-10.394.681-10.619-4.045s2.641-8.974,3.8-10.865,4.7-5.919,11.043-2.86S254.57,208.861,245.535,211.947Z" transform="translate(-192.157 -152.485)" fill="#e9a493"/>
            <path id="Trazado_1239640" data-name="Trazado 1239640" d="M245.725,205.521c-.1.276-.022.557.17.626s.43-.1.529-.376.022-.557-.17-.626S245.824,205.244,245.725,205.521Z" transform="translate(-193.959 -154.502)" fill="#272532"/>
            <path id="Trazado_1239641" data-name="Trazado 1239641" d="M239.5,202c-.1.276-.022.557.17.626s.43-.1.529-.376.023-.557-.17-.626S239.6,201.723,239.5,202Z" transform="translate(-192.918 -153.913)" fill="#272532"/>
            <path id="Trazado_1239642" data-name="Trazado 1239642" d="M255.93,211.158c-.969,1.537-2.432,2.367-3.266,1.855s-.725-2.174.245-3.71,2.432-2.367,3.266-1.855S256.9,209.621,255.93,211.158Z" transform="translate(-195.032 -154.864)" fill="#e9a493"/>
          </g>
          <path id="Trazado_1239643" data-name="Trazado 1239643" d="M172.469,288.829s8.914,22.738,10.9,46.75,2.542,66.052,2.542,66.052a48.4,48.4,0,0,1-30.149,1.043c.075-43.872.046-74.854.046-74.854l.428-39.365S168.538,286.574,172.469,288.829Z" transform="translate(-87.32 -82.098)" fill="#6073c9"/>
          <path id="Trazado_1239644" data-name="Trazado 1239644" d="M134.443,286.032s-4.948,1.982-7.391,18.537c-1.3,8.833-2.153,35.984-2.153,35.984l-14.62,56.672s13.418,10.548,27.84,8.029c8.366-19.106,26.687-86.894,26.763-100.107s-.018-16.6-.018-16.6Z" transform="translate(-79.716 -81.815)" fill="#6073c9"/>
          <g id="Grupo_1242060" data-name="Grupo 1242060" transform="translate(46.531 153.028)">
            <path id="Trazado_1239645" data-name="Trazado 1239645" d="M138.755,224.985c3.685-1.651,14.482,2.081,20.242,2.9,3.8.54,8.3,4.664,8.807,9.332.342,3.17,1.639,4.488,3.589,7.218,3,4.2,2.95,9.1-1.7,12.47-1.706,7.517-2.455,15.071.057,22.513-11.689.614-24.942,4.145-36.264.054C137.58,238.516,118.944,233.863,138.755,224.985Z" transform="translate(-129.453 -224.568)" fill="#8da664"/>
            <path id="Trazado_1239646" data-name="Trazado 1239646" d="M145.844,224.568c5.507,3.7,5.349,6.377,10.015,12.247,5.326,6.7,10.792.18,9.433-7.559C159.8,226.121,152.156,224.919,145.844,224.568Z" transform="translate(-132.193 -224.568)" fill="#e9a493"/>
          </g>
          <path id="Trazado_1239647" data-name="Trazado 1239647" d="M117.3,189.488l-7.261-20.514-10.25.538s3.044,21.371,4.825,26.76c2.182,6.605,4.81,13.113,15.193,25.961,5.125,1.278,13.006-6.113,12.632-10.613Z" transform="translate(-77.962 -62.245)" fill="#e9a493"/>
          <path id="Trazado_1239648" data-name="Trazado 1239648" d="M111.811,169.4c1.721-5.213.459-10.476-1.717-9.944-1.207.295-.225,4.7-.225,4.7s-2.874-12.412-4.912-11.7c-2.254.725-.089,7.629-.089,7.629s-1.236-8.4-3.638-7.626c-2.1.681.655,8.649.655,8.649s-2.367-7.1-4.113-6.833,1.093,8.312,1.093,8.312-1.781-5.482-3.558-5.116c-1.593.328.953,6.674,1.252,7.45,1.372,3.557,4.124,8.809,8.258,9.994,3.953,1.133,6.044-2.412,6.994-5.518" transform="translate(-77.126 -59.476)" fill="#e9a493"/>
          <path id="Trazado_1239649" data-name="Trazado 1239649" d="M119.488,224.95l10.77,14.2,13.66-12.635-12.36-13.661S130.3,219.483,119.488,224.95Z" transform="translate(-81.256 -69.582)" fill="#8da664"/>
          <g id="Grupo_1242061" data-name="Grupo 1242061" transform="translate(174.659 91.346)">
            <path id="Trazado_1239650" data-name="Trazado 1239650" d="M302.452,196.65c.165-2.249.368-4.523.623-6.741a15.032,15.032,0,0,1-11.473-2.121l-1.909,5.92C285.4,207.745,301.583,208.479,302.452,196.65Z" transform="translate(-284.249 -156.737)" fill="#fff"/>
            <path id="Trazado_1239651" data-name="Trazado 1239651" d="M303.467,183.676c.645-5.62.468-11.28,2.1-14.724,4.485-5.688,6.441-10.878,3.808-12.242-1.655-.857-3.306,4.366-3.306,4.366s-.59-10.344-3.405-10.565c-3.438-.271-.292,8.666-.292,8.666s-2.984-8.586-4.712-7.659c-1.831.983-.929,3.933.215,6.331,1.073,1.682,1.935,3.411,1.935,3.411a29.422,29.422,0,0,1-1.935-3.411c-1.2-1.885-2.67-3.712-3.486-2.976-1.556,1.4.969,5.2,2.161,6.812.351.438.569.737.569.737s-.231-.281-.569-.737c-1.175-1.466-3.858-4.5-4.991-3.164-1.453,1.709,4.052,7.794,4.052,7.794l-3.615,15.241A15.035,15.035,0,0,0,303.467,183.676Z" transform="translate(-284.641 -150.504)" fill="#ac4946"/>
            <path id="Trazado_1239652" data-name="Trazado 1239652" d="M296.771,163.165c.259.005,1.572,1.869,1.572,1.869" transform="translate(-285.553 -152.621)" fill="none" stroke="#762f0e" stroke-linecap="round" stroke-linejoin="round" stroke-miterlimit="10" stroke-width="0.85"/>
            <line id="Línea_677" data-name="Línea 677" x2="1.636" y2="2.909" transform="translate(13.408 7.566)" fill="none" stroke="#762f0e" stroke-linecap="round" stroke-linejoin="round" stroke-miterlimit="10" stroke-width="0.85"/>
            <line id="Línea_678" data-name="Línea 678" x2="0.718" y2="1.84" transform="translate(17.395 7.154)" fill="none" stroke="#762f0e" stroke-linecap="round" stroke-linejoin="round" stroke-miterlimit="10" stroke-width="0.85"/>
            <path id="Trazado_1239653" data-name="Trazado 1239653" d="M326.968,222.8,306.6,212.071s-2.537-6.769-2-11.561c1.237-11-5.068-.934-10.6-2.767s-10.278-8.374-10.638,7.206c-.076,3.275-.442,17.053,2.282,20.277,5.385,6.372,10.776,13.836,14.567,16.887C316.143,254.931,341.946,228.875,326.968,222.8Z" transform="translate(-283.302 -157.911)" fill="#f1c754"/>
            <path id="Trazado_1239654" data-name="Trazado 1239654" d="M322.653,292.043s-8.639,14.936-12.944,38.643-4.959,68.815-4.959,68.815a48.569,48.569,0,0,0,30.131,1.93c.818-43.841,3.011-75.8,3.011-75.8l3.39-35.057S326.784,290.179,322.653,292.043Z" transform="translate(-286.887 -173.916)" fill="#8da664"/>
            <path id="Trazado_1239655" data-name="Trazado 1239655" d="M359.206,289.677s4.733,2.452,5.56,19.166c.441,8.918-1.345,31.859-1.345,31.859l9.058,57.823s-10.752,9.159-24.861,5.253c-6.475-19.828-21.765-84.867-20.56-98.027s-.81-13.854-.81-13.854Z" transform="translate(-290.481 -173.771)" fill="#8da664"/>
            <path id="Trazado_1239656" data-name="Trazado 1239656" d="M353.727,228.828c-8.189-7.324-12.817-4.285-16.268-3.838-3.569.463-20.841.73-26.713,6.557s6.419,38.7,6.653,43.407-1.313,10.537,3.937,11.358c3.979.622,15.106,3.66,20.413,1.642s14.164-2.945,17.5-3.832,1.777-10.7-.453-14.409-5.929-13.682-4.406-18.77S357.115,231.858,353.727,228.828Z" transform="translate(-287.624 -162.789)" fill="#f1c754"/>
            <path id="Trazado_1239657" data-name="Trazado 1239657" d="M328.9,229.079c-2.415-.306-3.255-5.7-4.968-6.99,7.4,1.833,17.208.924,25.076,2.107A29.84,29.84,0,0,1,328.9,229.079Z" transform="translate(-290.095 -162.472)" fill="#ac4946"/>
            <path id="Trazado_1239658" data-name="Trazado 1239658" d="M326.323,222.393c.775,1.946,2.7,6.063,5.123,6.353,4.242.507,5.688-1.543,11.3-5.293a13.919,13.919,0,0,1,5.9.506c-6.956,5.234-18.69,18.1-28.232-2.952C322.237,221.006,324.456,221.908,326.323,222.393Z" transform="translate(-289.507 -162.291)" fill="#fff"/>
            <path id="Trazado_1239659" data-name="Trazado 1239659" d="M345.962,245.377s-.381-.015-.961-.013C345.586,245.383,345.962,245.377,345.962,245.377Z" transform="translate(-293.617 -166.363)" fill="#f2ccb2"/>
            <path id="Trazado_1239660" data-name="Trazado 1239660" d="M393.282,287.257c3.834,3.9,7.141,7.835,8.627,11.156,1.2,6.834,3.79,11.464,6.675,10.314,1.813-.722-1.016-5.143-1.016-5.143s9.208,4.541,11.349,2.559c2.613-2.42-7.31-4.184-7.31-4.184s8.706,2.065,9.208.2c.533-1.975-2.414-2.175-5.046-2.775-2.035-.217-3.958-.621-3.958-.621a31.509,31.509,0,0,1,3.958.621c2.281.243,4.7.252,4.712-.81.018-2.025-4.649-2.437-6.712-2.52-.58,0-.961-.021-.961-.021s.376,0,.961.021c1.941.008,6.357,1.5,6.134-.164-.286-2.133-9.009-3.36-9.009-3.36l-8.252-13.071C398.534,281.173,395.047,283.73,393.282,287.257Z" transform="translate(-301.689 -172.063)" fill="#ac4946"/>
            <path id="Trazado_1239661" data-name="Trazado 1239661" d="M387.042,280.76c1.6,1.494,3.2,3.033,4.713,4.576,1.765-3.527,5.252-6.084,9.361-7.8l-2.893-4.583C390.519,261.183,378.626,272.908,387.042,280.76Z" transform="translate(-300.162 -170.141)" fill="#fff"/>
            <path id="Trazado_1239662" data-name="Trazado 1239662" d="M343.489,254.24S367.166,265.558,376.61,275c7.825,7.826,4.17-1.188,9.054-4.37s9.248-7.6,1-12.81-22.158-23.52-27.824-28.168S331.059,243.906,343.489,254.24Z" transform="translate(-292.74 -163.616)" fill="#f1c754"/>
            <path id="Trazado_1239663" data-name="Trazado 1239663" d="M283.806,200.576c1.033,3.342,7.583,1.537,9.886,3.8s10.923-1.4,10.923-1.4" transform="translate(-283.386 -158.875)" fill="none" stroke="#dea94d" stroke-linecap="round" stroke-linejoin="round" stroke-miterlimit="10" stroke-width="0.85"/>
            <path id="Trazado_1239664" data-name="Trazado 1239664" d="M283.417,213.511c2.674,2.657,9.959-6.633,13.029-3.2s8.718-.525,8.718-.525" transform="translate(-283.321 -160.374)" fill="none" stroke="#dea94d" stroke-linecap="round" stroke-linejoin="round" stroke-miterlimit="10" stroke-width="0.85"/>
            <path id="Trazado_1239665" data-name="Trazado 1239665" d="M283.7,221.352c2.717,2.964,6.964-4.462,10.351-1.822s11.217-1.955,12.609-4" transform="translate(-283.369 -161.376)" fill="none" stroke="#dea94d" stroke-linecap="round" stroke-linejoin="round" stroke-miterlimit="10" stroke-width="0.85"/>
            <path id="Trazado_1239666" data-name="Trazado 1239666" d="M288.381,231.234c3.651-1.8,1.482-6.757,10.02-5.452,5.814.889,10.56-4.182,10.97-8.633" transform="translate(-284.151 -161.646)" fill="none" stroke="#dea94d" stroke-linecap="round" stroke-linejoin="round" stroke-miterlimit="10" stroke-width="0.85"/>
            <path id="Trazado_1239667" data-name="Trazado 1239667" d="M297.528,240.955c3.548-4.227,1.827-9.987,6.062-9.059s11.394-9.258,10.854-12.624" transform="translate(-285.68 -162.001)" fill="none" stroke="#dea94d" stroke-linecap="round" stroke-linejoin="round" stroke-miterlimit="10" stroke-width="0.85"/>
            <path id="Trazado_1239668" data-name="Trazado 1239668" d="M311.084,250.918a12.958,12.958,0,0,1-.432-10.188c2.04-5.928,4.531-8.321,4.67-12.727" transform="translate(-287.739 -163.46)" fill="none" stroke="#dea94d" stroke-linecap="round" stroke-linejoin="round" stroke-miterlimit="10" stroke-width="0.85"/>
            <path id="Trazado_1239669" data-name="Trazado 1239669" d="M347.023,250.95s1.629,5.673,5.088,7.61,10.01,8.757,10.01,8.757" transform="translate(-293.955 -167.297)" fill="none" stroke="#dea94d" stroke-linecap="round" stroke-linejoin="round" stroke-miterlimit="10" stroke-width="0.85"/>
            <path id="Trazado_1239670" data-name="Trazado 1239670" d="M381.759,279.316c.922-8.284,5.957-9.529,9.6-10.774s4.106-3.4,4.106-3.4" transform="translate(-299.762 -169.669)" fill="none" stroke="#dea94d" stroke-linecap="round" stroke-linejoin="round" stroke-miterlimit="10" stroke-width="0.85"/>
            <path id="Trazado_1239671" data-name="Trazado 1239671" d="M375.225,273c.415-5.118.507-6.354,5.442-7.881a11.759,11.759,0,0,0,6.852-6.392" transform="translate(-298.67 -168.598)" fill="none" stroke="#dea94d" stroke-linecap="round" stroke-linejoin="round" stroke-miterlimit="10" stroke-width="0.85"/>
            <path id="Trazado_1239672" data-name="Trazado 1239672" d="M367.418,266.917c0-5.576.069-6.365,3.494-8.184s7.075-10.18,7.075-10.18" transform="translate(-297.365 -166.896)" fill="none" stroke="#dea94d" stroke-linecap="round" stroke-linejoin="round" stroke-miterlimit="10" stroke-width="0.85"/>
            <path id="Trazado_1239673" data-name="Trazado 1239673" d="M358.146,260.341c1.358-6.907,3.987-8.3,6.477-8.985s2.874-7.251,7.025-8.728" transform="translate(-295.814 -165.905)" fill="none" stroke="#dea94d" stroke-linecap="round" stroke-linejoin="round" stroke-miterlimit="10" stroke-width="0.85"/>
            <path id="Trazado_1239674" data-name="Trazado 1239674" d="M351.365,254.54c1.333-5.649.088-7.432,5.069-8.477s4.037-10.887,7.691-12.4" transform="translate(-294.681 -164.407)" fill="none" stroke="#dea94d" stroke-linecap="round" stroke-linejoin="round" stroke-miterlimit="10" stroke-width="0.85"/>
            <path id="Trazado_1239675" data-name="Trazado 1239675" d="M315.05,235c5.292,4.431,10.892,1.014,16.724,3.544s10.605,2.83,13.006,1.236,7.677-.855,9.811.85" transform="translate(-288.609 -164.63)" fill="none" stroke="#dea94d" stroke-linecap="round" stroke-linejoin="round" stroke-miterlimit="10" stroke-width="0.85"/>
            <path id="Trazado_1239676" data-name="Trazado 1239676" d="M310.575,244.031c2.654,5.348,15.206.522,18.891,3.765s5.41,6.374,12.585,4.818" transform="translate(-287.861 -166.14)" fill="none" stroke="#dea94d" stroke-linecap="round" stroke-linejoin="round" stroke-miterlimit="10" stroke-width="0.85"/>
            <path id="Trazado_1239677" data-name="Trazado 1239677" d="M311.792,257.275c8.005-.754,7.8-2.5,12.4.8s15.143,6.364,23.7,2.477" transform="translate(-288.065 -168.164)" fill="none" stroke="#dea94d" stroke-linecap="round" stroke-linejoin="round" stroke-miterlimit="10" stroke-width="0.85"/>
            <path id="Trazado_1239678" data-name="Trazado 1239678" d="M314.209,266.181a13.908,13.908,0,0,1,13.828,1.656c3.37,2.765,6.691-1.44,12.777,1.839s13.235-2.581,13.235-2.581" transform="translate(-288.469 -169.656)" fill="none" stroke="#dea94d" stroke-linecap="round" stroke-linejoin="round" stroke-miterlimit="10" stroke-width="0.85"/>
            <path id="Trazado_1239679" data-name="Trazado 1239679" d="M316.758,275.693c4.146-.553,6.759-2.128,11.332,1.08s13.344.336,18.3,1.91,12.238-2.991,12.238-2.991" transform="translate(-288.895 -171.287)" fill="none" stroke="#dea94d" stroke-linecap="round" stroke-linejoin="round" stroke-miterlimit="10" stroke-width="0.85"/>
            <path id="Trazado_1239680" data-name="Trazado 1239680" d="M319.052,285.1c10.535-1.257,7.565.16,17.766,3.74s14.093-2.518,18.442-1.406a6.9,6.9,0,0,0,6.8-1.655" transform="translate(-289.278 -172.93)" fill="none" stroke="#dea94d" stroke-linecap="round" stroke-linejoin="round" stroke-miterlimit="10" stroke-width="0.85"/>
          </g>
          <path id="Trazado_1239681" data-name="Trazado 1239681" d="M340.7,211.176V222.1l-9.591.233.524-8.242Z" transform="translate(-116.636 -69.301)" fill="#ac4946"/>
          <path id="Trazado_1239682" data-name="Trazado 1239682" d="M333.69,194.548c-3.425,1.362-3.177,3.613-4.6,5.644s-2.884,9.167.269,11.407,9.5.428,11.981-3.644,5.248-8.664,1.656-12.632S333.69,194.548,333.69,194.548Z" transform="translate(-116.03 -66.318)" fill="#ac4946"/>
          <path id="Trazado_1239683" data-name="Trazado 1239683" d="M331.246,203.962a.461.461,0,1,1-.206-.71A.533.533,0,0,1,331.246,203.962Z" transform="translate(-116.512 -67.972)" fill="#272532"/>
          <path id="Trazado_1239684" data-name="Trazado 1239684" d="M337.533,206.7a.461.461,0,1,1-.206-.71A.533.533,0,0,1,337.533,206.7Z" transform="translate(-117.563 -68.43)" fill="#272532"/>
          <path id="Trazado_1239685" data-name="Trazado 1239685" d="M344.606,208.875c4.288-.674.162,7.369-2.579,3.583" transform="translate(-118.461 -68.909)" fill="#ac4946"/>
          <path id="Trazado_1239686" data-name="Trazado 1239686" d="M340.613,199.153c-1.792,1.929-5.975,1.022-8.017-1.582-1.752-2.235-3.987-.578-5.107,3.316.138-9.225,8.576-16.662,15.73-8.395,6.981,1.6,6.86,9.921-2.4,14.692C342.361,203.741,338.156,203.767,340.613,199.153Z" transform="translate(-116.03 -65.579)" fill="#4d170c"/>
          <g id="Grupo_1242062" data-name="Grupo 1242062" transform="translate(60.902 128.74)">
            <path id="Trazado_1239687" data-name="Trazado 1239687" d="M152.361,224.736l2.919-7.816,8.365,1.359-1.042,9.691-3.577,5.022Z" transform="translate(-147.654 -199.001)" fill="#e9a493"/>
            <path id="Trazado_1239688" data-name="Trazado 1239688" d="M168.2,205.315a16.408,16.408,0,0,0,.731,3.127c.639,2.037.356,8.62-2.245,9.622s-9.457-.52-11.328-2.689-.537-6.925-.332-10.673,6.8-5.2,9.614-4.7S168.2,205.315,168.2,205.315Z" transform="translate(-147.991 -196.157)" fill="#e9a493"/>
            <path id="Trazado_1239689" data-name="Trazado 1239689" d="M169.183,208.363c.076.318.311.536.525.484s.328-.351.252-.669-.311-.535-.526-.484S169.108,208.044,169.183,208.363Z" transform="translate(-150.463 -197.458)" fill="#272532"/>
            <path id="Trazado_1239690" data-name="Trazado 1239690" d="M163.375,210.13c.076.318.311.535.525.484s.328-.351.252-.669-.311-.536-.525-.484S163.3,209.812,163.375,210.13Z" transform="translate(-149.492 -197.753)" fill="#272532"/>
            <path id="Trazado_1239691" data-name="Trazado 1239691" d="M166.872,204.3a9.107,9.107,0,0,0-2.369-3.011c-.521,1.4-4.1,3.011-6.227,4.311a4.575,4.575,0,0,0-2.138,4.316,5.009,5.009,0,0,1-.56,3.045,21.1,21.1,0,0,1-1.828-2.241c-.5-.861-.317-2.806-2.41-1.922-1.57.662-.332,2.762,1.054,4.207.717.746-3.647,2.289-3.678,1.3-.051-1.648-1.6-2.823-1.689-4.585-.055-1.041.061-2.09-.067-3.125a5.751,5.751,0,0,1-.07-2.928c.3-.706.974-1.184,1.35-1.853.647-1.153.348-2.765,1.283-3.7.824-.823,2.08-.68,3.1-1.044,1.233-.44,2.25-1.322,3.569-1.591,1.688-.345,3.452.685,5.192.729a2.97,2.97,0,0,1,2.288.675,14.245,14.245,0,0,0,1.246,1.27c.58.433,1.315.617,1.893,1.051a2.619,2.619,0,0,1,.917,2.847C167.608,202.5,166.653,203.856,166.872,204.3Z" transform="translate(-146.709 -195.404)" fill="#762f0e"/>
            <path id="Trazado_1239692" data-name="Trazado 1239692" d="M154.114,211.833c-3.551-3.608-5.421,4.449.714,5.054" transform="translate(-147.398 -197.996)" fill="#e9a493"/>
          </g>
          <path id="Trazado_1239693" data-name="Trazado 1239693" d="M167.24,208.926a1.658,1.658,0,0,0,1.245,1.247c.246-.032.956.286.284,1.173" transform="translate(-89.239 -68.925)" fill="none" stroke="#ab6453" stroke-linecap="round" stroke-linejoin="round" stroke-miterlimit="10" stroke-width="0.85"/>
          <path id="Trazado_1239694" data-name="Trazado 1239694" d="M166.746,214.866a1.548,1.548,0,0,0,2.5-.369" transform="translate(-89.157 -69.856)" fill="none" stroke="#ab6453" stroke-linecap="round" stroke-linejoin="round" stroke-miterlimit="10" stroke-width="0.85"/>
          <path id="Trazado_1239695" data-name="Trazado 1239695" d="M162.562,220.546a5.161,5.161,0,0,0,4.427,1.283" transform="translate(-88.457 -70.867)" fill="none" stroke="#ab6453" stroke-linecap="round" stroke-linejoin="round" stroke-miterlimit="10" stroke-width="0.85"/>
          <path id="Trazado_1239696" data-name="Trazado 1239696" d="M162.562,208.436a2.382,2.382,0,0,1,1.215-.749" transform="translate(-88.457 -68.717)" fill="none" stroke="#762f0e" stroke-linecap="round" stroke-linejoin="round" stroke-miterlimit="10" stroke-width="0.85"/>
          <path id="Trazado_1239697" data-name="Trazado 1239697" d="M168.874,206.038a3.807,3.807,0,0,1,1.208.323" transform="translate(-89.512 -68.442)" fill="none" stroke="#762f0e" stroke-linecap="round" stroke-linejoin="round" stroke-miterlimit="10" stroke-width="0.85"/>
          <line id="Línea_679" data-name="Línea 679" x2="0.712" y2="2.505" transform="translate(21.112 101.166)" fill="none" stroke="#ab6453" stroke-linecap="round" stroke-linejoin="round" stroke-miterlimit="10" stroke-width="0.85"/>
          <line id="Línea_680" data-name="Línea 680" x2="0.705" y2="2.344" transform="translate(24.055 99.292)" fill="none" stroke="#ab6453" stroke-linecap="round" stroke-linejoin="round" stroke-miterlimit="10" stroke-width="0.85"/>
          <line id="Línea_681" data-name="Línea 681" x2="0.941" y2="4.175" transform="translate(26.802 96.438)" fill="none" stroke="#ab6453" stroke-linecap="round" stroke-linejoin="round" stroke-miterlimit="10" stroke-width="0.85"/>
          <line id="Línea_682" data-name="Línea 682" x1="0.273" y2="1.447" transform="translate(65.609 153.028)" fill="none" stroke="#ab6453" stroke-linecap="round" stroke-linejoin="round" stroke-miterlimit="10" stroke-width="0.85"/>
          <line id="Línea_683" data-name="Línea 683" x1="0.192" y2="2.301" transform="translate(76.005 154.696)" fill="none" stroke="#ab6453" stroke-linecap="round" stroke-linejoin="round" stroke-miterlimit="10" stroke-width="0.85"/>
          <path id="Trazado_1239698" data-name="Trazado 1239698" d="M239.323,216.367c3.589,1.51,5.8.29,6.548-.467" transform="translate(-101.29 -70.091)" fill="none" stroke="#ab6453" stroke-linecap="round" stroke-linejoin="round" stroke-miterlimit="10" stroke-width="0.85"/>
          <path id="Trazado_1239699" data-name="Trazado 1239699" d="M240.364,205.469c-.673-1.387.78-1.8,1.333-.972" transform="translate(-101.435 -68.113)" fill="none" stroke="#ab6453" stroke-linecap="round" stroke-linejoin="round" stroke-miterlimit="10" stroke-width="0.85"/>
          <path id="Trazado_1239700" data-name="Trazado 1239700" d="M239.323,207.988c.085,1.176,2.381,1.729,3.274.622" transform="translate(-101.29 -68.768)" fill="none" stroke="#ab6453" stroke-linecap="round" stroke-linejoin="round" stroke-miterlimit="10" stroke-width="0.85"/>
          <line id="Línea_684" data-name="Línea 684" x2="0.037" y2="2.358" transform="translate(110.119 93.589)" fill="none" stroke="#ab6453" stroke-linecap="round" stroke-linejoin="round" stroke-miterlimit="10" stroke-width="0.85"/>
          <line id="Línea_685" data-name="Línea 685" x2="0.297" y2="3.147" transform="translate(113.546 92.621)" fill="none" stroke="#ab6453" stroke-linecap="round" stroke-linejoin="round" stroke-miterlimit="10" stroke-width="0.85"/>
          <line id="Línea_686" data-name="Línea 686" x1="0.366" y2="2.531" transform="translate(117.231 93.092)" fill="none" stroke="#ab6453" stroke-linecap="round" stroke-linejoin="round" stroke-miterlimit="10" stroke-width="0.85"/>
          <path id="Trazado_1239701" data-name="Trazado 1239701" d="M253.451,204.12c-1.407-.058-2.84,1.995-2.84,1.995l-1.126-.819a3.527,3.527,0,0,0,.321-2.991,4.382,4.382,0,0,1,1.258-4.536c-4.483.484-11.747-1.477-12.645-4.715s9.477-7.209,10.1-3.011c4.012-.436,6.571,3.23,6.225,5.651C259.169,198.32,255.895,204.109,253.451,204.12Z" transform="translate(-101.13 -65.464)" fill="#762f0e"/>
          <path id="Trazado_1239702" data-name="Trazado 1239702" d="M247.185,202.687a2.9,2.9,0,0,1,.666,1.033" transform="translate(-102.605 -67.882)" fill="none" stroke="#762f0e" stroke-linecap="round" stroke-linejoin="round" stroke-miterlimit="10" stroke-width="0.85"/>
          <path id="Trazado_1239703" data-name="Trazado 1239703" d="M239.928,199.823a2.1,2.1,0,0,1,1.38,0" transform="translate(-101.391 -67.382)" fill="none" stroke="#762f0e" stroke-linecap="round" stroke-linejoin="round" stroke-miterlimit="10" stroke-width="0.85"/>
          <path id="Trazado_1239704" data-name="Trazado 1239704" d="M164.086,200.446c-.939,1.452-3.015,1.038-3.222,2.214s-2.421.83-2.421,2.006" transform="translate(-87.769 -67.507)" fill="none" stroke="#4d170c" stroke-linecap="round" stroke-linejoin="round" stroke-miterlimit="10" stroke-width="0.85"/>
          <path id="Trazado_1239705" data-name="Trazado 1239705" d="M160.056,198.37c-1.715.276-2.614.069-2.822,1.729s-4.812,2.352-4.342,3.735-1.814,2.214-1.676,3.043" transform="translate(-86.559 -67.16)" fill="none" stroke="#4d170c" stroke-linecap="round" stroke-linejoin="round" stroke-miterlimit="10" stroke-width="0.85"/>
          <path id="Trazado_1239706" data-name="Trazado 1239706" d="M152.451,201.037c-1.868,1.606-2.608,1.9-2.341,3.131s-2.2,2.608-1.76,3.628-1.986,3.232-1.156,4.162" transform="translate(-85.859 -67.606)" fill="none" stroke="#4d170c" stroke-linecap="round" stroke-linejoin="round" stroke-miterlimit="10" stroke-width="0.85"/>
          <path id="Trazado_1239707" data-name="Trazado 1239707" d="M148.06,216.144c.917,1.383-2.3,3.639-1.385,4.345" transform="translate(-85.773 -70.131)" fill="none" stroke="#4d170c" stroke-linecap="round" stroke-linejoin="round" stroke-miterlimit="10" stroke-width="0.85"/>
          <path id="Trazado_1239708" data-name="Trazado 1239708" d="M244.6,190.3c-2.1.622-3.365,3.251,0,4.081" transform="translate(-101.826 -65.81)" fill="none" stroke="#4d170c" stroke-linecap="round" stroke-linejoin="round" stroke-miterlimit="10" stroke-width="0.85"/>
          <path id="Trazado_1239709" data-name="Trazado 1239709" d="M245.019,193.036s3.435,0,4.749,1.315" transform="translate(-102.243 -66.268)" fill="none" stroke="#4d170c" stroke-linecap="round" stroke-linejoin="round" stroke-miterlimit="10" stroke-width="0.85"/>
          <path id="Trazado_1239710" data-name="Trazado 1239710" d="M250.389,192.124s3.061.888,3.743,3.176" transform="translate(-103.14 -66.116)" fill="none" stroke="#4d170c" stroke-linecap="round" stroke-linejoin="round" stroke-miterlimit="10" stroke-width="0.85"/>
          <path id="Trazado_1239711" data-name="Trazado 1239711" d="M248.532,196.36a9.445,9.445,0,0,0,4.451,1.038" transform="translate(-102.83 -66.824)" fill="none" stroke="#4d170c" stroke-linecap="round" stroke-linejoin="round" stroke-miterlimit="10" stroke-width="0.85"/>
          <path id="Trazado_1239712" data-name="Trazado 1239712" d="M255.47,198.965s-1.159,2.138-.614,3.615" transform="translate(-103.863 -67.259)" fill="none" stroke="#4d170c" stroke-linecap="round" stroke-linejoin="round" stroke-miterlimit="10" stroke-width="0.85"/>
          <path id="Trazado_1239713" data-name="Trazado 1239713" d="M256.659,201.136s.138,2.172-.623,3.144" transform="translate(-104.085 -67.622)" fill="none" stroke="#4d170c" stroke-linecap="round" stroke-linejoin="round" stroke-miterlimit="10" stroke-width="0.85"/>
          <path id="Trazado_1239714" data-name="Trazado 1239714" d="M258.108,199.848a14.749,14.749,0,0,1-.442,4.915" transform="translate(-104.357 -67.407)" fill="none" stroke="#4d170c" stroke-linecap="round" stroke-linejoin="round" stroke-miterlimit="10" stroke-width="0.85"/>
          <path id="Trazado_1239715" data-name="Trazado 1239715" d="M331.509,207.255c-.406-1.01.022-2.1,1.059-.857" transform="translate(-116.677 -68.409)" fill="none" stroke="#762f0e" stroke-linecap="round" stroke-linejoin="round" stroke-miterlimit="10" stroke-width="0.85"/>
          <path id="Trazado_1239716" data-name="Trazado 1239716" d="M331.912,209.608s1.063.634,1.677.056" transform="translate(-116.77 -69.039)" fill="none" stroke="#762f0e" stroke-linecap="round" stroke-linejoin="round" stroke-miterlimit="10" stroke-width="0.85"/>
          <path id="Trazado_1239717" data-name="Trazado 1239717" d="M331.51,216.01c2.792.855,5.218.627,6.512-.481" transform="translate(-116.702 -70.028)" fill="none" stroke="#762f0e" stroke-linecap="round" stroke-linejoin="round" stroke-miterlimit="10" stroke-width="0.85"/>
          <line id="Línea_687" data-name="Línea 687" x1="0.225" y2="1.46" transform="translate(214.356 151.913)" fill="none" stroke="#762f0e" stroke-linecap="round" stroke-linejoin="round" stroke-miterlimit="10" stroke-width="0.85"/>
          <line id="Línea_688" data-name="Línea 688" y2="1.231" transform="translate(224.067 152.365)" fill="none" stroke="#762f0e" stroke-linecap="round" stroke-linejoin="round" stroke-miterlimit="10" stroke-width="0.85"/>
          <path id="Trazado_1239718" data-name="Trazado 1239718" d="M330.887,201.128s1.26-.458,1.73.465" transform="translate(-116.598 -67.602)" fill="none" stroke="#4d170c" stroke-linecap="round" stroke-linejoin="round" stroke-miterlimit="10" stroke-width="0.85"/>
          <path id="Trazado_1239719" data-name="Trazado 1239719" d="M337.689,204.054s1.417.063,1.408.751" transform="translate(-117.736 -68.11)" fill="none" stroke="#4d170c" stroke-linecap="round" stroke-linejoin="round" stroke-miterlimit="10" stroke-width="0.85"/>
          <line id="Línea_689" data-name="Línea 689" x2="3.669" y2="1.028" transform="translate(284.209 221.139)" fill="none" stroke="#762f0e" stroke-linecap="round" stroke-linejoin="round" stroke-miterlimit="10" stroke-width="0.85"/>
          <line id="Línea_690" data-name="Línea 690" x2="4.817" y2="1.048" transform="translate(285.027 217.906)" fill="none" stroke="#762f0e" stroke-linecap="round" stroke-linejoin="round" stroke-miterlimit="10" stroke-width="0.85"/>
          <line id="Línea_691" data-name="Línea 691" x2="4.693" y2="0.545" transform="translate(286.74 215.34)" fill="none" stroke="#762f0e" stroke-linecap="round" stroke-linejoin="round" stroke-miterlimit="10" stroke-width="0.85"/>
          <path id="Trazado_1239720" data-name="Trazado 1239720" d="M335.3,195.64s.665,2.485,4.322,2.861" transform="translate(-117.337 -66.703)" fill="none" stroke="#381109" stroke-linecap="round" stroke-linejoin="round" stroke-miterlimit="10" stroke-width="0.85"/>
          <path id="Trazado_1239721" data-name="Trazado 1239721" d="M335.891,192.437s.9,3.462,5.437,4.369" transform="translate(-117.435 -66.168)" fill="none" stroke="#381109" stroke-linecap="round" stroke-linejoin="round" stroke-miterlimit="10" stroke-width="0.85"/>
          <path id="Trazado_1239722" data-name="Trazado 1239722" d="M339.766,192.366a5.416,5.416,0,0,0,4.516,3.645" transform="translate(-118.083 -66.156)" fill="none" stroke="#381109" stroke-linecap="round" stroke-linejoin="round" stroke-miterlimit="10" stroke-width="0.85"/>
          <path id="Trazado_1239723" data-name="Trazado 1239723" d="M345.9,200.1a6.379,6.379,0,0,0,.456,3.774" transform="translate(-119.091 -67.449)" fill="none" stroke="#381109" stroke-linecap="round" stroke-linejoin="round" stroke-miterlimit="10" stroke-width="0.85"/>
          <path id="Trazado_1239724" data-name="Trazado 1239724" d="M347.936,197.957s1.643,4.009.037,6.74" transform="translate(-119.449 -67.091)" fill="none" stroke="#381109" stroke-linecap="round" stroke-linejoin="round" stroke-miterlimit="10" stroke-width="0.85"/>
          <path id="Trazado_1239725" data-name="Trazado 1239725" d="M351.592,199.4c.432.521.7,3.822-.5,6.026s.993,6.341-.225,9.224" transform="translate(-119.913 -67.332)" fill="none" stroke="#381109" stroke-linecap="round" stroke-linejoin="round" stroke-miterlimit="10" stroke-width="0.85"/>
          <path id="Trazado_1239726" data-name="Trazado 1239726" d="M348.188,215.281s-1.823,2.729.41,4.267" transform="translate(-119.374 -69.987)" fill="none" stroke="#381109" stroke-linecap="round" stroke-linejoin="round" stroke-miterlimit="10" stroke-width="0.85"/>
          <path id="Trazado_1239727" data-name="Trazado 1239727" d="M155.011,382.994c6.277-21.9,5.731-19.8,6.947-24.367s2.827-38.1,2.827-38.1l3.158-3.689" transform="translate(-87.195 -86.966)" fill="none" stroke="#495aab" stroke-linecap="round" stroke-linejoin="round" stroke-miterlimit="10" stroke-width="0.85"/>
          <path id="Trazado_1239728" data-name="Trazado 1239728" d="M113.308,407.806s9.7,8.942,28.509,9.57" transform="translate(-80.223 -102.174)" fill="none" stroke="#495aab" stroke-linecap="round" stroke-linejoin="round" stroke-miterlimit="10" stroke-width="0.85"/>
          <path id="Trazado_1239729" data-name="Trazado 1239729" d="M155.011,414.946s19.5,2.785,30.614-1.394" transform="translate(-87.195 -103.135)" fill="none" stroke="#495aab" stroke-linecap="round" stroke-linejoin="round" stroke-miterlimit="10" stroke-width="0.85"/>
          <path id="Trazado_1239730" data-name="Trazado 1239730" d="M134.155,295.137c15.2,5.9,30.9,3.325,36.514,0" transform="translate(-83.708 -83.338)" fill="none" stroke="#495aab" stroke-linecap="round" stroke-linejoin="round" stroke-miterlimit="10" stroke-width="0.85"/>
          <path id="Trazado_1239731" data-name="Trazado 1239731" d="M149.539,299.616s1.905,9.178-3.7,14.343" transform="translate(-85.662 -84.086)" fill="none" stroke="#495aab" stroke-linecap="round" stroke-linejoin="round" stroke-miterlimit="10" stroke-width="0.85"/>
          <path id="Trazado_1239732" data-name="Trazado 1239732" d="M173.864,297.253s.623,6.155,4.1,9.139" transform="translate(-90.347 -83.691)" fill="none" stroke="#495aab" stroke-linecap="round" stroke-linejoin="round" stroke-miterlimit="10" stroke-width="0.85"/>
          <path id="Trazado_1239733" data-name="Trazado 1239733" d="M120.981,226.939s8.915-3.117,12.448-11.928" transform="translate(-81.506 -69.942)" fill="none" stroke="#5f823c" stroke-linecap="round" stroke-linejoin="round" stroke-miterlimit="10" stroke-width="0.85"/>
          <path id="Trazado_1239734" data-name="Trazado 1239734" d="M145.082,225.128c3.115,3.442,5.536,15.221,14.558,16.078s7.236-10.474,7.236-10.474" transform="translate(-85.535 -71.633)" fill="none" stroke="#5f823c" stroke-linecap="round" stroke-linejoin="round" stroke-miterlimit="10" stroke-width="0.85"/>
          <path id="Trazado_1239735" data-name="Trazado 1239735" d="M176.328,240.96s1.735,6.656,4.142,8.385" transform="translate(-90.759 -74.28)" fill="none" stroke="#5f823c" stroke-linecap="round" stroke-linejoin="round" stroke-miterlimit="10" stroke-width="0.85"/>
          <line id="Línea_692" data-name="Línea 692" y1="3.563" x2="3.89" transform="translate(88.492 170.167)" fill="none" stroke="#5f823c" stroke-linecap="round" stroke-linejoin="round" stroke-miterlimit="10" stroke-width="0.85"/>
          <path id="Trazado_1239736" data-name="Trazado 1239736" d="M150.281,259.915c3.34,4.427,11.487,3.813,13.016.662" transform="translate(-86.404 -77.449)" fill="none" stroke="#5f823c" stroke-linecap="round" stroke-linejoin="round" stroke-miterlimit="10" stroke-width="0.85"/>
          <path id="Trazado_1239737" data-name="Trazado 1239737" d="M192.309,177.921s9.247,6.56,20.335,6.566" transform="translate(-93.43 -63.741)" fill="none" stroke="#ab3a15" stroke-linecap="round" stroke-linejoin="round" stroke-miterlimit="10" stroke-width="0.85"/>
          <path id="Trazado_1239738" data-name="Trazado 1239738" d="M224.065,216.361c-1.718,5.686,3.553,14.647,15.928,16.322s20.824-7.066,20.824-7.066" transform="translate(-98.687 -70.168)" fill="none" stroke="#ab3a15" stroke-linecap="round" stroke-linejoin="round" stroke-miterlimit="10" stroke-width="0.85"/>
          <line id="Línea_693" data-name="Línea 693" x2="0.182" y2="11.594" transform="translate(117.62 166.003)" fill="none" stroke="#ab3a15" stroke-linecap="round" stroke-linejoin="round" stroke-miterlimit="10" stroke-width="0.85"/>
          <line id="Línea_694" data-name="Línea 694" y1="17.738" x2="1.369" transform="translate(170.706 178.317)" fill="none" stroke="#ab3a15" stroke-linecap="round" stroke-linejoin="round" stroke-miterlimit="10" stroke-width="0.85"/>
          <line id="Línea_695" data-name="Línea 695" x2="3.136" y2="3.314" transform="translate(191.496 187.872)" fill="none" stroke="#ab3a15" stroke-linecap="round" stroke-linejoin="round" stroke-miterlimit="10" stroke-width="0.85"/>
          <path id="Trazado_1239739" data-name="Trazado 1239739" d="M216.86,289.484s24.576,7.969,50.121,2.184" transform="translate(-97.535 -82.393)" fill="none" stroke="#ab3a15" stroke-linecap="round" stroke-linejoin="round" stroke-miterlimit="10" stroke-width="0.85"/>
          <path id="Trazado_1239740" data-name="Trazado 1239740" d="M220.613,296.894s15.815,6.266,43.306,2.807" transform="translate(-98.162 -83.631)" fill="none" stroke="#21262b" stroke-linecap="round" stroke-linejoin="round" stroke-miterlimit="10" stroke-width="0.85"/>
          <path id="Trazado_1239741" data-name="Trazado 1239741" d="M245.742,331.7l-.837-7.1-4.566-3.735" transform="translate(-101.46 -87.639)" fill="none" stroke="#21262b" stroke-linecap="round" stroke-linejoin="round" stroke-miterlimit="10" stroke-width="0.85"/>
          <path id="Trazado_1239742" data-name="Trazado 1239742" d="M211.593,409.7s9.568,1.283,23.313-1.152" transform="translate(-96.654 -102.299)" fill="none" stroke="#21262b" stroke-linecap="round" stroke-linejoin="round" stroke-miterlimit="10" stroke-width="0.85"/>
          <path id="Trazado_1239743" data-name="Trazado 1239743" d="M256.823,410.517s16.26.671,24.231-3.989" transform="translate(-104.216 -101.96)" fill="none" stroke="#21262b" stroke-linecap="round" stroke-linejoin="round" stroke-miterlimit="10" stroke-width="0.85"/>
          <path id="Trazado_1239744" data-name="Trazado 1239744" d="M340.743,379.462s-3.676-15.158-6.71-23.741,1.512-33.194,1.512-33.194l-4.192-3.689" transform="translate(-116.676 -87.3)" fill="none" stroke="#5f823c" stroke-linecap="round" stroke-linejoin="round" stroke-miterlimit="10" stroke-width="0.85"/>
          <path id="Trazado_1239745" data-name="Trazado 1239745" d="M286.167,61.614c7.742,24.493,7.286,35.05-3.188,31.46S267.04,90.33,267.04,101.31H246.774V43.245c13.89,0,15.256,12.457,10.7,16.68C253.377,63.726,255.883,70.694,286.167,61.614Z" transform="translate(-102.536 -41.225)" fill="#f1c754"/>
          <path id="Trazado_1239746" data-name="Trazado 1239746" d="M286.167,152.661c7.742-24.493,7.286-35.05-3.188-31.46s-15.939,2.745-15.939-8.235H246.774v58.065c13.89,0,15.256-12.457,10.7-16.68C253.377,150.55,255.883,143.583,286.167,152.661Z" transform="translate(-102.536 -52.882)" fill="#f1c754"/>
          <path id="Trazado_1239747" data-name="Trazado 1239747" d="M198.408,152.661c-7.742-24.493-7.286-35.05,3.188-31.46s15.939,2.745,15.939-8.235H237.8v58.065c-13.89,0-15.256-12.457-10.7-16.68C231.2,150.55,228.693,143.583,198.408,152.661Z" transform="translate(-93.563 -52.882)" fill="#f1c754"/>
          <path id="Trazado_1239748" data-name="Trazado 1239748" d="M198.408,61.614c-7.742,24.493-7.286,35.05,3.188,31.46s15.939-2.745,15.939,8.235H237.8V43.245c-13.89,0-15.256,12.457-10.7,16.68C231.2,63.726,228.693,70.694,198.408,61.614Z" transform="translate(-93.563 -41.225)" fill="#f1c754"/>
          <path id="Trazado_1239749" data-name="Trazado 1239749" d="M93.391,64.6c26.414-7.742,37.8-7.286,33.928,3.188s-2.96,15.939,8.88,15.939v20.266H73.581c0-13.89,13.435-15.256,17.989-10.7C95.668,97.39,103.183,94.885,93.391,64.6Z" transform="translate(-73.581 -43.909)" fill="#dd5325"/>
          <path id="Trazado_1239750" data-name="Trazado 1239750" d="M191.579,64.6c-26.414-7.742-37.8-7.286-33.928,3.188s2.96,15.939-8.88,15.939v20.266H211.39c0-13.89-13.435-15.256-17.989-10.7C189.3,97.39,181.788,94.885,191.579,64.6Z" transform="translate(-86.152 -43.909)" fill="#dd5325"/>
          <path id="Trazado_1239751" data-name="Trazado 1239751" d="M191.579,152.359c-26.414,7.742-37.8,7.286-33.928-3.188s2.96-15.939-8.88-15.939V112.966H211.39c0,13.89-13.435,15.256-17.989,10.7C189.3,119.57,181.788,122.075,191.579,152.359Z" transform="translate(-86.152 -52.882)" fill="#dd5325"/>
          <path id="Trazado_1239752" data-name="Trazado 1239752" d="M93.391,152.359c26.414,7.742,37.8,7.286,33.928-3.188s-2.96-15.939,8.88-15.939V112.966H73.581c0,13.89,13.435,15.256,17.989,10.7C95.668,119.57,103.183,122.075,93.391,152.359Z" transform="translate(-73.581 -52.882)" fill="#dd5325"/>
          <path id="Trazado_1239753" data-name="Trazado 1239753" d="M288.337,64.6c26.414-7.742,37.8-7.286,33.928,3.188s-2.96,15.939,8.88,15.939v20.266H268.527c0-13.89,13.435-15.256,17.989-10.7C290.614,97.39,298.129,94.885,288.337,64.6Z" transform="translate(-106.173 -43.909)" fill="#6073c9"/>
          <path id="Trazado_1239754" data-name="Trazado 1239754" d="M386.524,64.6c-26.414-7.742-37.8-7.286-33.928,3.188s2.96,15.939-8.88,15.939v20.266h62.619c0-13.89-13.435-15.256-17.989-10.7C384.248,97.39,376.733,94.885,386.524,64.6Z" transform="translate(-118.743 -43.909)" fill="#6073c9"/>
          <path id="Trazado_1239755" data-name="Trazado 1239755" d="M386.524,152.359c-26.414,7.742-37.8,7.286-33.928-3.188s2.96-15.939-8.88-15.939V112.966h62.619c0,13.89-13.435,15.256-17.989,10.7C384.248,119.57,376.733,122.075,386.524,152.359Z" transform="translate(-118.743 -52.882)" fill="#6073c9"/>
          <path id="Trazado_1239756" data-name="Trazado 1239756" d="M288.337,152.359c26.414,7.742,37.8,7.286,33.928-3.188s-2.96-15.939,8.88-15.939V112.966H268.527c0,13.89,13.435,15.256,17.989,10.7C290.614,119.57,298.129,122.075,288.337,152.359Z" transform="translate(-106.173 -52.882)" fill="#6073c9"/>
          <path id="Trazado_1239757" data-name="Trazado 1239757" d="M110.489,169.227c-1.2-2.813-.415-4.012,1.666-4.982-1.02-8.053,3.5-6.233,2.991,1.112" transform="translate(-79.657 -60.574)" fill="#e9a493"/>
          <path id="Trazado_1239758" data-name="Trazado 1239758" d="M112.154,165.3c-2.08.969-2.865,2.169-1.666,4.982" transform="translate(-79.657 -61.631)" fill="none" stroke="#ab6453" stroke-linecap="round" stroke-linejoin="round" stroke-miterlimit="10" stroke-width="0.85"/>
          <path id="Trazado_1239759" data-name="Trazado 1239759" d="M213.008,161.685c-.49-4.534,4.759-5.641,4.759-5.641,1.627-7.093,5.291-4.607,3.644,2.359" transform="translate(-96.885 -59.374)" fill="#e9a493"/>
          <path id="Trazado_1239760" data-name="Trazado 1239760" d="M213.008,162.537c-.49-4.534,4.759-5.641,4.759-5.641" transform="translate(-96.885 -60.226)" fill="#e9a493" stroke="#ab6453" stroke-linecap="round" stroke-linejoin="round" stroke-miterlimit="10" stroke-width="0.85"/>
          <path id="Trazado_1239761" data-name="Trazado 1239761" d="M310.105,166.6c2.21-5.548.182-9.238-1.018-9.053s-2.306,1.932-1.706,5.186c-2.9.948-3.6,2.1-3.182,5.882" transform="translate(-112.118 -60.334)" fill="#ac4946"/>
          <path id="Trazado_1239762" data-name="Trazado 1239762" d="M307.241,163.829s-3.626-.067-2.98,4.452" transform="translate(-112.134 -61.385)" fill="none" stroke="#762f0e" stroke-linecap="round" stroke-linejoin="round" stroke-miterlimit="10" stroke-width="0.85"/>
        </g>
      </g>
    </g>
  </g>
</svg>
