<svg xmlns="http://www.w3.org/2000/svg" xmlns:xlink="http://www.w3.org/1999/xlink" width="106.16" height="106.16" viewBox="0 0 106.16 106.16">
  <defs>
    <filter id="Trazado_982547" x="0" y="0" width="106.16" height="106.16" filterUnits="userSpaceOnUse">
      <feOffset dy="3" input="SourceAlpha"/>
      <feGaussianBlur stdDeviation="3" result="blur"/>
      <feFlood flood-opacity="0.161"/>
      <feComposite operator="in" in2="blur"/>
      <feComposite in="SourceGraphic"/>
    </filter>
  </defs>
  <g id="Grupo_1234988" data-name="Grupo 1234988" transform="translate(-189.17 -3117.593)">
    <g id="Grupo_1233884" data-name="Grupo 1233884" transform="translate(198.17 3123.593)">
      <g id="Grupo_1228506" data-name="Grupo 1228506" transform="translate(0 0)">
        <g id="Grupo_1206132" data-name="Grupo 1206132">
          <g id="Grupo_1203794" data-name="Grupo 1203794">
            <g id="Grupo_1203345" data-name="Grupo 1203345" transform="translate(0 0)">
              <g id="Grupo_1177900" data-name="Grupo 1177900">
                <g id="Grupo_1172010" data-name="Grupo 1172010" transform="translate(0)">
                  <g id="Grupo_1171046" data-name="Grupo 1171046">
                    <g id="Grupo_1148525" data-name="Grupo 1148525">
                      <g transform="matrix(1, 0, 0, 1, -9, -6)" filter="url(#Trazado_982547)">
                        <g id="Trazado_982547-2" data-name="Trazado 982547" transform="translate(9 6)" fill="#e9f9fd">
                          <path d="M 44.0802001953125 86.660400390625 C 38.33124923706055 86.660400390625 32.75506210327148 85.53479766845703 27.50652503967285 83.31484985351562 C 22.43628692626953 81.17032623291016 17.88242530822754 78.09992218017578 13.97144985198975 74.18894958496094 C 10.06047534942627 70.27797698974609 6.99007511138916 65.72411346435547 4.845550060272217 60.65387344360352 C 2.625600099563599 55.40533828735352 1.500000238418579 49.82915115356445 1.500000238418579 44.0802001953125 C 1.500000238418579 38.33124923706055 2.625600099563599 32.75506210327148 4.845550060272217 27.50652503967285 C 6.99007511138916 22.43628692626953 10.06047534942627 17.88242530822754 13.97144985198975 13.97144985198975 C 17.88242530822754 10.06047534942627 22.43628692626953 6.99007511138916 27.50652503967285 4.845550060272217 C 32.75506210327148 2.625600099563599 38.33124923706055 1.500000238418579 44.0802001953125 1.500000238418579 C 49.82915115356445 1.500000238418579 55.40533828735352 2.625600099563599 60.65387344360352 4.845550060272217 C 65.72411346435547 6.99007511138916 70.27797698974609 10.06047534942627 74.18894958496094 13.97144985198975 C 78.09992218017578 17.88242530822754 81.17032623291016 22.43628692626953 83.31484985351562 27.50652503967285 C 85.53479766845703 32.75506210327148 86.660400390625 38.33124923706055 86.660400390625 44.0802001953125 C 86.660400390625 49.82915115356445 85.53479766845703 55.40533828735352 83.31484985351562 60.65387344360352 C 81.17032623291016 65.72411346435547 78.09992218017578 70.27797698974609 74.18894958496094 74.18894958496094 C 70.27797698974609 78.09992218017578 65.72411346435547 81.17032623291016 60.65387344360352 83.31484985351562 C 55.40533828735352 85.53479766845703 49.82915115356445 86.660400390625 44.0802001953125 86.660400390625 Z" stroke="none"/>
                          <path d="M 44.0802001953125 3 C 38.53308486938477 3 33.15349960327148 4.085746765136719 28.09085845947266 6.227058410644531 C 23.19941711425781 8.29595947265625 18.80581665039062 11.25841522216797 15.03211212158203 15.03211212158203 C 11.25841522216797 18.80581665039062 8.29595947265625 23.19941711425781 6.227058410644531 28.09085845947266 C 4.085746765136719 33.15349960327148 3 38.53308486938477 3 44.0802001953125 C 3 49.62731552124023 4.085746765136719 55.00691604614258 6.227058410644531 60.06954193115234 C 8.29595947265625 64.96098327636719 11.25841522216797 69.35458374023438 15.03211212158203 73.12828826904297 C 18.80581665039062 76.90198516845703 23.19941711425781 79.86444091796875 28.09085845947266 81.93334197998047 C 33.15349960327148 84.07466125488281 38.53308486938477 85.160400390625 44.0802001953125 85.160400390625 C 49.62731552124023 85.160400390625 55.00691604614258 84.07466125488281 60.06954193115234 81.93334197998047 C 64.96099853515625 79.86444091796875 69.35458374023438 76.90198516845703 73.12828826904297 73.12828826904297 C 76.90198516845703 69.35458374023438 79.86444091796875 64.96099853515625 81.93334197998047 60.06954193115234 C 84.07466125488281 55.00691604614258 85.160400390625 49.62731552124023 85.160400390625 44.0802001953125 C 85.160400390625 38.53308486938477 84.07466125488281 33.15349960327148 81.93334197998047 28.09085845947266 C 79.86444091796875 23.19941711425781 76.90198516845703 18.80581665039062 73.12828826904297 15.03211212158203 C 69.35458374023438 11.25841522216797 64.96098327636719 8.29595947265625 60.06954193115234 6.227058410644531 C 55.00691604614258 4.085746765136719 49.62731552124023 3 44.0802001953125 3 M 44.0802001953125 0 C 68.42502593994141 0 88.160400390625 19.73538970947266 88.160400390625 44.0802001953125 C 88.160400390625 68.42502593994141 68.42502593994141 88.160400390625 44.0802001953125 88.160400390625 C 19.73538970947266 88.160400390625 0 68.42502593994141 0 44.0802001953125 C 0 19.73538970947266 19.73538970947266 0 44.0802001953125 0 Z" stroke="none" fill="#1d7083"/>
                        </g>
                      </g>
                    </g>
                  </g>
                </g>
              </g>
            </g>
          </g>
        </g>
      </g>
    </g>
    <g id="layer1" transform="translate(212.172 3139.657)">
      <path id="path6238" d="M8.724,10.6.711,7.553l.983-3.571L.265.265,6.772,3.392,5.453,6.4Z" transform="translate(0.675 0.675)" fill="#ffca28"/>
      <path id="circle6231" d="M24.244,17.017a5.64,5.64,0,1,1-5.64-5.64A5.64,5.64,0,0,1,24.244,17.017Z" transform="translate(33.092 29.04)" fill="#e4eff8"/>
      <path id="circle6235" d="M18.6,11.377a5.634,5.634,0,0,0-2.934,10.448,5.63,5.63,0,0,1,7.747-7.736A5.64,5.64,0,0,0,18.6,11.377Z" transform="translate(33.092 29.04)" fill="#c4dcf0"/>
      <path id="path6204" d="M12.379,16.41c1.214,2.99-1.355,2.355.916,4.655s1.676-.268,4.657.991.714,2.619,3.952,2.647.995-1.37,4-2.579,2.364,1.349,4.674-.912-.27-1.669,1-4.638,2.63-.711,2.657-4.089c-.028-3.378-1.393-1.12-2.657-4.089s1.314-2.377-1-4.638-1.671.3-4.674-.912S25.143.237,21.9.265s-.971,1.387-3.952,2.647S15.565,1.6,13.3,3.9s.3,1.664-.916,4.655-2.617.756-2.589,3.926c-.028,3.171,1.376.936,2.589,3.926Z" transform="translate(24.988 0.675)" fill="#549ad4"/>
      <g id="Grupo_1234987" data-name="Grupo 1234987" transform="translate(34.777 0.939)">
        <path id="path6219" d="M9.8,3.677c0,.039-.006.057-.006.1-.028,3.171,1.377.936,2.59,3.927s-1.356,2.354.914,4.654c2.082,2.109,1.764.134,3.993.76A17.937,17.937,0,0,0,9.8,3.677Z" transform="translate(-9.789 8.445)" fill="#3588cb"/>
        <path id="path6217" d="M14.189.265a4.33,4.33,0,0,0-1.377.174c1.056.406.209,1.461,2.554,2.4a2.973,2.973,0,0,0,2.812,0c-2.987-1.208-.754-2.6-3.989-2.576Z" transform="translate(-2.074 -0.264)" fill="#3588cb"/>
        <path id="path6215" d="M16.659.976c-.589-.046-.936.5-2.007.376a6.337,6.337,0,0,1,.688.595c2.309,2.261-.27,1.668,1,4.637s2.631.712,2.658,4.09c-.028,3.378-1.393,1.121-2.658,4.09s1.314,2.376-1,4.637a6.337,6.337,0,0,1-.688.595c1.7-.2,1.562,1.311,3.508-.595,2.309-2.261-.27-1.668,1-4.637s2.631-.712,2.658-4.09c-.028-3.378-1.393-1.121-2.658-4.09s1.314-2.376-1-4.637c-.722-.707-1.155-.944-1.5-.971Z" transform="translate(2.624 1.545)" fill="#3588cb"/>
        <path id="path6209" d="M16.715,6.325a4.247,4.247,0,0,0-1.349.34c-2.345.944-1.5,2-2.554,2.4a4.33,4.33,0,0,0,1.377.174c3.235.027,1-1.368,3.989-2.576a3.351,3.351,0,0,0-1.463-.343Z" transform="translate(-2.074 15.195)" fill="#3588cb"/>
      </g>
      <path id="path6166" d="M21.883,44l-4.637,1.88-9.462-.94-2.945-13.1L.265,30.464,4.838,20.82a17.922,17.922,0,0,1,35.843,0c0,10.2,0,22.355,0,30.966H15.3l-.94-5.9Z" transform="translate(0.675 7.429)" fill="#ffd1b5"/>
      <path id="path6168" d="M29.481,4.174c9.568,30.494-17.523,35.107-27.21,35.795l.393,1.748,7.4.734-.819.206.94,5.9H35.561V17.594a17.845,17.845,0,0,0-6.08-13.42Z" transform="translate(5.796 10.655)" fill="#ffb98d"/>
      <path id="path6174" d="M5.638,22.523c1.4,3.45-1.563,2.717,1.056,5.371s1.934-.31,5.374,1.144.824,3.022,4.56,3.054,1.148-1.581,4.612-2.976,2.728,1.557,5.393-1.052-.311-1.926,1.148-5.352,3.034-.82,3.066-4.718c-.032-3.9-1.607-1.292-3.066-4.718s1.516-2.743-1.148-5.352S24.7,8.265,21.24,6.871s-.875-3.008-4.612-2.976-1.12,1.6-4.56,3.054S9.314,5.438,6.694,8.092s.344,1.92-1.056,5.371-3.02.872-2.988,4.53c-.032,3.658,1.587,1.08,2.988,4.53Z" transform="translate(6.763 9.94)" fill="#e4eff8"/>
      <path id="path6202" d="M19.537,13.34a7.519,7.519,0,1,1-7.519-7.519A7.519,7.519,0,0,1,19.537,13.34Z" transform="translate(11.481 14.858)" fill="#549ad4"/>
      <path id="path6185" d="M7.562,3.895a6.025,6.025,0,0,0-1.36.134c1.522.411.3,1.7,3.139,2.842a3.226,3.226,0,0,0,3.016.066c-.063-.024-.117-.039-.184-.066C8.709,5.476,11.3,3.863,7.562,3.895Z" transform="translate(15.83 9.94)" fill="#c4dcf0"/>
      <path id="path6183" d="M10.257,4.716c-.59-.047-.97.424-1.867.455a7.284,7.284,0,0,1,.767.663c2.665,2.609-.31,1.927,1.149,5.353s3.034.82,3.066,4.718c-.032,3.9-1.606,1.292-3.066,4.718s1.515,2.744-1.149,5.353a7.264,7.264,0,0,1-.771.665c1.51.051,1.542,1.354,3.6-.665,2.665-2.609-.31-1.927,1.149-5.353S16.173,19.8,16.2,15.9c-.032-3.9-1.606-1.292-3.066-4.718s1.515-2.744-1.149-5.353c-.833-.815-1.333-1.086-1.733-1.118Z" transform="translate(21.405 12.029)" fill="#c4dcf0"/>
      <path id="path6178" d="M10.9,10.887a4.888,4.888,0,0,0-1.555.391C6.5,12.421,7.724,13.709,6.2,14.12a6.022,6.022,0,0,0,1.36.134c3.737.032,1.147-1.581,4.612-2.976.066-.027.12-.043.184-.066a2.99,2.99,0,0,0-1.461-.325Z" transform="translate(15.83 27.779)" fill="#c4dcf0"/>
      <path id="path6187" d="M16.306,11.121c0,3.76-2.82,4.7-2.82,5.821v2.638a1.876,1.876,0,0,1-1.88,1.88H9.727a1.876,1.876,0,0,1-1.88-1.88V16.943c0-1.122-2.82-2.062-2.82-5.821a5.64,5.64,0,1,1,11.279,0Z" transform="translate(12.832 13.992)" fill="#ffca28"/>
      <path id="path6198" d="M7.965,5.482a5.62,5.62,0,0,0-1.88.329,5.635,5.635,0,0,1,3.76,5.311c0,3.76-2.82,4.7-2.82,5.821v2.638a1.87,1.87,0,0,1-.94,1.621,1.863,1.863,0,0,0,.94.259h1.88a1.876,1.876,0,0,0,1.88-1.88V16.943c0-1.122,2.82-2.062,2.82-5.821a5.64,5.64,0,0,0-5.64-5.64Z" transform="translate(15.533 13.992)" fill="#ecb200"/>
      <path id="path6189" d="M11.46,8.708v2.638a1.876,1.876,0,0,1-1.88,1.88H7.7a1.876,1.876,0,0,1-1.88-1.88V8.708Z" transform="translate(14.858 22.227)" fill="#e4eff8"/>
      <path id="path6191" d="M9.9,8.708a6.159,6.159,0,0,1-3.93,3.936,1.87,1.87,0,0,0,1.357.582H9.2a1.876,1.876,0,0,0,1.88-1.88V8.708Z" transform="translate(15.234 22.227)" fill="#c4dcf0"/>
      <path id="circle6224" d="M22.917,7.755a5.638,5.638,0,1,1-5.638-5.638A5.638,5.638,0,0,1,22.917,7.755Z" transform="translate(29.715 5.405)" fill="#e4eff8"/>
      <path id="circle6228" d="M17.279,2.118a5.633,5.633,0,0,0-2.932,10.446,5.629,5.629,0,0,1,7.743-7.736,5.638,5.638,0,0,0-4.812-2.71Z" transform="translate(29.715 5.405)" fill="#c4dcf0"/>
      <path id="path11361" d="M.063,1.277,1.381,4.706.48,7.979A.94.94,0,0,0,1.055,9.1l8.008,3.053A.94.94,0,0,0,10.145,10.7L7.217,6.94,8.306,4.449a.939.939,0,0,0-.452-1.228L1.347.091A.941.941,0,0,0,.063,1.277ZM33.847.84,33.61,2.7a.941.941,0,0,0,1.867.237l.235-1.867A.939.939,0,0,0,33.847.84ZM58.74,10.1a2.43,2.43,0,0,1-.63-.332A2.71,2.71,0,0,1,57.422,8.7a2.664,2.664,0,0,1-.29-1.228,1.965,1.965,0,0,1,.193-.646A1.993,1.993,0,0,0,57.41,5.4a4.3,4.3,0,0,0-1.186-1.636,4.321,4.321,0,0,0-1.667-1.153,1.953,1.953,0,0,0-1.428.1,1.992,1.992,0,0,1-.646.2,2.69,2.69,0,0,1-1.241-.263,2.67,2.67,0,0,1-1.076-.666,2.018,2.018,0,0,1-.327-.6A1.979,1.979,0,0,0,48.882.319,4.288,4.288,0,0,0,47,0a4.287,4.287,0,0,0-1.885.318,1.979,1.979,0,0,0-.956,1.068,2.022,2.022,0,0,1-.327.6,2.67,2.67,0,0,1-1.076.666,2.666,2.666,0,0,1-1.241.263,1.96,1.96,0,0,1-.646-.2,1.955,1.955,0,0,0-1.428-.1A4.319,4.319,0,0,0,37.77,3.761,4.3,4.3,0,0,0,36.584,5.4a2,2,0,0,0,.085,1.43,2.008,2.008,0,0,1,.193.646,2.68,2.68,0,0,1-.29,1.228,2.713,2.713,0,0,1-.688,1.068,2.427,2.427,0,0,1-.63.332,2.021,2.021,0,0,0-1.07,1,3.761,3.761,0,0,0-.329,1.434A18.866,18.866,0,0,0,4.578,28.014L.091,37.488a.951.951,0,0,0,.576,1.3l4.052,1.223L7.543,52.577a.941.941,0,0,0,.826.729l5.814.576.868,5.481a.939.939,0,0,0,.929.791H41.361a.941.941,0,0,0,.936-.945V28.245a18.8,18.8,0,0,0-.651-4.923,3.094,3.094,0,0,1,.928.273,2.705,2.705,0,0,1,1.068.681,2.038,2.038,0,0,1,.312.6,1.956,1.956,0,0,0,.938,1.083,4.233,4.233,0,0,0,1.99.354,4.515,4.515,0,0,0,2-.319,2,2,0,0,0,.956-1.068,2.022,2.022,0,0,1,.327-.6,2.683,2.683,0,0,1,1.076-.659,2.727,2.727,0,0,1,1.241-.272,1.967,1.967,0,0,1,.646.2,1.986,1.986,0,0,0,1.428.1,4.247,4.247,0,0,0,1.667-1.153,4.216,4.216,0,0,0,1.186-1.637,1.979,1.979,0,0,0-.085-1.428,2,2,0,0,1-.193-.646,2.683,2.683,0,0,1,.29-1.228,2.713,2.713,0,0,1,.688-1.068,2.427,2.427,0,0,1,.63-.332,2.031,2.031,0,0,0,1.07-1,4.62,4.62,0,0,0,.345-2.058A4.623,4.623,0,0,0,59.81,11.1a2.022,2.022,0,0,0-1.07-1ZM48,1.985c.06.028.04,0,.114.158a3.71,3.71,0,0,0,.624,1.076,4.605,4.605,0,0,0,1.8,1.171,4.582,4.582,0,0,0,2.1.4,3.792,3.792,0,0,0,1.2-.334c.094-.043.147-.079.218-.025A3.243,3.243,0,0,1,54.9,5.1a3.143,3.143,0,0,1,.7.848c.021.061.041.021-.025.193a3.773,3.773,0,0,0-.319,1.208A4.531,4.531,0,0,0,55.7,9.435a4.623,4.623,0,0,0,1.2,1.77,3.945,3.945,0,0,0,1.068.611c.145.066.127.05.171.14a3.572,3.572,0,0,1,.141,1.2,3.3,3.3,0,0,1-.152,1.235c-.028.057-.083.066-.16.11a3.944,3.944,0,0,0-1.068.611,4.623,4.623,0,0,0-1.2,1.77,4.56,4.56,0,0,0-.437,2.095,3.723,3.723,0,0,0,.319,1.2c.014.055.057.11.037.171a3.242,3.242,0,0,1-.71.87,3.244,3.244,0,0,1-.883.694c-.064.021-.078-.014-.178-.042a3.77,3.77,0,0,0-1.2-.34,5.491,5.491,0,0,0-3.9,1.568,3.71,3.71,0,0,0-.624,1.076c-.067.168-.071.141-.169.174a3.626,3.626,0,0,1-1.052.088,3.292,3.292,0,0,1-1.131-.138c-.025-.014-.053-.1-.077-.145a3.765,3.765,0,0,0-.609-1.09,5.529,5.529,0,0,0-3.818-1.634c-.077,0-.16.011-.231.021a18.923,18.923,0,0,0-5.271-7.471,6.217,6.217,0,0,1-.042-.824,3.53,3.53,0,0,1,.141-1.2c.044-.089.025-.074.171-.14A3.945,3.945,0,0,0,37.1,11.2a4.623,4.623,0,0,0,1.2-1.77,4.532,4.532,0,0,0,.437-2.087,3.772,3.772,0,0,0-.319-1.208c-.067-.171-.046-.132-.025-.193a3.169,3.169,0,0,1,.7-.848,3.209,3.209,0,0,1,.843-.672c.071-.053.124-.018.218.025a3.8,3.8,0,0,0,1.2.334,4.579,4.579,0,0,0,2.1-.4,4.6,4.6,0,0,0,1.8-1.171,3.71,3.71,0,0,0,.624-1.076c.074-.154.054-.128.114-.158a5.075,5.075,0,0,1,2.014,0ZM29.863,1.951a.94.94,0,0,0-.756,1.533L30.26,4.961A.94.94,0,1,0,31.743,3.81L30.585,2.325a.94.94,0,0,0-.721-.375ZM2.672,2.817,6.224,4.524,5.268,6.7a.94.94,0,0,0,.118.951L6.6,9.207,2.52,7.654l.756-2.748a.935.935,0,0,0-.028-.582ZM26.63,8.137l1.867.231A.94.94,0,0,0,28.725,6.5L26.86,6.274c-.032,0-.062-.007-.141-.01A.94.94,0,0,0,26.63,8.137ZM46.995,6.58a6.58,6.58,0,1,0,6.578,6.583A6.59,6.59,0,0,0,46.995,6.58Zm0,1.885a4.7,4.7,0,1,1-4.7,4.7A4.7,4.7,0,0,1,46.995,8.465Zm-.938,2.814v.94h-.94a.94.94,0,1,0,0,1.88h.94v.94a.94.94,0,1,0,1.88,0V14.1h.94a.94.94,0,1,0,0-1.88h-.94v-.94a.94.94,0,0,0-1.88,0ZM40.417,28.245V58.274H16.785l-.674-4.2,1.72.173a.967.967,0,0,0,.444-.063l4.635-1.88a.94.94,0,1,0-.709-1.742L17.784,52.35,9.229,51.5l-2.8-12.439a.941.941,0,0,0-.646-.694L2.255,37.308l4.108-8.659a.949.949,0,0,0,.09-.4,16.982,16.982,0,0,1,33.964,0ZM21.389,13.512a2.136,2.136,0,0,0-1.034,1.158,2.437,2.437,0,0,1-.4.721,3.277,3.277,0,0,1-1.3.8,3.285,3.285,0,0,1-1.493.327,2.528,2.528,0,0,1-.8-.25,2.158,2.158,0,0,0-1.546-.118,4.782,4.782,0,0,0-1.86,1.3,4.759,4.759,0,0,0-1.333,1.832,2.205,2.205,0,0,0,.09,1.555,2.443,2.443,0,0,1,.237.784,3.19,3.19,0,0,1-.347,1.485,3.249,3.249,0,0,1-.833,1.283,2.93,2.93,0,0,1-.764.409,2.228,2.228,0,0,0-1.166,1.081,5.362,5.362,0,0,0-.382,2.311A5.362,5.362,0,0,0,8.844,30.5a2.182,2.182,0,0,0,1.166,1.081,2.933,2.933,0,0,1,.764.409,3.249,3.249,0,0,1,.833,1.283,3.237,3.237,0,0,1,.347,1.485,2.5,2.5,0,0,1-.237.791,2.107,2.107,0,0,0-.09,1.548,4.824,4.824,0,0,0,1.333,1.832,5,5,0,0,0,1.86,1.3,2.144,2.144,0,0,0,1.546-.118,2.53,2.53,0,0,1,.8-.25,3.3,3.3,0,0,1,1.493.327,3.279,3.279,0,0,1,1.3.8,2.443,2.443,0,0,1,.4.721,2.148,2.148,0,0,0,1.034,1.158,4.606,4.606,0,0,0,2.111.363,4.606,4.606,0,0,0,2.111-.363,2.148,2.148,0,0,0,1.034-1.158,2.438,2.438,0,0,1,.4-.721,3.277,3.277,0,0,1,1.3-.8,3.284,3.284,0,0,1,1.492-.327,2.529,2.529,0,0,1,.8.25,2.144,2.144,0,0,0,1.546.118,5,5,0,0,0,1.86-1.3A4.824,4.824,0,0,0,35.374,37.1a2.107,2.107,0,0,0-.09-1.548,2.48,2.48,0,0,1-.237-.791,3.19,3.19,0,0,1,.347-1.485,3.249,3.249,0,0,1,.833-1.283,2.941,2.941,0,0,1,.764-.409A2.183,2.183,0,0,0,38.157,30.5a5.361,5.361,0,0,0,.382-2.311,5.362,5.362,0,0,0-.382-2.311A2.228,2.228,0,0,0,36.992,24.8a2.934,2.934,0,0,1-.764-.409,3.249,3.249,0,0,1-.833-1.283,3.236,3.236,0,0,1-.347-1.485,2.468,2.468,0,0,1,.237-.784,2.206,2.206,0,0,0,.09-1.555,4.759,4.759,0,0,0-1.333-1.832,4.783,4.783,0,0,0-1.86-1.3,2.158,2.158,0,0,0-1.546.118,2.531,2.531,0,0,1-.8.25,3.294,3.294,0,0,1-1.492-.327,3.279,3.279,0,0,1-1.3-.8,2.442,2.442,0,0,1-.4-.721,2.136,2.136,0,0,0-1.034-1.158,4.617,4.617,0,0,0-2.111-.352,4.621,4.621,0,0,0-2.111.352Zm3.376,1.678c.074.021.1.112.16.237a4.184,4.184,0,0,0,.7,1.206,5.134,5.134,0,0,0,2.012,1.313,5.172,5.172,0,0,0,2.366.45,4.167,4.167,0,0,0,1.338-.382c.142-.058.184-.089.285-.063a3.731,3.731,0,0,1,1.1.841,3.565,3.565,0,0,1,.868,1.081c.032.1-.036.2-.057.279a4.164,4.164,0,0,0-.36,1.346,5.088,5.088,0,0,0,.492,2.344,5.17,5.17,0,0,0,1.347,1.984,4.457,4.457,0,0,0,1.2.687c.181.082.22.109.261.213a3.878,3.878,0,0,1,.184,1.467,3.827,3.827,0,0,1-.195,1.485c-.021.081-.115.133-.25.195a4.462,4.462,0,0,0-1.2.687,5.17,5.17,0,0,0-1.347,1.984,5.089,5.089,0,0,0-.492,2.344,4.168,4.168,0,0,0,.36,1.346c.018.071.091.175.057.279a3.447,3.447,0,0,1-.868,1.081,3.5,3.5,0,0,1-1.1.841c-.094.028-.162-.014-.285-.063A4.174,4.174,0,0,0,30,37.989a5.175,5.175,0,0,0-2.366.45,5.135,5.135,0,0,0-2.012,1.313,4.191,4.191,0,0,0-.7,1.206c-.056.127-.079.19-.16.237a3.334,3.334,0,0,1-1.265.158,3.334,3.334,0,0,1-1.265-.158c-.081-.047-.1-.11-.16-.237a4.183,4.183,0,0,0-.7-1.206,5.134,5.134,0,0,0-2.012-1.313A5.173,5.173,0,0,0,17,37.989a4.167,4.167,0,0,0-1.338.382c-.123.05-.19.092-.285.063a3.517,3.517,0,0,1-1.1-.841,3.45,3.45,0,0,1-.868-1.081c-.036-.1.039-.208.057-.279a4.165,4.165,0,0,0,.36-1.346,5.088,5.088,0,0,0-.492-2.344,5.17,5.17,0,0,0-1.347-1.984,4.456,4.456,0,0,0-1.2-.687c-.135-.061-.228-.113-.25-.195a3.8,3.8,0,0,1-.195-1.485,3.837,3.837,0,0,1,.184-1.467c.041-.1.08-.131.261-.213a4.451,4.451,0,0,0,1.2-.687,5.17,5.17,0,0,0,1.347-1.984,5.089,5.089,0,0,0,.492-2.344,4.169,4.169,0,0,0-.36-1.346c-.021-.077-.09-.18-.057-.279a3.564,3.564,0,0,1,.868-1.081,3.713,3.713,0,0,1,1.1-.841c.1-.028.142,0,.285.063A4.174,4.174,0,0,0,17,18.395a5.171,5.171,0,0,0,2.366-.45,5.134,5.134,0,0,0,2.012-1.313,4.191,4.191,0,0,0,.7-1.206c.055-.125.086-.217.16-.237a3.511,3.511,0,0,1,1.265-.147,3.512,3.512,0,0,1,1.265.147ZM23.5,18.8a6.582,6.582,0,0,0-5.522,3,8.453,8.453,0,0,0,1.983,14.073,2.825,2.825,0,0,0,2.6,1.726h1.876a2.787,2.787,0,0,0,2.6-1.709,8.46,8.46,0,0,0,1.956-14.135A6.53,6.53,0,0,0,23.5,18.8Zm4.7,6.583a4.779,4.779,0,0,1-1.193,3.3c-.314.376-.65.7-.958,1.054-.087.1-.188.227-.272.347H24.437V28.6l.672-.668A.942.942,0,0,0,23.776,26.6l-.277.277-.27-.277A.942.942,0,1,0,21.9,27.933l.661.657v1.487H21.222c-.084-.119-.184-.246-.272-.347-.308-.355-.644-.677-.958-1.054a4.779,4.779,0,0,1-1.193-3.3,4.7,4.7,0,1,1,9.4,0ZM27.266,33.6l0-2.35s-.014-.038.207-.292.587-.612.978-1.081a6.584,6.584,0,0,0,1.494-3.048,6.653,6.653,0,0,1,.074,2.34,6.585,6.585,0,0,1-2.75,4.431Zm-7.738-2.642c.22.254.207.285.207.285v2.346a6.57,6.57,0,0,1-2.669-6.715,6.67,6.67,0,0,0,1.483,3c.391.469.758.827.978,1.081Zm33.488-1.825a.94.94,0,1,0,.229-1.865l-1.867-.237c-.032,0-.062-.007-.14-.01a.94.94,0,0,0-.087,1.875Zm-4.127.931a.94.94,0,0,0-.756,1.533l1.158,1.478a.94.94,0,1,0,1.485-1.151l-1.16-1.485a.941.941,0,0,0-.727-.375ZM44.4,32.471l-.229,1.86a.937.937,0,1,0,1.86.237l.237-1.867a.941.941,0,0,0-1.867-.23Zm-22.784-.512h3.767v2.816a.945.945,0,0,1-.945.944H22.561a.945.945,0,0,1-.945-.944ZM51.7,39.47a6.58,6.58,0,1,0,6.578,6.583A6.59,6.59,0,0,0,51.7,39.47Zm0,1.885a4.7,4.7,0,1,1-4.7,4.7A4.7,4.7,0,0,1,51.7,41.356Zm-1.88,3.76a.94.94,0,1,0,0,1.88h3.76a.94.94,0,1,0,0-1.88Z" transform="translate(0 0)" fill="#333"/>
    </g>
  </g>
</svg>
